<?xml version="1.0" encoding="utf-8"?>
<!-- Generator: Adobe Illustrator 21.0.0, SVG Export Plug-In . SVG Version: 6.00 Build 0)  -->
<svg version="1.1" id="Layer_1" xmlns="http://www.w3.org/2000/svg" xmlns:xlink="http://www.w3.org/1999/xlink" x="0px" y="0px"
	 viewBox="0 0 174 250" style="enable-background:new 0 0 174 250;" xml:space="preserve">
<style type="text/css">
	.st0{fill:url(#SVGID_1_);}
	.st1{fill:url(#SVGID_2_);}
	.st2{fill:url(#SVGID_3_);}
	.st3{fill:url(#SVGID_4_);}
</style>
<g>
	<linearGradient id="SVGID_1_" gradientUnits="userSpaceOnUse" x1="-18.7278" y1="228.5941" x2="133.3986" y2="76.4677">
		<stop  offset="0" style="stop-color:#3F5EFB"/>
		<stop  offset="0.2784" style="stop-color:#7457D3"/>
		<stop  offset="1" style="stop-color:#FC466B"/>
	</linearGradient>
	<path class="st0" d="M46.3,221.8l7.3-7.3c1.1-1.2,1.1-3.1-0.1-4.3c-0.9-0.9-2.1-1.1-3.1-0.7L35.9,224c-1.9,1.9-5,1.9-6.9,0
		c-1.9-1.9-1.9-5,0-6.9l7.1-7.1c0.8-1.2,0.6-2.8-0.4-3.8c-0.8-0.8-2-1.1-3.1-0.7l-7.6,7.6c-1.9,1.9-5,1.9-6.9,0
		c-1.9-1.9-1.9-5,0-6.9l12.3-12.3c2.2-2.4,2.2-6.2-0.2-8.5v0c-2.4-2.4-6.2-2.4-8.6-0.1L9.3,197.4c-1.9,1.9-5,1.9-6.9,0s-1.9-5,0-6.9
		l31.4-31.4c1.9-2.2,1.8-5.6-0.3-7.7c-2.2-2.2-5.6-2.2-7.8-0.1l-6.4,6.4c-2.7,2.7-7,2.7-9.6,0c-2.7-2.7-2.7-7,0-9.6l24.1-24.1
		c1.3-1.4,1.3-3.5-0.1-4.9v0c-1.3-1.3-3.5-1.4-4.9-0.1l-1.6,1.6c-1.4,1.4-3.6,1.4-5,0c-1.4-1.4-1.4-3.6,0-5L107,30.8
		c1.4-1.4,3.6-1.4,5,0v0c1.4,1.4,1.4,3.6,0,5l-4.8,4.8c-1.3,1.4-1.3,3.5,0.1,4.9c1.3,1.3,3.5,1.4,4.9,0.1l26.7-26.7
		c2.7-2.7,7-2.7,9.6,0v0c2.7,2.7,2.7,7,0,9.6l-21.9,21.9c-2.1,2.2-2,5.7,0.1,7.8c2.1,2.1,5.4,2.2,7.7,0.3l2.9-2.9
		c1.9-1.9,5-1.9,6.9,0s1.9,5,0,6.9L122.8,84c-2.3,2.4-2.2,6.2,0.1,8.6c2.3,2.3,6.1,2.4,8.5,0.2l6.4-6.4c1.9-1.9,5-1.9,6.9,0
		c1.5,1.5,1.8,3.6,1,5.4l4.7-4.7c1.2-1.2,3.1-1.2,4.3,0c1.2,1.2,1.2,3.1,0,4.3l-12.2,12.2c-1.8,1.9-1.8,4.9,0.1,6.8v0
		c1.5,1.5,3.6,1.8,5.4,1l20.3-20.3c1.2-1.2,3.1-1.2,4.3,0c1.2,1.2,1.2,3.1,0,4.3L141,127c1.9-1.8,5-1.8,6.8,0.1c1.9,1.9,1.9,5,0,6.9
		l-94.7,94.7c-1.9,1.9-5,1.9-6.9,0C44.4,226.8,44.4,223.7,46.3,221.8z"/>
	<linearGradient id="SVGID_2_" gradientUnits="userSpaceOnUse" x1="21.5621" y1="253.4113" x2="128.6877" y2="146.2857">
		<stop  offset="0" style="stop-color:#3F5EFB"/>
		<stop  offset="0.2784" style="stop-color:#7457D3"/>
		<stop  offset="1" style="stop-color:#FC466B"/>
	</linearGradient>
	<path class="st1" d="M26.8,248.2c-1.9-1.9-1.9-5,0-6.9l7.9-7.9c1.9-1.9,5-1.9,6.9,0v0c1.9,1.9,1.9,5,0,6.9l-7.9,7.9
		C31.8,250.1,28.7,250.1,26.8,248.2z"/>
	<linearGradient id="SVGID_3_" gradientUnits="userSpaceOnUse" x1="-114.484" y1="238.1016" x2="82.8198" y2="40.7979">
		<stop  offset="0" style="stop-color:#3F5EFB"/>
		<stop  offset="0.2784" style="stop-color:#7457D3"/>
		<stop  offset="1" style="stop-color:#FC466B"/>
	</linearGradient>
	<path class="st2" d="M80.6,43c-1.3-1.3-1.3-3.4,0-4.8L117.9,1c1.3-1.3,3.4-1.3,4.8,0c1.3,1.3,1.3,3.4,0,4.8L85.4,43
		C84.1,44.3,81.9,44.3,80.6,43z"/>
	<linearGradient id="SVGID_4_" gradientUnits="userSpaceOnUse" x1="-11.5352" y1="316.441" x2="230.8578" y2="74.0479">
		<stop  offset="0" style="stop-color:#3F5EFB"/>
		<stop  offset="0.2784" style="stop-color:#7457D3"/>
		<stop  offset="1" style="stop-color:#FC466B"/>
	</linearGradient>
	<path class="st3" d="M109,191.1l46.9-46.9c1.3-1.3,3.4-1.3,4.8,0c1.3,1.3,1.3,3.4,0,4.8l-46.9,46.9c-1.3,1.3-3.4,1.3-4.8,0
		C107.7,194.6,107.7,192.5,109,191.1z"/>
</g>
</svg>
