<?xml version="1.0" encoding="utf-8"?>
<!-- Generator: Adobe Illustrator 21.0.0, SVG Export Plug-In . SVG Version: 6.00 Build 0)  -->
<svg version="1.1" id="Layer_1" xmlns="http://www.w3.org/2000/svg" xmlns:xlink="http://www.w3.org/1999/xlink" x="0px" y="0px"
	 viewBox="0 0 1400 563" style="enable-background:new 0 0 1400 563;" xml:space="preserve">
<style type="text/css">
	.st0{opacity:0.8;}
	.st1{fill:url(#SVGID_1_);}
	.st2{fill:url(#SVGID_2_);}
	.st3{fill:url(#SVGID_3_);}
	.st4{fill:url(#SVGID_4_);}
	.st5{fill:url(#SVGID_5_);}
	.st6{fill:url(#SVGID_6_);}
	.st7{fill:url(#SVGID_7_);}
	.st8{fill:url(#SVGID_8_);}
	.st9{fill:url(#SVGID_9_);}
	.st10{fill:url(#SVGID_10_);}
</style>
<g class="st0">
	
		<linearGradient id="SVGID_1_" gradientUnits="userSpaceOnUse" x1="1269.0227" y1="387.6586" x2="851.981" y2="-14.3818" gradientTransform="matrix(1 0 0 -1 0 564)">
		<stop  offset="0" style="stop-color:#FC466B"/>
		<stop  offset="0.7216" style="stop-color:#7457D3"/>
		<stop  offset="1" style="stop-color:#3F5EFB"/>
	</linearGradient>
	<path class="st1" d="M1242.2,196.2l-0.6-0.6c-1.6,1.6-0.9,3.9-0.2,6.1c0.7,2,1.3,3.9,0,5.2c-1.2,1.2-3.2,0.6-5.2,0
		c-2.2-0.7-4.5-1.4-6.1,0.2c-1.6,1.6-0.9,3.9-0.2,6.1c0.7,2,1.3,3.9,0,5.2c-1.2,1.2-3.2,0.6-5.2,0c-2.2-0.7-4.5-1.4-6.1,0.2
		c-1.6,1.6-0.9,3.9-0.2,6.1c0.7,2,1.3,3.9,0,5.2c-1.2,1.2-3.2,0.6-5.2,0c-2.2-0.7-4.5-1.4-6.1,0.2c-1.6,1.6-0.9,3.9-0.2,6.1
		c0.7,2,1.3,3.9,0,5.2c-1.2,1.2-3.2,0.6-5.2,0c-2.2-0.7-4.5-1.4-6.1,0.2c-1.6,1.6-0.9,3.9-0.2,6.1c0.7,2,1.3,3.9,0,5.2
		c-1.2,1.2-3.2,0.6-5.2,0c-2.2-0.7-4.5-1.4-6.1,0.2c-1.6,1.6-0.9,3.9-0.2,6.1c0.7,2,1.3,3.9,0,5.2c-1.2,1.2-3.2,0.6-5.2,0
		c-2.2-0.7-4.5-1.4-6.1,0.2l0.6,0.6c1.2-1.2,3.2-0.6,5.2,0c2.2,0.7,4.5,1.4,6.1-0.2s0.9-3.9,0.2-6.1c-0.7-2-1.3-3.9,0-5.2
		c1.2-1.2,3.2-0.6,5.2,0c2.2,0.7,4.5,1.4,6.1-0.2c1.6-1.6,0.9-3.9,0.2-6.1c-0.7-2-1.3-3.9,0-5.2c1.2-1.2,3.2-0.6,5.2,0
		c2.2,0.7,4.5,1.4,6.1-0.2c1.6-1.6,0.9-3.9,0.2-6.1c-0.7-2-1.3-3.9,0-5.2c1.2-1.2,3.2-0.6,5.2,0c2.2,0.7,4.5,1.4,6.1-0.2
		c1.6-1.6,0.9-3.9,0.2-6.1c-0.7-2-1.3-3.9,0-5.2c1.2-1.2,3.2-0.6,5.2,0c2.2,0.7,4.5,1.4,6.1-0.2c1.6-1.6,0.9-3.9,0.2-6.1
		c-0.7-2-1.3-3.9,0-5.2c1.2-1.2,3.2-0.6,5.2,0c2.2,0.7,4.5,1.4,6.1-0.2c1.6-1.6,0.9-3.9,0.2-6.1
		C1241.5,199.4,1240.9,197.5,1242.2,196.2z"/>
	
		<linearGradient id="SVGID_2_" gradientUnits="userSpaceOnUse" x1="1221.5691" y1="436.8828" x2="804.5274" y2="34.8426" gradientTransform="matrix(1 0 0 -1 0 564)">
		<stop  offset="0" style="stop-color:#FC466B"/>
		<stop  offset="0.7216" style="stop-color:#7457D3"/>
		<stop  offset="1" style="stop-color:#3F5EFB"/>
	</linearGradient>
	<path class="st2" d="M852.1,481.8c-2.2-0.7-4.5-1.4-6.1,0.2s-0.9,3.9-0.2,6.1c0.7,2,1.3,3.9,0,5.2c-1.2,1.2-3.2,0.6-5.2,0
		c-2.2-0.7-4.5-1.4-6.1,0.2s-0.9,3.9-0.2,6.1c0.7,2,1.3,3.9,0,5.2c-1.2,1.2-3.2,0.6-5.2,0c-2.2-0.7-4.5-1.4-6.1,0.2
		s-0.9,3.9-0.2,6.1c0.7,2,1.3,3.9,0,5.2c-1.2,1.2-3.2,0.6-5.2,0c-2.2-0.7-4.5-1.4-6.1,0.2c-1.6,1.6-0.9,3.9-0.2,6.1
		c0.7,2,1.3,3.9,0,5.2c-1.2,1.2-3.2,0.6-5.2,0c-2.2-0.7-4.5-1.4-6.1,0.2c-1.6,1.6-0.9,3.9-0.2,6.1c0.7,2,1.3,3.9,0,5.2
		c-1.2,1.2-3.2,0.6-5.2,0c-2.2-0.7-4.5-1.4-6.1,0.2c-1.7,1.6-1,3.9-0.2,6.1c0.7,2,1.3,3.9,0,5.2l0.6,0.6c1.6-1.6,0.9-3.9,0.2-6.1
		c-0.7-2-1.3-3.9,0-5.2c1.2-1.2,3.2-0.6,5.2,0c2.2,0.7,4.5,1.4,6.1-0.2c1.6-1.6,0.9-3.9,0.2-6.1c-0.7-2-1.3-3.9,0-5.2
		c1.2-1.2,3.2-0.6,5.2,0c2.2,0.7,4.5,1.4,6.1-0.2c1.6-1.6,0.9-3.9,0.2-6.1c-0.7-2-1.3-3.9,0-5.2c1.2-1.2,3.2-0.6,5.2,0
		c2.2,0.7,4.5,1.4,6.1-0.2c1.6-1.6,0.9-3.9,0.2-6.1c-0.7-2-1.3-3.9,0-5.2c1.2-1.2,3.2-0.6,5.2,0c2.2,0.7,4.5,1.4,6.1-0.2
		s0.9-3.9,0.2-6.1c-0.7-2-1.3-3.9,0-5.2c1.2-1.2,3.2-0.6,5.2,0c2.2,0.7,4.5,1.4,6.1-0.2s0.9-3.9,0.2-6.1c-0.7-2-1.3-3.9,0-5.2
		c1.2-1.2,3.2-0.6,5.2,0c2.2,0.7,4.5,1.4,6.1-0.2l-0.6-0.6C856.1,483,854.1,482.4,852.1,481.8z"/>
	
		<linearGradient id="SVGID_3_" gradientUnits="userSpaceOnUse" x1="1188.9078" y1="470.7627" x2="771.8661" y2="68.7226" gradientTransform="matrix(1 0 0 -1 0 564)">
		<stop  offset="0" style="stop-color:#FC466B"/>
		<stop  offset="0.7216" style="stop-color:#7457D3"/>
		<stop  offset="1" style="stop-color:#3F5EFB"/>
	</linearGradient>
	<path class="st3" d="M1190.7,273.1l-6.8,6.8c-7.5,7.5-19.6,7.5-27.1,0s-7.5-19.6,0-27.1l44.5-44.5c7.5-7.5,7.5-19.6,0-27.1
		s-19.6-7.5-27.1,0l-2.2,2.2c-6.7,5.1-12.5,3.9-15.4,2.5c-3.9-1.8-5.1-3-7.6-5.3c-0.2-0.2-0.4-0.5-0.7-0.7c-7.5-7.5-19.6-7.5-27.1,0
		L1060,241c-7.5,7-14.1,5.6-17.3,4.2c-4.1-1.8-5.2-3.1-7.9-5.6c-0.1-0.1-0.1-0.1-0.2-0.2c-7.5-7.5-19.6-7.5-27.1,0l-23.7,23.7
		c-7.5,7.5-19.6,7.5-27.1,0s-7.5-19.6,0-27.1l78-78c7.2-7.2,7.5-18.6,0.9-26.1h0.1c-3.4-3.8-4.7-4.6-6.8-9.2
		c-1.4-3.2-2.8-9.8,4.2-17.3l28.8-28.8c7.5-7.5,7.5-19.6,0-27.1s-19.6-7.5-27.1,0l-18.7,18.7c-7.5,7-14.1,5.6-17.3,4.2
		c-3.6-1.6-4.9-2.8-7-4.8c-0.3-0.4-0.7-0.7-1-1.1c-7.5-7.5-19.6-7.5-27.1,0l-251,251c-7.5,7.5-7.5,19.6,0,27.1s19.6,7.5,27.1,0
		l22.1-22.1c7.5-7.5,19.6-7.5,27.1,0s7.5,19.6,0,27.1l-45.8,45.8c-7.5,7.5-7.5,19.6,0,27.1s19.6,7.5,27.1,0l40.7-40.7
		c7.5-7.5,19.6-7.5,27.1,0s7.5,19.6,0,27.1l-95,95c-7.5,7.5-7.5,19.6,0,27.1s19.6,7.5,27.1,0l78-78c7.5-7.5,19.6-7.5,27.1,0
		s7.5,19.6,0,27.1l3-3c-7.5,7.5-7.5,19.6,0,27.1s19.6,7.5,27.1,0l5.5-5.5c7.5-7.5,19.6-7.5,27.1,0s7.5,19.6,0,27.1l1.7-1.7
		c-7.5,7.5-7.5,19.6,0,27.1s19.6,7.5,27.1,0l251-251c7.5-7.5,7.5-19.6,0-27.1S1198.2,265.6,1190.7,273.1z"/>
	
		<linearGradient id="SVGID_4_" gradientUnits="userSpaceOnUse" x1="1170.8597" y1="489.4842" x2="753.8181" y2="87.444" gradientTransform="matrix(1 0 0 -1 0 564)">
		<stop  offset="0" style="stop-color:#FC466B"/>
		<stop  offset="0.7216" style="stop-color:#7457D3"/>
		<stop  offset="1" style="stop-color:#3F5EFB"/>
	</linearGradient>
	<path class="st4" d="M1048,195.6c7.5,7.5,19.6,7.5,27.1,0L1195,75.7c7.5-7.5,7.5-19.6,0-27.1c-7.4-7.5-19.6-7.5-27.1,0L1048,168.5
		C1040.5,176,1040.5,188.1,1048,195.6z"/>
	
		<linearGradient id="SVGID_5_" gradientUnits="userSpaceOnUse" x1="1212.7744" y1="446.0056" x2="795.7328" y2="43.9655" gradientTransform="matrix(1 0 0 -1 0 564)">
		<stop  offset="0" style="stop-color:#FC466B"/>
		<stop  offset="0.7216" style="stop-color:#7457D3"/>
		<stop  offset="1" style="stop-color:#3F5EFB"/>
	</linearGradient>
	<path class="st5" d="M1260.2,70.8c-7.5-7.5-19.7-7.5-27.1,0l-55,55c-7.5,7.5-7.5,19.6,0,27.1s19.6,7.5,27.1,0l55-55
		C1267.7,90.4,1267.7,78.3,1260.2,70.8z"/>
	
		<linearGradient id="SVGID_6_" gradientUnits="userSpaceOnUse" x1="1043.5812" y1="621.512" x2="626.5394" y2="219.4718" gradientTransform="matrix(1 0 0 -1 0 564)">
		<stop  offset="0" style="stop-color:#FC466B"/>
		<stop  offset="0.7216" style="stop-color:#7457D3"/>
		<stop  offset="1" style="stop-color:#3F5EFB"/>
	</linearGradient>
	<path class="st6" d="M807.7,198.2l94.7-94.7c7.5-7.5,7.5-19.6,0-27.1s-19.6-7.5-27.1,0l-94.7,94.7c-7.5,7.5-7.5,19.6,0,27.1
		S800.2,205.7,807.7,198.2z"/>
	
		<linearGradient id="SVGID_7_" gradientUnits="userSpaceOnUse" x1="1333.9259" y1="320.3336" x2="916.8842" y2="-81.7067" gradientTransform="matrix(1 0 0 -1 0 564)">
		<stop  offset="0" style="stop-color:#FC466B"/>
		<stop  offset="0.7216" style="stop-color:#7457D3"/>
		<stop  offset="1" style="stop-color:#3F5EFB"/>
	</linearGradient>
	<path class="st7" d="M1178.9,364.8l-94.7,94.7c-7.5,7.5-7.5,19.6,0,27.1s19.6,7.5,27.1,0l94.7-94.7c7.5-7.5,7.5-19.6,0-27.1
		S1186.4,357.3,1178.9,364.8z"/>
	
		<linearGradient id="SVGID_8_" gradientUnits="userSpaceOnUse" x1="1105.926" y1="556.8409" x2="688.8843" y2="154.8007" gradientTransform="matrix(1 0 0 -1 0 564)">
		<stop  offset="0" style="stop-color:#FC466B"/>
		<stop  offset="0.7216" style="stop-color:#7457D3"/>
		<stop  offset="1" style="stop-color:#3F5EFB"/>
	</linearGradient>
	<circle class="st8" cx="1084.1" cy="28.2" r="19.9"/>
	
		<linearGradient id="SVGID_9_" gradientUnits="userSpaceOnUse" x1="1168.5707" y1="491.8588" x2="751.5289" y2="89.8185" gradientTransform="matrix(1 0 0 -1 0 564)">
		<stop  offset="0" style="stop-color:#FC466B"/>
		<stop  offset="0.7216" style="stop-color:#7457D3"/>
		<stop  offset="1" style="stop-color:#3F5EFB"/>
	</linearGradient>
	<circle class="st9" cx="1215.5" cy="26.9" r="19.9"/>
	
		<linearGradient id="SVGID_10_" gradientUnits="userSpaceOnUse" x1="1334.6078" y1="319.6262" x2="917.5661" y2="-82.414" gradientTransform="matrix(1 0 0 -1 0 564)">
		<stop  offset="0" style="stop-color:#FC466B"/>
		<stop  offset="0.7216" style="stop-color:#7457D3"/>
		<stop  offset="1" style="stop-color:#3F5EFB"/>
	</linearGradient>
	<circle class="st10" cx="1059.9" cy="509.2" r="19.9"/>
</g>
</svg>
