<?xml version="1.0" encoding="utf-8"?>
<!-- Generator: Adobe Illustrator 21.0.0, SVG Export Plug-In . SVG Version: 6.00 Build 0)  -->
<svg version="1.1" id="Layer_1" xmlns="http://www.w3.org/2000/svg" xmlns:xlink="http://www.w3.org/1999/xlink" x="0px" y="0px"
	 viewBox="0 0 2000 1721" style="enable-background:new 0 0 2000 1721;" xml:space="preserve">
<style type="text/css">
	.st0{opacity:0.2;fill:#FFC771;}
	.st1{fill:#A7A8A3;}
	.st2{fill:#644321;}
	.st3{fill:#4D3319;}
	.st4{fill:#452E17;}
	.st5{fill:#C4864E;}
	.st6{fill:#946331;}
	.st7{fill:#FFFFFF;}
	.st8{fill:#DBD4BC;}
	.st9{fill:#B8232E;}
	.st10{fill:#C2BCA6;}
	.st11{fill:#EB2C3B;}
	.st12{fill:#E0DCCB;}
	.st13{fill:#F8F3E0;}
	.st14{fill:#941C25;}
	.st15{fill:#FFC60B;}
	.st16{fill:#FFEC5F;}
	.st17{fill:#F7941E;}
	.st18{fill:#0083CA;}
	.st19{fill:#00A8DE;}
	.st20{fill:#006FAB;}
	.st21{fill:#00A055;}
	.st22{fill:#91BE4A;}
	.st23{fill:#007840;}
	.st24{opacity:0.2;}
	.st25{fill:#FDFFFA;}
	.st26{fill:#B26A25;}
	.st27{fill:#F4F1F1;}
	.st28{fill:#884717;}
	.st29{fill:#423025;stroke:#423025;stroke-width:0.3225;stroke-miterlimit:10;}
	.st30{fill:none;stroke:#423025;stroke-width:1.6123;stroke-miterlimit:10;}
	.st31{fill:#2197D8;}
	.st32{fill:#9AD14B;}
	.st33{fill:#80A52F;}
	.st34{fill:#666666;}
	.st35{fill:#844A09;}
	.st36{fill:#FCD495;}
	.st37{fill:#995C0D;}
	.st38{fill:#E2B376;}
	.st39{fill:#808080;}
	.st40{fill:#4D4D4D;}
	.st41{fill:#313D6E;}
	.st42{fill:#FF675F;}
	.st43{fill:#EF3E3B;}
	.st44{fill:#D1D3D4;}
	.st45{fill:#E5E5E5;}
	.st46{opacity:0.1;enable-background:new    ;}
	.st47{fill:#FF994D;}
	.st48{fill:#FF8828;}
	.st49{fill:#FCBBA4;}
	.st50{fill:#E29B66;}
	.st51{fill:#D88E77;stroke:#611900;stroke-width:4.8767;stroke-miterlimit:10;}
	.st52{fill:#7C4B39;}
	.st53{fill:#FFC7B0;}
	.st54{fill:#081344;}
	.st55{fill:#611900;}
	.st56{opacity:0.2;fill:#081344;}
	.st57{fill:#7F3954;}
	.st58{fill:none;stroke:#081344;stroke-width:3.6412;stroke-linecap:round;stroke-miterlimit:10;}
	.st59{fill:#1C1C2D;}
	.st60{fill:#A0523A;}
	.st61{fill:#25253A;}
	.st62{fill:#EA5454;}
	.st63{fill:#BF4040;}
	.st64{fill:#F14747;}
	.st65{fill:#EF7700;}
	.st66{fill:#66AA0E;}
</style>
<path class="st0" d="M1876.3,1527.5c61.3-127.4,95.7-270.2,95.7-421c0-536.8-187-1067.5-972-972c-667,81.1-972,435.2-972,972
	c0,150.8,34.4,293.6,95.7,421H1876.3z"/>
<g>
	<ellipse id="XMLID_91_" class="st1" cx="1098" cy="1566.5" rx="444.1" ry="40.3"/>
	<path id="XMLID_350_" class="st1" d="M1339.2,983.8h0.7l-2.5-14.8h54.6v-34.5V924H1351v-19.3V297h-86.5v-10.5v-45h-50.5l-30-177.9
		c-2.1-12.8-14.3-21.4-27.1-19.3c-12.8,2.1-21.4,14.3-19.3,27.1l27.1,159.7h-0.3l1.7,10.4h-28.9V73.3c0-13-10.5-23.5-23.5-23.5
		c-13,0-23.5,10.5-23.5,23.5v168.3h-28.9l1.7-10.4h-0.3l27.1-159.7c2.1-12.8-6.5-24.9-19.3-27.1c-12.8-2.1-24.9,6.5-27.1,19.3
		l-30.1,177.9h-51.2v45V297H876v607.7V924h-40.7v10.5V969h54.6l-2.5,14.8h0.3l-91.5,541.6h46.7l72.4-426.6h2.1h11.7h161.1v426.6h47
		v-426.6h161.2h11.7h1.6l74.7,426.6h46.7L1339.2,983.8z M1090.2,1053.7H937.7h-12.8h-2l14.4-84.8h152.9V1053.7z M1302.5,1053.7
		h-12.8h-152.6V969h152.5l14.4,84.8H1302.5z"/>
	<g id="XMLID_18_">
		<g id="XMLID_54_">
			<g id="XMLID_41_">
				<g id="XMLID_62_">
					<rect id="XMLID_65_" x="1048.2" y="68.3" class="st2" width="47" height="1508.2"/>
					<path id="XMLID_64_" class="st3" d="M1048.2,68.3c0-13,10.5-23.5,23.5-23.5c13,0,23.5,10.5,23.5,23.5H1048.2z"/>
					<circle id="XMLID_63_" class="st4" cx="1071.7" cy="98.9" r="11"/>
				</g>
				<g id="XMLID_59_">
					<g id="XMLID_60_">
						<rect id="XMLID_61_" x="869.8" y="1048.7" class="st5" width="403.2" height="45"/>
					</g>
				</g>
				<g id="XMLID_55_">
					<polygon id="XMLID_58_" class="st5" points="744.6,1576.4 791.3,1576.4 1047.9,66.4 1001.6,58.6 					"/>
					<path id="XMLID_57_" class="st6" d="M1001.6,58.6c2.1-12.8,14.3-21.4,27.1-19.3c12.8,2.1,21.4,14.3,19.3,27.1L1001.6,58.6z"/>
					
						<ellipse id="XMLID_56_" transform="matrix(0.9862 -0.1655 0.1655 0.9862 -1.2937 170.0176)" class="st6" cx="1019.3" cy="92.8" rx="11" ry="11"/>
				</g>
				<g id="XMLID_28_">
					<polygon id="XMLID_42_" class="st5" points="1398.2,1576.4 1351.5,1576.4 1095.6,66.4 1141.9,58.6 					"/>
					<path id="XMLID_40_" class="st6" d="M1141.9,58.6c-2.1-12.8-14.3-21.4-27.1-19.3c-12.8,2.1-21.4,14.3-19.3,27.1L1141.9,58.6z"
						/>
					
						<ellipse id="XMLID_29_" transform="matrix(0.9862 -0.1655 0.1655 0.9862 0.1489 187.3251)" class="st6" cx="1123.8" cy="92.8" rx="11" ry="11"/>
				</g>
				<polygon id="XMLID_22_" class="st6" points="964.3,281.5 1011.8,281.5 1009.1,297.4 961.7,297.4 				"/>
				<polygon id="XMLID_24_" class="st6" points="1179.3,281.5 1131.8,281.5 1134.4,297.4 1181.9,297.4 				"/>
				<g id="XMLID_27_">
					<g id="XMLID_26_">
						<rect id="XMLID_20_" x="920.3" y="236.5" class="st5" width="302.2" height="45"/>
					</g>
					<g id="XMLID_23_">
						
							<ellipse id="XMLID_19_" transform="matrix(0.1656 -0.9862 0.9862 0.1656 528.0277 1142.1276)" class="st6" cx="938.9" cy="259" rx="7.1" ry="7.1"/>
						
							<ellipse id="XMLID_25_" transform="matrix(0.1656 -0.9862 0.9862 0.1656 749.0841 1403.385)" class="st6" cx="1203.8" cy="259" rx="7.1" ry="7.1"/>
					</g>
				</g>
				<g id="XMLID_30_">
					<g id="XMLID_34_">
						<rect id="XMLID_36_" x="793.4" y="919" class="st5" width="556.8" height="45"/>
						<rect id="XMLID_35_" x="793.4" y="919" class="st6" width="556.8" height="10.5"/>
					</g>
					<g id="XMLID_31_">
						
							<ellipse id="XMLID_33_" transform="matrix(0.1656 -0.9862 0.9862 0.1656 -250.9076 1586.4218)" class="st6" cx="812" cy="941.5" rx="7.1" ry="7.1"/>
						
							<ellipse id="XMLID_32_" transform="matrix(0.1656 -0.9862 0.9862 0.1656 182.5563 2098.7146)" class="st6" cx="1331.5" cy="941.5" rx="7.1" ry="7.1"/>
					</g>
				</g>
				<polygon id="XMLID_37_" class="st6" points="883,1048.7 875.4,1093.7 887.2,1093.7 895.8,1048.7 				"/>
				<polygon id="XMLID_39_" class="st6" points="1260.6,1048.7 1268.1,1093.7 1256.4,1093.7 1247.8,1048.7 				"/>
				<polygon id="XMLID_38_" class="st6" points="848,964 895,964 892.5,978.8 845.5,978.8 				"/>
				<polygon id="XMLID_43_" class="st6" points="1295.5,964 1248.6,964 1251,978.8 1298,978.8 				"/>
			</g>
			<rect id="XMLID_21_" x="920.3" y="281.5" class="st6" width="302.2" height="10.5"/>
			<polygon id="XMLID_45_" class="st6" points="971.8,236.5 1019.4,236.5 1021.1,226.1 973.6,226.1 			"/>
			<polygon id="XMLID_47_" class="st6" points="1171.6,236.5 1124.1,236.5 1122.3,226.1 1169.9,226.1 			"/>
			<g id="XMLID_50_">
				<g id="XMLID_48_">
					<rect id="XMLID_44_" x="834.1" y="292" class="st7" width="474.9" height="626.9"/>
					<rect id="XMLID_46_" x="834.1" y="899.7" class="st8" width="474.9" height="19.3"/>
				</g>
				<circle id="XMLID_49_" class="st6" cx="847.8" cy="909.3" r="5"/>
				<circle id="XMLID_51_" class="st6" cx="1290.7" cy="909.3" r="5"/>
				<circle id="XMLID_53_" class="st6" cx="847.8" cy="305.4" r="5"/>
				<circle id="XMLID_52_" class="st6" cx="1290.7" cy="305.4" r="5"/>
			</g>
		</g>
	</g>
	<g id="XMLID_75_">
		<g id="XMLID_96_">
			<g id="XMLID_130_">
				
					<rect id="XMLID_246_" x="929" y="826.5" transform="matrix(-1 -1.224647e-16 1.224647e-16 -1 1867.7981 1662.025)" class="st9" width="9.9" height="9"/>
			</g>
			<g id="XMLID_103_">
				<g id="XMLID_107_">
					<polygon id="XMLID_244_" class="st10" points="920.5,847.2 947.3,847.2 938.8,835.5 929,835.5 					"/>
				</g>
				<g id="XMLID_104_">
					<g id="XMLID_106_">
						
							<rect id="XMLID_242_" x="920.5" y="847.2" transform="matrix(-1 -1.224647e-16 1.224647e-16 -1 1867.7981 1755.873)" class="st9" width="26.7" height="61.4"/>
					</g>
					<g id="XMLID_105_">
						
							<rect id="XMLID_240_" x="920.5" y="847.2" transform="matrix(-1 -1.224647e-16 1.224647e-16 -1 1854.4274 1755.873)" class="st11" width="13.4" height="61.4"/>
					</g>
				</g>
			</g>
			<g id="XMLID_100_">
				<g id="XMLID_102_">
					
						<rect id="XMLID_236_" x="920.5" y="867.5" transform="matrix(-1 -1.224647e-16 1.224647e-16 -1 1867.7981 1755.6166)" class="st12" width="26.7" height="20.6"/>
				</g>
				<g id="XMLID_101_">
					
						<rect id="XMLID_234_" x="920.5" y="867.5" transform="matrix(-1 -1.224647e-16 1.224647e-16 -1 1854.4274 1755.6166)" class="st13" width="13.4" height="20.6"/>
				</g>
			</g>
			<g id="XMLID_99_">
				
					<rect id="XMLID_231_" x="917.3" y="908.6" transform="matrix(-1 -1.224647e-16 1.224647e-16 -1 1867.7981 1829.1483)" class="st14" width="33.3" height="11.9"/>
			</g>
			<g id="XMLID_98_">
				
					<rect id="XMLID_229_" x="929" y="826.5" transform="matrix(-1 -1.224647e-16 1.224647e-16 -1 1862.8721 1662.025)" class="st11" width="4.9" height="9"/>
			</g>
			
				<rect id="XMLID_145_" x="917.3" y="908.6" transform="matrix(-1 -1.224647e-16 1.224647e-16 -1 1851.1726 1829.1483)" class="st9" width="16.6" height="11.9"/>
			<polygon id="XMLID_167_" class="st8" points="929,835.5 933.9,835.5 933.9,847.2 920.5,847.2 			"/>
		</g>
		<g id="XMLID_79_">
			<g id="XMLID_586_">
				
					<rect id="XMLID_587_" x="891.8" y="826.5" transform="matrix(-1 -1.224647e-16 1.224647e-16 -1 1793.3596 1662.025)" class="st15" width="9.9" height="9"/>
			</g>
			<g id="XMLID_153_">
				<g id="XMLID_270_">
					<polygon id="XMLID_585_" class="st10" points="883.3,847.2 910.1,847.2 901.6,835.5 891.8,835.5 					"/>
				</g>
				<g id="XMLID_154_">
					<g id="XMLID_177_">
						
							<rect id="XMLID_266_" x="883.3" y="847.2" transform="matrix(-1 -1.224647e-16 1.224647e-16 -1 1793.3596 1755.873)" class="st15" width="26.7" height="61.4"/>
					</g>
					<g id="XMLID_155_">
						
							<rect id="XMLID_156_" x="883.3" y="847.2" transform="matrix(-1 -1.224647e-16 1.224647e-16 -1 1779.9888 1755.873)" class="st16" width="13.4" height="61.4"/>
					</g>
				</g>
			</g>
			<g id="XMLID_146_">
				<g id="XMLID_151_">
					
						<rect id="XMLID_152_" x="883.3" y="867.5" transform="matrix(-1 -1.224647e-16 1.224647e-16 -1 1793.3596 1755.6166)" class="st12" width="26.7" height="20.6"/>
				</g>
				<g id="XMLID_148_">
					
						<rect id="XMLID_150_" x="883.3" y="867.5" transform="matrix(-1 -1.224647e-16 1.224647e-16 -1 1779.9888 1755.6166)" class="st13" width="13.4" height="20.6"/>
				</g>
			</g>
			<g id="XMLID_143_">
				
					<rect id="XMLID_144_" x="880.1" y="908.6" transform="matrix(-1 -1.224647e-16 1.224647e-16 -1 1793.3599 1829.1483)" class="st17" width="33.3" height="11.9"/>
			</g>
			<g id="XMLID_97_">
				
					<rect id="XMLID_142_" x="891.8" y="826.5" transform="matrix(-1 -1.224647e-16 1.224647e-16 -1 1788.4335 1662.025)" class="st16" width="4.9" height="9"/>
			</g>
			
				<rect id="XMLID_83_" x="880.1" y="908.6" transform="matrix(-1 -1.224647e-16 1.224647e-16 -1 1776.7341 1829.1483)" class="st15" width="16.6" height="11.9"/>
			<polygon id="XMLID_84_" class="st8" points="891.8,835.5 896.7,835.5 896.7,847.2 883.3,847.2 			"/>
		</g>
		<g id="XMLID_588_">
			<g id="XMLID_618_">
				
					<rect id="XMLID_619_" x="854.1" y="826.5" transform="matrix(-1 -1.224647e-16 1.224647e-16 -1 1718.0203 1662.025)" class="st18" width="9.9" height="9"/>
			</g>
			<g id="XMLID_610_">
				<g id="XMLID_616_">
					<polygon id="XMLID_617_" class="st10" points="845.6,847.2 872.4,847.2 863.9,835.5 854.1,835.5 					"/>
				</g>
				<g id="XMLID_611_">
					<g id="XMLID_614_">
						
							<rect id="XMLID_615_" x="845.6" y="847.2" transform="matrix(-1 -1.224647e-16 1.224647e-16 -1 1718.0203 1755.873)" class="st18" width="26.7" height="61.4"/>
					</g>
					<g id="XMLID_612_">
						
							<rect id="XMLID_613_" x="845.6" y="847.2" transform="matrix(-1 -1.224647e-16 1.224647e-16 -1 1704.6494 1755.873)" class="st19" width="13.4" height="61.4"/>
					</g>
				</g>
			</g>
			<g id="XMLID_605_">
				<g id="XMLID_608_">
					
						<rect id="XMLID_609_" x="845.6" y="867.5" transform="matrix(-1 -1.224647e-16 1.224647e-16 -1 1718.0203 1755.6166)" class="st12" width="26.7" height="20.6"/>
				</g>
				<g id="XMLID_606_">
					
						<rect id="XMLID_607_" x="845.6" y="867.5" transform="matrix(-1 -1.224647e-16 1.224647e-16 -1 1704.6494 1755.6166)" class="st13" width="13.4" height="20.6"/>
				</g>
			</g>
			<g id="XMLID_603_">
				
					<rect id="XMLID_604_" x="842.4" y="908.6" transform="matrix(-1 -1.224647e-16 1.224647e-16 -1 1718.02 1829.1483)" class="st20" width="33.3" height="11.9"/>
			</g>
			<g id="XMLID_597_">
				
					<rect id="XMLID_598_" x="854.1" y="826.5" transform="matrix(-1 -1.224647e-16 1.224647e-16 -1 1713.0941 1662.025)" class="st19" width="4.9" height="9"/>
			</g>
			
				<rect id="XMLID_596_" x="842.4" y="908.6" transform="matrix(-1 -1.224647e-16 1.224647e-16 -1 1701.3945 1829.1483)" class="st18" width="16.6" height="11.9"/>
			<polygon id="XMLID_595_" class="st8" points="854.1,835.5 859,835.5 859,847.2 845.6,847.2 			"/>
		</g>
		<g id="XMLID_620_">
			<g id="XMLID_649_">
				
					<rect id="XMLID_650_" x="816.4" y="826.5" transform="matrix(-1 -1.224647e-16 1.224647e-16 -1 1642.6804 1662.025)" class="st21" width="9.9" height="9"/>
			</g>
			<g id="XMLID_639_">
				<g id="XMLID_647_">
					<polygon id="XMLID_648_" class="st10" points="808,847.2 834.7,847.2 826.3,835.5 816.4,835.5 					"/>
				</g>
				<g id="XMLID_640_">
					<g id="XMLID_645_">
						
							<rect id="XMLID_646_" x="808" y="847.2" transform="matrix(-1 -1.224647e-16 1.224647e-16 -1 1642.6804 1755.873)" class="st21" width="26.7" height="61.4"/>
					</g>
					<g id="XMLID_641_">
						
							<rect id="XMLID_644_" x="808" y="847.2" transform="matrix(-1 -1.224647e-16 1.224647e-16 -1 1629.3097 1755.873)" class="st22" width="13.4" height="61.4"/>
					</g>
				</g>
			</g>
			<g id="XMLID_634_">
				<g id="XMLID_637_">
					
						<rect id="XMLID_638_" x="808" y="867.5" transform="matrix(-1 -1.224647e-16 1.224647e-16 -1 1642.6804 1755.6166)" class="st12" width="26.7" height="20.6"/>
				</g>
				<g id="XMLID_635_">
					
						<rect id="XMLID_636_" x="808" y="867.5" transform="matrix(-1 -1.224647e-16 1.224647e-16 -1 1629.3097 1755.6166)" class="st13" width="13.4" height="20.6"/>
				</g>
			</g>
			<g id="XMLID_632_">
				
					<rect id="XMLID_633_" x="804.7" y="908.6" transform="matrix(-1 -1.224647e-16 1.224647e-16 -1 1642.6807 1829.1483)" class="st23" width="33.3" height="11.9"/>
			</g>
			<g id="XMLID_630_">
				
					<rect id="XMLID_631_" x="816.4" y="826.5" transform="matrix(-1 -1.224647e-16 1.224647e-16 -1 1637.7543 1662.025)" class="st22" width="4.9" height="9"/>
			</g>
			
				<rect id="XMLID_629_" x="804.7" y="908.6" transform="matrix(-1 -1.224647e-16 1.224647e-16 -1 1626.0549 1829.1483)" class="st21" width="16.6" height="11.9"/>
			<polygon id="XMLID_628_" class="st8" points="816.4,835.5 821.3,835.5 821.3,847.2 808,847.2 			"/>
		</g>
	</g>
</g>
<g>
	<ellipse id="XMLID_1_" class="st24" cx="1592" cy="1629.7" rx="268" ry="24.3"/>
	<path class="st25" d="M1593,1633.2h-137.8c0,0-8.5-12,20.6-14.9l-17.3-42.3c0,0-9.3-28.6,23.3-18.9l121.2-4.6L1593,1633.2z"/>
	<g>
		<polygon class="st26" points="1429.8,1377.7 1471.7,1409.2 1462,1460.8 1459.3,1516.4 1436,1516.4 		"/>
		<path class="st27" d="M1440.3,1611.5l-4.2-93.1l-0.1-2h23.3l-0.1,2l-5.2,106.4h-25.9C1428.2,1624.8,1425.8,1612.3,1440.3,1611.5z"
			/>
	</g>
	<path class="st27" d="M1571.7,1462.8"/>
	<path class="st25" d="M1459.1,1292.1l31.5-23c11.7-8.5,28-6.2,36.9,5.2l18.9,24.4c3.6,4.7,5.6,10.4,5.6,16.3l0,0
		c0,3.9,0.8,7.7,2.5,11.2l13.9,30.1c3.6,7.7,3.3,16.7-0.8,24.1l-15.5,28.2c-4.1,7.4-4.4,16.4-0.8,24.1l72,155.8
		c8.2,17.7-4.7,37.9-24.2,37.9h-74.5c-11.5,0-21.6-7.3-25.3-18.2l-74.6-221c-2-5.9-1.9-12.3,0.4-18.2l25.1-65.1
		C1451.8,1299.3,1455,1295.1,1459.1,1292.1z"/>
	<g>
		<path class="st28" d="M1439,1116.1l-6.3-9.7c0,0-74.6,31.9-81.4,45.4c0,0-27.4,83.2,19.6,132.1c0,0,2.3,8.5,25.6-11.3l6-60.4
			l13.3-21.2l8.1-40.3L1439,1116.1z"/>
		<path class="st26" d="M1418,1179.9c9.5-0.3,18.4,0.1,26.5,0.9l-0.4-0.1c14.5-25.4,26.2-36.4,26.2-36.4
			c-11.2,19.1-7.9,39.4-7.9,39.4l-0.9-0.1c46,10,64.9,36.1,64.9,36.1l1.1,45.1c6.9-6.6,11.8-12.6,11.5-16.2
			c-0.9-11.7,37.6-104.9,37.6-104.9s-74.3-56.6-137.6-27.6C1439,1116.1,1416.7,1120.5,1418,1179.9z"/>
		<path class="st27" d="M1381.3,1223.6c0,0-6.3,15.2,19.9,56.6c0,0,62.2,26.1,85.4,17.1c0,0,25.5-17.7,41-32.4l-1.1-45.1
			c0,0-19-26.1-64.9-36.1l0.9,0.1c0,0-3.3-20.3,7.9-39.4c0,0-14.2,7.4-26.2,36.4l0.4,0.1c-8.1-0.9-17-1.2-26.5-0.9L1381.3,1223.6z"
			/>
		<path class="st28" d="M1677.2,1215.4c0,0-25.3-54.4-94.2-79.7c-1-0.4-10,12.6-10.7,13.5c-8.4,11.1-16.5,22.4-24.1,34.1
			c-9.3,14.3-18.1,29-25.4,44.4c-6.7,14-12.6,28.9-14.4,44.4c-1.4,12,0.1,25,8.8,34.2c3,3.2,7,5.6,10.6,8.2c0.8,0.6,1.7,1.2,2.5,1.8
			c8.2,5.4,17.7,5,26.7,2.4c10.8-3,20.7-8.7,30-14.9c15.8-10.6,30-23.4,43.5-36.7C1647,1250.8,1662.4,1233.3,1677.2,1215.4z"/>
		
			<ellipse transform="matrix(0.1964 -0.9805 0.9805 0.1964 50.2497 2396.1172)" class="st29" cx="1487" cy="1167.4" rx="6.2" ry="6.2"/>
		
			<ellipse transform="matrix(0.1964 -0.9805 0.9805 0.1964 25.9475 2342.0305)" class="st29" cx="1441.8" cy="1155.2" rx="6.2" ry="6.2"/>
		<path class="st29" d="M1438.1,1240.3c-2.2-11.7-20.8-14.3-30.3-13.5c-10.8,0.9-3.5,20.5-0.5,25.5c1.2,2.1,3.1,3.9,5.4,4.6
			c5.2,1.6,11.9-2.6,16.3-5.1c3.6-2,7-4.8,8.6-8.6C1438,1242.3,1438.3,1241.3,1438.1,1240.3z"/>
		<path class="st30" d="M1504.2,1161.1c0,0-2.1-10-15.5-8.6"/>
		<path class="st30" d="M1453.5,1147.8c0,0-3.4-9.7-16.5-6.5"/>
	</g>
	<polygon class="st25" points="1681.4,1599.1 1708.5,1602.2 1681.4,1599.1 	"/>
	<polygon class="st25" points="1680.9,1599 1680.9,1599 1681.4,1599.1 1681.4,1599.1 	"/>
	<polygon class="st29" points="1680.9,1626.4 1673.9,1626.4 1677.2,1614.5 	"/>
	<polygon class="st29" points="1545.5,1420.5 1574,1368.6 1680.9,1599 1672.1,1598 1677.2,1614.5 1673.9,1626.4 1640.6,1626.4 	"/>
	<g>
		<polygon class="st25" points="1849.4,1618.4 1849.4,1626.4 1785.2,1626.4 1785.2,1611 		"/>
		<polygon class="st29" points="1785.2,1611 1785.2,1611 1708.5,1602.2 		"/>
		<polygon class="st29" points="1681.4,1599.1 1708.5,1602.2 1785.2,1611 1785.2,1626.4 1680.9,1626.4 1677.2,1614.5 		"/>
	</g>
	<polygon class="st29" points="1681.4,1599.1 1677.2,1614.5 1672.1,1598 1680.9,1599 1680.9,1599 	"/>
	<path class="st25" d="M1656.7,1645v-54c0,0-5.2-43.5-54.4-26.2c0,0-26.6,28.6-8.5,70.5l-9.3,1.2c0,0-4.8,6-2.4,8.5
		S1656.7,1645,1656.7,1645z"/>
	<g>
		<path class="st26" d="M1551.9,1320.9c0,0,22.3,8.7,22.6,29l-4.2,170.1l-33.3-1.6l-20.6-166.5
			C1516.4,1351.9,1533,1322.9,1551.9,1320.9z"/>
		<path class="st27" d="M1567.2,1645h-25c0,0-7.3-18.5,4.8-18.5l-10.1-108l0,0l33.3,1.6L1567.2,1645z"/>
	</g>
</g>
<g>
	<rect x="884.7" y="357" class="st31" width="370.6" height="488"/>
	<rect x="884.7" y="491.5" class="st32" width="370.6" height="353.5"/>
	<path class="st33" d="M884.7,577.5c54.7,0,61,19.8,104.5,24.3l137.4-49.3c1.7,0,3.4-0.1,5.1-0.1c61.8,0,61.8,25.2,123.5,25.2V845
		H884.7L884.7,577.5z"/>
	<path class="st34" d="M1202.8,694.1v119.3c0,11.7-3.5,22.6-9.5,31.6h-162.4l-3.5-36.9c0,0,69.3-46.8,62.1-53.6L1202.8,694.1z"/>
	<path class="st35" d="M1044.5,541.4l-19.2,40.7c0,24.1-0.1,72.2-18.3,87.6c-1.9,1.6-14.5,10.6-16.6,12c-2.2,1.5-4.3-29.7-6.3-28
		v-141c0,14.8,23.3-8.9,33,0.8C1024,520.5,1034.6,539.1,1044.5,541.4z"/>
	<path class="st36" d="M1111.1,808.1h-58.4h-11.1h-20.1l26.7-43.1c17.5,0,33.9,6.8,46.2,18.3
		C1101.6,790.1,1107.4,798.5,1111.1,808.1z"/>
	<path class="st37" d="M984.5,456.6c3.9-36.4,34.7-64.8,72.2-64.8c20,0,38.2,8.1,51.3,21.3c13.1,13.1,21.3,31.3,21.3,51.3v119.2
		c0,20.3,16.5,36.7,36.7,36.7l-75,104.8C1091.1,725.3,987.9,430.3,984.5,456.6z"/>
	<g>
		<path class="st36" d="M1091.1,715.1l-13.5-15.5l0,0c-61.4,25.2-89.7,0.6-81.3-55.3c16.6-14.1,27-34.2,28.7-56
			c0.2-2.1,0.2-4.2,0.2-6.3v-17.3c4,0.9,8.1,1.4,12.3,1.4c29.5,0,53.5-23.9,53.5-53.5L1091.1,715.1L1091.1,715.1z"/>
		<path class="st36" d="M1091.1,463.5v49.3c0,29.5-23.9,53.5-53.5,53.5c-4.2,0-8.4-0.5-12.3-1.4c-9.8-2.3-18.6-7.3-25.5-14.2
			c-9.7-9.7-15.7-23.1-15.7-37.8v-48.3c0-2.4,0.1-4.8,0.3-7.2c0-0.2,0.1-0.5,0.1-0.7c3.3-26.3,25.8-46.7,53.1-46.7
			c14.8,0,28.1,6,37.8,15.7C1085.1,435.3,1091.1,448.7,1091.1,463.5z"/>
	</g>
	<path class="st38" d="M1091.1,512.8v23.6c0,29.5-23.9,53.5-53.5,53.5c-4.2,0-8.4-0.5-12.3-1.4c-0.1,0-0.2,0-0.2-0.1
		c0.2-2.1,0.2-4.2,0.2-6.3v-17.3c4,0.9,8.1,1.4,12.3,1.4C1067.2,566.3,1091.1,542.3,1091.1,512.8z"/>
	<path class="st39" d="M984.1,653.8c2-1.7,4.1-3.3,6.3-4.8c2.1-1.4,4.1-3,6-4.6c13.8,31.6,44.9,54,81.3,55.3l0,0l-62.4,91.9
		c-13.6,0-36.5-21.7-45.4-30.6c-8.9-8.9-14.4-31.6-14.4-45.2c0-13.3,3.3-26.2,9.3-37.7C969.5,668.9,976.1,660.6,984.1,653.8z"/>
	<path class="st34" d="M1048.3,765l-33.9,55.3c-36.5,0-58.9-41.8-58.9-78.3v-26.2c0,13.6,5.5,25.9,14.4,34.8
		c8.9,8.9,21.2,14.4,34.8,14.4L1048.3,765L1048.3,765z"/>
	<path class="st36" d="M1041.6,808.1l-4.9,36.9h-67.4c-8.7-11.2-13.8-25.2-13.8-40.4V742c0,36.5,29.6,66,66.1,66H1041.6
		L1041.6,808.1z"/>
	<path class="st40" d="M1202.8,657.2v36.9l-108.4,89.2c-12.2-11.5-28.6-18.3-46.2-18.3h-43.6l73-65.3l14.7-13.2l73.7-66
		c10.1,0,19.3,4.1,26,10.8C1198.7,637.9,1202.8,647.1,1202.8,657.2z"/>
	<g>
		<path class="st34" d="M1016.8,493.2v19.6c0,2.7-2.2,4.9-4.9,4.9c-2.7,0-4.9-2.2-4.9-4.9v-19.6c0-3.8-3.1-6.8-6.8-6.8h-16.1v-9.7
			h16.1C1009.3,476.7,1016.8,484.1,1016.8,493.2z"/>
		<path class="st34" d="M1053.6,490.6H1039c-2.7,0-4.9-2.2-4.9-4.9c0-2.7,2.2-4.9,4.9-4.9h14.6c2.7,0,4.9,2.2,4.9,4.9
			C1058.5,488.4,1056.3,490.6,1053.6,490.6z"/>
		<path class="st34" d="M1027.8,543h-14.6c-2.7,0-4.9-2.2-4.9-4.9c0-2.7,2.2-4.9,4.9-4.9h14.6c2.7,0,4.9,2.2,4.9,4.9
			C1032.7,540.8,1030.5,543,1027.8,543z"/>
	</g>
</g>
<line class="st41" x1="2098.1" y1="1589.3" x2="2098.1" y2="1605.3"/>
<g>
	<g>
		
			<rect x="916.1" y="786.2" transform="matrix(0.2137 -0.9769 0.9769 0.2137 -26.788 1550.1729)" class="st42" width="67.1" height="11.2"/>
		<path class="st43" d="M937.7,819.8l-5.4,24.6c-0.7,3.4,1.1,6.7,4.1,7.3c3,0.7,6.1-1.6,6.8-5l5.4-24.6L937.7,819.8z"/>
		<path class="st44" d="M955.6,715.5l20.4,4.5c4.4-15.7,8.1-31.5,11-47.5l-21.7-4.7C961.4,683.5,958.1,699.4,955.6,715.5z"/>
		<g>
			<path class="st45" d="M959.7,692.6l22,4.8c0.9-4,1.9-8.1,2.7-12.2l-22.1-4.8C961.4,684.4,960.6,688.5,959.7,692.6z"/>
			<path class="st45" d="M975.5,721.5c1.1-4,2.2-8,3.3-12l-21.4-4.7c-0.7,4.1-1.4,8.2-2.1,12.3L975.5,721.5z"/>
		</g>
		<path class="st46" d="M974.8,708.6c0,0-2.7,10.1-2.8,10.4l4,0.9c4.4-15.7,8.1-31.5,11-47.5l-4-0.9
			C980.7,684,978,696.4,974.8,708.6z"/>
		<path class="st47" d="M965.6,668.1c-0.3-0.1-0.5-0.3-0.5-0.5c-1.5-5.3-0.6-11.4,2.8-18.9c2.9-6.4,7.4-13.1,11.3-18.9
			c3.1-4.7,6.1-9.1,8-12.9c0.1-0.3,0.5-0.5,0.8-0.4c0.3,0.1,0.6,0.4,0.6,0.7c0.1,4.2,1,9.4,1.9,15c1.1,6.9,2.4,14.8,2.4,21.9
			c0,8.2-1.8,14.2-5.4,18.4c-0.2,0.2-0.4,0.3-0.7,0.2L965.6,668.1z"/>
		<path class="st46" d="M987.1,634.3c1.1,6.9,2.4,14.8,2.4,21.9c0,6.9-1.3,12.3-3.8,16.3l1,0.2c0.3,0.1,0.5,0,0.7-0.2
			c3.6-4.1,5.4-10.1,5.4-18.4c0-7.1-1.3-15-2.4-21.9c-0.9-5.6-1.8-10.8-1.9-15c0-0.3-0.2-0.6-0.6-0.7c-0.3-0.1-0.7,0.1-0.8,0.4
			c-0.5,1.1-1.1,2.2-1.8,3.3C985.5,624.2,986.3,629.1,987.1,634.3z"/>
		<g>
			<path class="st48" d="M983.1,671.9l4-18.2c0.3-1.4-0.6-2.7-2-3c-0.7-0.2-1.4,0-1.9,0.3s-1,0.9-1.1,1.6l-4,18.2L983.1,671.9z"/>
			<path class="st48" d="M974.2,669.9l2.3-10.6c0.3-1.4-0.6-2.7-2-3c-0.7-0.2-1.4,0-1.9,0.3s-1,0.9-1.1,1.6l-2.3,10.6L974.2,669.9z"
				/>
		</g>
		<path class="st43" d="M955.6,715.5c-2.5,15.8-4.3,31.7-5.5,47.7l10.9,2.4c5.7-15,10.7-30.2,15-45.7L955.6,715.5z"/>
	</g>
	<g>
		<path class="st49" d="M993,791l-7-20c-5-11-4.1-13.7-14-15c-0.1,0-6,1-13,4c-3.9,1.7-4.3,1.9-13.7,3.8l0,0L944,755l10-11
			c2-12-7-7-7-7l-17,14l-12.1,21.8h0h0l16.7,49.5c14-5.6,36.2-12.8,53.5-18.2C994,802.1,995,797,993,791z"/>
		<polygon class="st7" points="916.6,768.9 893,776.8 914.3,840 937.9,832.1 934.5,822.2 917.9,772.8 		"/>
	</g>
	<polygon class="st49" points="731.1,679.4 751,640 763,607 737,565 703,577 699,622 689,642 	"/>
	<g>
		<g>
			<path class="st49" d="M690.4,624.6c-0.2,0.6-3.6,7-7.3,14c-6.4,12-9.9,25.4-10.1,39l-0.4,26.1c0,0,41.5,6.2,42.6,4.7
				c27.8-36.4,16.6-59.6,16.6-59.6L690.4,624.6z"/>
		</g>
		
			<rect x="688.8" y="646.8" transform="matrix(0.4556 -0.8902 0.8902 0.4556 -224.347 991.8979)" class="st7" width="20" height="65.1"/>
	</g>
	<path class="st50" d="M838.4,522.9c-0.8-2.3-1.8-4.6-2.9-6.8c-6-11-17.5-19.3-30.6-24.8c-23.5-10-49.1-14.2-74.6-11.6
		c-32.3,3.4-62.5,17.1-88.9,35.5c-11.6,8.1-22.5,17.1-32.8,26.7c-13,12.2-12.6,12.9-21.4,28.6c-0.1,0.1-0.1,0.3-0.2,0.4
		c-10,17.9-19.4,56.1,10.5,58.7c20.6,1.8,38.9-2.4,57.9-9.8c4.7-1.8,11.3-4.8,18.7-7.5c0,0,0,0,0,0c0.1,0,0.2-0.1,0.3-0.1
		c0.1,0,0.2-0.1,0.3-0.1c4.1-1.5,26.2-8.6,36.6,0.9c0.2,0.2,0.3,0.3,0.5,0.5c5.8,5.8,3.4,13.4,0.1,19c-2.7,4.5-6,7.8-6,7.8
		s-9.9,21.8,29.6,6.2c5.5-2.2,12.1-5.1,19.7-9C814.1,608,851.8,561.6,838.4,522.9z M735.8,601.3c-8.5,2.1-16.4-0.7-17.8-6.3
		c-1.4-5.6,4.4-11.8,12.9-13.8c8.5-2.1,16.4,0.7,17.8,6.3C750.1,593,744.3,599.2,735.8,601.3z"/>
	<ellipse class="st51" cx="617" cy="449.1" rx="14.5" ry="24.7"/>
	<path class="st52" d="M518.9,288.8l96.2,23.6c24,14.8,19.8,59.9,7,85c-2.5,5-3.7,8.1-5,9.8c-2.8,3.7-55.7-102.3-55.7-102.3"/>
	<path class="st49" d="M483.1,622.7H466c-15.7,0-28.6-12.9-28.6-28.6v-80.5c0-15.7,12.9-28.6,28.6-28.6h17.1
		c15.7,0,28.6,12.9,28.6,28.6v80.5C511.7,609.9,498.8,622.7,483.1,622.7z"/>
	<path class="st52" d="M617.7,405.2c0.8,6.5-29.6,17.4-30,24.3l4.9,13.7c-37.3-13.5-4.4,7.1-4.4,7.1c-11.1,32.9-7.2,51.1-38.9,63.6
		c-15.8,6.2-33.1,9.1-51.1,7.8c-24.2-1.7-45.7,5.9-63.2-2.5c-3.6-1.7-7-4.1-10.3-7.3c-6.2-6.2-11.7-13-16.3-20.3
		c-1.8-2.9-3.5-5.8-5.1-8.9c-9.5-18.4-29.1-72.5-27.5-94.7c4.4-62.7,64.4-104.6,133.5-99.9c1.8,0.1,3.5,0.2,5.3,0.3
		c37.3,2.6,69.2,22.4,88.7,51.1c1,1.5,2,3.1,3,4.7c0,0.1,0,0.1,0,0.1c5.6,9.1,8.6,48.2,8.6,48.2
		C616.3,396.7,617.2,400.9,617.7,405.2z"/>
	<path class="st53" d="M614.9,425.3l-0.9,17.2l-1.5,28.5l-2.3,10.1c-0.2,4.5-2.5,28.1-3.3,32.4c-7.9,40.4-34.4,48.9-75.5,54
		c-1.2,0.2-2.5,0.3-3.7,0.4c-4.4,0.5-8.8,0.5-13.4,0.3c-4.4-0.2-8.7-0.8-12.9-1.6c-8.2-1.5-16.1-4.1-23.4-7.6c0,0-0.1,0-0.1-0.1
		c-18.2-8.6-33.1-22.6-42.8-39.8c-7.4-13-11.8-27.8-12.2-43.5c-0.1-1.1-0.1-2.1-0.1-3.3c0-1.2,0-2.6,0.1-3.9V468l0.1-3.1l0.5-8.1
		l1.4-28l0.1-0.3v-0.1l0.3-5.2l0.2-4l0.2-3.7l0.1-1c0.4-6.5,1.7-12.7,3.6-18.7c1.2-4.2,2.8-8.3,4.6-12.2c0.3-0.6,0.5-1.2,0.8-1.8
		c1.4-3.2,3.1-6.4,5-9.4c0-0.1,0-0.1,0-0.1c6.9-11.6,16.2-21.6,27.3-29.3c2.2-1.6,4.5-3.1,6.8-4.4c16-9.4,34.9-14.4,54.8-13.4
		c16.5,0.9,28.8,5.8,42.1,13.8c8.1,4.8,15.4,10.8,21.6,17.7c8.9,9.7,14.8,21.1,19,33.7c0.3,0.7,0.5,1.4,0.7,2.1
		c1.3,4.1,2.1,8.4,2.7,12.7C615.1,411.7,615.2,418.5,614.9,425.3z"/>
	<path class="st54" d="M603.2,449L603.2,449c-2.4,0-4.3-1.9-4.3-4.3v-6.4c0-2.4,1.9-4.3,4.3-4.3l0,0c2.4,0,4.3,1.9,4.3,4.3v6.4
		C607.5,447.1,605.6,449,603.2,449z"/>
	<path class="st52" d="M580.2,340c20.2,55.6-32.9,51.1-35.4,76.6c-0.3,2.9-1.3,7.1-2.1,28l-4.1,13.1c-1.2,4.1-5,6.9-9.2,6.9
		c-5.3,0-9.6-4.3-9.6-9.6v-0.3l0.5-20.8l-10.4,27.5c-7.5,19.8-18.8,37.7-33.1,52.8c-11.9,12.5-25.8,23.1-41.3,31.2
		c0,0-64.8-38.5-64.8-126.5c0-7,0.4-14.3,1.3-21.9c0.8-6.8,1.9-13.2,3.5-19.2c26.8-109.3,161.2-72,174.1-67.2
		C563.2,315.7,580.2,340,580.2,340z"/>
	<path class="st55" d="M630,434.9H517.9c-1.3,0-2.4-1.1-2.4-2.4v0c0-1.3,1.1-2.4,2.4-2.4H630c1.3,0,2.4,1.1,2.4,2.4v0
		C632.4,433.8,631.3,434.9,630,434.9z"/>
	<path class="st53" d="M626.3,484.2c0,0.2,0,1.4,0,1.4c-0.2,6-5.4,10.8-18.3,10.4l1.8-47C620.3,465.1,625.4,474.4,626.3,484.2z"/>
	<path class="st52" d="M619.3,427.4h-28.7c-3.3,0-6.1-2.7-6.1-6.1l0,0c0-3.3,2.7-6.1,6.1-6.1h28.7c3.3,0,6.1,2.7,6.1,6.1v0
		C625.4,424.7,622.6,427.4,619.3,427.4z"/>
	<rect x="437" y="1288" class="st2" width="43" height="335"/>
	<path class="st56" d="M476.9,514.2c-11.9,12.5-25.8,23.1-41.3,31.2c0,0-64.8-38.5-64.8-126.5c0-7,0.4-14.3,1.3-21.9
		c0.8-6.8,1.9-13.2,3.5-19.2c2.9,16.7,10.4,42.1,29.7,73.4C434.5,498.9,466.4,511.3,476.9,514.2z"/>
	<path class="st52" d="M607.8,510.6l-0.9,32.9c0,28-33.2,39.3-57.8,36.6l-39.2-4.2l3.9-34l10.7-65.1l-17.3-48.6l35.6,14.8l0,0.1
		c-2.7,38.6,25,69.8,63.6,68L607.8,510.6z"/>
	<path class="st49" d="M517.5,426.9c4,0,7.2,3.3,7.1,7.2l-0.2,24.4l-0.2,21.4l-8.4,0c-0.6,0-1.2,0-1.8-0.1
		c-14-1.1-25.1-13.3-25-27.4c0-7.3,3.1-13.5,8-18.3c4.4-4.3,10.4-6.7,16.9-7.1l0,0c0.8-0.1,1.4-0.1,2.2-0.1L517.5,426.9z"/>
	<g>
		<path class="st57" d="M599.9,1615.1l151.6,1.6c9,0.1,16.5-7.2,16.5-16.2l0,0c0.1-7-4.3-13.2-10.8-15.6l-74.8-27l-82,1.1
			L599.9,1615.1z"/>
		<path class="st54" d="M754.6,1621l-153.5-0.5l0-11l164.5,0.5l0,0C765.6,1616.1,760.6,1621,754.6,1621z"/>
	</g>
	<g>
		<line class="st58" x1="680.6" y1="1580.1" x2="698.5" y2="1561.2"/>
		<line class="st58" x1="693.7" y1="1585.7" x2="711.5" y2="1566.7"/>
		<line class="st58" x1="706.1" y1="1593.1" x2="726.3" y2="1571.6"/>
	</g>
	<g>
		<path class="st59" d="M594.8,1565.3c8.8-147.9,6.4-284.7-5.1-312.4c-11.8-17.2-103.9-54.5-196-58.5l43.1-94.1
			c120.8,6.1,207.1,51.4,237.3,103.2c12.7,21.9,23.8,65.9,17.8,216.8c-3.1,79-7,140.9-7,140.9L594.8,1565.3z"/>
	</g>
	<polygon class="st5" points="578.4,1332 573.1,1309 566,1278 518.6,1278 525.8,1309 531.1,1332 566.8,1480 347.2,1480 382.9,1332 
		388.2,1309 395.4,1278 348,1278 340.9,1309 335.6,1332 255,1658 302.4,1658 336.9,1525 577.2,1525 611.6,1658 659,1658 	"/>
	<g>
		<path class="st60" d="M735,1618.9l151.7,1c9,0.1,16.4-7.2,16.5-16.3l0,0c0-7-4.3-13.2-10.9-15.5l-74.9-26.7l-82,1.4L735,1618.9z"
			/>
		<path class="st54" d="M889.6,1624.2l-156,0.1l0-11l167-0.1l0,0C900.6,1619.2,895.7,1624.1,889.6,1624.2z"/>
	</g>
	<g>
		<line class="st58" x1="815.5" y1="1583.6" x2="833.3" y2="1564.6"/>
		<line class="st58" x1="828.6" y1="1589.1" x2="846.4" y2="1570.1"/>
		<line class="st58" x1="841.1" y1="1596.5" x2="861.1" y2="1574.9"/>
	</g>
	<path class="st61" d="M607,1310H310c-12.2,0-22-9.8-22-22l0,0c0-12.2,9.8-22,22-22h297c12.2,0,22,9.8,22,22l0,0
		C629,1300.2,619.2,1310,607,1310z"/>
	<g>
		<path class="st59" d="M729.5,1565.3c8.8-147.9,6.4-284.7-5.1-312.4c-11.8-17.2-103.9-54.5-196-58.5l43.1-94.1
			c120.8,6.1,207.1,51.4,237.3,103.2c12.7,21.9,23.8,65.9,17.8,216.8c-3.1,79-7,140.9-7,140.9L729.5,1565.3z"/>
	</g>
	<path class="st59" d="M599.7,1127.4c0,16.6-5.9,31.8-15.7,43.6c-12.5,15.2-31.5,24.9-52.8,24.9H416.1c-3.4,0-6.8-0.3-10-0.8
		c-8.4-1.2-16.4-4-23.5-8c-1.3-0.7-2.5-1.5-3.7-2.3c-18.8-12.2-31.2-33.4-31.2-57.4l2.1-36.5l247.9-2.1L599.7,1127.4z"/>
	<g>
		<path class="st59" d="M669.7,823.1c-21.5,42-65.7,67.9-113,66l-2.3-0.1l-196.2-31l12.5-79.1l191.2,30.2
			c15.5-0.1,29.7-8.9,36.7-22.9l58.7-117.5l71.7,35.8l-58.7,117.5C670,822.4,669.9,822.8,669.7,823.1z"/>
	</g>
	<g>
		<path class="st61" d="M801.3,886.1c-44.7,15.1-94.5,2.7-126.9-31.6L528.6,700.3l58.2-55l145.8,154.1c11.1,11.8,28.1,16,43.6,10.6
			l124-43.1l26.3,75.7l-124,43.1C802.1,885.8,801.7,886,801.3,886.1z"/>
	</g>
	<path class="st61" d="M620.9,727.2l-1.5,168.2l-1.9,214.1c0,0-4.6,5.2-18.4,12.4c-11.9,6.3-30.7,14.2-59.3,21.6
		c-33.3,8.7-80.2,10-120.3,9c-44.2-1.1-80.1-5-80.1-5l0.9-420.2c0-59.1,42.8-108.3,99.1-118.2c6.8-1.2,13.7-1.8,20.9-1.8h40.6
		C567.2,607.2,620.9,660.9,620.9,727.2z"/>
	<path class="st59" d="M405.2,714.6c-5.3,77.2,9.7,355.6,14.4,437.9c-44.2-1.1-80.1-5-80.1-5l0.9-420.2
		c0-59.1,42.8-108.3,99.1-118.2C439.5,609,411.5,623.6,405.2,714.6z"/>
	<polygon class="st7" points="543.2,614.5 419.4,614.5 419.4,579.9 543.2,594.5 	"/>
	<path class="st59" d="M621,799l-3.4,307.8c0,0-4.6,6.3-18.4,15L571,752C571,752,583,762,621,799z"/>
	<path class="st56" d="M375.7,399.2c0,0,52.5,5.3,112.1-19.1c59.6-24.3,96.3-74.5,96.3-74.5l-30-7.9l-72.3,17.2l-62.5,46.3
		L375.7,399.2z"/>
	<path class="st62" d="M388,275.7c-13.8,9.3-28.5,21.5-28.5,38.4c0,10.8-5.5,21-12.7,28.8c-7.2,7.7-15.9,13-17.6,24.5
		c-2.7,18.1,14.2,26.6,29.1,29.7c47.5,9.8,178.6-59.7,178.6-59.7s60.6-32.9,50.7-61c-3.4-9.5-15.9-14.8-24.4-18.3
		c-15.6-6.3-32.6-9.7-49.3-11.5c-40.1-4.3-82,0.4-116.3,22.8C394.6,271.3,391.3,273.4,388,275.7z"/>
	<path class="st63" d="M397.7,269.3c-3,2-6.3,4.1-9.7,6.4c-13.8,9.3-28.5,21.5-28.5,38.4c0,10.8-5.5,21-12.7,28.8
		c-7.2,7.7-15.9,13-17.6,24.5c-2.7,18.1,14,27.4,29.1,29.7c71.9,11,178.6-59.7,178.6-59.7s24-13.1,39.3-29.7
		c-0.6,0.4-55.4,37.7-97.3,31.6c-42.1-6.2-73.1,4.3-73.1,4.3s-29.3,3.7-37.2-17.7S397.7,269.3,397.7,269.3z"/>
	<path class="st63" d="M450.5,265.3c0,0-21.5-18.3-44.3-16.7s0,5.7,0,5.7l37,11H450.5z"/>
	<path class="st63" d="M437.5,265.3l-3.3,2c0,0-12.2,3.7-2,6.1c5.6,1.3,11.5,0.4,17-1c3.6-0.9,9.9-1,10-6.3c0-4.9-8.8-4.1-11.9-3.3
		C447.3,262.8,437.5,265.3,437.5,265.3z"/>
	<polygon class="st6" points="340.9,1309 388.2,1309 382.9,1332 335.6,1332 	"/>
	<rect x="437" y="1309" class="st2" width="43" height="23"/>
	<polygon class="st6" points="573.1,1309 525.8,1309 531.1,1332 578.4,1332 	"/>
	<path class="st64" d="M664.8,1192.5H507.3c-41.4-76.4-113.2-163.9-209.3-161.8c-22,0.5-45.1,4.3-64.9,14.2
		c-40.8,20.4-57.1,64.9-60.1,108c-6,86.5,48.6,113.5,76.8,121.6c4.5,1.9,9.4,3,14.5,3.2c1.1,0.1,1.7,0.2,1.7,0.2l0.5-0.2h398.3
		c23.5,0,42.7-19.2,42.7-42.7C707.5,1211.7,688.3,1192.5,664.8,1192.5z"/>
	<path class="st63" d="M664.8,1192.5H507.3C397.5,990,266,1035,266,1035s-3.2,0.1-8.3,1c0,0,141.2-15.3,240.3,159.8l9.3,18.3
		l194.5-0.1C694.4,1201.2,680.6,1192.5,664.8,1192.5z"/>
	<path class="st49" d="M714.6,577c-4.3-2.2-9.7-0.7-12.2,3.2l-17.1,27.2l0.3,0.2l-0.5,0.1l-5.5,38.9l29.8-18.2l-2.9-22.4l11.3-17.9
		C720.3,584.1,718.8,579.2,714.6,577z"/>
	<path class="st37" d="M612.3,576.6c4.6,3.1,12,14.1,7.7,20.4s-18.7,5.7-23.2,2.5s-4.8-10.8-0.5-17.1
		C600.6,576.1,607.8,573.5,612.3,576.6z"/>
	<path class="st65" d="M639.3,542.6c4.6,3.1,18,7.1,13.7,13.4s-24.7,12.7-29.2,9.5s-4.8-10.8-0.5-17.1
		C627.6,542.1,634.8,539.5,639.3,542.6z"/>
	<path class="st36" d="M681.3,509.6c4.6,3.1,11.7,9.4,0.5,17.1c-6.3,4.3-18.3,13.4-22.8,10.3s-4.3-13.7,0-20
		C663.3,510.7,676.8,506.5,681.3,509.6z"/>
	<path class="st18" d="M732,495c4.6,3.1,25,9-6.2,20.7c-7.2,2.7-11.5,9-16.1,5.9s-4.8-10.8-0.5-17.1
		C713.6,498.1,727.4,491.9,732,495z"/>
	<path class="st7" d="M784,500c5,2.3,25.3,6.7,21,13c-4.3,6.3-3,12-27,11c-5.5-0.2-25-12-11.7-19.5C772.9,500.7,771,494,784,500z"/>
	<path class="st66" d="M815.2,544.6c16.8,3.4,5.7,17.2-1.8,26.3s-26.8,12.4-33.3,7s6.4-14.9,14-24S806.9,543,815.2,544.6z"/>
</g>
</svg>
