<?xml version="1.0" encoding="utf-8"?>
<!-- Generator: Adobe Illustrator 21.0.0, SVG Export Plug-In . SVG Version: 6.00 Build 0)  -->
<svg version="1.1" id="Layer_1" xmlns="http://www.w3.org/2000/svg" xmlns:xlink="http://www.w3.org/1999/xlink" x="0px" y="0px"
	 viewBox="0 0 1761 1091" style="enable-background:new 0 0 1761 1091;" xml:space="preserve">
<style type="text/css">
	.st0{fill:#FFD199;}
	.st1{fill:#567CD1;}
	.st2{opacity:0.3;fill:#567CD1;enable-background:new    ;}
	.st3{opacity:0.6;}
	.st4{fill:#304975;}
	.st5{opacity:0.4;fill:#FFD199;enable-background:new    ;}
	.st6{fill:#140A00;}
	.st7{opacity:0.83;fill:#CFEDFF;enable-background:new    ;}
	.st8{opacity:0.74;fill:#FFFFFF;enable-background:new    ;}
	.st9{fill:none;stroke:#8E4E32;stroke-width:8.6656;stroke-miterlimit:10;}
	.st10{fill:#211100;}
	.st11{fill:#3A1607;}
	.st12{fill:#D39C5F;}
	.st13{fill:#A3DB95;}
	.st14{fill:#B2E5F4;}
	.st15{fill:#00AAAD;}
	.st16{fill:#0A3542;}
	.st17{fill:#D6D6D6;}
	.st18{fill:#ED9A62;}
	.st19{fill:#F0F0F0;}
	.st20{fill:#492A15;}
	.st21{fill:#BDBDBD;}
	.st22{fill:#A2A3A4;}
	.st23{fill:#8C5028;}
	.st24{fill:#8A8A8A;}
	.st25{fill:#666666;}
	.st26{fill:#333333;}
	.st27{fill:#4D4D4D;}
	.st28{fill:#999999;}
	.st29{fill:#DFE0E1;}
	.st30{fill:#CDCECF;}
	.st31{fill:#B3B5B6;}
	.st32{fill:#578DA0;}
	.st33{fill:#ACD6F2;}
	.st34{fill:#5EAACF;}
	.st35{fill:#6BA795;}
	.st36{fill:#7B7031;}
	.st37{opacity:0.2;}
	.st38{fill:#F2F2F2;}
	.st39{fill:#518394;}
	.st40{fill:#CCCCCC;}
	.st41{fill:#E2E2E2;}
	.st42{fill:#A5A5A5;}
	.st43{fill:#B3B3B3;}
	.st44{opacity:0.1;enable-background:new    ;}
	.st45{fill:#78151B;}
	.st46{fill:#EFA706;}
	.st47{fill:none;stroke:#8E4E32;stroke-width:4.6622;stroke-miterlimit:10;}
	.st48{fill:#E6E6E6;}
	.st49{fill:#C6C7C7;}
	.st50{fill:#96BEE5;}
	.st51{fill:#CDCECE;}
	.st52{fill:#373339;}
	.st53{fill:#FFFFFF;}
	.st54{opacity:0.3;fill:#5B565D;enable-background:new    ;}
	.st55{fill:#D4D4CF;}
	.st56{fill:#231000;}
	.st57{fill:#CFEDFF;}
	.st58{opacity:0.83;fill:#8FC8E5;enable-background:new    ;}
	.st59{opacity:0.7;fill:#FFFFFF;enable-background:new    ;}
	.st60{opacity:0.7;fill:#D39C5F;enable-background:new    ;}
	.st61{fill:#B60700;}
	.st62{fill:none;}
	.st63{fill:#5B565D;}
	.st64{fill:#48444A;}
	.st65{fill:#9E0404;}
	.st66{fill:#F1F1F1;}
	.st67{fill:#A7A8A3;}
	.st68{fill:none;stroke:#594A42;stroke-width:4.3979;stroke-miterlimit:10;}
	.st69{fill:#F5D38A;}
	.st70{fill:#DAAC69;}
	.st71{fill:#B2D235;}
	.st72{fill:#00878A;}
	.st73{fill:#F09B36;}
	.st74{fill:#454545;}
	.st75{fill:#980110;}
	.st76{fill:#D83030;}
	.st77{fill:#FAFFBE;}
	.st78{fill:#AB1D28;}
	.st79{fill:#F28076;}
	.st80{fill:#545454;}
	.st81{fill:#BCBCBC;}
	.st82{fill:#7383BF;}
	.st83{fill:#424A60;}
	.st84{fill:#E7ECED;}
	.st85{fill:#91CF96;}
	.st86{fill:#5ABA63;}
	.st87{fill:#7F5B53;}
	.st88{fill:#AF8066;}
	.st89{fill:#D9AA94;}
	.st90{fill:#F58C7E;}
	.st91{fill:#808080;}
	.st92{fill:#E8D4AA;}
	.st93{fill:#306E89;}
	.st94{opacity:0.4;fill:#5ABA63;enable-background:new    ;}
</style>
<g>
	<path class="st0" d="M-1356.4,135.9L-1488,81.3c-5.4-2.2-3.7-9.7,2.3-9.7h135.8c0,0,21.9,2.9,37.6,37.6
		C-1296.7,143.8-1356.4,135.9-1356.4,135.9z"/>
	<path class="st0" d="M-433.6,135.9L-302,81.3c5.4-2.2,3.7-9.7-2.3-9.7H-440c0,0-21.9,2.9-37.6,37.6S-433.6,135.9-433.6,135.9z"/>
	<path class="st1" d="M-584.2,285.7l160.9-131.9l-52.9-64.5l-161.1,132L-746,88.6v-1.1h-296.1v1.2l-0.8-0.7l-109.8,134l-161.8-132.7
		l-52.9,64.5l173.8,142.5c27.9,22.8,68.6,19.3,92.3-7.4c3.5-3,6.9-6.4,9.9-10.1l49.3-60.1V515H-746V220.3l54.7,66.7
		c23.6,28.8,66.1,33,94.8,9.4l12.4-10.2l-0.3-0.3C-584.3,285.8-584.2,285.8-584.2,285.7z"/>
	<path class="st2" d="M-977.1,89.5c0,47.6,50.8,86.1,113.4,86.1s113.4-38.5,113.4-86.1c0-0.7,0-1.3-0.1-2H-977
		C-977,88.2-977.1,88.8-977.1,89.5z"/>
	<path class="st0" d="M-892.2,145.3h-2.2c-21.3,0-38.6-17.3-38.6-38.6V19.3c0-21.3,17.3-38.6,38.6-38.6h2.2
		c21.3,0,38.6,17.3,38.6,38.6v87.4C-853.6,128-870.9,145.3-892.2,145.3z"/>
	<g class="st3">
		<path class="st4" d="M-812.1,202.5h-165.3c-9.4,0-17,7.6-17,17v102c0,9.4,7.6,17,17,17h66.3v15.4h-13.4c-6.3,0-11.5,5.1-11.5,11.5
			c0,6.3,5.1,11.5,11.5,11.5h59.5c6.3,0,11.5-5.1,11.5-11.5c0-6.3-5.1-11.5-11.5-11.5h-13.4v-15.4h66.3c9.4,0,17-7.6,17-17v-102
			C-795.1,210.1-802.7,202.5-812.1,202.5z M-974.4,302.1c0-9,7.3-16.3,16.3-16.3s16.3,7.3,16.3,16.3s-7.3,16.3-16.3,16.3
			C-967.1,318.4-974.4,311.1-974.4,302.1z M-814.8,318.8H-915c0.5-1.2,0.2-2.5-0.8-3.4l-6.5-5.8c0.5-2.4,0.8-4.9,0.8-7.5
			s-0.3-5.1-0.8-7.5l6.5-5.8c1.1-1,1.3-2.5,0.6-3.8l-6.7-11.5c-0.7-1.2-2.2-1.8-3.6-1.4l-8.3,2.8c-3.7-3.3-8.1-5.9-13-7.5l-1.8-8.6
			c-0.3-1.4-1.5-2.4-3-2.4h-13.3c-1.4,0-2.7,1-3,2.4l-1.8,8.6c-1.8,0.6-3.5,1.3-5.2,2.2v-47.3H-815L-814.8,318.8L-814.8,318.8z"/>
		<path class="st4" d="M-904.8,269.6c-0.8-0.3-1.7,0.1-2.1,0.8l-3.9,6.8c-0.4,0.7-0.3,1.7,0.4,2.2l3.8,3.4c-0.3,1.4-0.5,2.9-0.5,4.4
			s0.2,3,0.5,4.4l-3.8,3.4c-0.6,0.6-0.8,1.5-0.4,2.2l3.9,6.8c0.4,0.7,1.3,1.1,2.1,0.8l4.9-1.6c2.2,2,4.8,3.5,7.7,4.4l1,5
			c0.2,0.8,0.9,1.4,1.8,1.4h7.9c0.8,0,1.6-0.6,1.8-1.4l1-5c2.9-0.9,5.5-2.5,7.7-4.4l4.9,1.6c0.8,0.3,1.7-0.1,2.1-0.8l3.9-6.8
			c0.4-0.7,0.3-1.7-0.4-2.2l-3.8-3.4c0.3-1.4,0.5-2.9,0.5-4.4s-0.2-3-0.5-4.4l3.8-3.4c0.6-0.6,0.8-1.5,0.4-2.2l-3.9-6.8
			c-0.4-0.7-1.3-1.1-2.1-0.8l-4.9,1.6c-2.2-2-4.8-3.5-7.7-4.4l-1-5c-0.2-0.8-0.9-1.4-1.7-1.4h-7.9c-0.8,0-1.6,0.6-1.8,1.4l-1,5
			c-2.9,0.9-5.5,2.5-7.7,4.4L-904.8,269.6z M-885.5,277.7c5.3,0,9.6,4.3,9.6,9.6c0,5.3-4.3,9.6-9.6,9.6s-9.6-4.3-9.6-9.6
			S-890.8,277.7-885.5,277.7z"/>
		<path class="st4" d="M-929.2,247.3c-0.2,1-0.3,2-0.3,3s0.1,2.1,0.3,3l-2.6,2.3c-0.4,0.4-0.5,1-0.2,1.5l2.7,4.7
			c0.3,0.5,0.9,0.7,1.4,0.5l3.4-1.1c1.5,1.4,3.3,2.4,5.3,3l0.7,3.5c0.1,0.6,0.6,1,1.2,1h5.4c0.6,0,1.1-0.4,1.2-1l0.7-3.5
			c2-0.6,3.7-1.7,5.3-3l3.4,1.1c0.6,0.2,1.2,0,1.4-0.5l2.7-4.7c0.3-0.5,0.2-1.1-0.2-1.5l-2.6-2.3c0.2-1,0.3-2,0.3-3s-0.1-2.1-0.3-3
			l2.6-2.3c0.4-0.4,0.5-1,0.2-1.5l-2.7-4.7c-0.3-0.5-0.9-0.7-1.4-0.5l-3.4,1.1c-1.5-1.4-3.3-2.4-5.3-3l-0.7-3.5
			c-0.1-0.6-0.6-1-1.2-1h-5.4c-0.6,0-1.1,0.4-1.2,1l-0.7,3.5c-2,0.6-3.7,1.7-5.3,3l-3.4-1.1c-0.6-0.2-1.2,0-1.4,0.5l-2.7,4.7
			c-0.3,0.5-0.2,1.1,0.2,1.5L-929.2,247.3z M-914.7,243.8c3.6,0,6.6,2.9,6.6,6.6c0,3.6-2.9,6.6-6.6,6.6s-6.6-2.9-6.6-6.6
			C-921.3,246.7-918.4,243.8-914.7,243.8z"/>
	</g>
	<path class="st5" d="M-933,36.8v17.4l72.1,75.2c4.6-6.4,7.4-14.2,7.4-22.7V27.4C-885.3,28-916,33.3-933,36.8z"/>
	<polyline class="st2" points="-746,220.4 -1042.1,515 -746,515 	"/>
	<g>
		<circle class="st0" cx="-745.3" cy="-149.4" r="36.1"/>
		<path class="st0" d="M-709.2-149.4c0,19.9-16.2,36.1-36.1,36.1c-5.5,0-10.7-1.2-15.3-3.4v44.2c0,73.7-60.3,134-134,134l0,0
			c-73.7,0-134-60.3-134-134v-43.7c-4.4,1.9-9.2,2.9-14.3,2.9c-19.9,0-36.1-16.2-36.1-36.1s16.2-36.1,36.1-36.1
			c5.1,0,9.9,1,14.3,2.9v-57.7c0-24.7,20.2-44.9,44.9-44.9h178.1c24.7,0,44.9,20.2,44.9,44.9v58.2c4.7-2.2,9.8-3.4,15.3-3.4
			C-725.3-185.5-709.2-169.3-709.2-149.4z"/>
		<g>
			<path class="st6" d="M-746-285.1v99.7c-9.2,0-17.7,2.7-24.6,7.2c-2.1,1.4-4,2.9-5.7,4.6v-111.5H-746z"/>
		</g>
		<path class="st5" d="M-745.3-185.5c-5.5,0-10.7,1.2-15.3,3.4v-58.2c0-18.5-11.3-34.5-27.4-41.3l-109.2,10.9V61.5
			c0.1,0,0.2,0,0.4,0l25.1-1.9c62.9-10.9,111.2-66.1,111.2-132v-44.2c4.7,2.2,9.8,3.4,15.3,3.4c19.9,0,36.1-16.2,36.1-36.1
			S-725.3-185.5-745.3-185.5z"/>
		<g>
			<path class="st6" d="M-925.8-204.2h-62.1c-3.6,0-6.5-2.9-6.5-6.5l0,0c0-3.6,2.9-6.5,6.5-6.5h62.1c3.6,0,6.5,2.9,6.5,6.5l0,0
				C-919.3-207.2-922.2-204.2-925.8-204.2z"/>
		</g>
		<g>
			<g>
				<path class="st6" d="M-877.3-206.7c12.6,9.6,28.1,3.6,39.5-4.8c5.5-4.1,24.4-23.2,29.9-11.1c3.4,7.6,14.7,1,11.2-6.6
					c-6.6-14.5-23.1-11.2-33.9-4c-10.7,7.2-26.4,25.8-40.2,15.3c-2.8-2.2-7.2-0.4-8.9,2.3C-881.6-212.2-880.1-208.8-877.3-206.7
					L-877.3-206.7z"/>
			</g>
		</g>
		<g>
			<rect x="-1042.1" y="-296.7" class="st6" width="28.9" height="125.7"/>
		</g>
		<path d="M-767.7-179.7v1.4c-1.8,1.4-3.5,2.9-5.1,4.6v2.6H-788v-8.7L-767.7-179.7L-767.7-179.7z"/>
		<circle class="st7" cx="-956.9" cy="-162.4" r="46.2"/>
		<path class="st8" d="M-974.1-126.3h-21.7l51.8-80.9h12.5c4,0,6.4,4.4,4.2,7.7L-974.1-126.3z"/>
		<path class="st8" d="M-941.4-139h-14.1l33.6-52.5h6c3.5,0,5.6,3.9,3.7,6.8L-941.4-139z"/>
		<circle class="st7" cx="-834.1" cy="-162.4" r="46.2"/>
		<path class="st8" d="M-851.3-126.3H-873l51.8-80.9h12.5c4,0,6.4,4.4,4.2,7.7L-851.3-126.3z"/>
		<rect x="-1023.3" y="-179.7" width="20.2" height="8.7"/>
		<path class="st8" d="M-818.6-139h-14.1l33.6-52.5h6c3.5,0,5.6,3.9,3.7,6.8L-818.6-139z"/>
		<g>
			<path class="st6" d="M-765.4-270.7h-238.9c-27.2,0-49.3-22.1-49.3-49.3v-9.7c0-27.2,22.1-49.3,49.3-49.3H-720v62.9
				C-720-291-740.3-270.7-765.4-270.7z"/>
		</g>
		<path class="st9" d="M-741.7-327.2c0,25.6-19.3,36.3-44.9,36.3"/>
		<path class="st10" d="M-947.3-47.1v5.6l0.5,0.5l0.2-11.6C-947-50.9-947.3-49-947.3-47.1z"/>
		<path class="st11" d="M-841.9-41.7v-5.4c0-1.9-0.3-3.7-0.8-5.5c-2.3-8.3-10-14.4-19.1-14.4h-65.6c-9.1,0-16.8,6.1-19.2,14.4
			l-0.2,11.6l-0.5-0.5l-81.2-74.5v43.6c0,73.7,60.3,134,133.9,134l0,0c73.7,0,134-60.3,134-134v-43.7L-841.9-41.7z M-856.5,2.4
			c0,7.9-6.5,14.4-14.4,14.4h-47.3c-7.9,0-14.4-6.5-14.4-14.4v-39.1c0-7.9,6.5-14.4,14.4-14.4h47.3c7.9,0,14.4,6.5,14.4,14.4V2.4z"
			/>
		<circle class="st0" cx="-1042.1" cy="-149.4" r="36.1"/>
		<path d="M-833.9-214.8c-23.1,0-42.7,14.9-49.7,35.6H-906c-7-20.7-26.6-35.6-49.7-35.6c-29,0-52.5,23.5-52.5,52.5
			s23.5,52.5,52.5,52.5s52.5-23.5,52.5-52.5c0-2.5-0.2-5-0.5-7.5h17.9c-0.4,2.4-0.5,4.9-0.5,7.5c0,29,23.5,52.5,52.5,52.5
			s52.5-23.5,52.5-52.5C-781.4-191.3-804.9-214.8-833.9-214.8z M-955.7-117.4c-24.8,0-45-20.1-45-45s20.1-45,45-45
			c24.8,0,45,20.1,45,45S-930.8-117.4-955.7-117.4z M-833.9-117.4c-24.8,0-45-20.1-45-45s20.1-45,45-45s45,20.1,45,45
			S-809-117.4-833.9-117.4z"/>
		<polyline class="st12" points="-919.1,-88.7 -896.7,-72.8 -876.2,-88.7 		"/>
	</g>
	<polygon class="st0" points="-772.7,-173.7 -772.7,-171 -774.9,-171 	"/>
	<g>
		<rect x="-1029.1" y="-191.2" class="st6" width="15.9" height="89.5"/>
	</g>
	<g>
		<rect x="-776.3" y="-191.2" class="st6" width="15.9" height="89.5"/>
	</g>
</g>
<g>
	<path class="st13" d="M1043.2,191.8c-0.7,0.8-1.3,1.5-1.9,2.2C1041.8,193.3,1042.5,192.6,1043.2,191.8z"/>
	<path class="st13" d="M1054.7,180.5c-0.9,0.8-1.9,1.6-2.8,2.4C1052.8,182.1,1053.8,181.3,1054.7,180.5z"/>
	<path class="st13" d="M1732.7,813.7c-0.5,4.6-1.1,9.1-1.7,13.5c-2.9,21.3-6.5,40.3-11.1,57.4c-2.7,10.1-5.7,19.5-9,28.4
		c-0.4,1.2-0.9,2.3-1.3,3.5c-1.2,3.2-2.5,6.3-3.9,9.3c-30,68.3-82.6,99.7-168.4,135.8c-17.2,7.3-38.1,13-61.3,17.3
		c-66.9,12.4-153.3,12.4-227.5,0c-83.4-13.9-151.5-43.6-159.2-89.2c0,0-53.6,14.4-133.5,22.3c-2.1,0.2-4.3,0.4-6.5,0.6
		c-50.6,4.6-111,6.5-174.7,0.5c-7.2-0.7-14.5-1.5-21.7-2.3c-1.8-0.2-3.5-0.4-5.3-0.7c-1.8-0.2-3.5-0.5-5.3-0.7l0,0
		c-1-0.1-1.9-0.3-2.9-0.4c-0.2,0-0.4-0.1-0.7-0.1s-0.5-0.1-0.8-0.1v-99.3h29.5v-24.9h36.8l7.2-17.7l2.4-5.8l4.2-10.4l0.8-1.9
		l0.2-0.4l2.4-5.8l4.1-10l2.2-5.4l13.5-33.1l2.4-5.8l4.3-10.4l0.9-2.2l22.2-54.3l3.1-7.7l2.8-6.9l4.3-10.5l173.3-424.6l10.4-25.4
		l17.4-42.7l8-19.6l12.6-30.8c1.5-0.6,3.1-1.2,4.7-1.7c0.8-0.3,1.6-0.6,2.4-0.8c0.8-0.3,1.6-0.6,2.4-0.8c1.7-0.6,3.3-1.1,5-1.6
		c0.7-0.2,1.5-0.5,2.2-0.7c0.2-0.1,0.4-0.1,0.6-0.2c0.7-0.2,1.3-0.4,2-0.6c1.8-0.5,3.7-1,5.6-1.5c0.7-0.2,1.4-0.4,2.1-0.5
		c0.7-0.2,1.4-0.4,2.1-0.5c3-0.7,6-1.4,9.2-2.1c0.7-0.1,1.3-0.3,2-0.4c0.8-0.2,1.5-0.3,2.3-0.5c29-5.7,65.1-8.5,109.9-6.3
		c23.5,1.1,44.9,3.3,64.4,6.3c10,1.5,19.6,3.3,28.6,5.2c9.5,2,18.4,4.2,26.8,6.5c32.5,9,57.3,20.1,75.9,31.1
		c11.6,6.8,20.9,13.5,28.1,19.6c16.4,13.7,22.4,24,22.4,24s41-2.6,86,13.2c13.8,4.9,28,11.4,41.5,20.3c12.7,8.4,24.8,18.9,35.4,32
		c6.9,8.5,13.1,18.1,18.4,28.9c6.2,12.5,11.1,26.7,14.5,42.7c1,4.7,1.9,9.7,2.6,14.7c0.8,5.5,1.4,11.2,1.8,17.1
		c0.6,8.9,0.9,17.5,0.9,25.6c0,5.7-0.2,11.3-0.6,16.6c-1,15.8-3.3,30-6.5,42.7c-9.2,36.2-26.5,60.6-44.7,77.1
		c-12.4,11.2-25.3,18.7-36.5,23.7c-11.5,5.1-21.2,7.6-26.8,8.7c-3.3,0.7-5.2,0.9-5.2,0.9s1.9,0.8,5.2,2.3c7.4,3.4,21.9,10.6,39,21.9
		c11.9,7.8,25,17.6,37.9,29.4c10.5,9.6,20.9,20.6,30.3,33c9.7,12.7,18.3,27,24.9,42.7c2,4.8,3.9,9.7,5.5,14.8c2,6.1,3.7,12.5,5,19
		C1734,772.7,1735.1,792.4,1732.7,813.7z"/>
	<path class="st14" d="M1043.2,191.8c-0.7,0.8-1.3,1.5-1.9,2.2C1041.8,193.3,1042.5,192.6,1043.2,191.8z"/>
	<path class="st14" d="M1054.7,180.5c-0.9,0.8-1.9,1.6-2.8,2.4C1052.8,182.1,1053.8,181.3,1054.7,180.5z"/>
	<path class="st14" d="M1732.7,813.7c-0.5,4.6-1.1,9.1-1.7,13.5c-2.9,21.3-6.5,40.3-11.1,57.4c-2.7,10.1-5.7,19.5-9,28.4
		c-0.4,1.2-0.9,2.3-1.3,3.5c-1.2,3.2-2.5,6.3-3.9,9.3c-30,68.3-82.6,99.7-168.4,135.8c-17.2,7.3-38.1,13-61.3,17.3h-227.5
		c-83.4-13.9-151.5-43.6-159.2-89.2c0,0-53.6,14.4-133.5,22.3c-2.1,0.2-4.3,0.4-6.5,0.6c-50.6,4.6-111,6.5-174.7,0.5
		c-7.2-0.7-14.5-1.5-21.7-2.3c-1.8-0.2-3.5-0.4-5.3-0.7c-1.8-0.2-3.5-0.5-5.3-0.7l0,0c-1-0.1-1.9-0.3-2.9-0.4
		c-0.2,0-0.4-0.1-0.7-0.1v-99.4h28.8v-24.9h36.8l7.2-17.7l2.4-5.8l4.2-10.4l0.8-1.9l0.2-0.4l2.4-5.8l4.1-10l2.2-5.4l13.5-33.1
		l2.4-5.8l4.3-10.4l0.9-2.2l22.2-54.3l3.1-7.7l2.8-6.9l4.3-10.5l173.3-424.6l10.4-25.4l17.4-42.7l8-19.6l12.6-30.8
		c1.5-0.6,3.1-1.2,4.7-1.7c0.8-0.3,1.6-0.6,2.4-0.8c0.8-0.3,1.6-0.6,2.4-0.8c1.7-0.6,3.3-1.1,5-1.6c0.7-0.2,1.5-0.5,2.2-0.7
		c0.2-0.1,0.4-0.1,0.6-0.2c0.7-0.2,1.3-0.4,2-0.6c1.8-0.5,3.7-1,5.6-1.5c0.7-0.2,1.4-0.4,2.1-0.5c0.7-0.2,1.4-0.4,2.1-0.5
		c3-0.7,6-1.4,9.2-2.1c0.7-0.1,1.3-0.3,2-0.4c0.8-0.2,1.5-0.3,2.3-0.5c29-5.7,65.1-8.5,109.9-6.3c23.5,1.1,44.9,3.3,64.4,6.3
		c10,1.5,19.6,3.3,28.6,5.2c9.5,2,18.4,4.2,26.8,6.5c32.5,9,57.3,20.1,75.9,31.1c11.6,6.8,20.9,13.5,28.1,19.6
		c16.4,13.7,22.4,24,22.4,24s41-2.6,86,13.2c13.8,4.9,28,11.4,41.5,20.3c12.7,8.4,24.8,18.9,35.4,32c6.9,8.5,13.1,18.1,18.4,28.9
		c6.2,12.5,11.1,26.7,14.5,42.7c1,4.7,1.9,9.7,2.6,14.7c0.8,5.5,1.4,11.2,1.8,17.1c0.6,8.9,0.9,17.5,0.9,25.6
		c0,5.7-0.2,11.3-0.6,16.6c-1,15.8-3.3,30-6.5,42.7c-9.2,36.2-26.5,60.6-44.7,77.1c-12.4,11.2-25.3,18.7-36.5,23.7
		c-11.5,5.1-21.2,7.6-26.8,8.7c-3.3,0.7-5.2,0.9-5.2,0.9s1.9,0.8,5.2,2.3c7.4,3.4,21.9,10.6,39,21.9c11.9,7.8,25,17.6,37.9,29.4
		c10.5,9.6,20.9,20.6,30.3,33c9.7,12.7,18.3,27,24.9,42.7c2,4.8,3.9,9.7,5.5,14.8c2,6.1,3.7,12.5,5,19
		C1734,772.7,1735.1,792.4,1732.7,813.7z"/>
	<g id="XMLID_2_">
		<g id="XMLID_27_">
			<g id="XMLID_65_">
				<path class="st15" d="M955.6,83.6v0.7c-0.3-0.2-0.6-0.5-0.9-0.7H955.6z"/>
			</g>
			<g id="XMLID_57_">
				<path class="st15" d="M1005.9,142c-0.2-0.3-0.4-0.6-0.6-0.9l0,0C1005.5,141.4,1005.7,141.7,1005.9,142z"/>
				<path class="st15" d="M1190.5,141.1v42.7h-100.2l12.6-30.8c1.5-0.6,3.1-1.2,4.7-1.7c0.8-0.3,1.6-0.6,2.4-0.8
					c0.8-0.3,1.6-0.6,2.4-0.8c1.7-0.5,3.3-1.1,5-1.6c0.7-0.2,1.5-0.5,2.2-0.7c0.2-0.1,0.4-0.1,0.6-0.2c0.7-0.2,1.3-0.4,2-0.6
					c1.8-0.5,3.7-1,5.6-1.5c0.7-0.2,1.4-0.4,2.1-0.5c0.7-0.2,1.4-0.4,2.1-0.5c3-0.7,6-1.4,9.2-2.1c0.7-0.1,1.3-0.3,2-0.4
					c0.8-0.2,1.5-0.3,2.3-0.5L1190.5,141.1L1190.5,141.1z"/>
				<path class="st15" d="M1348.6,146.2v37.6h-131.2v-42.7H1320C1330,142.6,1339.5,144.3,1348.6,146.2z"/>
				<path class="st15" d="M1451.3,183.8h-75.9v-31.1C1407.9,161.7,1432.7,172.9,1451.3,183.8z"/>
			</g>
			<g id="XMLID_50_">
				<polygon class="st15" points="1113.7,203.4 1113.7,246.1 1064.9,246.1 1082.4,203.4 				"/>
				<rect id="XMLID_54_" x="1140.5" y="203.4" class="st15" width="131.2" height="42.7"/>
				<rect id="XMLID_53_" x="1298.5" y="203.4" class="st15" width="131.2" height="42.7"/>
				<path class="st15" d="M1587.8,240.5v5.6h-131.2v-42.7h22.9c16.4,13.7,22.4,24,22.4,24S1542.8,224.8,1587.8,240.5z"/>
			</g>
			<g id="XMLID_36_">
				<rect id="XMLID_44_" x="1059.3" y="260.9" class="st15" width="131.2" height="42.7"/>
				<rect id="XMLID_42_" x="1217.4" y="260.9" class="st15" width="131.2" height="42.7"/>
				<rect id="XMLID_41_" x="1375.4" y="260.9" class="st15" width="131.2" height="42.7"/>
				<path class="st15" d="M1664.6,292.8v10.7h-131.2v-42.7h95.8C1642,269.3,1654.1,279.8,1664.6,292.8z"/>
			</g>
		</g>
	</g>
	<g id="XMLID_2062_">
		<g id="XMLID_2007_">
			<g id="XMLID_2001_">
				<rect id="XMLID_1995_" x="839.9" y="321.8" class="st15" width="115.8" height="42.7"/>
				<rect id="XMLID_2002_" x="982.4" y="321.8" class="st15" width="131.2" height="42.7"/>
				<rect id="XMLID_2003_" x="1140.5" y="321.8" class="st15" width="131.2" height="42.7"/>
				<rect id="XMLID_2004_" x="1298.5" y="321.8" class="st15" width="131.2" height="42.7"/>
				<rect id="XMLID_2005_" x="1456.5" y="321.8" class="st15" width="131.2" height="42.7"/>
				<path class="st15" d="M1697.6,364.5h-83v-42.7h68.5C1689.2,334.3,1694.2,348.4,1697.6,364.5z"/>
			</g>
			<g id="XMLID_2008_">
				<rect id="XMLID_2014_" x="901.3" y="379.2" class="st15" width="131.2" height="42.7"/>
				<rect id="XMLID_2015_" x="839.9" y="379.2" class="st15" width="38.9" height="42.7"/>
				<rect id="XMLID_2013_" x="1059.3" y="379.2" class="st15" width="131.2" height="42.7"/>
				<rect id="XMLID_2012_" x="1217.4" y="379.2" class="st15" width="131.2" height="42.7"/>
				<rect id="XMLID_2011_" x="1375.4" y="379.2" class="st15" width="131.2" height="42.7"/>
				<rect id="XMLID_2010_" x="1533.4" y="379.2" class="st15" width="131.2" height="42.7"/>
				<path class="st15" d="M1702.9,422h-11.4v-42.7h8.7c0.8,5.5,1.4,11.2,1.8,17.1C1702.6,405.3,1702.9,413.8,1702.9,422z"/>
			</g>
			<g id="XMLID_2016_">
				<rect id="XMLID_2023_" x="901.3" y="496" class="st15" width="131.2" height="42.7"/>
				<rect id="XMLID_2022_" x="839.9" y="496" class="st15" width="38.9" height="42.7"/>
				<rect id="XMLID_2021_" x="1059.3" y="496" class="st15" width="131.2" height="42.7"/>
				<rect id="XMLID_2020_" x="1217.4" y="496" class="st15" width="131.2" height="42.7"/>
				<rect id="XMLID_2019_" x="1375.4" y="496" class="st15" width="131.2" height="42.7"/>
				<rect id="XMLID_2018_" x="1533.4" y="496" class="st15" width="131.2" height="42.7"/>
			</g>
			<g id="XMLID_2039_">
				<rect id="XMLID_2045_" x="839.9" y="558.4" class="st15" width="115.8" height="42.7"/>
				<rect id="XMLID_2044_" x="982.4" y="558.4" class="st15" width="131.2" height="42.7"/>
				<rect id="XMLID_2043_" x="1140.5" y="558.4" class="st15" width="131.2" height="42.7"/>
				<rect id="XMLID_2042_" x="1298.5" y="558.4" class="st15" width="131.2" height="42.7"/>
				<rect id="XMLID_2041_" x="1456.5" y="558.4" class="st15" width="131.2" height="42.7"/>
				<path class="st15" d="M1651.1,558.4c-12.4,11.2-25.3,18.7-36.5,23.7v-23.7H1651.1z"/>
			</g>
			<g id="XMLID_2031_">
				<rect id="XMLID_2038_" x="901.3" y="615.8" class="st15" width="131.2" height="42.7"/>
				<rect id="XMLID_2037_" x="839.9" y="615.8" class="st15" width="38.9" height="42.7"/>
				<rect id="XMLID_2036_" x="1059.3" y="615.8" class="st15" width="131.2" height="42.7"/>
				<rect id="XMLID_2035_" x="1217.4" y="615.8" class="st15" width="131.2" height="42.7"/>
				<rect id="XMLID_2034_" x="1375.4" y="615.8" class="st15" width="131.2" height="42.7"/>
				<path class="st15" d="M1664.6,645.2v13.4h-131.2v-42.7h93.3C1638.6,623.6,1651.7,633.4,1664.6,645.2z"/>
			</g>
			<g id="XMLID_2054_">
				<rect id="XMLID_2060_" x="839.9" y="678.2" class="st15" width="115.8" height="42.7"/>
				<rect id="XMLID_2059_" x="982.4" y="678.2" class="st15" width="131.2" height="42.7"/>
				<rect id="XMLID_2058_" x="1140.5" y="678.2" class="st15" width="131.2" height="42.7"/>
				<rect id="XMLID_2057_" x="1298.5" y="678.2" class="st15" width="131.2" height="42.7"/>
				<rect id="XMLID_2056_" x="1456.5" y="678.2" class="st15" width="131.2" height="42.7"/>
				<path class="st15" d="M1719.8,720.9h-105.2v-42.7h80.3C1704.5,690.9,1713.2,705.1,1719.8,720.9z"/>
			</g>
			<g id="XMLID_2046_">
				<rect id="XMLID_2053_" x="901.3" y="735.6" class="st15" width="131.2" height="42.7"/>
				<rect id="XMLID_2052_" x="839.9" y="735.6" class="st15" width="38.9" height="42.7"/>
				<rect id="XMLID_2051_" x="1059.3" y="735.6" class="st15" width="131.2" height="42.7"/>
				<rect id="XMLID_2050_" x="1217.4" y="735.6" class="st15" width="131.2" height="42.7"/>
				<rect id="XMLID_2049_" x="1375.4" y="735.6" class="st15" width="131.2" height="42.7"/>
				<rect id="XMLID_2048_" x="1533.4" y="735.6" class="st15" width="131.2" height="42.7"/>
				<path class="st15" d="M1730.3,754.7v23.7h-38.9v-42.7h33.9C1727.3,741.8,1729,748.1,1730.3,754.7z"/>
			</g>
			<g id="XMLID_2024_">
				<rect id="XMLID_2030_" x="839.9" y="438.6" class="st15" width="115.8" height="42.7"/>
				<rect id="XMLID_2029_" x="982.4" y="438.6" class="st15" width="131.2" height="42.7"/>
				<rect id="XMLID_2028_" x="1140.5" y="438.6" class="st15" width="131.2" height="42.7"/>
				<rect id="XMLID_2027_" x="1298.5" y="438.6" class="st15" width="131.2" height="42.7"/>
				<rect id="XMLID_2026_" x="1456.5" y="438.6" class="st15" width="131.2" height="42.7"/>
				<path class="st15" d="M1702.3,438.6c-1,15.8-3.2,30-6.5,42.7h-81.3v-42.7H1702.3z"/>
			</g>
		</g>
	</g>
	<path class="st16" d="M1731,827.2c-2.9,21.3-6.6,40.3-11.1,57.4c-2.7,10.1-5.7,19.5-9,28.4v3.5H738.8v-89.3L1731,827.2L1731,827.2z
		"/>
	<path class="st13" d="M1102.9,153l-12.6,30.8l-8,19.6l-17.4,42.7l-10.4,25.4L881.3,696.1l-4.3,10.5l-2.8,6.9l-3.1,7.7l-22.2,54.3
		l-0.9,2.2l-4.3,10.4l-2.4,5.8L827.8,827l-2.2,5.4l-4.1,10l-2.4,5.8l-0.2,0.4l-0.8,1.9L814,861l-2.4,5.8l-7.2,17.7l-8.5,20.8
		l-1.7,4.1l-2.4,6l-0.4,1l-1.9,4.7l-0.2,0.4l-0.8,1.9l-1,2.3l-3.3,8.1l-1.1,2.8l-1.2,3l-15.7,38.5l-4.1,10l-2.4,5.8l-0.2,0.4
		l-0.8,1.9l-4.2,10.4l-0.5,1.1l-1.2,2.9c-1.8-0.2-3.5-0.4-5.3-0.7c-1.8-0.2-3.5-0.5-5.3-0.7l0,0c-1-0.1-1.9-0.3-2.9-0.4
		c-0.2,0-0.4-0.1-0.7-0.1s-0.5-0.1-0.8-0.1c-1.1-0.2-2.1-0.3-3.2-0.5c-1.1-0.2-2.1-0.3-3.2-0.5h-0.1c-1.1-0.2-2.1-0.3-3.2-0.5
		c-1.3-0.2-2.6-0.4-3.9-0.6c-1.1-0.2-2.1-0.4-3.2-0.5c-1.3-0.2-2.7-0.4-4-0.7c-7.3-1.2-14.5-2.6-21.8-4.1c-1-0.2-2.1-0.4-3.1-0.6
		c-1-0.2-2.1-0.4-3.1-0.7c-1.7-0.4-3.4-0.7-5.2-1.1c-1.2-0.3-2.4-0.5-3.6-0.8c-0.7-0.2-1.5-0.3-2.2-0.5c-1.1-0.3-2.2-0.5-3.3-0.8
		c-0.6-0.1-1.2-0.3-1.9-0.4c-0.2,0-0.4-0.1-0.6-0.1c-0.4-0.1-0.9-0.2-1.3-0.3c-0.7-0.2-1.4-0.3-2.1-0.5c-0.5-0.1-0.9-0.2-1.4-0.3
		c-1.4-0.3-2.8-0.7-4.1-1.1c-0.1,0-0.2,0-0.3-0.1c-0.3-0.1-0.5-0.1-0.8-0.2c-1.6-0.4-3.3-0.8-4.9-1.3c-0.4-0.1-0.8-0.2-1.2-0.3
		c-1.2-0.3-2.5-0.7-3.7-1c-2.1-0.6-4.1-1.1-6.1-1.7c-0.1,0-0.2,0-0.2-0.1c-1.5-0.4-3-0.9-4.4-1.3c-0.7-0.2-1.3-0.4-2-0.6
		c-1.5-0.5-3-0.9-4.5-1.4s-3-0.9-4.6-1.4c-0.3-0.1-0.5-0.2-0.8-0.3c-1.5-0.5-3.1-1-4.6-1.5c-0.1,0-0.2-0.1-0.4-0.1
		c-1.8-0.6-3.5-1.2-5.3-1.8c-1.7-0.6-3.4-1.2-5.1-1.7c-2.2-0.8-4.4-1.5-6.6-2.3c-1.4-0.5-2.7-1-4.1-1.5c-0.2-0.1-0.4-0.2-0.6-0.2
		c-3.2-1.2-6.4-2.4-9.7-3.7c-0.5-0.2-0.9-0.4-1.4-0.6c-1.5-0.6-3.1-1.2-4.6-1.9c-0.9-0.4-1.8-0.7-2.7-1.1c-0.4-0.2-0.9-0.4-1.3-0.6
		c0,0-0.1,0-0.1-0.1c-0.2-0.1-0.4-0.2-0.6-0.3l0,0c-1-0.4-1.9-0.8-2.9-1.2s-2-0.8-2.9-1.2c-1.8-0.8-3.5-1.5-5.3-2.3
		s-3.5-1.6-5.3-2.4c-24.5-11.2-48.4-24.4-71.3-40c-19.8-13.4-38.8-28.5-56.9-45.6c0,0-11.5,34.7-50.8,56.6
		c-18.1,10.1-42.2,17.5-73.8,17.5c-100.1,0-226-4.8-268-134.8c-10.1-31.2-15.7-63.9-16.9-96.9c-0.1-1.9-0.1-3.7-0.2-5.6
		c-0.1-4.3-0.1-8.6-0.1-12.9c0-0.5,0-0.9,0-1.4c0.1-7.8,0.5-15.5,1.1-23.3c1-13.6,2.8-27.2,5.4-40.5c0.7-3.7,1.4-7.3,2.2-11
		c0.2-0.9,0.4-1.8,0.6-2.7c0.3-1.5,0.7-3.1,1.1-4.6c0-0.2,0.1-0.3,0.1-0.5c5.6-23.2,13.6-46.2,25.3-66.9c0.8-1.4,5-6.5,10.4-12.8
		c12.1-14.1,30.4-34.1,30.8-32.4C97.2,467.2,89,432,86,396.3c-0.2-2-0.3-4-0.5-5.9c-0.1-1.3-0.2-2.6-0.2-3.9c0-0.6-0.1-1.1-0.1-1.7
		c-0.2-4-0.4-8.1-0.4-12.2c0-0.6,0-1.2,0-1.7c0-4.1,0-8.1,0.1-12.2c0-0.6,0-1.1,0.1-1.7c0.2-4.1,0.4-8.1,0.8-12.2
		c0-0.6,0.1-1.2,0.2-1.7c0.4-4.1,0.9-8.1,1.5-12.2c0.1-0.6,0.2-1.2,0.3-1.7c0.7-4.1,1.5-8.2,2.4-12.2c0.1-0.6,0.3-1.2,0.4-1.7
		c1-4.1,2.1-8.2,3.4-12.2c0.2-0.6,0.4-1.2,0.6-1.7c1.4-4.1,2.9-8.2,4.7-12.2c0.3-0.6,0.5-1.2,0.8-1.7c1.9-4.2,3.9-8.2,6.2-12.2
		c0.3-0.6,0.7-1.1,1-1.7c1.6-2.7,3.3-5.3,5.1-7.9c1-1.4,2.1-2.9,3.1-4.3c0.4-0.6,0.9-1.2,1.3-1.7c2.1-2.6,4.2-5.1,6.5-7.6
		c1.4-1.5,2.9-3.1,4.4-4.5c0.2-0.2,0.5-0.5,0.7-0.7c1.6-1.5,3.2-3,4.9-4.4c3.3-2.9,6.8-5.5,10.3-8c44.1-30.5,103.1-29.3,154.6-21.3
		c0,0,1.2-7.4,5.5-19.3c10.3-28.6,38.3-83,109.8-125.4c4.5-2.7,9.2-5.3,14.1-7.9c15-7.9,31.7-15.3,50.3-21.9
		c51-18,116.3-29.9,199.8-29.9c22.5,0,43.6,0.9,63.4,2.5c2.2,0.2,4.3,0.4,6.4,0.6c35,3.2,65.6,8.8,92.5,16.1
		c11.9,3.3,23.1,6.8,33.5,10.7c1.8,0.7,3.6,1.3,5.4,2c7.9,3.1,15.4,6.3,22.5,9.7c6.8,3.2,13.3,6.6,19.4,10.1c2,1.1,3.9,2.3,5.9,3.4
		c1,0.6,2,1.2,3,1.9c3.6,2.2,7,4.4,10.3,6.7c3.5,2.4,6.8,4.8,10.1,7.3c0.6,0.5,1.3,1,1.9,1.5c0.6,0.5,1.3,1,1.9,1.5
		c0.3,0.3,0.7,0.5,1,0.8c0.3,0.2,0.6,0.5,0.9,0.7c1.2,1,2.4,2,3.6,3c1.2,1,2.3,2,3.5,3c1.1,1,2.3,2,3.4,3c0.6,0.5,1.1,1,1.6,1.5
		c0.6,0.5,1.1,1,1.6,1.5c0.5,0.4,0.9,0.9,1.4,1.3c3.1,3,6,6,8.8,9c0.5,0.5,1,1.1,1.5,1.6c1.3,1.4,2.6,2.9,3.8,4.3
		c0.4,0.5,0.8,0.9,1.2,1.4c1.9,2.3,3.8,4.6,5.5,6.8c0.6,0.8,1.2,1.6,1.8,2.3c0.3,0.5,0.7,0.9,1,1.4c0.1,0.2,0.3,0.4,0.4,0.5
		c0.3,0.5,0.7,0.9,1,1.4c0.4,0.6,0.9,1.2,1.3,1.9c0.4,0.6,0.9,1.2,1.3,1.9c1.6,2.3,3,4.5,4.4,6.7c0.3,0.5,0.7,1.1,1,1.6
		c0.4,0.7,0.8,1.3,1.2,1.9c0.2,0.3,0.3,0.5,0.5,0.8s0.4,0.6,0.6,0.9c0.4,0.7,0.8,1.3,1.2,2c0.5,0.9,1,1.7,1.5,2.6
		c0.1,0.2,0.2,0.3,0.3,0.5c0.2,0.4,0.5,0.9,0.7,1.3c0.3,0.5,0.5,0.9,0.7,1.4c0.5,1,1,2,1.5,2.9c0.2,0.4,0.4,0.7,0.5,1.1
		c1,2,2,4,2.8,6c0.2,0.5,0.5,1,0.7,1.5c0.4,0.9,0.8,1.7,1.1,2.6c0.3,0.7,0.6,1.3,0.8,2c0.1,0.2,0.2,0.4,0.3,0.7
		c0.3,0.7,0.5,1.3,0.8,2s0.5,1.3,0.7,2c0.9,2.4,1.8,4.8,2.5,7.1c0.2,0.5,0.3,1,0.5,1.5l0.2,0.6c0.1,0.4,0.3,0.8,0.4,1.2
		c0,0.1,0.1,0.2,0.1,0.3c0.1,0.2,0.1,0.4,0.2,0.5c0.2,0.6,0.3,1.1,0.5,1.7c0,0.1,0.1,0.2,0.1,0.4c0.2,0.6,0.3,1.2,0.5,1.8
		c0.1,0.4,0.2,0.8,0.3,1.1c0.1,0.5,0.3,0.9,0.4,1.4c0.1,0.4,0.2,0.9,0.3,1.3c0.1,0.3,0.2,0.6,0.2,0.9c0.1,0.4,0.2,0.7,0.3,1
		c0.3,1.1,0.5,2.2,0.8,3.3c0.1,0.4,0.2,0.7,0.2,1.1c0,0.2,0.1,0.4,0.1,0.7c0.1,0.4,0.2,0.9,0.3,1.3c0.2,1.1,0.4,2.2,0.6,3.2
		c0.1,0.3,0.1,0.5,0.1,0.8c0.1,0.6,0.2,1.1,0.3,1.7c0,0.2,0.1,0.4,0.1,0.6c0.1,0.5,0.1,0.9,0.2,1.4c0.1,0.9,0.2,1.8,0.3,2.5
		c0,0.1,0,0.3,0.1,0.4v0.1c0,0.2,0.1,0.4,0.1,0.6c0,0.2,0,0.4,0.1,0.5c0,0.1,0,0.2,0,0.4c0,0.3,0.1,0.7,0.1,0.9c0,0.1,0,0.2,0,0.3
		c0,0.2,0,0.4,0.1,0.6c0,0.1,0,0.1,0,0.2c0.1,0.7,0.1,1.1,0.1,1.1s0.1-0.4,0.5-1.3c0.1-0.1,0.1-0.2,0.2-0.4c0.1-0.1,0.1-0.3,0.2-0.4
		c0.1-0.2,0.2-0.4,0.3-0.6c0.2-0.3,0.3-0.7,0.5-1c0.1-0.2,0.1-0.3,0.2-0.5c0.2-0.5,0.5-1,0.8-1.6c0.2-0.4,0.4-0.7,0.6-1.1
		c0.5-0.9,1.1-1.8,1.7-2.9c0.1-0.2,0.2-0.3,0.3-0.5c0.4-0.7,0.8-1.3,1.3-2c0.2-0.3,0.3-0.5,0.5-0.8c0.9-1.2,1.8-2.6,2.9-3.9
		c0.3-0.3,0.6-0.7,0.8-1c0.3-0.4,0.6-0.7,0.9-1.1c0.6-0.7,1.2-1.5,1.9-2.2c0.3-0.3,0.6-0.7,0.9-1c0.2-0.2,0.4-0.5,0.6-0.7
		c0.4-0.4,0.7-0.8,1.1-1.2c0.2-0.2,0.4-0.4,0.6-0.6c0.4-0.4,0.8-0.8,1.2-1.2l0.6-0.6c1-1,2.1-2,3.2-3c0.2-0.2,0.4-0.4,0.7-0.6
		c0.9-0.8,1.8-1.6,2.7-2.4c0.3-0.2,0.5-0.5,0.8-0.7c0.2-0.2,0.5-0.4,0.7-0.6c2-1.7,4.2-3.4,6.5-5c0.6-0.4,1.2-0.8,1.8-1.3
		c2.7-1.9,5.6-3.8,8.7-5.7c0.4-0.2,0.7-0.4,1-0.6c1.1-0.6,2.2-1.3,3.3-1.9c0.5-0.3,1.1-0.6,1.6-0.9c1.9-1,3.9-2.1,6-3.1
		c0.5-0.2,1-0.5,1.5-0.7c0.6-0.3,1.1-0.5,1.7-0.8c3-1.4,6.1-2.8,9.3-4.1c0.6-0.2,1.1-0.5,1.7-0.7
		C1100.6,153.9,1101.7,153.5,1102.9,153z"/>
	<g>
		<path class="st17" d="M797.9,939.6l2.4-5.8H646.1v-10.4v-2.2v-54.3h181.2l2.4-5.8H646.1v-10.4v-2.2V794h211l2.4-5.8H646.1v-10.4
			v-2.2v-54.3H887l3.2-7.7H639.7v273.9c0.7,0.2,1.3,0.4,2,0.6c1.5,0.4,3,0.9,4.4,1.3v-49.7L797.9,939.6L797.9,939.6z"/>
		<path class="st17" d="M770.6,1006.6h-46.1c1.3,0.2,2.6,0.4,3.9,0.6c1.1,0.2,2.1,0.3,3.2,0.5h0.1h38.5L770.6,1006.6z"/>
		<polygon class="st17" points="827.3,866.8 827.7,866.8 830.1,861 829.7,861 		"/>
		<polygon class="st17" points="887,721.2 887.1,721.2 890.3,713.5 890.2,713.5 		"/>
		<polygon class="st17" points="857.2,794 857.4,794 859.8,788.2 859.6,788.2 		"/>
		<polygon class="st18" points="890.3,713.5 887.1,721.2 942.9,721.2 942.9,775.5 942.9,777.8 942.9,788.2 859.8,788.2 857.4,794 
			942.9,794 942.9,848.3 942.9,850.6 942.9,861 830.1,861 827.7,866.8 942.9,866.8 942.9,921.2 942.9,923.4 942.9,933.8 
			800.3,933.8 797.9,939.6 943,939.6 943,994 943,996.2 943,1006.6 770.6,1006.6 770.1,1007.7 949.4,1007.7 949.4,713.5 		"/>
		<polygon class="st19" points="646.1,923.4 646.1,933.8 800.3,933.8 804.6,923.4 		"/>
		<polygon class="st19" points="800.3,933.8 942.9,933.8 942.9,923.4 804.6,923.4 		"/>
		<polygon class="st19" points="758.3,915.4 758.3,905.3 811.4,905.3 827.3,866.8 646.1,866.8 646.1,921.2 758.3,921.2 		"/>
		<polygon class="st20" points="811.4,905.3 811.9,905.3 827.7,866.8 827.3,866.8 		"/>
		<polygon class="st20" points="830.8,905.3 830.8,915.4 830.8,921.2 942.9,921.2 942.9,866.8 827.7,866.8 811.9,905.3 		"/>
		<polygon class="st21" points="805.3,921.5 758.3,921.5 758.3,921.2 646.1,921.2 646.1,923.4 804.6,923.4 		"/>
		<polygon class="st21" points="830.8,921.5 805.3,921.5 804.6,923.4 942.9,923.4 942.9,921.2 830.8,921.2 		"/>
		<polygon class="st21" points="758.3,915.4 807.8,915.4 811.9,905.3 811.4,905.3 758.3,905.3 		"/>
		<polygon class="st21" points="830.8,915.4 830.8,905.3 811.9,905.3 807.8,915.4 		"/>
		<polygon class="st22" points="805.5,921.2 830.8,921.2 830.8,915.4 807.8,915.4 		"/>
		<polygon class="st22" points="807.8,915.4 758.3,915.4 758.3,921.2 805.5,921.2 		"/>
		<polygon class="st22" points="805.3,921.5 830.8,921.5 830.8,921.2 805.5,921.2 		"/>
		<polygon class="st22" points="758.3,921.2 758.3,921.5 805.3,921.5 805.5,921.2 		"/>
		<path class="st19" d="M774.8,996.2H672.4c0.2,0.1,0.4,0.1,0.6,0.1c0.6,0.2,1.2,0.3,1.9,0.4c1.1,0.3,2.2,0.5,3.3,0.8
			c0.7,0.2,1.5,0.3,2.2,0.5c1.2,0.3,2.4,0.6,3.6,0.8c1.7,0.4,3.4,0.8,5.2,1.1c1,0.2,2.1,0.4,3.1,0.7c1,0.2,2.1,0.4,3.1,0.6
			c7.3,1.5,14.6,2.9,21.8,4.1c1.3,0.2,2.7,0.5,4,0.7c1.1,0.2,2.2,0.4,3.2,0.5h46.1L774.8,996.2z"/>
		<polygon class="st19" points="770.6,1006.6 943,1006.6 943,996.2 774.8,996.2 		"/>
		<polygon class="st19" points="830.8,978.2 830.8,988.2 830.8,994 943,994 943,939.6 797.9,939.6 782.2,978.2 		"/>
		<path class="st19" d="M758.3,988.2v-10h24l15.7-38.5H646.1v49.7c0.1,0,0.2,0,0.2,0.1c2,0.6,4.1,1.1,6.1,1.7c1.2,0.3,2.5,0.7,3.7,1
			c0.4,0.1,0.8,0.2,1.2,0.3c1.6,0.4,3.3,0.9,4.9,1.3c0.3,0.1,0.5,0.1,0.8,0.2c0.1,0,0.2,0,0.3,0.1h94.9L758.3,988.2L758.3,988.2z"/>
		<path class="st21" d="M775.6,994.4h-17.3V994h-94.9c1.4,0.4,2.8,0.7,4.1,1.1c0.5,0.1,0.9,0.2,1.4,0.3c0.7,0.2,1.4,0.4,2.1,0.5
			c0.4,0.1,0.9,0.2,1.3,0.3h102.5L775.6,994.4z"/>
		<polygon class="st21" points="830.8,994.4 775.6,994.4 774.8,996.2 943,996.2 943,994 830.8,994 		"/>
		<polygon class="st21" points="830.8,988.2 830.8,978.2 782.2,978.2 778.1,988.2 		"/>
		<polygon class="st21" points="782.2,978.2 758.3,978.2 758.3,988.2 778.1,988.2 		"/>
		<polygon class="st22" points="775.8,994 830.8,994 830.8,988.2 778.1,988.2 		"/>
		<polygon class="st22" points="778.1,988.2 758.3,988.2 758.3,994 775.8,994 		"/>
		<polygon class="st22" points="758.3,994 758.3,994.4 775.6,994.4 775.8,994 		"/>
		<polygon class="st22" points="830.8,994 775.8,994 775.6,994.4 830.8,994.4 		"/>
		<polygon class="st19" points="758.3,842.6 758.3,832.5 830.8,832.5 830.8,842.6 830.8,848.3 834.9,848.3 857.2,794 646.1,794 
			646.1,848.3 758.3,848.3 		"/>
		<polygon class="st20" points="834.9,848.3 835.2,848.3 857.4,794 857.2,794 		"/>
		<polygon class="st23" points="942.9,848.3 942.9,794 857.4,794 835.2,848.3 		"/>
		<polygon class="st19" points="646.1,850.6 646.1,861 829.7,861 834,850.6 		"/>
		<polygon class="st20" points="830.1,861 942.9,861 942.9,850.6 834.3,850.6 		"/>
		<polygon class="st23" points="834,850.6 829.7,861 830.1,861 834.3,850.6 		"/>
		<polygon class="st21" points="834.9,848.3 830.8,848.3 830.8,848.7 758.3,848.7 758.3,848.3 646.1,848.3 646.1,850.6 834,850.6 		
			"/>
		<polygon class="st21" points="834.3,850.6 835.2,848.3 834.9,848.3 834,850.6 		"/>
		<polygon class="st18" points="834.3,850.6 942.9,850.6 942.9,848.3 835.2,848.3 		"/>
		<rect x="758.3" y="832.5" class="st21" width="72.6" height="10"/>
		<rect x="758.3" y="842.6" class="st22" width="72.6" height="5.8"/>
		<rect x="758.3" y="848.3" class="st22" width="72.6" height="0.4"/>
		<polygon class="st19" points="646.1,777.8 646.1,788.2 859.6,788.2 863.8,777.8 		"/>
		<polygon class="st20" points="864.7,775.5 865,775.5 887.1,721.2 887,721.2 		"/>
		<polygon class="st23" points="942.9,775.5 942.9,721.2 887.1,721.2 865,775.5 		"/>
		<polygon class="st19" points="758.3,769.8 758.3,759.7 830.8,759.7 830.8,769.8 830.8,775.5 864.7,775.5 887,721.2 646.1,721.2 
			646.1,775.5 758.3,775.5 		"/>
		<polygon class="st20" points="859.8,788.2 942.9,788.2 942.9,777.8 864,777.8 		"/>
		<polygon class="st23" points="863.8,777.8 859.6,788.2 859.8,788.2 864,777.8 		"/>
		<polygon class="st21" points="864,777.8 865,775.5 864.7,775.5 863.8,777.8 		"/>
		<polygon class="st18" points="864,777.8 942.9,777.8 942.9,775.5 865,775.5 		"/>
		<polygon class="st21" points="864.7,775.5 830.8,775.5 830.8,775.9 758.3,775.9 758.3,775.5 646.1,775.5 646.1,777.8 863.8,777.8 
					"/>
		<rect x="758.3" y="759.7" class="st21" width="72.6" height="10"/>
		<rect x="758.3" y="769.8" class="st22" width="72.6" height="5.8"/>
		<rect x="758.3" y="775.5" class="st22" width="72.6" height="0.4"/>
		<path class="st24" d="M955.9,1011.9v-4.2h-6.5v4.8C951.6,1012.4,953.7,1012.1,955.9,1011.9z"/>
		<path class="st24" d="M731.6,1007.7c1.1,0.2,2.1,0.3,3.2,0.5c1.1,0.2,2.1,0.3,3.2,0.5c0.3,0,0.5,0.1,0.8,0.1
			c0.2,0,0.4,0.1,0.7,0.1c1,0.1,1.9,0.3,2.9,0.4c1.8,0.2,3.5,0.5,5.3,0.7s3.5,0.4,5.3,0.7c5.1,0.6,10.2,1.2,15.3,1.7l1.9-4.6h-38.6
			V1007.7z"/>
		<path class="st24" d="M768.2,1012.4c66,6.8,128.9,5,181.1,0.2v-4.8H770.1L768.2,1012.4z"/>
		<path class="st20" d="M893.1,706.6l2.2-5.4L893.1,706.6h53.1c1.8,0,3.2,1.2,3.2,2.8v4.1h8.3v-17.4h-60.4l-4.3,10.5L893.1,706.6
			L893.1,706.6z"/>
		<path class="st24" d="M642.9,706.6H893l4.3-10.5h-269v17.4h11.4v-4.1C639.7,707.9,641.1,706.6,642.9,706.6z"/>
		<path class="st24" d="M893,706.6H642.9c-1.8,0-3.2,1.2-3.2,2.8v4.1h250.5L893,706.6z"/>
		<polygon class="st24" points="893,706.6 890.2,713.5 890.3,713.5 893.1,706.6 		"/>
		<path class="st23" d="M946.2,706.6h-53.1l-2.8,6.9h59.1v-4.1C949.4,707.9,947.9,706.6,946.2,706.6z"/>
	</g>
	<g>
		<rect x="742.5" y="596.3" class="st25" width="119.8" height="35"/>
		<rect x="749.7" y="591" class="st26" width="105.7" height="21.4"/>
		<g>
			<path class="st25" d="M892.3,692.6c0,2.7-2.2,5-5,5H718.2c-2.7,0-5-2.2-5-5v-77c0-2.7,2.2-5,5-5h169.1c2.7,0,5,2.2,5,5
				L892.3,692.6L892.3,692.6z"/>
			<path class="st27" d="M855.7,654.1H749.9c-2.7,0-5,2.2-5,5v38.5h115.7v-38.5C860.6,656.3,858.4,654.1,855.7,654.1z"/>
			<path class="st25" d="M843.1,679.6h-80.6c-2.1,0-3.8,1.7-3.8,3.8v12.8h88.2v-12.8C846.9,681.3,845.2,679.6,843.1,679.6z"/>
			<rect x="761.2" y="676.2" class="st27" width="81.9" height="23"/>
			<rect x="761.2" y="676.2" class="st28" width="81.9" height="17.3"/>
			<rect x="777.1" y="612.4" class="st26" width="49.7" height="15.4"/>
			<rect x="783.3" y="614.3" class="st25" width="37.2" height="4.8"/>
			<rect x="722.9" y="614.3" class="st29" width="14.7" height="1.4"/>
		</g>
		<rect x="766.7" y="552.4" class="st30" width="73.8" height="58.3"/>
		<rect x="766.7" y="601.7" class="st31" width="73.8" height="9"/>
	</g>
	<path class="st13" d="M1102.9,153l-20.6,50.4h-47.9c0.1-0.2,0.2-0.3,0.3-0.5c0.4-0.7,0.8-1.3,1.3-2c0.2-0.3,0.3-0.5,0.5-0.8
		c0.9-1.2,1.8-2.6,2.9-3.9c0.3-0.3,0.6-0.7,0.8-1c0.3-0.4,0.6-0.7,0.9-1.1c0.6-0.7,1.2-1.5,1.9-2.2c0.3-0.3,0.6-0.7,0.9-1
		c0.2-0.2,0.4-0.5,0.6-0.7c0.4-0.4,0.7-0.8,1.1-1.2c0.2-0.2,0.4-0.4,0.6-0.6c0.4-0.4,0.8-0.8,1.2-1.2l0.6-0.6c1-1,2.1-2,3.2-3
		c0.2-0.2,0.4-0.4,0.7-0.6c0.9-0.8,1.8-1.6,2.7-2.4c0.3-0.2,0.5-0.5,0.8-0.7c0.2-0.2,0.5-0.4,0.7-0.6c2-1.7,4.2-3.4,6.5-5
		c0.6-0.4,1.2-0.8,1.8-1.3c2.7-1.9,5.6-3.8,8.7-5.7c0.4-0.2,0.7-0.4,1-0.6c1.1-0.6,2.2-1.3,3.3-1.9c0.5-0.3,1.1-0.6,1.6-0.9
		c1.9-1,3.9-2.1,6-3.1c0.5-0.2,1-0.5,1.5-0.7c0.6-0.3,1.1-0.5,1.7-0.8c3-1.4,6.1-2.8,9.3-4.1c0.6-0.2,1.1-0.5,1.7-0.7
		C1100.6,153.9,1101.7,153.5,1102.9,153z"/>
	<g>
		<path class="st32" d="M424.2,242.3v454.6H28.4c0.1-7.8,0.5-15.5,1.1-23.3c1-13.6,2.8-27.2,5.4-40.5c0.7-3.7,1.4-7.3,2.2-11
			c0.2-0.9,0.4-1.8,0.6-2.7c0.3-1.5,0.7-3.1,1.1-4.6c0-0.2,0.1-0.3,0.1-0.5c5.6-23.2,13.6-46.2,25.3-66.9c0.8-1.4,5-6.5,10.4-12.8
			c12.1-14.1,30.4-34.1,30.8-32.4C97.2,467.2,89,432,86,396.3c-0.2-2-0.3-4-0.5-5.9c-0.1-1.3-0.2-2.6-0.2-3.9c0-0.6-0.1-1.1-0.1-1.7
			c-0.2-4-0.4-8.1-0.4-12.2c0-0.6,0-1.2,0-1.7c0-4.1,0-8.1,0.1-12.2c0-0.6,0-1.1,0.1-1.7c0.2-4.1,0.4-8.1,0.8-12.2
			c0-0.6,0.1-1.2,0.2-1.7c0.4-4.1,0.9-8.1,1.5-12.2c0.1-0.6,0.2-1.2,0.3-1.7c0.7-4.1,1.5-8.2,2.4-12.2c0.1-0.6,0.3-1.2,0.4-1.7
			c1-4.1,2.1-8.2,3.4-12.2c0.2-0.6,0.4-1.2,0.6-1.7c1.4-4.1,2.9-8.2,4.7-12.2c0.3-0.6,0.5-1.2,0.8-1.7c1.9-4.2,3.9-8.2,6.2-12.2
			c0.3-0.6,0.7-1.1,1-1.7c1.6-2.7,3.3-5.3,5.1-7.9c1-1.4,2.1-2.9,3.1-4.3c0.4-0.6,0.9-1.2,1.3-1.7c2.1-2.6,4.2-5.1,6.5-7.6
			c1.4-1.5,2.9-3.1,4.4-4.5c0.2-0.2,0.5-0.5,0.7-0.7c1.6-1.5,3.2-3,4.9-4.4h290.9V242.3z"/>
		<path class="st33" d="M401.6,265.6v408H29.5c1-13.6,2.8-27.2,5.4-40.5c0.7-3.7,1.4-7.3,2.2-11c0.2-0.9,0.4-1.8,0.6-2.7
			c0.3-1.5,0.7-3.1,1.1-4.6c0-0.2,0.1-0.3,0.1-0.5c5.6-23.2,13.6-46.2,25.3-66.9c0.8-1.4,5-6.5,10.4-12.8
			c12.1-14.1,30.4-34.1,30.8-32.4C97.2,467.2,89,432,86,396.3c-0.2-2-0.3-4-0.5-5.9c-0.1-1.3-0.2-2.6-0.2-3.9c0-0.6-0.1-1.1-0.1-1.7
			c-0.2-4-0.4-8.1-0.4-12.2c0-0.6,0-1.2,0-1.7c0-4.1,0-8.1,0.1-12.2c0-0.6,0-1.1,0.1-1.7c0.2-4.1,0.4-8.1,0.8-12.2
			c0-0.6,0.1-1.2,0.2-1.7c0.4-4.1,0.9-8.1,1.5-12.2c0.1-0.6,0.2-1.2,0.3-1.7c0.7-4.1,1.5-8.2,2.4-12.2c0.1-0.6,0.3-1.2,0.4-1.7
			c1-4.1,2.1-8.2,3.4-12.2c0.2-0.6,0.4-1.2,0.6-1.7c1.4-4.1,2.9-8.2,4.7-12.2c0.3-0.6,0.5-1.2,0.8-1.7c1.9-4.2,3.9-8.2,6.2-12.2
			c0.3-0.6,0.7-1.1,1-1.7c1.6-2.7,3.3-5.3,5.1-7.9L401.6,265.6L401.6,265.6z"/>
		<g>
			<g>
				<polygon class="st34" points="288.6,674.8 251.6,674.8 262.2,425.8 278.1,425.2 				"/>
				<path class="st34" d="M133,451.6v222.6h105.7V451.6H133z M224.6,483.9v11.7h-11.7v-11.7H224.6z M157.7,471v11.7h-11.8V471H157.7
					z M155,561.8v11.7h-11.7v-11.7H155z M176.5,634.9v11.8h-11.8v-11.8H176.5z M213.5,592.6h-11.8v-11.7h11.8V592.6z M189.4,523.3
					V535h-11.8v-11.8L189.4,523.3L189.4,523.3z"/>
				<rect x="260.5" y="418.7" class="st34" width="24.1" height="8.2"/>
				<path class="st34" d="M373,553.8l-32.4-55.2l-6.9-11.8l-14.1,26.8l0,0l-21.1,40.2h-10.4v22.3H301v97.5h71.6v-97.5h7v-22.3H373z
					 M311,640.7v-4.1h48.8v4.1H311z M359.7,662.5v4.1H311v-4.1H359.7z M311,614.9v-4.1h48.8v4.1H311z M359.7,585v4.1H311V585H359.7z
					"/>
				<rect x="126" y="441.1" class="st34" width="119.8" height="16.4"/>
			</g>
			<g>
				<path class="st35" d="M123.3,594c1-2.3,1.5-4.9,1.5-7.6c0-8.3-5.2-15.5-12.5-18.3c-1.8-0.7-3.6-1.1-5.6-1.3
					c1.8-2.6,2.9-5.8,2.9-9.2c0-8.6-6.7-15.6-15.2-16.1c-3.1-2.9-7.2-4.7-11.8-4.7c-2.5,0-4.8,0.5-6.9,1.5c-0.2-1.3-0.6-2.5-1-3.8
					c-5.4,6.3-9.6,11.4-10.4,12.8c-11.8,20.8-19.7,43.8-25.3,66.9c0,0.2-0.1,0.3-0.1,0.5c-0.4,1.5-0.7,3.1-1.1,4.6
					c-0.2,0.9-0.4,1.8-0.6,2.7c-0.8,3.6-1.5,7.3-2.2,11c0.4,0,0.7,0,1.1-0.1c4.7,6.3,12.1,10.5,20.6,10.7c0.2,0,0.3,0,0.5,0
					c3.9,0,7.6-0.8,10.9-2.4c3.6-1.6,6.8-4.1,9.3-7.1c0.6,0.1,1.2,0.1,1.9,0.1c8,0,14.8-5.2,17.2-12.3c2.8,1.5,6.1,2.4,9.5,2.4
					c11.2,0,20.3-9.1,20.3-20.3C126,600.4,125,596.9,123.3,594z M87.3,595.5c-0.6,1.2-1,2.5-1.3,3.8c-0.2-0.1-0.5-0.2-0.7-0.3
					c0.7-1,1.2-2.1,1.8-3.3c0.1-0.2,0.2-0.5,0.3-0.7c0,0.1,0.1,0.1,0.1,0.2C87.4,595.3,87.4,595.4,87.3,595.5z M89.1,573.2
					c0.4,0.1,0.8,0.2,1.2,0.3c-0.4,0.4-0.7,0.8-1,1.2c-0.1-0.5-0.2-0.9-0.3-1.4C89,573.3,89.1,573.3,89.1,573.2z"/>
				<path class="st36" d="M98,595.7l-30.2,25.5v52.4H56.7v-29.7l-0.2-0.3l-18.8-24.3c0.3-1.5,0.7-3.1,1.1-4.6c0-0.2,0.1-0.3,0.1-0.5
					l2.3-1.8l0.4,0.5l15,19.4v-38.7h11.2V612l19.3-16.3l0.3-0.2l6.1-5.1L98,595.7z"/>
			</g>
		</g>
		<g class="st37">
			<path class="st38" d="M401.6,265.6v118.7l-0.7,0.4l-2.7,1.7l-118.6,75.3l-19.5,12.4l-21.4,13.6l-55.9,35.5l-5.2,3.3L133,554.9
				l-20.8,13.2l-44.4,28.2l-11.2,7.1l-15,9.6l-2.8,1.8c0-0.2,0.1-0.3,0.1-0.5c5.6-23.2,13.6-46.2,25.3-66.9c0.8-1.4,5-6.5,10.4-12.8
				c12.1-14.1,30.4-34.1,30.8-32.4C97.2,467.2,89,432,86,396.3l15.2-9.8l2.7-1.7l18.8-12.2l2.7-1.7l18.9-12.2l2.7-1.7l18.9-12.2
				l2.7-1.7l18.9-12.2l2.7-1.7l18.9-12.2l2.7-1.7l18.9-12.2l2.7-1.7l18.9-12.2l2.7-1.7l18.9-12.2l2.7-1.7l12.2-7.9L401.6,265.6
				L401.6,265.6z"/>
			<polygon class="st38" points="401.6,541.7 401.6,455 95.8,673.6 204.4,673.6 			"/>
		</g>
		<path class="st39" d="M444.1,701.8v5.9c0,2-1.6,3.5-3.5,3.5H28.5c-0.1-4.3-0.1-8.6-0.1-12.9h412.2
			C442.6,698.3,444.1,699.9,444.1,701.8z"/>
		<path class="st40" d="M439.4,234.3v17.6H123.3c1.4-1.5,2.9-3.1,4.4-4.5c0.2-0.2,0.5-0.5,0.7-0.7c1.6-1.5,3.2-3,4.9-4.4
			c3.3-2.9,6.8-5.5,10.3-8L439.4,234.3L439.4,234.3z"/>
		<g>
			<g>
				<path class="st41" d="M415,259.6H116.8c2.1-2.6,4.2-5.1,6.5-7.6c1.4-1.5,2.9-3.1,4.4-4.5h281.1l2.3,4.5L415,259.6z"/>
				<path class="st42" d="M415,259.6l-6.2,1.7H115.4c0.4-0.6,0.9-1.2,1.3-1.7H415z"/>
			</g>
			<g>
				<path class="st41" d="M415,273.5H107.2c1.6-2.7,3.3-5.3,5.1-7.9c1-1.4,2.1-2.9,3.1-4.3h293.4L415,273.5z"/>
				<path class="st42" d="M415,273.5l-6.2,1.7H106.2c0.3-0.6,0.7-1.1,1-1.7H415z"/>
			</g>
			<g>
				<path class="st41" d="M415,287.4H100c1.9-4.2,3.9-8.2,6.2-12.2h302.7L415,287.4z"/>
				<path class="st42" d="M415,287.4l-6.2,1.7H99.2c0.3-0.6,0.5-1.2,0.8-1.7H415z"/>
			</g>
			<g>
				<path class="st41" d="M415,301.3H94.5c1.4-4.1,2.9-8.2,4.7-12.2h309.7L415,301.3z"/>
				<path class="st42" d="M415,301.3l-6.2,1.7H94c0.2-0.6,0.4-1.2,0.6-1.7H415z"/>
			</g>
			<g>
				<path class="st41" d="M415,315.2H90.6c1-4.1,2.1-8.2,3.4-12.2h314.9L415,315.2z"/>
				<path class="st42" d="M415,315.2l-6.2,1.7H90.1c0.1-0.6,0.3-1.2,0.4-1.7H415z"/>
			</g>
			<g>
				<path class="st41" d="M415,329.1H87.8c0.7-4.1,1.5-8.2,2.4-12.2h318.7L415,329.1z"/>
				<path class="st42" d="M415,329.1l-6.2,1.7H87.5c0.1-0.6,0.2-1.2,0.3-1.7H415z"/>
			</g>
			<g>
				<path class="st41" d="M413.7,343H86c0.4-4.1,0.9-8.1,1.5-12.2h320.1L413.7,343z"/>
				<path class="st42" d="M413.7,343l-6.2,1.7H85.8c0-0.6,0.1-1.2,0.2-1.7H413.7z"/>
			</g>
			<g>
				<path class="st41" d="M413.7,356.9H85c0.2-4.1,0.4-8.1,0.8-12.2h321.8L413.7,356.9z"/>
				<path class="st42" d="M413.7,356.9l-6.2,1.7H84.9c0-0.6,0-1.1,0.1-1.7H413.7z"/>
			</g>
			<g>
				<path class="st41" d="M413.7,370.8H84.8c0-4.1,0-8.1,0.1-12.2h322.6L413.7,370.8z"/>
				<path class="st42" d="M413.7,370.8l-6.2,1.7H84.8c0-0.6,0-1.2,0-1.7H413.7z"/>
			</g>
			<g>
				<path class="st41" d="M413.7,384.7H85.2c-0.2-4-0.4-8.1-0.4-12.2h322.7L413.7,384.7z"/>
				<path class="st42" d="M413.7,384.7l-6.2,1.7H85.3c0-0.6-0.1-1.1-0.1-1.7H413.7z"/>
			</g>
			<g>
				<rect x="340.7" y="246.3" class="st43" width="5.3" height="159.4"/>
			</g>
		</g>
		<path class="st44" d="M445.5,711.2v43.3L28.6,716.8c-0.1-1.9-0.1-3.7-0.2-5.6H445.5z"/>
	</g>
	<g>
		<path class="st45" d="M1320.8,903.2h-263.4l-7.8-158.9c0-23.8,19.3-43.1,43.1-43.1h192.7c23.8,0,43.1,19.3,43.1,43.1L1320.8,903.2
			z"/>
		<polygon class="st46" points="1316.5,896.3 1268.8,672.7 1268.8,670.9 1108.7,670.9 1108.7,672.7 1061,896.3 1095.2,903.6 
			1108.7,840.3 1108.7,900.9 1268.8,900.9 1268.8,840.3 1282.3,903.6 		"/>
		<path class="st46" d="M1268.8,672.7v-1.8h-133.6c1,17.4,30.8,37.2,70.3,46c29.6,6.6,56.9,5.1,72.2-2.5L1268.8,672.7z"/>
		<path class="st0" d="M1189.3,698.9h-1.2c-11.5,0-20.8-9.3-20.8-20.8v-47c0-11.5,9.3-20.8,20.8-20.8h1.2c11.5,0,20.8,9.3,20.8,20.8
			v47C1210.1,689.5,1200.8,698.9,1189.3,698.9z"/>
		<path class="st5" d="M1167.4,640.5v9.3l38.8,40.4c2.5-3.4,4-7.6,4-12.2v-42.6C1193.1,635.8,1176.5,638.6,1167.4,640.5z"/>
		<path class="st10" d="M1049.7,555.9"/>
		<circle class="st0" cx="1268.4" cy="540.3" r="19.4"/>
		<path class="st0" d="M1287.8,540.3c0,10.7-8.7,19.4-19.4,19.4c-3,0-5.8-0.7-8.3-1.8v23.8c0,39.6-32.4,72.1-72.1,72.1l0,0
			c-39.6,0-72.1-32.4-72.1-72.1v-23.5c-2.4,1-4.9,1.6-7.7,1.6c-10.7,0-19.4-8.7-19.4-19.4s8.7-19.4,19.4-19.4c2.7,0,5.3,0.6,7.7,1.6
			v-31c0-13.3,10.9-24.2,24.2-24.2h95.8c13.3,0,24.2,10.9,24.2,24.2v31.3c2.5-1.2,5.3-1.8,8.3-1.8
			C1279.1,520.9,1287.8,529.6,1287.8,540.3z"/>
		<path class="st5" d="M1268.4,520.9c-3,0-5.8,0.7-8.3,1.8v-31.3c0-9.9-6.1-18.5-14.7-22.2l-58.8,5.8v178.7c0.1,0,0.1,0,0.2,0
			l13.5-1c33.9-5.9,59.8-35.6,59.8-71v-23.8c2.5,1.2,5.3,1.8,8.3,1.8c10.7,0,19.4-8.7,19.4-19.4S1279.1,520.9,1268.4,520.9z"/>
		<g>
			<path class="st6" d="M1268,467.3v53.6c-5,0-9.5,1.4-13.2,3.9c-1.1,0.7-2.2,1.6-3.1,2.5v-60H1268z"/>
		</g>
		<g>
			<path class="st6" d="M1171.3,510.8h-33.4c-1.9,0-3.5-1.6-3.5-3.5l0,0c0-1.9,1.6-3.5,3.5-3.5h33.4c1.9,0,3.5,1.6,3.5,3.5l0,0
				C1174.8,509.2,1173.2,510.8,1171.3,510.8z"/>
		</g>
		<g>
			<path class="st6" d="M1237.3,510.8h-33.4c-1.9,0-3.5-1.6-3.5-3.5l0,0c0-1.9,1.6-3.5,3.5-3.5h33.4c1.9,0,3.5,1.6,3.5,3.5l0,0
				C1240.8,509.2,1239.2,510.8,1237.3,510.8z"/>
		</g>
		<g>
			<rect x="1108.7" y="461.1" class="st6" width="15.5" height="67.6"/>
		</g>
		<path d="M1256.3,524v0.8c-1,0.7-1.9,1.6-2.7,2.5v1.4h-8.2V524H1256.3z"/>
		<circle class="st7" cx="1154.6" cy="533.3" r="24.9"/>
		<path class="st8" d="M1145.3,552.8h-11.7l27.8-43.5h6.7c2.1,0,3.4,2.4,2.3,4.2L1145.3,552.8z"/>
		<path class="st8" d="M1162.9,545.9h-7.6l18.1-28.2h3.2c1.9,0,3,2.1,2,3.7L1162.9,545.9z"/>
		<circle class="st7" cx="1220.6" cy="533.3" r="24.9"/>
		<path class="st8" d="M1211.3,552.8h-11.7l27.8-43.5h6.7c2.1,0,3.4,2.4,2.3,4.2L1211.3,552.8z"/>
		<rect x="1118.8" y="524" width="10.9" height="4.7"/>
		<path class="st8" d="M1228.9,545.9h-7.6l18.1-28.2h3.2c1.9,0,3,2.1,2,3.7L1228.9,545.9z"/>
		<g>
			<path class="st6" d="M1257.6,475.1H1129c-14.7,0-26.5-11.9-26.5-26.5v-5.2c0-14.7,11.9-26.5,26.5-26.5h153v33.8
				C1282,464.1,1271.1,475.1,1257.6,475.1z"/>
		</g>
		<path class="st47" d="M1270.3,444.7c0,13.8-10.4,19.5-24.2,19.5"/>
		<path class="st10" d="M1159.7,595.3v3l0.3,0.3l0.1-6.2C1159.8,593.3,1159.7,594.3,1159.7,595.3z"/>
		<path class="st11" d="M1251.7,565.9l-35.3,32.3v-2.9c0-1-0.1-2-0.4-2.9c-1.3-4.5-5.4-7.8-10.3-7.8h-35.3c-4.9,0-9,3.3-10.3,7.8
			l-0.1,6.2l-0.3-0.3l-35.4-32.5l-8.2-7.5l-0.1-0.1v23.5c0,1.4,0,2.8,0.1,4.1c0,0.7,0.1,1.4,0.1,2.1c0.1,0.7,0.1,1.4,0.2,2
			c0.2,1.4,0.3,2.7,0.6,4c0.1,0.7,0.2,1.3,0.4,2c0.1,0.3,0.1,0.7,0.2,1s0.1,0.7,0.2,1c0.1,0.5,0.2,1,0.3,1.5c0.1,0.3,0.2,0.7,0.3,1
			c0,0.1,0,0.2,0.1,0.3c0.1,0.3,0.2,0.6,0.3,0.9c0.1,0.5,0.3,1,0.5,1.5c0.7,2.3,1.5,4.5,2.4,6.6c0.2,0.5,0.5,1.1,0.7,1.6
			c0.5,1.1,1,2.1,1.5,3.1c0.3,0.5,0.5,1,0.8,1.5c0.6,1,1.1,2,1.7,3s1.2,2,1.9,2.9c0.7,1,1.3,1.9,2,2.8c0.4,0.5,0.8,1,1.2,1.5
			c0.3,0.3,0.5,0.7,0.8,1c0.4,0.5,0.9,1.1,1.4,1.6c0.4,0.4,0.7,0.8,1.1,1.2c0.3,0.3,0.6,0.7,0.9,1c0.1,0.1,0.3,0.3,0.4,0.4
			c0.4,0.4,0.7,0.7,1.1,1.1c0.4,0.4,0.8,0.8,1.2,1.1c0.1,0.1,0.1,0.1,0.2,0.2c0.4,0.3,0.8,0.7,1.1,1c0.4,0.3,0.7,0.6,1.1,1
			c0.3,0.2,0.5,0.5,0.8,0.7c0.2,0.2,0.5,0.4,0.7,0.6c0.2,0.1,0.3,0.3,0.5,0.4c0.3,0.3,0.6,0.5,1,0.8s0.7,0.6,1.1,0.8
			c0.1,0.1,0.2,0.2,0.3,0.3c0.4,0.3,0.8,0.6,1.2,0.9c0.5,0.3,0.9,0.7,1.4,1l0,0c0.5,0.3,0.9,0.6,1.4,0.9c0.4,0.3,0.9,0.6,1.4,0.9
			c0.1,0.1,0.2,0.1,0.3,0.2c0.5,0.3,0.9,0.5,1.4,0.8s1,0.6,1.5,0.9c0.5,0.3,1,0.6,1.5,0.8c0.5,0.3,1,0.5,1.6,0.8
			c0.5,0.3,1,0.5,1.6,0.7c0.4,0.2,0.9,0.4,1.3,0.6c0.3,0.1,0.6,0.2,0.9,0.4c0.4,0.2,0.8,0.3,1.2,0.5c0.9,0.3,1.8,0.7,2.7,1
			c0.5,0.2,0.9,0.3,1.4,0.5c0.5,0.1,0.9,0.3,1.4,0.4c0,0,0,0,0.1,0h0.1c0.3,0.1,0.5,0.2,0.8,0.2c0.1,0,0.1,0,0.2,0.1
			c0.4,0.1,0.7,0.2,1.1,0.3s0.7,0.2,1.1,0.3c0.7,0.2,1.5,0.4,2.2,0.5c0.3,0.1,0.7,0.1,1,0.2c0.1,0,0.1,0,0.2,0
			c0.3,0.1,0.7,0.1,1,0.2c0.1,0,0.2,0,0.3,0.1c0.5,0.1,1,0.2,1.5,0.3c0.1,0,0.1,0,0.2,0c0.6,0.1,1.1,0.2,1.7,0.2
			c0.6,0.1,1.2,0.1,1.8,0.2c0.5,0,0.9,0.1,1.4,0.1c0,0,0,0,0.1,0c0.3,0,0.7,0,1,0.1l0,0c0.4,0,0.7,0.1,1.1,0.1c0.2,0,0.5,0,0.7,0
			c0.3,0,0.5,0,0.8,0h0.1c0.3,0,0.5,0,0.8,0c0.1,0,0.1,0,0.2,0c0.4,0,0.8,0,1.2,0l0,0c0.6,0,1.2,0,1.7,0c0.1,0,0.1,0,0.2,0
			c0.4,0,0.8,0,1.1,0h0.1c0.2,0,0.5,0,0.7,0c0.1,0,0.1,0,0.2,0c0.4,0,0.8,0,1.1-0.1c0.2,0,0.4,0,0.5,0c0.4,0,0.8-0.1,1.2-0.1
			c0.1,0,0.3,0,0.4,0c0.4,0,0.8-0.1,1.2-0.1c0.2,0,0.5-0.1,0.7-0.1c0.4,0,0.7-0.1,1.1-0.2c0.1,0,0.2,0,0.3,0c0.5-0.1,1-0.2,1.5-0.2
			l0,0l0,0l0,0h0.1c0.2,0,0.5-0.1,0.7-0.1s0.3-0.1,0.5-0.1c0.1,0,0.2,0,0.3-0.1c0.5-0.1,1-0.2,1.6-0.3c0.5-0.1,0.9-0.2,1.4-0.3
			c0.1,0,0.2,0,0.3-0.1c0,0,0,0,0.1,0l0,0c0.4-0.1,0.9-0.2,1.3-0.3c0.1,0,0.2-0.1,0.3-0.1c0.1,0,0.1,0,0.2-0.1c0.1,0,0.2,0,0.3-0.1
			c0.3-0.1,0.5-0.1,0.8-0.2l0,0h0.1c0.3-0.1,0.7-0.2,1-0.3c0.1,0,0.2-0.1,0.4-0.1h0.1c0,0,0,0,0.1,0h0.1c0.1,0,0.1,0,0.2-0.1
			c0.5-0.2,1-0.3,1.5-0.5c0.2-0.1,0.4-0.1,0.6-0.2c0,0,0.1,0,0.1-0.1c0.1,0,0.2-0.1,0.3-0.1c0.1,0,0.1,0,0.2-0.1
			c0.4-0.2,0.9-0.3,1.3-0.5c0.3-0.1,0.7-0.3,1-0.4c0.2-0.1,0.4-0.2,0.7-0.3c0.1,0,0.2-0.1,0.2-0.1c0.4-0.1,0.7-0.3,1.1-0.5
			c0.2-0.1,0.3-0.1,0.5-0.2l0.2-0.1h0.1h0.1h0.1c0,0,0,0,0.1,0c0.3-0.1,0.6-0.3,0.8-0.4c0.1,0,0.2-0.1,0.3-0.1
			c0.1,0,0.2-0.1,0.3-0.1c0.1,0,0.1-0.1,0.2-0.1c0,0,0.1,0,0.1-0.1c0.1,0,0.1-0.1,0.2-0.1c0.2-0.1,0.3-0.1,0.5-0.2
			c0.1-0.1,0.3-0.2,0.5-0.2c0.1,0,0.1-0.1,0.2-0.1c0.5-0.2,1-0.5,1.4-0.8c0.2-0.1,0.3-0.2,0.5-0.3s0.5-0.2,0.7-0.4
			c0.1,0,0.1-0.1,0.2-0.1c0.1-0.1,0.2-0.1,0.3-0.2c0.4-0.2,0.7-0.4,1.1-0.7c0.1,0,0.1-0.1,0.2-0.1s0.1-0.1,0.2-0.1
			c0.1-0.1,0.2-0.1,0.3-0.2c0.3-0.2,0.6-0.3,0.8-0.5c0.3-0.2,0.7-0.4,1-0.6c0.1,0,0.1-0.1,0.2-0.1c0,0,0.1,0,0.1-0.1
			c0.2-0.1,0.4-0.3,0.6-0.4c0.1,0,0.1-0.1,0.2-0.1c0.1-0.1,0.2-0.1,0.3-0.2c0.2-0.1,0.3-0.2,0.5-0.4c0.1-0.1,0.2-0.2,0.3-0.2
			c0.1-0.1,0.2-0.2,0.4-0.3c0.1,0,0.1-0.1,0.2-0.1s0.1-0.1,0.2-0.1c0.1-0.1,0.2-0.1,0.3-0.2c0.2-0.1,0.3-0.3,0.5-0.4c0,0,0,0,0.1,0
			c0.1-0.1,0.2-0.1,0.3-0.2c0,0,0,0,0.1,0c0.2-0.1,0.3-0.2,0.5-0.4c0.1-0.1,0.2-0.2,0.3-0.2c0.1-0.1,0.1-0.1,0.2-0.2
			c0,0,0.1,0,0.1-0.1c0.2-0.1,0.4-0.3,0.5-0.4c0,0,0,0,0.1-0.1s0.2-0.1,0.3-0.2l0,0l0.1-0.1c0,0,0.1,0,0.1-0.1
			c0.1-0.1,0.1-0.1,0.2-0.2c0.1-0.1,0.2-0.1,0.2-0.2c0.2-0.2,0.5-0.4,0.7-0.6l0.1-0.1c0.4-0.3,0.8-0.7,1.2-1l0,0
			c0.3-0.2,0.6-0.5,0.8-0.8c0.1-0.1,0.2-0.2,0.3-0.3c0.2-0.2,0.4-0.4,0.6-0.6c0.3-0.3,0.5-0.5,0.8-0.8c0.4-0.4,0.7-0.7,1-1.1
			c0.1-0.1,0.3-0.3,0.4-0.4l0.1-0.1c0.2-0.2,0.3-0.4,0.5-0.5c0.1-0.1,0.2-0.3,0.4-0.4c0.1-0.1,0.2-0.2,0.3-0.3
			c0.2-0.2,0.3-0.4,0.5-0.6l0,0l0.1-0.1c0.1-0.1,0.1-0.1,0.2-0.2l0,0c0.1-0.1,0.2-0.2,0.2-0.3l0.1-0.1l0,0c0.3-0.4,0.6-0.8,1-1.1
			c0.3-0.3,0.6-0.7,0.8-1c0.1-0.1,0.1-0.2,0.2-0.3s0.2-0.3,0.3-0.4c0.1-0.2,0.3-0.3,0.4-0.5c0.1-0.1,0.1-0.2,0.2-0.2
			c0,0,0-0.1,0.1-0.1c0.3-0.4,0.7-0.9,1-1.3c0,0,0,0,0-0.1c0.1-0.2,0.2-0.3,0.3-0.5c0.1-0.1,0.2-0.2,0.2-0.3
			c0.1-0.2,0.3-0.4,0.4-0.6c0.3-0.5,0.6-1,1-1.5l0,0c0.2-0.3,0.4-0.6,0.6-0.9c0-0.1,0.1-0.1,0.1-0.2v-0.1c0.1-0.2,0.2-0.3,0.3-0.5
			c0,0,0.1-0.1,0.1-0.2c0,0,0,0,0-0.1c0.2-0.4,0.4-0.7,0.7-1.1l0,0c0-0.1,0.1-0.1,0.1-0.2c0.2-0.3,0.3-0.5,0.5-0.8l0.1-0.1
			c0,0,0,0,0-0.1s0.1-0.1,0.1-0.2c0.2-0.4,0.4-0.7,0.6-1.1c0.1-0.1,0.1-0.3,0.2-0.4v-0.1c0,0,0-0.1,0.1-0.1c0.1-0.1,0.1-0.3,0.2-0.4
			c0-0.1,0.1-0.1,0.1-0.2c0.1-0.3,0.3-0.5,0.4-0.8l0,0c0-0.1,0-0.1,0.1-0.2c0.2-0.5,0.5-0.9,0.7-1.4v-0.1c0.1-0.1,0.1-0.2,0.2-0.4
			c0.1-0.3,0.3-0.6,0.4-1c0-0.1,0-0.1,0.1-0.2c0-0.1,0-0.1,0.1-0.2c0.2-0.5,0.4-0.9,0.6-1.4c0.1-0.2,0.2-0.4,0.2-0.6
			c0-0.1,0.1-0.2,0.1-0.3s0.1-0.1,0.1-0.2c0-0.1,0-0.1,0.1-0.2c0.1-0.2,0.1-0.4,0.2-0.6c0.1-0.1,0.1-0.3,0.2-0.4l0,0
			c0-0.1,0.1-0.2,0.1-0.2c0.1-0.3,0.2-0.7,0.3-1v-0.1c0-0.1,0-0.1,0.1-0.2c0.1-0.3,0.2-0.5,0.3-0.8c0-0.1,0-0.1,0.1-0.2
			c0,0,0,0,0-0.1s0.1-0.2,0.1-0.4v-0.1c0.1-0.3,0.2-0.5,0.2-0.8c0-0.1,0.1-0.3,0.1-0.4c0-0.1,0.1-0.2,0.1-0.3l0,0
			c0-0.1,0-0.1,0.1-0.2V601v-0.1c0-0.2,0.1-0.3,0.1-0.5c0.1-0.3,0.1-0.5,0.2-0.8c0.3-1.1,0.5-2.1,0.7-3.2c0.1-0.3,0.1-0.6,0.2-0.8
			c0-0.2,0.1-0.3,0.1-0.5s0.1-0.3,0.1-0.5c0.1-0.5,0.2-0.9,0.2-1.4v-0.1c0,0,0,0,0-0.1c0-0.3,0.1-0.5,0.1-0.8v-0.1v-0.2
			c0-0.2,0.1-0.3,0.1-0.5c0-0.1,0-0.2,0-0.2c0-0.2,0-0.3,0.1-0.5c0-0.3,0.1-0.7,0.1-1.1c0-0.1,0-0.1,0-0.2c0-0.3,0.1-0.6,0.1-0.9
			c0,0,0,0,0-0.1v-0.1v-0.1c0-0.2,0-0.5,0.1-0.7c0-0.2,0-0.4,0-0.6v-0.1l0,0v-0.1c0-0.1,0-0.2,0-0.3l0,0c0-0.4,0.1-0.8,0.1-1.2v-0.1
			c0-0.5,0-1,0.1-1.5c0-0.6,0-1.2,0-1.8v-23.5L1251.7,565.9z M1167.6,600.9c0-4.3,3.5-7.7,7.7-7.7h25.5c4.3,0,7.7,3.5,7.7,7.7V622
			c0,0.3,0,0.6-0.1,1c-0.5,3.8-3.7,6.8-7.7,6.8h-25.5c-3.2,0-5.9-1.9-7.1-4.6l0,0c-0.4-0.9-0.7-2-0.7-3.1v-21.2H1167.6z"/>
		<circle class="st0" cx="1108.7" cy="540.3" r="19.4"/>
		<path d="M1248.6,528.7c-0.3-1.6-0.7-3.2-1.2-4.7c-1.9-5.3-5.3-9.9-9.7-13.2c-4.7-3.6-10.6-5.7-17-5.7s-12.3,2.1-17,5.7
			c-4.5,3.4-7.9,8.1-9.7,13.5h-12.1c-1.8-5.5-5.3-10.2-9.9-13.6c-4.7-3.5-10.5-5.6-16.9-5.6s-12.3,2.1-17,5.7
			c-4.4,3.3-7.8,7.9-9.6,13.2c-0.5,1.5-0.9,3.1-1.2,4.7c-0.3,1.5-0.4,3.1-0.4,4.7c0,0.1,0,0.2,0,0.4l0,0c0,2.6,0.4,5.2,1.1,7.6
			c1.2,4,3.2,7.7,6,10.8c0.2,0.2,0.4,0.5,0.6,0.7c5.1,5.4,12.4,8.8,20.5,8.8c15.6,0,28.2-12.6,28.2-28.2c0-1.4-0.1-2.7-0.3-4h9.7
			c-0.2,1.3-0.3,2.7-0.3,4c0,7.4,2.8,14,7.4,19.1c0.1,0.1,0.2,0.2,0.3,0.4c5.1,5.4,12.4,8.8,20.5,8.8c15.6,0,28.2-12.6,28.2-28.2
			C1249,531.8,1248.8,530.2,1248.6,528.7z M1155.2,557.5c-5.4,0-10.4-1.8-14.4-4.8c-1.6-1.2-3.1-2.7-4.4-4.3
			c-3.3-4.1-5.4-9.4-5.4-15.2c0-10.2,6.4-19,15.4-22.5c2.7-1.1,5.7-1.7,8.8-1.7c2,0,4,0.2,5.9,0.7c1,0.2,2,0.6,2.9,0.9
			c2.2,0.8,4.1,2,5.9,3.4c1.3,1,2.6,2.2,3.7,3.5c1.5,1.7,2.7,3.7,3.6,5.8c1.4,3,2.1,6.4,2.1,9.9
			C1179.4,546.7,1168.6,557.5,1155.2,557.5z M1220.7,557.5c-5.4,0-10.4-1.8-14.4-4.8c-1.5-1.1-2.9-2.4-4.1-3.9
			c-3.5-4.2-5.6-9.6-5.6-15.5c0-10.2,6.4-19,15.4-22.5c2.7-1.1,5.7-1.7,8.8-1.7c2.2,0,4.3,0.3,6.3,0.8c0.9,0.2,1.7,0.5,2.5,0.8
			c2.3,0.9,4.4,2.1,6.3,3.6c1.3,1,2.4,2.2,3.5,3.4c1.5,1.8,2.8,3.9,3.7,6.1c1.2,2.9,1.9,6.1,1.9,9.4
			C1244.9,546.7,1234.1,557.5,1220.7,557.5z"/>
		<polygon class="st12" points="1174.8,573 1186.9,581.5 1198,573 		"/>
		<polygon class="st0" points="1253.6,527.3 1253.6,528.7 1252.5,528.7 		"/>
		<g>
			<rect x="1115.7" y="517.8" class="st6" width="8.5" height="48.2"/>
		</g>
		<g>
			<rect x="1251.7" y="517.8" class="st6" width="8.5" height="48.2"/>
		</g>
		<polygon class="st46" points="1269.2,736.1 1269.2,847.2 1279.7,889.2 1288.2,889.2 		"/>
		<polygon class="st46" points="1108.7,747.8 1098.3,889.2 1108.7,840.3 		"/>
	</g>
	<g>
		<rect x="435.5" y="167.5" class="st43" width="472.1" height="22.7"/>
		<path class="st48" d="M929.6,64.8V173c0,2.3-1.9,4.2-4.2,4.2H417.7c-2.3,0-4.2-1.9-4.2-4.2V68.5c4.5-2.7,9.2-5.3,14.1-7.9
			c15-7.9,31.7-15.3,50.3-21.9h395.5c1.8,0.7,3.6,1.3,5.4,2c7.9,3.1,15.4,6.3,22.5,9.7c6.8,3.2,13.3,6.6,19.4,10.1h4.7
			C927.7,60.6,929.6,62.5,929.6,64.8z"/>
		<path class="st43" d="M920.7,60.6H427.6c15-7.9,31.7-15.3,50.3-21.9h395.5c1.8,0.7,3.6,1.3,5.4,2c7.9,3.1,15.4,6.3,22.5,9.7
			C908.1,53.7,914.6,57.1,920.7,60.6z"/>
		<g>
			<g>
				<rect x="439.8" y="66.1" class="st49" width="100.8" height="6.1"/>
				<rect x="439.8" y="78.2" class="st49" width="100.8" height="6.1"/>
				<rect x="552.8" y="66.1" class="st49" width="100.8" height="6.1"/>
				<rect x="552.8" y="78.2" class="st49" width="100.8" height="6.1"/>
			</g>
			<g>
				<rect x="689.4" y="66.1" class="st49" width="100.8" height="6.1"/>
				<rect x="689.4" y="78.2" class="st49" width="100.8" height="6.1"/>
				<rect x="802.4" y="66.1" class="st49" width="100.8" height="6.1"/>
				<rect x="802.4" y="78.2" class="st49" width="100.8" height="6.1"/>
			</g>
		</g>
		<circle class="st50" cx="917.4" cy="166.3" r="5.5"/>
		<path class="st51" d="M441,149.9v25.5h461v-25.5H441z M893.6,174.1H449.4l4.2-6.7l7.8-12.3h413.1l12.4,12.3L893.6,174.1z"/>
	</g>
	<g>
		<path class="st52" d="M582.7,832.3v134.8c-2-0.8-3.9-1.6-5.8-2.5c-1.8-0.8-3.5-1.5-5.3-2.3s-3.5-1.6-5.3-2.4
			c-24.5-11.2-48.4-24.4-71.3-40v-87.7h87.7V832.3z"/>
		<path class="st52" d="M671.1,832.3v163.6c-0.7-0.2-1.4-0.3-2.1-0.5c-0.5-0.1-0.9-0.2-1.4-0.3c-1.4-0.3-2.8-0.7-4.1-1.1
			c-0.1,0-0.2,0-0.3-0.1c-0.3-0.1-0.5-0.1-0.8-0.2c-1.6-0.4-3.3-0.8-4.9-1.3c-0.4-0.1-0.8-0.2-1.2-0.3c-1.2-0.3-2.5-0.7-3.7-1
			c-2.1-0.6-4.1-1.1-6.1-1.7c-0.1,0-0.2,0-0.2-0.1c-1.5-0.4-3-0.9-4.4-1.3c-0.7-0.2-1.3-0.4-2-0.6c-1.5-0.5-3-0.9-4.5-1.4
			s-3-0.9-4.6-1.4c-0.3-0.1-0.5-0.2-0.8-0.3c-1.5-0.5-3.1-1-4.6-1.5c-0.1,0-0.2-0.1-0.4-0.1c-1.8-0.6-3.5-1.2-5.3-1.8
			c-1.7-0.6-3.4-1.2-5.1-1.7c-2.2-0.8-4.4-1.5-6.6-2.3c-1.4-0.5-2.7-1-4.1-1.5c-0.2-0.1-0.4-0.2-0.6-0.2c-3.2-1.2-6.4-2.4-9.7-3.7
			c-0.5-0.2-0.9-0.4-1.4-0.6c-1.5-0.6-3.1-1.2-4.6-1.9c-0.9-0.4-1.8-0.7-2.7-1.1c-0.4-0.2-0.9-0.4-1.3-0.6v-135H671.1z"/>
		
			<rect x="456.4" y="508.1" transform="matrix(6.783690e-02 -0.9977 0.9977 6.783690e-02 -82.7589 966.4236)" class="st53" width="38.8" height="38.8"/>
		
			<rect x="456.4" y="521.3" transform="matrix(6.783690e-02 -0.9977 0.9977 6.783690e-02 -95.9293 978.7274)" class="st54" width="38.8" height="38.8"/>
		<rect x="582.6" y="546.8" class="st55" width="26.6" height="32"/>
		<rect x="556" y="546.9" class="st55" width="26.6" height="32"/>
		<path class="st0" d="M583.2,582.5H582c-11.5,0-20.7-9.3-20.7-20.7v-46.9c0-11.5,9.3-20.7,20.7-20.7h1.2c11.5,0,20.7,9.3,20.7,20.7
			v46.9C604,573.2,594.7,582.5,583.2,582.5z"/>
		<path class="st5" d="M561.3,524.2v9.3l38.7,40.4c2.5-3.4,4-7.6,4-12.2v-42.5C587,519.5,570.5,522.4,561.3,524.2z"/>
		<path class="st10" d="M443.8,439.8"/>
		<circle class="st0" cx="662.2" cy="424.3" r="19.4"/>
		<path class="st0" d="M681.6,424.3c0,10.7-8.7,19.4-19.4,19.4c-2.9,0-5.7-0.7-8.2-1.8v23.7c0,39.6-32.4,71.9-71.9,71.9l0,0
			c-39.6,0-71.9-32.4-71.9-71.9v-23.5c-2.4,1-4.9,1.6-7.7,1.6c-10.7,0-19.4-8.7-19.4-19.4c0-10.7,8.7-19.4,19.4-19.4
			c2.7,0,5.3,0.6,7.7,1.6v-31c0-13.3,10.9-24.1,24.1-24.1h95.6c13.3,0,24.1,10.9,24.1,24.1v31.2c2.5-1.2,5.3-1.8,8.2-1.8
			C672.9,404.9,681.6,413.6,681.6,424.3z"/>
		<g>
			<path class="st56" d="M661.8,351.4v53.5c-4.9,0-9.5,1.4-13.2,3.9c-1.1,0.7-2.1,1.6-3.1,2.5v-59.9H661.8z"/>
		</g>
		<path class="st5" d="M662.2,404.9c-2.9,0-5.7,0.7-8.2,1.8v-31.2c0-9.9-6.1-18.5-14.7-22.2l-58.6,5.8v178.4c0.1,0,0.1,0,0.2,0
			l13.5-1c33.8-5.9,59.7-35.5,59.7-70.9v-23.7c2.5,1.2,5.3,1.8,8.2,1.8c10.7,0,19.4-8.7,19.4-19.4
			C681.6,413.6,672.9,404.9,662.2,404.9z"/>
		<g>
			<path class="st6" d="M565.2,394.8h-33.4c-1.9,0-3.5-1.6-3.5-3.5l0,0c0-1.9,1.6-3.5,3.5-3.5h33.4c1.9,0,3.5,1.6,3.5,3.5l0,0
				C568.7,393.2,567.1,394.8,565.2,394.8z"/>
		</g>
		<g>
			<path class="st6" d="M631.1,394.8h-33.4c-1.9,0-3.5-1.6-3.5-3.5l0,0c0-1.9,1.6-3.5,3.5-3.5h33.4c1.9,0,3.5,1.6,3.5,3.5l0,0
				C634.6,393.2,633.1,394.8,631.1,394.8z"/>
		</g>
		<g>
			<rect x="502.8" y="345.2" class="st56" width="15.5" height="67.5"/>
		</g>
		<circle class="st0" cx="502.8" cy="424.3" r="19.4"/>
		<polygon class="st12" points="568.8,456.9 580.8,465.4 591.9,456.9 		"/>
		<polygon class="st0" points="647.4,411.2 647.4,412.6 646.3,412.6 		"/>
		<g>
			<rect x="509.7" y="401.8" class="st56" width="8.5" height="48.1"/>
		</g>
		<g>
			<rect x="645.5" y="401.8" class="st56" width="8.5" height="48.1"/>
		</g>
		<path class="st11" d="M608.8,481.7c-4.5-8.6-15.6-14.7-28.4-14.7c-12.9,0-23.9,6.1-28.4,14.7H608.8z"/>
		<path class="st57" d="M570.5,427.4h-40.1c-2,0-3.6-1.6-3.6-3.6V407c0-2,1.6-3.6,3.6-3.6h40.1c2,0,3.6,1.6,3.6,3.6v16.8
			C574.1,425.8,572.5,427.4,570.5,427.4z"/>
		<path class="st57" d="M634.1,427.4H594c-2,0-3.6-1.6-3.6-3.6V407c0-2,1.6-3.6,3.6-3.6h40.1c2,0,3.6,1.6,3.6,3.6v16.8
			C637.7,425.8,636.1,427.4,634.1,427.4z"/>
		<g>
			<path class="st58" d="M568.6,425.8H530c-2.2,0-4-1.8-4-4v-20h46.5v20C572.6,424,570.8,425.8,568.6,425.8z"/>
			<polygon class="st59" points="555.4,401.8 540.2,425.8 533.5,425.8 548.6,401.8 			"/>
			<polygon class="st59" points="567.2,401.8 552,425.8 546.3,425.8 561.5,401.8 			"/>
		</g>
		<g>
			<path class="st58" d="M632.2,425.8h-38.5c-2.2,0-4-1.8-4-4v-20h46.5v20C636.2,424,634.4,425.8,632.2,425.8z"/>
			<polygon class="st59" points="619,401.8 603.8,425.8 597.1,425.8 612.2,401.8 			"/>
			<polygon class="st59" points="630.8,401.8 615.6,425.8 609.9,425.8 625.1,401.8 			"/>
		</g>
		<rect x="525.3" y="401.8" class="st6" width="48.1" height="3.1"/>
		<rect x="588.9" y="401.8" class="st6" width="48.1" height="3.1"/>
		<rect x="571.8" y="404.9" class="st6" width="18.6" height="4.7"/>
		<rect x="513.6" y="401.8" class="st6" width="12.4" height="4.7"/>
		<rect x="636.2" y="401.8" class="st6" width="12.4" height="4.7"/>
		<path class="st60" d="M589.6,500.3H571c-1.7,0-3.1-1.4-3.1-3.1l0,0c0-1.7,1.4-3.1,3.1-3.1h18.6c1.7,0,3.1,1.4,3.1,3.1l0,0
			C592.7,498.9,591.4,500.3,589.6,500.3z"/>
		
			<ellipse transform="matrix(0.2222 -0.975 0.975 0.2222 148.7144 852.1984)" class="st56" cx="608.5" cy="332.9" rx="43.1" ry="69.3"/>
		<ellipse transform="matrix(0.866 -0.5 0.5 0.866 -89.5461 312.2031)" class="st56" cx="537.8" cy="323.2" rx="50.1" ry="31.3"/>
		<path class="st53" d="M567.2,340.3c0,0,46.9,50.2,98.9,8.3C666,348.6,621.9,377.7,567.2,340.3z"/>
		<polygon class="st53" points="582.7,577.2 619.1,555.1 624.3,588.7 615.9,680.9 582.7,735.3 		"/>
		<polygon class="st53" points="582.7,577.2 546.2,555.1 541,588.7 549.4,680.9 582.7,735.3 		"/>
		<polygon class="st61" points="580.1,599.3 569.5,703.6 580.1,738.9 595.9,733.7 598.5,704.7 585.3,599.3 		"/>
		<g>
			<polygon class="st62" points="685.3,897.1 682.1,631.4 682.1,631 681.2,555.2 682.2,631.4 			"/>
			<polygon class="st63" points="685.4,898.1 685.1,898.2 685,894.5 685,894.5 682.1,631.4 685.3,897.1 685.3,897.1 			"/>
			<path class="st63" d="M685.1,898.2l-3.9-341.3l0.9,74.1l-0.8-75.8c-0.1,0.1-62.1-0.1-62.1-0.1l4.5,83.8l-40.9,96.4v164.1
				c3.1,10.6,16.2,23.3,20.8,22.9c47.8-3.6,81.9-24.2,81.9-24.2l0,0L685.1,898.2z"/>
			<polygon class="st63" points="681.2,556.9 685.1,898.2 682.1,631 			"/>
		</g>
		<rect x="581.9" y="734.5" class="st64" width="1.6" height="164.4"/>
		<path class="st52" d="M619.1,555.1c0,0-17.9,141.5-36.5,180.2c0,0,38.7-46.8,64-117.9L631.7,602l14.9-20.9L619.1,555.1z"/>
		<polygon class="st65" points="569.5,579 595.9,579 585.3,600.1 580.1,600.1 		"/>
		<path class="st66" d="M582.7,577.2c0,0,8.6,18.2,11.9,22.7c3.3,4.5,24.6-44.8,24.6-44.8s-3.9-5.5-9.9-8.3
			C609.3,546.8,595.3,567.1,582.7,577.2z"/>
		<g>
			<path class="st62" d="M483.2,555.9L483.2,555.9"/>
			<path class="st63" d="M541.7,638.9l4.5-83.8c0,0-63-0.2-62.9,0c0,0,0,0.2-0.1,0.6l-2.9,342.5l-0.3-0.1l0,0c0,0,34,20.6,81.9,24.2
				c4.6,0.3,17.8-12.3,20.8-22.9V735.3L541.7,638.9z"/>
			<path class="st63" d="M483.2,555.8L483.2,555.8L480,898.2l0.3,0.1L483.2,555.8z"/>
		</g>
		<path class="st52" d="M546.2,555.1c0,0,17.9,141.5,36.5,180.2c0,0-38.7-46.8-64-117.9l14.9-15.4l-14.9-20.9L546.2,555.1z"/>
		<path class="st66" d="M582.7,577.2c0,0-8.6,18.2-11.9,22.7c-3.3,4.5-24.6-44.8-24.6-44.8s3.9-5.5,9.9-8.3
			C556,546.8,570,567.1,582.7,577.2z"/>
		<circle class="st52" cx="582.7" cy="768" r="7"/>
		<circle class="st52" cx="582.7" cy="838.9" r="7"/>
		<path class="st64" d="M582.7,735.3"/>
		<path class="st64" d="M582.7,735.3"/>
		<path class="st54" d="M481.3,754.4c0,0,32.3,5.7,32.3-26.8s7-172.5,7-172.5h-37.2L481.3,754.4z"/>
		<path class="st63" d="M458.5,744l-2.5-0.2c-13.4-0.9-23.6-12.5-22.6-25.9l13.1-193.2l51.1,3.5l-13.1,193.2
			C483.5,734.8,471.9,744.9,458.5,744z"/>
		
			<rect x="491.8" y="386" transform="matrix(0.9914 -0.1308 0.1308 0.9914 -53.4185 68.7778)" class="st52" width="10.1" height="110.1"/>
		<polygon class="st0" points="466.4,507.4 457.9,459.4 478.2,401.7 488.7,395.5 495,451.1 496.5,475.3 493.8,509.3 		"/>
		<polygon class="st53" points="689.6,849 724.4,845.8 728.3,888.6 693.5,891.8 		"/>
		<polygon class="st54" points="687.4,840.7 722.6,836 728.1,878.6 693,883.3 		"/>
		<polygon class="st0" points="723.7,889.1 737.8,928.5 708.5,959.2 693.8,962.3 700.8,935.1 697.6,919.7 696.3,890.8 		"/>
		<circle class="st53" cx="483.4" cy="541.4" r="4.7"/>
		<circle class="st53" cx="481.8" cy="556.9" r="4.7"/>
		<polygon class="st54" points="685,894.5 685,894.5 650.9,635.6 682,631.5 682.1,631.4 682.2,631.4 685.3,897.1 		"/>
		<polygon class="st63" points="734.8,868.2 687,874.5 644.7,555.4 693.6,554.6 		"/>
		
			<ellipse transform="matrix(0.9906 -0.1368 0.1368 0.9906 -107.9637 102.8192)" class="st53" cx="694.1" cy="836.9" rx="4.7" ry="4.7"/>
		
			<ellipse transform="matrix(0.9906 -0.1368 0.1368 0.9906 -110.0787 103.2536)" class="st53" cx="696.2" cy="852.5" rx="4.7" ry="4.7"/>
	</g>
	<g>
		<g>
			<path class="st62" d="M1479.2,283.3c-0.9,0-1.8-0.2-2.6-0.6l-91.8,60.6h5.7H1568h5.7l-91.8-60.6
				C1481,283.1,1480.1,283.3,1479.2,283.3z"/>
			<path class="st67" d="M1567.9,526.8h22.5v-24.9V368.2v-24.9h-7.9l-97.6-64.4c0.1-0.5,0.2-1,0.2-1.5c0-3.3-2.6-5.9-5.9-5.9
				s-5.9,2.6-5.9,5.9c0,0.5,0.1,1,0.2,1.5l-97.6,64.4h-7.9v24.9v133.7v24.3h39.8H1368L1567.9,526.8z M1567.9,343.3h-177.5h-5.7
				l91.8-60.6c0.8,0.4,1.7,0.6,2.6,0.6s1.8-0.2,2.6-0.6l91.8,60.6H1567.9z"/>
		</g>
		<polyline id="XMLID_380_" class="st68" points="1383,338.9 1476.2,277.4 1569.4,338.9 		"/>
		<g id="XMLID_379_">
			<rect id="XMLID_325_" x="1376" y="336.2" class="st14" width="200.3" height="165.3"/>
			<rect id="XMLID_323_" x="1376" y="479.1" class="st69" width="200.3" height="22.4"/>
			<rect id="XMLID_326_" x="1376" y="336.2" class="st69" width="200.3" height="22.4"/>
			<rect id="XMLID_322_" x="1376" y="336.2" class="st70" width="20.2" height="165.3"/>
			<rect id="XMLID_324_" x="1556.1" y="336.2" class="st70" width="20.2" height="165.3"/>
			<rect id="XMLID_66_" x="1396.3" y="453.8" class="st71" width="159.9" height="26"/>
			<polygon id="XMLID_95_" class="st15" points="1396.3,453.8 1439.5,408.9 1484.3,453.8 			"/>
			<polygon id="XMLID_131_" class="st72" points="1468,453.8 1511.2,408.9 1556,453.8 			"/>
			<circle id="XMLID_92_" class="st73" cx="1428.5" cy="386.1" r="10.9"/>
			<g id="XMLID_164_">
				<path id="XMLID_259_" class="st53" d="M1465.2,380.2h-2.8v-0.8c0-2.4-1.9-4.3-4.3-4.3s-4.3,1.9-4.3,4.3v0.8h-0.2
					c-2.3,0-4.2,1.9-4.2,4.2c0,2.3,1.9,4.2,4.2,4.2h11.6c2.3,0,4.2-1.9,4.2-4.2C1469.3,382.1,1467.5,380.2,1465.2,380.2z"/>
				<path id="XMLID_261_" class="st53" d="M1500.1,393.6h-2.8v-0.8c0-2.4-1.9-4.3-4.3-4.3s-4.3,1.9-4.3,4.3v0.8h-0.2
					c-2.3,0-4.2,1.9-4.2,4.2c0,2.3,1.9,4.2,4.2,4.2h11.6c2.3,0,4.2-1.9,4.2-4.2C1504.3,395.5,1502.4,393.6,1500.1,393.6z"/>
				<path id="XMLID_264_" class="st53" d="M1538,381.4h-2.8v-0.8c0-2.4-1.9-4.3-4.3-4.3s-4.3,1.9-4.3,4.3v0.8h-0.2
					c-2.3,0-4.2,1.9-4.2,4.2c0,2.3,1.9,4.2,4.2,4.2h11.6c2.3,0,4.2-1.9,4.2-4.2C1542.1,383.3,1540.3,381.4,1538,381.4z"/>
			</g>
		</g>
	</g>
	<circle id="XMLID_381_" class="st74" cx="1476.8" cy="276.6" r="4.3"/>
	<g>
		<g>
			<path class="st53" d="M1501.3,812.6c4-1.5,9.2,1.3,8.1,6c-0.5,2-2.2,3.3-4.2,3.3c-0.8,0-1.7-0.2-2.4-0.7
				c-1.2-0.8-1.8-2.5-0.5-3.5c1.9-1.3,4.1,0.1,5,1.9c1,2,0.6,4.3-0.6,6.1c-1,1.5-4.4,4.8-6.3,2.9c-0.6-0.6-0.7-1.5,0.1-2
				c0.5-0.3,1.2-0.4,1.8-0.4c1.1,0,2.4,0.3,3.2,1.1c1.6,1.6,1.1,4.2,0.2,6.1c-0.8,1.8-2.2,3.6-4.1,4.4c-0.5,0.2-1.1,0.4-1.6,0.4
				c-0.3,0-0.5,0-0.8-0.1c-0.4-0.1-1-0.6-1.1-1.1c-0.1-1,2.9-1.3,3.5-1.3c2.5,0,3.4,2.5,3.2,4.7c-0.2,1.9-1.1,3.6-2.6,4.8
				c-0.7,0.6-1.6,1-2.6,1.2c-0.6,0.1-1.3,0.1-1.8-0.4c-0.6-0.6-0.5-1.6,0.1-2.1c1.2-1.2,2.9-0.1,3.6,1c0.6,0.9,0.8,2.1,0.7,3.2
				c-0.1,2.3-1.4,4.5-3.7,5.3c-1.2,0.4-2.6,0.4-3.7-0.2c-0.5-0.3-0.5-0.3-0.6-0.8c-0.1-0.7,0.2-0.9,0.8-1.2c0.6-0.3,1.3-0.2,1.9,0
				c2.5,0.6,4.2,3.1,3.6,5.7c-0.6,2.7-2.9,3.8-5.4,4.2c-2.4,0.4-5.3,0.8-7.4-0.7c-0.3-0.2-0.7,0.3-0.3,0.6c1.3,0.9,2.9,1.2,4.5,1.1
				c1.6,0,3.4-0.2,5-0.7c2.8-0.8,4.8-3.3,4.4-6.3c-0.4-2.6-2.9-4.9-5.6-4.7c-1,0.1-2.3,0.8-2.3,1.9c0,1.2,1.4,1.8,2.4,2
				c2.9,0.5,5.6-1.3,6.6-4c0.9-2.4,0.5-6.5-2.4-7.4c-1.1-0.3-2.4,0-3,1.1c-0.5,0.9-0.3,2,0.6,2.6c2.2,1.4,5.2-0.8,6.4-2.5
				c1.5-2.1,2.1-5.4,0.6-7.7c-0.7-1.1-2-1.5-3.3-1.4c-1,0.1-3,0.2-3.6,1.2s0.2,2.1,1.2,2.4c1.3,0.4,2.7-0.1,3.8-0.7
				c2.4-1.5,4.2-4.4,4.4-7.3c0.3-2.9-1.8-5.1-4.7-5.1c-1.1,0-2.6,0.2-3,1.3c-0.4,1,0.3,2.2,1.3,2.6c2.7,1.2,6-2.2,7.1-4.3
				c1.3-2.5,1-5.8-1.3-7.6c-1.6-1.3-5-1.5-5.6,1.1s2.8,4.1,4.9,3.9c2.6-0.3,4.3-2.5,4.3-5.1c0-2.9-2.1-5.2-4.9-5.8
				c-1.4-0.3-2.8-0.2-4.2,0.3C1500.8,812.2,1500.9,812.8,1501.3,812.6L1501.3,812.6z"/>
		</g>
		<g id="XMLID_1204_">
			<g id="XMLID_1309_">
				<g>
					<rect id="XMLID_51_" x="1408.9" y="786.9" class="st75" width="11.4" height="9.8"/>
					<rect id="XMLID_49_" x="1452.4" y="786.9" class="st75" width="11.4" height="9.8"/>
				</g>
			</g>
			<g id="XMLID_602_">
				<path id="XMLID_609_" class="st76" d="M1479.5,771.1h-86.3c-17,0-30.8,13.8-30.8,30.8v5.3c0,4.5,3.6,8.1,8.1,8.1h17
					c4.5,0,8.1-3.6,8.1-8.1l0,0c0-9.4,7.7-17.1,17.1-17.1h47.4c9.4,0,17.1,7.7,17.1,17.1l0,0c0,4.5,3.6,8.1,8.1,8.1h17
					c4.5,0,8.1-3.6,8.1-8.1V802C1510.4,784.9,1496.6,771.1,1479.5,771.1z"/>
				<path id="XMLID_606_" class="st77" d="M1395.6,807.3h-33.2v0.7c0,4.1,3.3,7.4,7.4,7.4h18.5c4.1,0,7.4-3.3,7.4-7.4v-0.7H1395.6z"
					/>
				<path id="XMLID_603_" class="st77" d="M1510.4,807.3h-33.2v0.7c0,4.1,3.3,7.4,7.4,7.4h18.5c4.1,0,7.4-3.3,7.4-7.4v-0.7H1510.4z"
					/>
			</g>
			<g id="XMLID_588_">
				<g>
					<g id="XMLID_48_">
						<path class="st78" d="M1396.3,802.4h-33.9v4.9h33.2l0,0C1395.6,805.6,1395.8,804,1396.3,802.4z"/>
					</g>
					<g id="XMLID_47_">
						<path class="st78" d="M1476.5,802.4c0.5,1.5,0.7,3.2,0.7,4.9l0,0h33.2v-4.9H1476.5z"/>
					</g>
				</g>
			</g>
			<g id="XMLID_1205_">
				<path id="XMLID_585_" class="st76" d="M1495.4,862.1l-19.2-60.3c-1.6-3.1-4.9-5-8.4-5h-0.1h-22.1h-0.1c0,5.1-4.1,9.2-9.2,9.3
					c-5.1,0-9.2-4.2-9.2-9.3h-0.1h-22.1h-0.1c-3.5,0-6.7,1.9-8.4,5l-19.2,60.3c-3,10.9,5.2,21.7,16.5,21.7h85.1
					C1490.2,883.8,1498.4,873,1495.4,862.1z"/>
				<path id="XMLID_582_" class="st45" d="M1377.5,872.1c2.3,6.7,8.5,11.7,16.2,11.7h85.1c7.7,0,14-5,16.2-11.7H1377.5z"/>
				<path id="XMLID_237_" class="st78" d="M1377.5,872.1h117.6c0.6-1.8,0.9-3.7,0.9-5.7h-119.4
					C1376.6,868.4,1376.9,870.3,1377.5,872.1z"/>
				<circle id="XMLID_198_" class="st78" cx="1436.4" cy="841.2" r="26.5"/>
				<g id="XMLID_1212_">
					<circle id="XMLID_195_" class="st77" cx="1436.4" cy="837.1" r="26.5"/>
					<circle id="XMLID_192_" class="st76" cx="1436.4" cy="837.1" r="14"/>
					<g id="XMLID_1213_">
						<g>
							<g id="XMLID_143_">
								<circle class="st79" cx="1436.4" cy="816.8" r="4.1"/>
							</g>
							<g id="XMLID_142_">
								
									<ellipse transform="matrix(0.866 -0.5 0.5 0.866 -218.6639 822.8934)" class="st79" cx="1426.2" cy="819.5" rx="4.1" ry="4.1"/>
							</g>
							<g id="XMLID_141_">
								
									<ellipse transform="matrix(0.5 -0.866 0.866 0.5 -6.8611 1642.0548)" class="st79" cx="1418.7" cy="827" rx="4.1" ry="4.1"/>
							</g>
							<g id="XMLID_140_">
								<circle class="st79" cx="1416" cy="837.1" r="4.1"/>
							</g>
							<g id="XMLID_139_">
								
									<ellipse transform="matrix(0.866 -0.5 0.5 0.866 -233.5828 822.8665)" class="st79" cx="1418.7" cy="847.3" rx="4.1" ry="4.1"/>
							</g>
							<g id="XMLID_138_">
								
									<ellipse transform="matrix(0.5 -0.866 0.866 0.5 -27.1927 1662.4966)" class="st79" cx="1426.2" cy="854.8" rx="4.1" ry="4.1"/>
							</g>
							<g id="XMLID_137_">
								<circle class="st79" cx="1436.4" cy="857.5" r="4.1"/>
							</g>
							<g id="XMLID_136_">
								
									<ellipse transform="matrix(0.866 -0.5 0.5 0.866 -233.5707 837.8213)" class="st79" cx="1446.6" cy="854.7" rx="4.1" ry="4.1"/>
							</g>
							<g id="XMLID_135_">
								
									<ellipse transform="matrix(0.5 -0.866 0.866 0.5 -6.8507 1682.8278)" class="st79" cx="1454" cy="847.3" rx="4.1" ry="4.1"/>
							</g>
							<g id="XMLID_134_">
								<circle class="st79" cx="1456.7" cy="837.1" r="4.1"/>
							</g>
							<g id="XMLID_133_">
								
									<ellipse transform="matrix(0.866 -0.5 0.5 0.866 -218.6477 837.7739)" class="st79" cx="1453.9" cy="826.9" rx="4.1" ry="4.1"/>
							</g>
							<g id="XMLID_132_">
								
									<ellipse transform="matrix(0.5 -0.866 0.866 0.5 13.5783 1662.4907)" class="st79" cx="1446.6" cy="819.5" rx="4.1" ry="4.1"/>
							</g>
						</g>
					</g>
				</g>
				<path id="XMLID_1209_" class="st78" d="M1422.4,838.7c0.8,7,6.7,12.5,13.9,12.5c7.2,0,13.2-5.4,13.9-12.5H1422.4z"/>
				<path id="XMLID_1206_" class="st78" d="M1436.4,825.4c7.4,0,13.4,5.7,14,12.9c0-0.4,0.1-0.8,0.1-1.2c0-7.8-6.3-14-14-14
					s-14,6.3-14,14c0,0.4,0,0.8,0.1,1.2C1423,831.1,1429,825.4,1436.4,825.4z"/>
			</g>
		</g>
	</g>
	<path class="st80" d="M1710.9,909.4v7h-1.3c-1.2,3.2-2.5,6.3-3.9,9.3c-30,68.3-82.6,99.7-168.4,135.8c-17.2,7.3-38.1,13-61.3,17.3
		c-66.9,12.4-153.3,12.4-227.5,0c-83.4-13.9-151.5-43.6-159.2-89.2c0,0-53.6,14.4-133.5,22.3c-2.1,0.2-4.3,0.4-6.5,0.6
		c-56.3,5.2-124.8,6.9-196.4-1.9l1.2-2.9l0.5-1.1l4.2-10.4l0.8-1.9l0.2-0.4l2.4-5.8l4.1-10l15.7-38.5l1.2-3l1.1-2.8l3.3-8.1l1-2.3
		l0.8-1.9l0.2-0.4l1.9-4.7l0.4-1l2.4-6L1710.9,909.4L1710.9,909.4z"/>
	<path class="st81" d="M1719.9,884.6c-2.7,10.1-5.7,19.5-9,28.4v3.5h-1.3c-1.2,3.2-2.5,6.3-3.9,9.3H787.6l3.8-9.3l2.9-7l10.1-24.9
		H1719.9z"/>
	<path class="st53" d="M1127.9,145.1l-15.8,38.7l-8,19.6l-17.4,42.7l-6,14.8l-17.4,42.7L774.7,1013c-7.2-0.7-14.5-1.5-21.7-2.3
		c-1.8-0.2-3.5-0.4-5.3-0.7c-1.8-0.2-3.5-0.5-5.3-0.7l50.8-124.7l277.2-681.2l18-44.2c3-1.4,6.1-2.8,9.3-4.1
		c0.6-0.2,1.1-0.5,1.7-0.7c1.1-0.4,2.3-0.9,3.5-1.3c1.5-0.6,3.1-1.2,4.7-1.7c0.8-0.3,1.6-0.6,2.4-0.8c0.8-0.3,1.6-0.6,2.4-0.8
		c1.7-0.6,3.3-1.1,5-1.6c0.7-0.2,1.5-0.5,2.2-0.7c0.2-0.1,0.4-0.1,0.6-0.2c0.7-0.2,1.3-0.4,2-0.6
		C1124.1,146.1,1126,145.6,1127.9,145.1z"/>
	<g>
		<g>
			<path class="st82" d="M933.8,874.7l-6,6c-0.6,0.6-0.6,1.6,0,2.2c0.3,0.3,0.7,0.4,1.1,0.4c0.4,0,0.8-0.1,1.1-0.4l6-6
				c0.6-0.6,0.6-1.6,0-2.2C935.3,874.1,934.4,874.1,933.8,874.7z"/>
			<path class="st82" d="M978.8,880.7l-6.1-6.1c-0.6-0.6-1.6-0.6-2.2,0s-0.6,1.6,0,2.2l6.1,6.1c0.3,0.3,0.7,0.4,1.1,0.4
				s0.8-0.1,1.1-0.4C979.4,882.2,979.4,881.3,978.8,880.7z"/>
		</g>
		<path class="st83" d="M981.9,813C981.9,813,982,813,981.9,813l4.7-4.7c0.6-0.6,0.6-1.6,0-2.2c-0.6-0.6-1.6-0.6-2.2,0l-4.6,4.6
			c0,0-0.1,0.1-0.1,0.2c-7-6.3-16.3-10.1-26.4-10.1c-10.2,0-19.4,3.8-26.4,10.1c0-0.1-0.1-0.1-0.1-0.2l-4.6-4.6
			c-0.6-0.6-1.6-0.6-2.2,0c-0.6,0.6-0.6,1.6,0,2.2l4.6,4.6c0,0,0.1,0,0.1,0.1c-6.9,7.1-11.1,16.8-11.1,27.5
			c0,21.9,17.8,39.7,39.7,39.7s39.7-17.8,39.7-39.7C993,829.8,988.7,820.1,981.9,813z"/>
		<circle class="st84" cx="953.3" cy="840.5" r="33.6"/>
		<circle class="st53" cx="953.3" cy="840.5" r="22.9"/>
		<g>
			<path class="st53" d="M953.3,805.4c-0.8,0-1.5,0.7-1.5,1.5v3.1c0,0.8,0.7,1.5,1.5,1.5s1.5-0.7,1.5-1.5v-3.1
				C954.8,806.1,954.1,805.4,953.3,805.4z"/>
			<path class="st53" d="M953.3,869.5c-0.8,0-1.5,0.7-1.5,1.5v3.1c0,0.8,0.7,1.5,1.5,1.5s1.5-0.7,1.5-1.5V871
				C954.8,870.2,954.1,869.5,953.3,869.5z"/>
			<path class="st53" d="M986.9,839h-3.1c-0.8,0-1.5,0.7-1.5,1.5s0.7,1.5,1.5,1.5h3.1c0.8,0,1.5-0.7,1.5-1.5S987.7,839,986.9,839z"
				/>
			<path class="st53" d="M924.3,840.5c0-0.8-0.7-1.5-1.5-1.5h-3.1c-0.8,0-1.5,0.7-1.5,1.5s0.7,1.5,1.5,1.5h3.1
				C923.6,842.1,924.3,841.4,924.3,840.5z"/>
			<path class="st53" d="M937.8,810.7c-0.4-0.7-1.4-1-2.1-0.6c-0.7,0.4-1,1.4-0.6,2.1l1.5,2.6c0.3,0.5,0.8,0.8,1.3,0.8
				c0.3,0,0.5-0.1,0.8-0.2c0.7-0.4,1-1.4,0.6-2.1L937.8,810.7z"/>
			<path class="st53" d="M969.9,866.2c-0.4-0.7-1.4-1-2.1-0.6c-0.7,0.4-1,1.4-0.6,2.1l1.5,2.6c0.3,0.5,0.8,0.8,1.3,0.8
				c0.3,0,0.5-0.1,0.8-0.2c0.7-0.4,1-1.4,0.6-2.1L969.9,866.2z"/>
			<path class="st53" d="M927.6,823.9l-2.6-1.5c-0.7-0.4-1.7-0.2-2.1,0.6c-0.4,0.7-0.2,1.7,0.6,2.1l2.6,1.5c0.2,0.1,0.5,0.2,0.8,0.2
				c0.5,0,1-0.3,1.3-0.8C928.6,825.3,928.3,824.4,927.6,823.9z"/>
			<path class="st53" d="M983.1,856l-2.6-1.5c-0.7-0.4-1.7-0.2-2.1,0.6c-0.4,0.7-0.2,1.7,0.6,2.1l2.6,1.5c0.2,0.1,0.5,0.2,0.8,0.2
				c0.5,0,1-0.3,1.3-0.8C984.1,857.4,983.9,856.4,983.1,856z"/>
			<path class="st53" d="M926.1,854.5l-2.6,1.5c-0.7,0.4-1,1.4-0.6,2.1c0.3,0.5,0.8,0.8,1.3,0.8c0.3,0,0.5-0.1,0.8-0.2l2.6-1.5
				c0.7-0.4,1-1.4,0.6-2.1C927.7,854.3,926.8,854,926.1,854.5z"/>
			<path class="st53" d="M979.7,826.8c0.3,0,0.5-0.1,0.8-0.2l2.6-1.5c0.7-0.4,1-1.4,0.6-2.1c-0.4-0.7-1.4-1-2.1-0.6l-2.6,1.5
				c-0.7,0.4-1,1.4-0.6,2.1C978.7,826.5,979.2,826.8,979.7,826.8z"/>
			<path class="st53" d="M938.8,865.6c-0.7-0.4-1.7-0.2-2.1,0.6l-1.5,2.6c-0.4,0.7-0.2,1.7,0.6,2.1c0.2,0.1,0.5,0.2,0.8,0.2
				c0.5,0,1-0.3,1.3-0.8l1.5-2.6C939.8,867,939.5,866.1,938.8,865.6z"/>
			<path class="st53" d="M970.8,810.1c-0.7-0.4-1.7-0.2-2.1,0.6l-1.5,2.6c-0.4,0.7-0.2,1.7,0.6,2.1c0.2,0.1,0.5,0.2,0.8,0.2
				c0.5,0,1-0.3,1.3-0.8l1.5-2.6C971.8,811.5,971.6,810.5,970.8,810.1z"/>
		</g>
		<path class="st83" d="M970.1,839h-10.9c-0.6-2.1-2.2-3.8-4.4-4.4v-15.5c0-0.8-0.7-1.5-1.5-1.5s-1.5,0.7-1.5,1.5v15.5
			c-0.9,0.2-1.7,0.6-2.4,1.2c-1.4,1.1-2.2,2.8-2.2,4.7s0.9,3.6,2.2,4.7c1.1,0.9,2.4,1.4,3.9,1.4c2.8,0,5.2-2,5.9-4.6h10.9
			c0.8,0,1.5-0.7,1.5-1.5C971.6,839.7,970.9,839,970.1,839z M953.3,843.6c-1.7,0-3.1-1.4-3.1-3.1c0-1.7,1.4-3.1,3.1-3.1
			c1.7,0,3.1,1.4,3.1,3.1C956.3,842.2,955,843.6,953.3,843.6z"/>
		<path class="st82" d="M992.8,799.2c4.2,4.2,4.2,11.1,0,15.4l-15.4-15.4C981.7,794.9,988.6,794.9,992.8,799.2z"/>
		<path class="st82" d="M913.7,799.2c-4.2,4.2-4.2,11.1,0,15.4l15.4-15.4C924.8,794.9,918,794.9,913.7,799.2z"/>
	</g>
	<g>
		<path class="st85" d="M1643,739c-14.1-5.9-30.9,2.2-37.7,18.1c-1.5,3.7-2.8,7.5-2.8,14.6l0,0c17.3,0,31.9,12.5,36.8,30.1
			c6.8-8.4,13.3-14.7,16.9-23.2C1663,762.6,1657.1,744.9,1643,739"/>
		<path class="st86" d="M1638.6,830.8c1.6-5.1,2.5-10.6,2.5-16.1c0-24.1-17.2-43-38.5-43s-38.5,19.1-38.5,43.2
			c0,5.4,0.9,10.8,2.5,15.9L1638.6,830.8L1638.6,830.8z"/>
		<path class="st85" d="M1577.1,782.5c-4.6-3.1-6.5-4.3-8.7-5.2c-10.7-4.3-22.4-0.2-26.3,9.2c-3.8,9.4,1.7,20.6,12.4,24.9
			c2.2,0.9,4.5,1.4,9.5,3.3C1564.1,801.8,1569.1,790.3,1577.1,782.5"/>
		<path class="st87" d="M1653.9,837c0,2.2-1.8,4-4,4h-94.7c-2.2,0-4-1.8-4-4v-2.2c0-2.2,1.8-4,4-4h94.7c2.2,0,4,1.8,4,4V837
			L1653.9,837z"/>
		<polygon class="st88" points="1630.8,884.7 1574.3,884.7 1558.9,841.1 1646.2,841.1 		"/>
		<g>
			<path class="st86" d="M1623.1,751.1c-0.9,0-1.7-0.4-2.2-1.2l-7.7-12.8c-0.7-1.2-0.3-2.8,0.9-3.5c1.2-0.7,2.8-0.3,3.5,0.9
				l7.7,12.8c0.7,1.2,0.3,2.8-0.9,3.5C1624,751,1623.5,751.1,1623.1,751.1"/>
			<path class="st86" d="M1630.8,764c-0.2,0-0.4,0-0.6-0.1c-1.4-0.3-2.2-1.7-1.9-3.1l2.6-10.3c0.3-1.4,1.7-2.2,3.1-1.9
				s2.2,1.7,1.9,3.1l-2.6,10.3C1633,763.2,1632,764,1630.8,764"/>
			<path class="st86" d="M1653.9,769.1c-0.9,0-1.8-0.5-2.3-1.4c-0.6-1.3-0.1-2.8,1.2-3.4l10.3-5.1c1.3-0.6,2.8-0.1,3.4,1.2
				s0.1,2.8-1.2,3.4l-10.3,5.1C1654.7,769,1654.3,769.1,1653.9,769.1"/>
			<path class="st86" d="M1646.2,751.1c-0.7,0-1.3-0.3-1.8-0.8c-1-1-1-2.6,0-3.6l10.3-10.3c1-1,2.6-1,3.6,0s1,2.6,0,3.6l-10.3,10.3
				C1647.5,750.9,1646.9,751.1,1646.2,751.1"/>
			<path class="st86" d="M1635.9,779.4c-1.2,0-2.2-0.8-2.5-1.9c-0.3-1.4,0.5-2.8,1.9-3.1l10.3-2.6c1.4-0.3,2.8,0.5,3.1,1.9
				c0.3,1.4-0.5,2.8-1.9,3.1l-10.3,2.6C1636.3,779.4,1636.1,779.4,1635.9,779.4"/>
		</g>
		<g>
			<path class="st85" d="M1589.7,815.4c-0.7,0-1.3-0.3-1.8-0.8l-7.7-7.7c-1-1-1-2.6,0-3.6s2.6-1,3.6,0l7.7,7.7c1,1,1,2.6,0,3.6
				C1591,815.1,1590.4,815.4,1589.7,815.4"/>
			<path class="st85" d="M1615.4,807.7c-0.2,0-0.3,0-0.5-0.1c-1.4-0.3-2.3-1.6-2-3l2.6-12.8c0.3-1.4,1.6-2.3,3-2s2.3,1.6,2,3
				l-2.6,12.8C1617.7,806.8,1616.6,807.7,1615.4,807.7"/>
			<path class="st85" d="M1592.3,784.5c-1.1,0-2.1-0.7-2.4-1.8l-5.1-15.4c-0.4-1.3,0.3-2.8,1.6-3.2c1.3-0.5,2.8,0.3,3.2,1.6
				l5.1,15.4c0.4,1.3-0.3,2.8-1.6,3.2C1592.8,784.5,1592.5,784.5,1592.3,784.5"/>
		</g>
		<g>
			<path class="st86" d="M1558.9,784.5c-1.2,0-2.3-0.8-2.5-2.1l-2.6-12.8c-0.3-1.4,0.6-2.7,2-3s2.7,0.6,3,2l2.6,12.8
				c0.3,1.4-0.6,2.7-2,3C1559.2,784.5,1559,784.5,1558.9,784.5"/>
			<path class="st86" d="M1546,794.8h-12.8c-1.4,0-2.6-1.2-2.6-2.6c0-1.4,1.2-2.6,2.6-2.6h12.8c1.4,0,2.6,1.2,2.6,2.6
				C1548.6,793.7,1547.4,794.8,1546,794.8"/>
			<path class="st86" d="M1546,817.9c-0.5,0-1.1-0.2-1.5-0.5c-1.1-0.9-1.4-2.5-0.5-3.6l7.7-10.3c0.9-1.1,2.5-1.4,3.6-0.5
				s1.4,2.5,0.5,3.6l-7.7,10.3C1547.6,817.6,1546.8,817.9,1546,817.9"/>
		</g>
		<path class="st89" d="M1636.7,867.9l-5-2.9c-2.1-1.3-4.8-1.1-6.6,0.5l-3.9,3.3c-2.1,1.8-4.7,3-7.5,3.1c-2.6,0.1-5-0.6-6.3-2.2
			l-10-10.6c-3-3-5.5-3.2-10-1.3c-2.7,1.1-4.9,3.9-8,3.9c-3.7,0-6.3-1.4-7.7-2.6l-9.4-8.1l11.9,33.8h56.5L1636.7,867.9z"/>
		<path class="st85" d="M1633.4,820.5c-0.8,0-1.6-0.4-2.1-1.1c-0.8-1.2-0.5-2.8,0.7-3.6l15.4-10.3c1.2-0.8,2.8-0.5,3.6,0.7
			c0.8,1.2,0.5,2.8-0.7,3.6l-15.4,10.3C1634.4,820.4,1633.9,820.5,1633.4,820.5"/>
	</g>
	<g>
		<rect x="812" y="256.9" class="st43" width="147.9" height="147.9"/>
		<rect x="825.1" y="270" class="st38" width="121.6" height="121.6"/>
		<g>
			<rect x="886.8" y="372.8" class="st43" width="2.1" height="15.7"/>
			<rect x="886.8" y="273.2" class="st43" width="2.1" height="15.7"/>
		</g>
		<g>
			<rect x="828.3" y="329.8" class="st43" width="15.7" height="2.1"/>
			<rect x="927.9" y="329.8" class="st43" width="15.7" height="2.1"/>
		</g>
		<polygon class="st25" points="885.7,288.7 885.7,329.3 849.8,329.3 849.8,333.3 885.7,333.3 889.7,333.3 889.7,329.3 889.7,288.7 
					"/>
		<circle class="st90" cx="888.1" cy="331.4" r="4.2"/>
		
			<rect x="839.9" y="346.1" transform="matrix(0.8005 -0.5994 0.5994 0.8005 -34.6859 588.9017)" class="st90" width="54.5" height="0.9"/>
		<circle class="st38" cx="888.1" cy="331.4" r="2.3"/>
	</g>
	<g>
		<path class="st91" d="M747.4,11.9v203H741V11.3C743.1,11.5,745.3,11.7,747.4,11.9z"/>
		<circle class="st92" cx="743.1" cy="228.9" r="19.8"/>
		<path class="st93" d="M804.2,216.1c0,0.5-1.1,1-2.4,1H687.6c-1.3,0-2.4-0.4-2.4-1v-9.8c0-0.5,1.1-1,2.4-1h114.2
			c1.3,0,2.4,0.4,2.4,1V216.1z"/>
	</g>
	<path class="st94" d="M1641.1,814.7c0-23.9-17-42.7-38-43c-0.4,0-0.7,0-1,0c0,0,37.5,29.8,6.2,58.9l30.3,0.1l0,0
		C1640.2,825.6,1641.1,820.2,1641.1,814.7z"/>
</g>
</svg>
