<?xml version="1.0" encoding="utf-8"?>
<!-- Generator: Adobe Illustrator 21.0.0, SVG Export Plug-In . SVG Version: 6.00 Build 0)  -->
<svg version="1.1" id="Layer_1" xmlns="http://www.w3.org/2000/svg" xmlns:xlink="http://www.w3.org/1999/xlink" x="0px" y="0px"
	 viewBox="0 0 2092 846" style="enable-background:new 0 0 2092 846;" xml:space="preserve">
<style type="text/css">
	.st0{fill:#808080;}
	.st1{fill:#46525E;}
	.st2{fill:#35404A;}
	.st3{fill:#8B9BA9;}
	.st4{fill:#596775;}
	.st5{fill:#C1C1C1;}
	.st6{fill:#8B7E7F;}
	.st7{fill:#463836;}
	.st8{fill:#605353;}
	.st9{fill:#E03B3B;}
	.st10{fill:#FF554D;}
	.st11{fill:#232222;}
	.st12{fill:#AAAAAA;}
	.st13{fill:#FFD199;}
	.st14{opacity:0.83;fill:#CFEDFF;enable-background:new    ;}
	.st15{fill:#140A00;}
	.st16{opacity:0.35;fill:#FFD199;enable-background:new    ;}
	.st17{opacity:0.74;fill:#FFFFFF;enable-background:new    ;}
	.st18{fill:none;stroke:#8E4E32;stroke-width:6;stroke-miterlimit:10;}
	.st19{fill:#C44833;}
	.st20{fill:#58AF6E;}
	.st21{fill:#EDEDED;}
	.st22{fill:#FFCC3E;}
	.st23{fill:#0A0A0A;}
	.st24{fill:#161616;}
	.st25{fill:#FFFFFF;}
	.st26{fill:none;stroke:#FFFFFF;stroke-width:2.2364;stroke-miterlimit:10;}
	.st27{fill:#AD2323;}
	.st28{fill:#EFBC73;}
	.st29{fill:#FF7300;}
	.st30{fill:#8E4E32;}
	.st31{fill:none;stroke:#FFFFFF;stroke-width:6;stroke-miterlimit:10;}
	.st32{fill:#EA2E15;}
	.st33{fill:#F46451;}
	.st34{fill:none;stroke:#FFFFFF;stroke-width:4;stroke-miterlimit:10;}
	.st35{fill:#91CF96;}
	.st36{fill:#5ABA63;}
	.st37{fill:#7F5B53;}
	.st38{fill:#AF8066;}
	.st39{fill:#D9AA94;}
	.st40{opacity:0.49;fill:#8E4E32;enable-background:new    ;}
	.st41{fill:#606060;}
	.st42{fill:#454545;}
	.st43{fill:#636162;}
	.st44{fill:#172B47;}
	.st45{fill:#05162B;}
	.st46{fill:#5D5C5C;}
</style>
<path class="st0" d="M443.2,456.9v184.2c0,3.3-2.6,5.9-5.9,5.9H330.8c-3.3,0-5.9-2.6-5.9-5.9V456.9c0-3.3,2.6-5.9,5.9-5.9h106.5
	C440.5,451,443.2,453.6,443.2,456.9z"/>
<path class="st1" d="M342.6,587.8L342.6,587.8c0-22.9,18.5-41.4,41.4-41.4l0,0c22.9,0,41.4,18.5,41.4,41.4l0,0
	c0,22.9-18.5,41.4-41.4,41.4l0,0C361.1,629.3,342.6,610.7,342.6,587.8z"/>
<path class="st2" d="M425.4,587.8c0-14.6-7.6-27.5-19-34.8c-2.8,3.5-2.6,8.6,0.6,11.8c6.1,6.1,9.5,14.3,9.5,23s-3.4,16.9-9.5,23
	s-14.3,9.5-23,9.5s-16.9-3.4-23-9.5c-3.2-3.2-8.4-3.4-11.8-0.6c7.4,11.5,20.2,19,34.8,19l0,0C406.9,629.3,425.4,610.7,425.4,587.8
	L425.4,587.8z"/>
<path class="st3" d="M384,605.6c-9.8,0-17.7-8-17.7-17.7c0-9.8,8-17.7,17.7-17.7s17.7,8,17.7,17.7S393.8,605.6,384,605.6z"/>
<path class="st4" d="M390.3,571.2c0.7,2,1.2,4.1,1.2,6.3c0,9.8-8,17.7-17.7,17.7c-2.2,0-4.3-0.4-6.3-1.2c2.5,6.7,9,11.5,16.6,11.5
	c9.8,0,17.7-8,17.7-17.7C401.7,580.3,397,573.8,390.3,571.2z"/>
<path class="st1" d="M352.5,503.1L352.5,503.1c0-17.4,14.1-31.5,31.5-31.5l0,0c17.4,0,31.5,14.1,31.5,31.5l0,0
	c0,17.4-14.1,31.5-31.5,31.5l0,0C366.6,534.6,352.5,520.5,352.5,503.1z"/>
<path class="st2" d="M415.5,503.1c0-11.9-6.6-22.3-16.3-27.6c-2.6,3.5-2.4,8.4,0.8,11.6c4.3,4.3,6.6,10,6.6,16s-2.4,11.8-6.6,16
	c-8.8,8.8-23.2,8.8-32.1,0c-3.2-3.2-8.1-3.4-11.6-0.8c5.4,9.7,15.7,16.3,27.6,16.3l0,0C401.4,534.6,415.5,520.5,415.5,503.1
	L415.5,503.1z"/>
<path class="st4" d="M384,516.8c-7.6,0-13.8-6.2-13.8-13.8s6.2-13.8,13.8-13.8s13.8,6.2,13.8,13.8
	C397.8,510.7,391.6,516.8,384,516.8z"/>
<path class="st3" d="M370.2,503.1c0,1.3,0.2,2.6,0.5,3.8c1.2,0.3,2.5,0.5,3.8,0.5c7.6,0,13.8-6.2,13.8-13.8c0-1.3-0.2-2.6-0.5-3.8
	c-1.2-0.3-2.5-0.5-3.8-0.5C376.4,489.3,370.2,495.4,370.2,503.1z"/>
<g>
	<path class="st5" d="M384,543.5c-24.5,0-44.4,19.9-44.4,44.4s19.9,44.4,44.4,44.4s44.4-19.9,44.4-44.4S408.5,543.5,384,543.5z
		 M384,626.3c-21.2,0-38.5-17.2-38.5-38.5c0-21.2,17.2-38.5,38.5-38.5c21.2,0,38.5,17.2,38.5,38.5C422.5,609,405.2,626.3,384,626.3z
		"/>
	<path class="st5" d="M384,537.6c19,0,34.5-15.5,34.5-34.5S403,468.6,384,468.6s-34.5,15.5-34.5,34.5
		C349.5,522.1,365,537.6,384,537.6z M384,474.5c15.8,0,28.6,12.8,28.6,28.6s-12.8,28.6-28.6,28.6c-15.8,0-28.6-12.8-28.6-28.6
		S368.2,474.5,384,474.5z"/>
</g>
<g>
	<circle class="st2" cx="336.7" cy="462.8" r="3"/>
	<circle class="st2" cx="431.3" cy="462.8" r="3"/>
	<circle class="st2" cx="336.7" cy="635.2" r="3"/>
	<circle class="st2" cx="431.3" cy="635.2" r="3"/>
</g>
<g>
	<g>
		<polygon class="st6" points="1688,426.4 1692.6,468.4 1706.6,468.4 1706.6,426.4 		"/>
		<polygon class="st6" points="1912,426.4 1907.4,468.4 1893.4,468.4 1893.4,426.4 		"/>
	</g>
	<g>
		<path class="st7" d="M1884.2,411.5l-11.5,35.9l11.5,35.9c8.2,0,14.9-6.7,14.9-14.9v-41.9C1899.1,418.2,1892.4,411.5,1884.2,411.5z
			"/>
		<path class="st7" d="M1700.9,426.4v41.9c0,8.3,6.7,14.9,14.9,14.9l11.5-35.9l-11.5-35.9C1707.6,411.5,1700.9,418.2,1700.9,426.4z"
			/>
		<path class="st7" d="M1891.5,297.9c-24.4-24.4-56.9-37.9-91.5-37.9s-67,13.5-91.5,37.9c-24.4,24.4-37.9,56.9-37.9,91.5
			c0,4,3.2,7.2,7.2,7.2s7.2-3.2,7.2-7.2c0-63.4,51.4-114.9,114.9-114.9c63.4,0,114.8,51.4,114.9,114.7c0,0.1,0,0.1,0,0.2
			c0,4,3.2,7.2,7.2,7.2s7.2-3.2,7.2-7.2C1929.3,354.8,1915.9,322.3,1891.5,297.9z"/>
	</g>
	<path class="st8" d="M1911.7,468.4c-2.4,0-4.3,0-4.3,0v-52.2c0-0.3,0-0.7,0.1-1c2-8.4,3-17.1,3-25.8c0-61-49.6-110.6-110.6-110.6
		s-110.6,49.6-110.6,110.6c0,8.7,1,17.4,3,25.8c0.1,0.3,0.1,0.7,0.1,1v52.2c0,0-1.9,0-4.3,0s-4.3-1.9-4.3-4.3v-47.4
		c-2.1-8.9-3.1-18.1-3.1-27.3c0-65.7,53.5-119.2,119.2-119.2s119.2,53.5,119.2,119.2c0,9.2-1.1,18.4-3.1,27.3V464
		C1916,466.4,1914.1,468.4,1911.7,468.4z"/>
	<g>
		<path class="st9" d="M1861.5,388.8c-12.5,0-22.7,10.2-22.7,22.7v71.8c0,12.5,10.2,22.7,22.7,22.7s22.7-10.2,22.7-22.7v-71.8
			C1884.2,399,1874,388.8,1861.5,388.8z"/>
		<path class="st9" d="M1738.5,388.8c-12.5,0-22.7,10.2-22.7,22.7v71.8c0,12.5,10.2,22.7,22.7,22.7s22.7-10.2,22.7-22.7v-71.8
			C1761.2,399,1751,388.8,1738.5,388.8z"/>
	</g>
</g>
<rect x="710.6" y="607.3" transform="matrix(7.147540e-02 -0.9974 0.9974 7.147540e-02 26.6713 1357.6952)" class="st9" width="64" height="114.5"/>
<path class="st10" d="M1133.4,708H914.6c-11.7,0-21.1-9.5-21.1-21.1V459.1c0-37.5,30.4-67.9,67.9-67.9h125.2
	c37.5,0,67.9,30.4,67.9,67.9v227.8C1154.5,698.5,1145,708,1133.4,708z"/>
<rect x="1182" y="632" class="st11" width="184" height="14"/>
<path class="st12" d="M1047.5,362v42c0,4.8-1.5,9.3-4,13c-4.1,6-11.1,10-19,10s-14.8-4-19-10c-2.5-3.7-4-8.2-4-13v-42H1047.5z"/>
<rect x="748.9" y="531.4" transform="matrix(0.387 -0.9221 0.9221 0.387 -4.6759 1126.7976)" class="st9" width="192.5" height="71"/>
<path class="st13" d="M1024.5,369L1024.5,369c-55,0-100-45-100-100V162.5c0-18.4,15.1-33.5,33.5-33.5h133
	c18.4,0,33.5,15.1,33.5,33.5V269C1124.5,324,1079.5,369,1024.5,369z"/>
<circle class="st14" cx="984" cy="214" r="32"/>
<g>
	<rect x="916.5" y="121" class="st15" width="27" height="87"/>
</g>
<g>
	<rect x="1111.5" y="129" class="st15" width="27" height="79"/>
</g>
<circle class="st13" cx="1130.5" cy="223" r="25"/>
<g>
	<path class="st16" d="M1111.6,206.7l0.4-67.7h-85l-3,166h87l0.4-65.9c-3.7-4.4-5.9-10-5.9-16.1
		C1105.5,216.7,1107.8,211,1111.6,206.7z"/>
	<path class="st16" d="M1155.5,223c0,13.8-11.2,25-25,25c-7.7,0-14.5-3.5-19.1-8.9c-3.7-4.4-5.9-10-5.9-16.1c0-6.3,2.3-12,6.1-16.4
		c4.6-5.3,11.3-8.6,18.9-8.6C1144.3,198,1155.5,209.2,1155.5,223z"/>
</g>
<path class="st17" d="M972.1,239h-15l35.8-56h8.6c2.7,0,4.4,3,2.9,5.4L972.1,239z"/>
<path class="st17" d="M994.7,230.2H985l23.3-36.3h4.2c2.4,0,3.9,2.7,2.6,4.7L994.7,230.2z"/>
<circle class="st14" cx="1069" cy="214" r="32"/>
<path class="st17" d="M1057.1,239h-15l35.8-56h8.6c2.7,0,4.4,3,2.9,5.4L1057.1,239z"/>
<path class="st17" d="M1079.7,230.2h-9.7l23.3-36.3h4.2c2.4,0,3.9,2.7,2.6,4.7L1079.7,230.2z"/>
<g>
	<path class="st15" d="M1121.4,139h-174c-19.3,0-34.9-15.6-34.9-34.9v-5.2c0-19.3,15.6-34.9,34.9-34.9h206.1v42.9
		C1153.5,124.6,1139.1,139,1121.4,139z"/>
</g>
<circle class="st13" cx="924.5" cy="223" r="25"/>
<path class="st18" d="M1138,99.9c0,17.7-13.4,25.1-31.1,25.1"/>
<g>
	<rect x="943" y="199" class="st15" width="11" height="7"/>
</g>
<g>
	<path class="st15" d="M1004.1,183.4h-40c-2.3,0-4.2-1.9-4.2-4.2l0,0c0-2.3,1.9-4.2,4.2-4.2h40c2.3,0,4.2,1.9,4.2,4.2l0,0
		C1008.3,181.6,1006.5,183.4,1004.1,183.4z"/>
</g>
<g>
	<path class="st15" d="M1090.1,183.4h-40c-2.3,0-4.2-1.9-4.2-4.2l0,0c0-2.3,1.9-4.2,4.2-4.2h40c2.3,0,4.2,1.9,4.2,4.2l0,0
		C1094.3,181.6,1092.5,183.4,1090.1,183.4z"/>
</g>
<path d="M1069.2,177.7c-16,0-29.5,10.3-34.4,24.7h-15.5c-4.9-14.3-18.4-24.7-34.4-24.7c-20.1,0-36.3,16.3-36.3,36.3
	c0,20.1,16.3,36.3,36.3,36.3c20.1,0,36.3-16.3,36.3-36.3c0-1.8-0.1-3.5-0.4-5.2h12.4c-0.2,1.7-0.4,3.4-0.4,5.2
	c0,20.1,16.3,36.3,36.3,36.3s36.3-16.3,36.3-36.3C1105.5,193.9,1089.2,177.7,1069.2,177.7z M984.8,245.1
	c-17.2,0-31.1-13.9-31.1-31.1s13.9-31.1,31.1-31.1c17.2,0,31.1,13.9,31.1,31.1S1002,245.1,984.8,245.1z M1069.2,245.1
	c-17.2,0-31.1-13.9-31.1-31.1s13.9-31.1,31.1-31.1s31.1,13.9,31.1,31.1S1086.4,245.1,1069.2,245.1z"/>
<rect x="1168.5" y="471" transform="matrix(0.9942 -0.1073 0.1073 0.9942 -53.0395 132.2287)" class="st9" width="67.5" height="176"/>
<g>
	<path class="st19" d="M1906.5,500h-246v7.7h227.6c-4.6,4.7-7.5,11.1-7.5,18.3c0,7.1,2.9,13.6,7.5,18.3h-227.6v7.7h246
		c14.3,0,25.9-11.6,25.9-25.9C1932.5,511.6,1920.9,500,1906.5,500z"/>
	<path class="st20" d="M1906.5,548.1h-246v7.7h227.6c-4.6,4.7-7.5,11.1-7.5,18.3s2.9,13.6,7.5,18.3h-227.6v7.7h246
		c14.3,0,25.9-11.6,25.9-25.9C1932.5,559.7,1920.9,548.1,1906.5,548.1z"/>
	<path class="st21" d="M1906.5,555.7h-236.4v36.5h236.4c10.1,0,18.3-8.2,18.3-18.3C1924.8,563.9,1916.6,555.7,1906.5,555.7z"/>
	<path class="st21" d="M1906.5,507.7h-236.4v36.5h236.4c10.1,0,18.3-8.2,18.3-18.3C1924.8,515.9,1916.6,507.7,1906.5,507.7z"/>
	<g>
		<path class="st22" d="M1906.5,596.1h-246v7.7h227.6c-4.6,4.7-7.5,11.1-7.5,18.3c0,7.1,2.9,13.6,7.5,18.3h-227.6v7.7h246
			c14.3,0,25.9-11.6,25.9-25.9C1932.5,607.7,1920.9,596.1,1906.5,596.1z"/>
	</g>
	<path class="st21" d="M1906.5,603.8h-236.4v36.5h236.4c10.1,0,18.3-8.2,18.3-18.3C1924.8,612,1916.6,603.8,1906.5,603.8z"/>
</g>
<rect x="59.5" y="690" class="st23" width="1912.9" height="156"/>
<path class="st24" d="M1297.8,580H750.3c-7,0-12.8-5.7-12.8-12.8V240.8c0-7,5.7-12.8,12.8-12.8h547.5c7,0,12.8,5.7,12.8,12.8v326.5
	C1310.5,574.3,1304.8,580,1297.8,580z"/>
<polygon class="st23" points="1065.5,647 982.5,647 990.5,580 1057.5,580 "/>
<path class="st11" d="M699.9,630.6L699.9,630.6c-4.3,0.9-8.6-1.9-9.5-6.2l-24.5-117.5c-0.9-4.3,1.9-8.6,6.2-9.5l0,0
	c4.3-0.9,8.6,1.9,9.5,6.2l24.5,117.5C707,625.4,704.2,629.7,699.9,630.6z"/>
<path class="st13" d="M717,642c-4.4-20.2-22.4-35.4-44-35.4s-39.6,15.2-44,35.4H717z"/>
<path class="st13" d="M1313,634c-4.4-20.2-22.4-35.4-44-35.4s-39.6,15.2-44,35.4H1313z"/>
<rect x="539" y="640" class="st11" width="297" height="7"/>
<g>
	<path class="st24" d="M22.5,646h1987c12.4,0,22.5,10.1,22.5,22.5l0,0c0,12.4-10.1,22.5-22.5,22.5H22.5C10.1,691,0,680.9,0,668.5
		l0,0C0,656.1,10.1,646,22.5,646z"/>
</g>
<path class="st23" d="M1247.5,647h-447c-6.4,0-11.5-5.1-11.5-11.5l0,0c0-6.4,5.1-11.5,11.5-11.5h447c6.4,0,11.5,5.1,11.5,11.5l0,0
	C1259,641.9,1253.9,647,1247.5,647z"/>
<circle class="st25" cx="1024" cy="403" r="30.6"/>
<circle class="st26" cx="1024" cy="403" r="41"/>
<g>
	<path class="st9" d="M480,455.6c-0.1-2.2-2-3.9-4.2-3.8l-2.2,0.1c-2.2,0.1-3.9,2-3.8,4.2l0.1,1.8c0,0-9.6,11.3-5.5,27.6
		c4.1,16.3,8,14.8,8.6,25.2l0,0c0.6,10.5-4,11.5-4,11.5v0.8c0,0,3.2-0.2,4.4-5.5l5.4,92.3c0.1,2.2,2,3.9,4.2,3.8l2.2-0.1
		c2.2-0.1,3.9-2,3.8-4.2L480,455.6z M469,495.6c0,0-10.5-23.1,1.5-28.1l2.1,36C471.9,501.1,470.8,498.4,469,495.6z"/>
	<g>
		<path class="st22" d="M484.4,602.3c-0.1,2.2,1.6,4.1,3.8,4.2l2.2,0.1c2.2,0.1,4.1-1.6,4.2-3.8l5.4-92.3c1.2,5.3,4.4,5.5,4.4,5.5
			v-0.8c0,0-4.7-1.1-4-11.5l0,0c0.6-10.5,4.5-8.9,8.6-25.2c4.1-16.3-5.5-27.6-5.5-27.6l0.1-1.8c0.1-2.2-1.6-4.1-3.8-4.2l-2.2-0.1
			c-2.2-0.1-4.1,1.6-4.2,3.8L484.4,602.3z M500.9,496.4l2.1-36c12,5,1.5,28.1,1.5,28.1C502.8,491.4,501.6,494.1,500.9,496.4z"/>
	</g>
	<g>
		
			<rect x="431.7" y="550.7" transform="matrix(0.4048 -0.9144 0.9144 0.4048 -191.0715 809.7119)" class="st27" width="189.4" height="1.9"/>
		
			<rect x="434.4" y="551.8" transform="matrix(0.4048 -0.9144 0.9144 0.4048 -190.5551 812.778)" class="st27" width="189.4" height="1.9"/>
		
			<rect x="426.7" y="548.3" transform="matrix(0.4048 -0.9144 0.9144 0.4048 -191.94 803.6657)" class="st27" width="189.4" height="1.9"/>
		
			<rect x="429.2" y="549.5" transform="matrix(0.4048 -0.9144 0.9144 0.4048 -191.5058 806.6888)" class="st27" width="189.4" height="1.9"/>
		
			<rect x="436.8" y="553" transform="matrix(0.4048 -0.9144 0.9144 0.4048 -190.1383 815.6935)" class="st27" width="189.4" height="1.9"/>
		<polygon class="st28" points="561.4,463.5 563.1,464.2 563.9,464.6 565.6,465.4 566.5,465.7 568.2,466.5 569,466.9 570.7,467.6 
			571.5,455.8 567.1,453.8 571.9,448.9 558.8,462.4 560.5,463.1 		"/>
		<polygon class="st11" points="571.5,455.8 571.5,455.8 571.9,448.9 567.1,453.8 		"/>
		
			<rect x="427.9" y="549.4" transform="matrix(0.4048 -0.9144 0.9144 0.4048 -191.7727 805.1019)" class="st11" width="189.4" height="0.9"/>
		
			<rect x="430.4" y="550.5" transform="matrix(0.4048 -0.9144 0.9144 0.4048 -191.2759 808.1054)" class="st11" width="189.4" height="0.9"/>
		
			<rect x="433" y="551.7" transform="matrix(0.4048 -0.9144 0.9144 0.4048 -190.8219 811.1912)" class="st11" width="189.4" height="0.9"/>
		
			<rect x="435.6" y="552.8" transform="matrix(0.4048 -0.9144 0.9144 0.4048 -190.2174 814.1772)" class="st11" width="189.4" height="0.9"/>
	</g>
	<g>
		
			<rect x="413.5" y="546.4" transform="matrix(0.2712 -0.9625 0.9625 0.2712 -165.4622 886.6547)" class="st12" width="178.5" height="12.3"/>
		<polygon class="st11" points="531.5,450.6 521.1,464.9 532.8,468.3 		"/>
	</g>
	<path class="st29" d="M495,527.6l4.9-19.9c7.3-1.5,12.5-8.3,11.8-16c-0.8-8.1-8-14.1-16.2-13.3c-8.1,0.8-14.1,8-13.3,16.2
		c0.5,4.9,3.3,9,7.3,11.4l-4.7,19.1l0.7,0.2l-1.8,7.1l-3.1-6.6l0.7-0.3l-8.5-18.1c3.2-3,5.1-7.5,4.6-12.2c-0.8-8.1-8-14.1-16.2-13.3
		c-8.1,0.8-14.1,8-13.3,16.2c0.8,7.8,7.4,13.6,15.1,13.3l8.7,18.6l0.7-0.3l7.8,16.6l-6.2,24.9l8.6,2.1l3.5-14.2l6.2,13.3l8-3.8
		l-10.9-23.2l4.4-17.8H495z M450.9,497.7c-0.6-6.6,4.2-12.4,10.7-13.1s12.4,4.2,13.1,10.7c0.6,6.6-4.2,12.4-10.7,13.1
		C457.4,509,451.5,504.2,450.9,497.7z M485.1,494.3c-0.6-6.6,4.2-12.4,10.7-13.1c6.6-0.6,12.4,4.2,13.1,10.7s-4.2,12.4-10.7,13.1
		C491.6,505.7,485.8,500.9,485.1,494.3z"/>
	<rect x="458" y="526" class="st30" width="90" height="120"/>
</g>
<g>
	<rect x="1101" y="198" class="st15" width="11" height="7"/>
</g>
<path class="st31" d="M742.7,646c0,25.9,0,51.7,0,77.6c0,28.2-11.6,68.8,9.7,92.2c19.5,21.4,50.4,22.9,74.2,7.8
	c28.4-18.1,20.2-58.6,18.9-86.6c-1.4-30.9-0.4-62-0.4-93"/>
<g>
	<path class="st32" d="M1470.8,541.1l3.5-20.2h-115.8l22,125.3h71.8l6.1-34.8c2,0.3,4.1,0.5,6.3,0.5c21.2,0,38.3-15.9,38.3-35.6
		C1503,558.5,1489,543.8,1470.8,541.1z M1464.7,603.8c-1.7,0-3.3-0.1-4.9-0.4l9.6-54.5c14.2,2.1,25,13.5,25,27.3
		C1494.4,591.5,1481.1,603.8,1464.7,603.8z"/>
	<circle class="st33" cx="1417" cy="573" r="34"/>
</g>
<path class="st31" d="M1122,577c0,20.1,0,40.3,0,60.4c0,47.8-13.5,104.9,28,140.3c32.4,27.7,81.1,27.1,108.8-6.9
	c28-34.4,18.1-85.5,18.1-126.8"/>
<path class="st34" d="M1697,465c0,99.2-4.5,200.3-0.6,298.2c3,75.6,110.3,71.5,109.9-5.7c-0.4-81.2-0.3-177.4-0.3-258.5"/>
<path class="st21" d="M1860.1,753.8h-0.2c-1.2,0-2.2-1-2.2-2.2v-17.4c0-1.2,1-2.2,2.2-2.2h0.2c1.2,0,2.2,1,2.2,2.2v17.4
	C1862.3,752.8,1861.3,753.8,1860.1,753.8z"/>
<rect x="1854" y="704.3" class="st25" width="12" height="33"/>
<line class="st34" x1="1860" y1="499" x2="1860" y2="705"/>
<g>
	<path class="st35" d="M267.5,357.5c-27.8-11.7-61.1,4.3-74.4,35.8c-3.1,7.2-5.5,14.8-5.6,28.9h0.1c34.2,0,63.1,24.7,72.7,59.6
		c13.5-16.6,26.4-29.1,33.5-45.9C307.1,404.2,295.3,369.2,267.5,357.5"/>
	<path class="st36" d="M258.8,538.9c3.2-10.2,5-21,5-31.7c0-47.7-34.1-85-76.1-85s-76.1,37.7-76.1,85.3c0,10.7,1.8,21.3,5,31.4
		H258.8L258.8,538.9z"/>
	<path class="st35" d="M137.3,443.4c-9-6.2-12.9-8.5-17.1-10.2c-21.1-8.6-44.3-0.4-51.9,18.2s3.4,40.7,24.5,49.2
		c4.4,1.8,9,2.9,18.8,6.5C111.6,481.5,121.5,458.9,137.3,443.4"/>
	<path class="st37" d="M289.1,551.2c0,4.4-3.6,8-8,8h-187c-4.4,0-8-3.6-8-8v-4.3c0-4.4,3.6-8,8-8h187.1c4.4,0,8,3.6,8,8L289.1,551.2
		L289.1,551.2z"/>
	<polygon class="st38" points="243.4,645.5 131.8,645.5 101.3,559.2 273.9,559.2 	"/>
	<g>
		<path class="st36" d="M228.2,381.5c-1.7,0-3.4-0.9-4.4-2.5l-15.2-25.4c-1.4-2.4-0.7-5.5,1.7-7c2.4-1.4,5.5-0.7,7,1.7l15.2,25.4
			c1.4,2.4,0.7,5.5-1.7,7C230,381.3,229.1,381.5,228.2,381.5"/>
		<path class="st36" d="M243.5,406.9c-0.4,0-0.8,0-1.2-0.2c-2.7-0.7-4.4-3.4-3.7-6.2l5.1-20.3c0.7-2.7,3.4-4.4,6.2-3.7
			c2.7,0.7,4.4,3.4,3.7,6.2l-5.1,20.3C247.8,405.4,245.7,406.9,243.5,406.9"/>
		<path class="st36" d="M289.1,417.1c-1.9,0-3.7-1-4.5-2.8c-1.3-2.5-0.2-5.6,2.3-6.8l20.3-10.2c2.5-1.3,5.6-0.2,6.8,2.3
			c1.3,2.5,0.2,5.6-2.3,6.8l-20.3,10.2C290.7,416.9,289.9,417.1,289.1,417.1"/>
		<path class="st36" d="M273.9,381.5c-1.3,0-2.6-0.5-3.6-1.5c-2-2-2-5.2,0-7.2l20.3-20.3c2-2,5.2-2,7.2,0s2,5.2,0,7.2L277.5,380
			C276.5,381,275.2,381.5,273.9,381.5"/>
		<path class="st36" d="M253.6,437.4c-2.3,0-4.3-1.5-4.9-3.8c-0.7-2.7,1-5.5,3.7-6.2l20.3-5.1c2.7-0.7,5.5,1,6.2,3.7s-1,5.5-3.7,6.2
			l-20.3,5.1C254.4,437.3,254,437.4,253.6,437.4"/>
	</g>
	<g>
		<path class="st35" d="M162.2,508.4c-1.3,0-2.6-0.5-3.6-1.5l-15.2-15.2c-2-2-2-5.2,0-7.2s5.2-2,7.2,0l15.2,15.2c2,2,2,5.2,0,7.2
			C164.8,507.9,163.5,508.4,162.2,508.4"/>
		<path class="st35" d="M213,493.2c-0.3,0-0.7,0-1-0.1c-2.8-0.5-4.5-3.2-4-6l5.1-25.4c0.5-2.8,3.2-4.5,6-4s4.5,3.2,4,6l-5.1,25.4
			C217.5,491.5,215.4,493.2,213,493.2"/>
		<path class="st35" d="M167.3,447.5c-2.1,0-4.1-1.3-4.8-3.5l-10.2-30.5c-0.9-2.7,0.6-5.5,3.2-6.4c2.7-0.9,5.5,0.6,6.4,3.2
			l10.2,30.5c0.9,2.7-0.6,5.5-3.2,6.4C168.4,447.4,167.8,447.5,167.3,447.5"/>
	</g>
	<g>
		<path class="st36" d="M101.3,447.5c-2.4,0-4.5-1.7-5-4.1L91.2,418c-0.6-2.7,1.2-5.4,4-6s5.4,1.2,6,4l5.1,25.4c0.6,2.7-1.2,5.4-4,6
			C102,447.5,101.7,447.5,101.3,447.5"/>
		<path class="st36" d="M75.9,467.8H50.6c-2.8,0-5.1-2.3-5.1-5.1s2.3-5.1,5.1-5.1H76c2.8,0,5.1,2.3,5.1,5.1S78.7,467.8,75.9,467.8"
			/>
		<path class="st36" d="M75.9,513.5c-1.1,0-2.1-0.3-3-1c-2.2-1.7-2.7-4.9-1-7.1l15.2-20.3c1.7-2.2,4.9-2.7,7.1-1s2.7,4.9,1,7.1
			L80,511.5C79,512.8,77.5,513.5,75.9,513.5"/>
	</g>
	<path class="st35" d="M248.5,518.6c-1.6,0-3.2-0.8-4.2-2.3c-1.6-2.3-0.9-5.5,1.4-7l30.5-20.3c2.3-1.6,5.5-0.9,7,1.4
		c1.6,2.3,0.9,5.5-1.4,7l-30.5,20.3C250.5,518.3,249.5,518.6,248.5,518.6"/>
	<path class="st39" d="M255.2,612.2l-9.9-5.7c-4.1-2.5-9.4-2.1-13.1,1l-7.7,6.4c-4.2,3.5-9.3,5.9-14.8,6.2
		c-5.2,0.2-9.8-1.2-12.4-4.4l-19.8-21c-6-6-10.9-6.3-19.8-2.6c-5.2,2.2-9.7,7.7-15.7,7.7c-7.2,0-12.4-2.7-15.2-5.1l-18.5-16.1
		l23.6,66.8h111.7L255.2,612.2z"/>
</g>
<g>
	<path class="st0" d="M1858.2,310.9v184.2c0,3.3-2.6,5.9-5.9,5.9h-106.5c-3.3,0-5.9-2.6-5.9-5.9V310.9c0-3.3,2.6-5.9,5.9-5.9h106.5
		C1855.5,305,1858.2,307.6,1858.2,310.9z"/>
	<path class="st1" d="M1757.6,441.8L1757.6,441.8c0-22.9,18.5-41.4,41.4-41.4l0,0c22.9,0,41.4,18.5,41.4,41.4l0,0
		c0,22.9-18.5,41.4-41.4,41.4l0,0C1776.1,483.3,1757.6,464.7,1757.6,441.8z"/>
	<path class="st2" d="M1840.4,441.8c0-14.6-7.6-27.5-19-34.8c-2.8,3.5-2.6,8.6,0.6,11.8c6.1,6.1,9.5,14.3,9.5,23s-3.4,16.9-9.5,23
		s-14.3,9.5-23,9.5s-16.9-3.4-23-9.5c-3.2-3.2-8.4-3.4-11.8-0.6c7.4,11.5,20.2,19,34.8,19l0,0
		C1821.9,483.3,1840.4,464.7,1840.4,441.8L1840.4,441.8z"/>
	<path class="st3" d="M1799,459.6c-9.8,0-17.7-8-17.7-17.7s8-17.7,17.7-17.7s17.7,8,17.7,17.7S1808.8,459.6,1799,459.6z"/>
	<path class="st4" d="M1805.3,425.2c0.7,2,1.2,4.1,1.2,6.3c0,9.8-8,17.7-17.7,17.7c-2.2,0-4.3-0.4-6.3-1.2c2.5,6.7,9,11.5,16.6,11.5
		c9.8,0,17.7-8,17.7-17.7C1816.7,434.3,1812,427.8,1805.3,425.2z"/>
	<path class="st1" d="M1767.5,357.1L1767.5,357.1c0-17.4,14.1-31.5,31.5-31.5l0,0c17.4,0,31.5,14.1,31.5,31.5l0,0
		c0,17.4-14.1,31.5-31.5,31.5l0,0C1781.6,388.6,1767.5,374.5,1767.5,357.1z"/>
	<path class="st2" d="M1830.5,357.1c0-11.9-6.6-22.3-16.3-27.6c-2.6,3.5-2.4,8.4,0.8,11.6c4.3,4.3,6.6,10,6.6,16s-2.4,11.8-6.6,16
		c-8.8,8.8-23.2,8.8-32.1,0c-3.2-3.2-8.1-3.4-11.6-0.8c5.4,9.7,15.7,16.3,27.6,16.3l0,0C1816.4,388.6,1830.5,374.5,1830.5,357.1
		L1830.5,357.1z"/>
	<path class="st4" d="M1799,370.8c-7.6,0-13.8-6.2-13.8-13.8s6.2-13.8,13.8-13.8s13.8,6.2,13.8,13.8
		C1812.8,364.7,1806.6,370.8,1799,370.8z"/>
	<path class="st3" d="M1785.2,357.1c0,1.3,0.2,2.6,0.5,3.8c1.2,0.3,2.5,0.5,3.8,0.5c7.6,0,13.8-6.2,13.8-13.8c0-1.3-0.2-2.6-0.5-3.8
		c-1.2-0.3-2.5-0.5-3.8-0.5C1791.4,343.3,1785.2,349.4,1785.2,357.1z"/>
	<g>
		<path class="st5" d="M1799,397.5c-24.5,0-44.4,19.9-44.4,44.4s19.9,44.4,44.4,44.4s44.4-19.9,44.4-44.4S1823.5,397.5,1799,397.5z
			 M1799,480.3c-21.2,0-38.5-17.2-38.5-38.5c0-21.2,17.2-38.5,38.5-38.5s38.5,17.2,38.5,38.5S1820.2,480.3,1799,480.3z"/>
		<path class="st5" d="M1799,391.6c19,0,34.5-15.5,34.5-34.5s-15.5-34.5-34.5-34.5s-34.5,15.5-34.5,34.5S1780,391.6,1799,391.6z
			 M1799,328.5c15.8,0,28.6,12.8,28.6,28.6s-12.8,28.6-28.6,28.6s-28.6-12.8-28.6-28.6S1783.2,328.5,1799,328.5z"/>
	</g>
	<g>
		<circle class="st2" cx="1751.7" cy="316.8" r="3"/>
		<circle class="st2" cx="1846.3" cy="316.8" r="3"/>
		<circle class="st2" cx="1751.7" cy="489.2" r="3"/>
		<circle class="st2" cx="1846.3" cy="489.2" r="3"/>
	</g>
</g>
<path class="st40" d="M458,646c0,0-2-39,12-47s22.3,14.5,22.3,14.5s15.8,11.6,17.7-20.4s13.8-40.9,13.8-40.9S533,545,539,559
	s9-33,9-33v120H458z"/>
<g>
	<g>
		<circle class="st22" cx="1422" cy="315" r="34"/>
	</g>
</g>
<g>
	<g>
		<g>
			<path class="st41" d="M1591.5,425.2l15-7.7c0.8-0.4,1.2-1.7,0.9-2.8c-0.3-1.1-1.2-1.7-2-1.3l-7.4,3.8v3.9v-3.9l-7.6,3.9
				c-0.8,0.4-1.2,1.7-0.9,2.8C1589.8,425.1,1590.7,425.6,1591.5,425.2z"/>
		</g>
	</g>
	<g>
		<g>
			<path class="st41" d="M1605.5,421.1l-15,7.7c-0.8,0.4-1.2,1.7-0.9,2.8c0.3,1.1,1.2,1.7,2,1.3l15-7.7c0.8-0.4,1.2-1.7,0.9-2.8
				C1607.2,421.3,1606.3,420.7,1605.5,421.1z"/>
		</g>
	</g>
	<g>
		<g>
			<path class="st41" d="M1605.5,428.9l-15,7.7c-0.8,0.4-1.2,1.7-0.9,2.8c0.3,1.1,1.2,1.7,2,1.3l15-7.7c0.8-0.4,1.2-1.7,0.9-2.8
				C1607.2,429,1606.3,428.5,1605.5,428.9z"/>
		</g>
	</g>
	<g>
		<g>
			<path class="st41" d="M1605.5,436.6l-15,7.7c-0.8,0.4-1.2,1.7-0.9,2.8c0.3,1.1,1.2,1.7,2,1.3l15-7.7c0.8-0.4,1.2-1.7,0.9-2.8
				C1607.2,436.8,1606.3,436.2,1605.5,436.6z"/>
		</g>
	</g>
	<g>
		<g>
			<path class="st41" d="M1605.5,444.4l-15,7.7c-0.8,0.4-1.2,1.7-0.9,2.8c0.3,1.1,1.2,1.7,2,1.3l15-7.7c0.8-0.4,1.2-1.7,0.9-2.8
				C1607.2,444.5,1606.3,444,1605.5,444.4z"/>
		</g>
	</g>
	<g>
		<g>
			<path class="st41" d="M1605.5,452.1l-15,7.7c-0.8,0.4-1.2,1.7-0.9,2.8c0.3,1.1,1.2,1.7,2,1.3l15-7.7c0.8-0.4,1.2-1.7,0.9-2.8
				C1607.2,452.3,1606.3,451.7,1605.5,452.1z"/>
		</g>
	</g>
	<g>
		<g>
			<path class="st41" d="M1605.5,459.9l-15,7.7c-0.8,0.4-1.2,1.7-0.9,2.8c0.3,1.1,1.2,1.7,2,1.3l6.7-3.4v-1.4v1.4l8.3-4.3
				c0.8-0.4,1.2-1.7,0.9-2.8C1607.2,460,1606.3,459.5,1605.5,459.9z"/>
		</g>
	</g>
	<g>
		<g>
			<path class="st41" d="M1598.2,469.8L1598.2,469.8c-0.8,0-1.5-0.7-1.5-1.5v-1.4c0-0.8,0.7-1.5,1.5-1.5s1.5,0.7,1.5,1.5v1.4
				C1599.7,469.1,1599.1,469.8,1598.2,469.8z"/>
		</g>
	</g>
	<g>
		<g>
			<path class="st41" d="M1598,501.5L1598,501.5c-0.8,0-1.5-0.7-1.5-1.5l0.2-31.7c0-0.8,0.7-1.5,1.5-1.5l0,0c0.8,0,1.5,0.7,1.5,1.5
				l-0.2,31.7C1599.5,500.8,1598.8,501.5,1598,501.5z"/>
		</g>
	</g>
	<g>
		<g>
			<path class="st41" d="M1598,418.7L1598,418.7c-0.8,0-1.5-0.7-1.5-1.5l0.2-29.2c0-0.8,0.7-1.5,1.5-1.5l0,0c0.8,0,1.5,0.7,1.5,1.5
				l-0.2,29.2C1599.5,418,1598.9,418.7,1598,418.7z"/>
		</g>
	</g>
</g>
<g id="XMLID_194_">
	<g id="XMLID_173_">
		
			<rect id="XMLID_172_" x="1551.3" y="231.7" transform="matrix(0.7306 -0.6828 0.6828 0.7306 188.4062 1155.2067)" class="st41" width="13.8" height="214.2"/>
		
			<rect id="XMLID_174_" x="1565.5" y="218.5" transform="matrix(0.7306 -0.6828 0.6828 0.7306 201.2907 1161.3695)" class="st41" width="13.8" height="214.2"/>
		<polygon id="XMLID_189_" class="st42" points="1636.4,412.3 1618.3,392.9 1608.5,402.6 1626.3,421.7 		"/>
		<polygon id="XMLID_191_" class="st42" points="1640.5,408.5 1622.4,389.1 1632.8,380 1650.6,399.1 		"/>
	</g>
	<g id="XMLID_178_">
		
			<rect id="XMLID_181_" x="1498.9" y="526.2" transform="matrix(0.4637 -0.886 0.886 0.4637 388.9839 1708.7921)" class="st41" width="214.2" height="13.8"/>
		
			<rect id="XMLID_180_" x="1481.7" y="517.2" transform="matrix(0.4637 -0.886 0.886 0.4637 387.7153 1688.7333)" class="st41" width="214.2" height="13.8"/>
	</g>
	<g id="XMLID_175_">
		<circle id="XMLID_169_" class="st42" cx="1650.2" cy="419.4" r="27.1"/>
		<circle id="XMLID_171_" class="st43" cx="1650.2" cy="419.4" r="11.5"/>
	</g>
	<rect id="XMLID_176_" x="1489" y="615.9" class="st44" width="128.7" height="15.4"/>
	<rect id="XMLID_183_" x="1462.3" y="631.3" class="st44" width="182.3" height="15.4"/>
	<g id="XMLID_184_">
		<path id="XMLID_182_" class="st45" d="M1501.5,242.9l-5.6-5.6l15.8-15.8c0.6-0.6,1.7-0.6,2.3,0l3.3,3.3c0.6,0.6,0.6,1.7,0,2.3
			L1501.5,242.9z"/>
		<path id="XMLID_196_" class="st45" d="M1488,292.9l-42.2-42.2l26.7-17.9c5.8-3.9,12.7-5,19-3.4c4.2,1,8.1,3.1,11.4,6.4
			c4.1,4.1,6.4,9.3,6.9,14.7s-0.8,10.9-4,15.7L1488,292.9z"/>
		<path id="XMLID_192_" class="st44" d="M1470.2,275.1l-24.4-24.4l26.7-17.9c5.8-3.9,12.7-5,19-3.4c0.3,1.1,0.4,2.2,0.6,3.3
			c0.5,5.4-0.8,11-4,15.7L1470.2,275.1z"/>
		<path id="XMLID_195_" class="st45" d="M1476,342.1l-13.5,13.5l-79.3-79.3l13.5-13.5c18.2-18.2,45.9-21.3,67.3-9.1
			c4.3,2.4,8.3,5.4,12,9.1c10.9,10.9,16.4,25.3,16.4,39.6C1492.4,316.8,1486.9,331.1,1476,342.1z"/>
		<path id="XMLID_193_" class="st44" d="M1454.9,321l-13.5,13.5l-58.2-58.2l13.5-13.5c18.2-18.2,45.9-21.3,67.3-9.1
			c4.9,8.5,7.3,18.1,7.3,27.6C1471.3,295.7,1465.8,310,1454.9,321z"/>
		<path id="XMLID_185_" class="st46" d="M1458.9,365.7l-85.8-85.8c-0.8-0.8-0.8-2,0-2.8l4.1-4.1c0.8-0.8,2-0.8,2.8,0l85.8,85.8
			c0.8,0.8,0.8,2,0,2.8l-4.1,4.1C1460.9,366.5,1459.6,366.5,1458.9,365.7z"/>
	</g>
	<g id="XMLID_186_">
		<rect x="1489" y="608.6" class="st22" width="28" height="7.7"/>
	</g>
	<rect id="XMLID_187_" x="1489" y="623.6" class="st45" width="128.7" height="7.7"/>
	<polygon id="XMLID_188_" class="st42" points="1533,615.9 1548.6,615.9 1553.9,605.8 1538.3,605.8 	"/>
	<polygon id="XMLID_190_" class="st42" points="1555,615.9 1570.5,615.9 1575.9,605.8 1560.3,605.8 	"/>
</g>
</svg>
