<?xml version="1.0" encoding="utf-8"?>
<!-- Generator: Adobe Illustrator 21.0.0, SVG Export Plug-In . SVG Version: 6.00 Build 0)  -->
<svg version="1.1" id="Layer_1" xmlns="http://www.w3.org/2000/svg" xmlns:xlink="http://www.w3.org/1999/xlink" x="0px" y="0px"
	 viewBox="0 0 742 750" style="enable-background:new 0 0 742 750;" xml:space="preserve">
<style type="text/css">
	.st0{fill:#FFD199;}
	.st1{fill:#567CD1;}
	.st2{opacity:0.3;fill:#567CD1;}
	.st3{opacity:0.6;}
	.st4{fill:#304975;}
	.st5{opacity:0.4;fill:#FFD199;}
	.st6{fill:#140A00;}
	.st7{opacity:0.83;fill:#CFEDFF;}
	.st8{opacity:0.74;fill:#FFFFFF;}
	.st9{fill:none;stroke:#8E4E32;stroke-width:8.6656;stroke-miterlimit:10;}
	.st10{fill:#211100;}
	.st11{fill:#3A1607;}
	.st12{fill:#D39C5F;}
	.st13{fill:#A3DB95;}
	.st14{fill:#B2E5F4;}
	.st15{fill:#00AAAD;}
	.st16{fill:#0A3542;}
	.st17{fill:#D6D6D6;}
	.st18{fill:#ED9A62;}
	.st19{fill:#F0F0F0;}
	.st20{fill:#492A15;}
	.st21{fill:#BDBDBD;}
	.st22{fill:#A2A3A4;}
	.st23{fill:#8C5028;}
	.st24{fill:#8A8A8A;}
	.st25{fill:#666666;}
	.st26{fill:#333333;}
	.st27{fill:#4D4D4D;}
	.st28{fill:#999999;}
	.st29{fill:#DFE0E1;}
	.st30{fill:#CDCECF;}
	.st31{fill:#B3B5B6;}
	.st32{fill:#578DA0;}
	.st33{fill:#ACD6F2;}
	.st34{fill:#5EAACF;}
	.st35{fill:#6BA795;}
	.st36{fill:#7B7031;}
	.st37{opacity:0.2;}
	.st38{fill:#F2F2F2;}
	.st39{fill:#518394;}
	.st40{fill:#CCCCCC;}
	.st41{fill:#E2E2E2;}
	.st42{fill:#A5A5A5;}
	.st43{fill:#B3B3B3;}
	.st44{opacity:0.1;}
	.st45{fill:#78151B;}
	.st46{fill:#EFA706;}
	.st47{fill:none;stroke:#8E4E32;stroke-width:4.6622;stroke-miterlimit:10;}
	.st48{fill:#E6E6E6;}
	.st49{fill:#C6C7C7;}
	.st50{fill:#96BEE5;}
	.st51{fill:#CDCECE;}
	.st52{fill:#373339;}
	.st53{fill:#FFFFFF;}
	.st54{opacity:0.3;fill:#5B565D;}
	.st55{fill:#D4D4CF;}
	.st56{fill:#231000;}
	.st57{fill:#CFEDFF;}
	.st58{opacity:0.83;fill:#8FC8E5;}
	.st59{opacity:0.7;fill:#FFFFFF;}
	.st60{opacity:0.7;fill:#D39C5F;}
	.st61{fill:#B60700;}
	.st62{fill:none;}
	.st63{fill:#5B565D;}
	.st64{fill:#48444A;}
	.st65{fill:#9E0404;}
	.st66{fill:#F1F1F1;}
	.st67{fill:#A7A8A3;}
	.st68{fill:none;stroke:#594A42;stroke-width:4.3979;stroke-miterlimit:10;}
	.st69{fill:#F5D38A;}
	.st70{fill:#DAAC69;}
	.st71{fill:#B2D235;}
	.st72{fill:#00878A;}
	.st73{fill:#F09B36;}
	.st74{fill:#454545;}
	.st75{fill:#980110;}
	.st76{fill:#D83030;}
	.st77{fill:#FAFFBE;}
	.st78{fill:#AB1D28;}
	.st79{fill:#F28076;}
	.st80{fill:#545454;}
	.st81{fill:#BCBCBC;}
	.st82{fill:#7383BF;}
	.st83{fill:#424A60;}
	.st84{fill:#E7ECED;}
	.st85{fill:#91CF96;}
	.st86{fill:#5ABA63;}
	.st87{fill:#7F5B53;}
	.st88{fill:#AF8066;}
	.st89{fill:#D9AA94;}
	.st90{fill:#F58C7E;}
	.st91{fill:#808080;}
	.st92{fill:#E8D4AA;}
	.st93{fill:#306E89;}
	.st94{opacity:0.4;fill:#5ABA63;}
	.st95{clip-path:url(#SVGID_2_);fill:#FFFFFF;}
	.st96{clip-path:url(#SVGID_2_);fill:#567CD1;}
	.st97{clip-path:url(#SVGID_2_);}
</style>
<path class="st0" d="M-1717.4,48.9L-1849-5.7c-5.4-2.2-3.7-9.7,2.3-9.7h135.8c0,0,21.9,2.9,37.6,37.6
	C-1657.7,56.8-1717.4,48.9-1717.4,48.9z"/>
<path class="st0" d="M-794.6,48.9L-663-5.7c5.4-2.2,3.7-9.7-2.3-9.7H-801c0,0-21.9,2.9-37.6,37.6S-794.6,48.9-794.6,48.9z"/>
<path class="st1" d="M-945.2,198.7l160.9-131.9l-52.9-64.5l-161.1,132L-1107,1.6V0.5h-296.1v1.2l-0.8-0.7L-1513.7,135L-1675.5,2.3
	l-52.9,64.5l173.8,142.5c27.9,22.8,68.6,19.3,92.3-7.4c3.5-3,6.9-6.4,9.9-10.1l49.3-60.1V428h296.1V133.3l54.7,66.7
	c23.6,28.8,66.1,33,94.8,9.4l12.4-10.2l-0.3-0.3C-945.3,198.8-945.2,198.8-945.2,198.7z"/>
<path class="st2" d="M-1338.1,2.5c0,47.6,50.8,86.1,113.4,86.1s113.4-38.5,113.4-86.1c0-0.7,0-1.3-0.1-2H-1338
	C-1338,1.2-1338.1,1.8-1338.1,2.5z"/>
<g class="st3">
	<path class="st4" d="M-1173.1,115.5h-165.3c-9.4,0-17,7.6-17,17v102c0,9.4,7.6,17,17,17h66.3v15.4h-13.4c-6.3,0-11.5,5.1-11.5,11.5
		c0,6.3,5.1,11.5,11.5,11.5h59.5c6.3,0,11.5-5.1,11.5-11.5c0-6.3-5.1-11.5-11.5-11.5h-13.4v-15.4h66.3c9.4,0,17-7.6,17-17v-102
		C-1156.1,123.1-1163.7,115.5-1173.1,115.5z M-1335.4,215.1c0-9,7.3-16.3,16.3-16.3c9,0,16.3,7.3,16.3,16.3c0,9-7.3,16.3-16.3,16.3
		C-1328.1,231.4-1335.4,224.1-1335.4,215.1z M-1175.8,231.8H-1276c0.5-1.2,0.2-2.5-0.8-3.4l-6.5-5.8c0.5-2.4,0.8-4.9,0.8-7.5
		c0-2.6-0.3-5.1-0.8-7.5l6.5-5.8c1.1-1,1.3-2.5,0.6-3.8l-6.7-11.5c-0.7-1.2-2.2-1.8-3.6-1.4l-8.3,2.8c-3.7-3.3-8.1-5.9-13-7.5
		l-1.8-8.6c-0.3-1.4-1.5-2.4-3-2.4h-13.3c-1.4,0-2.7,1-3,2.4l-1.8,8.6c-1.8,0.6-3.5,1.3-5.2,2.2v-47.3h159.9L-1175.8,231.8
		L-1175.8,231.8z"/>
	<path class="st4" d="M-1265.8,182.6c-0.8-0.3-1.7,0.1-2.1,0.8l-3.9,6.8c-0.4,0.7-0.3,1.7,0.4,2.2l3.8,3.4c-0.3,1.4-0.5,2.9-0.5,4.4
		c0,1.5,0.2,3,0.5,4.4l-3.8,3.4c-0.6,0.6-0.8,1.5-0.4,2.2l3.9,6.8c0.4,0.7,1.3,1.1,2.1,0.8l4.9-1.6c2.2,2,4.8,3.5,7.7,4.4l1,5
		c0.2,0.8,0.9,1.4,1.8,1.4h7.9c0.8,0,1.6-0.6,1.8-1.4l1-5c2.9-0.9,5.5-2.5,7.7-4.4l4.9,1.6c0.8,0.3,1.7-0.1,2.1-0.8l3.9-6.8
		c0.4-0.7,0.3-1.7-0.4-2.2l-3.8-3.4c0.3-1.4,0.5-2.9,0.5-4.4c0-1.5-0.2-3-0.5-4.4l3.8-3.4c0.6-0.6,0.8-1.5,0.4-2.2l-3.9-6.8
		c-0.4-0.7-1.3-1.1-2.1-0.8l-4.9,1.6c-2.2-2-4.8-3.5-7.7-4.4l-1-5c-0.2-0.8-0.9-1.4-1.7-1.4h-7.9c-0.8,0-1.6,0.6-1.8,1.4l-1,5
		c-2.9,0.9-5.5,2.5-7.7,4.4L-1265.8,182.6z M-1246.5,190.7c5.3,0,9.6,4.3,9.6,9.6s-4.3,9.6-9.6,9.6s-9.6-4.3-9.6-9.6
		C-1256.1,195-1251.8,190.7-1246.5,190.7z"/>
	<path class="st4" d="M-1290.2,160.3c-0.2,1-0.3,2-0.3,3c0,1,0.1,2.1,0.3,3l-2.6,2.3c-0.4,0.4-0.5,1-0.2,1.5l2.7,4.7
		c0.3,0.5,0.9,0.7,1.4,0.5l3.4-1.1c1.5,1.4,3.3,2.4,5.3,3l0.7,3.5c0.1,0.6,0.6,1,1.2,1h5.4c0.6,0,1.1-0.4,1.2-1l0.7-3.5
		c2-0.6,3.7-1.7,5.3-3l3.4,1.1c0.6,0.2,1.2,0,1.4-0.5l2.7-4.7c0.3-0.5,0.2-1.1-0.2-1.5l-2.6-2.3c0.2-1,0.3-2,0.3-3
		c0-1-0.1-2.1-0.3-3l2.6-2.3c0.4-0.4,0.5-1,0.2-1.5l-2.7-4.7c-0.3-0.5-0.9-0.7-1.4-0.5l-3.4,1.1c-1.5-1.4-3.3-2.4-5.3-3l-0.7-3.5
		c-0.1-0.6-0.6-1-1.2-1h-5.4c-0.6,0-1.1,0.4-1.2,1l-0.7,3.5c-2,0.6-3.7,1.7-5.3,3l-3.4-1.1c-0.6-0.2-1.2,0-1.4,0.5l-2.7,4.7
		c-0.3,0.5-0.2,1.1,0.2,1.5L-1290.2,160.3z M-1275.7,156.8c3.6,0,6.6,2.9,6.6,6.6c0,3.6-2.9,6.6-6.6,6.6s-6.6-2.9-6.6-6.6
		C-1282.3,159.7-1279.4,156.8-1275.7,156.8z"/>
</g>
<polyline class="st2" points="-1107,133.4 -1403.1,428 -1107,428 "/>
<g>
	<path class="st0" d="M-1253.2,58.3h-2.2c-21.3,0-38.6-17.3-38.6-38.6v-87.4c0-21.3,17.3-38.6,38.6-38.6h2.2
		c21.3,0,38.6,17.3,38.6,38.6v87.4C-1214.6,41-1231.9,58.3-1253.2,58.3z"/>
	<path class="st5" d="M-1294-50.2v17.4l72.1,75.2c4.6-6.4,7.4-14.2,7.4-22.7v-79.2C-1246.3-59-1277-53.7-1294-50.2z"/>
	<circle class="st0" cx="-1106.3" cy="-236.4" r="36.1"/>
	<path class="st0" d="M-1070.2-236.4c0,19.9-16.2,36.1-36.1,36.1c-5.5,0-10.7-1.2-15.3-3.4v44.2c0,73.7-60.3,134-134,134h0
		c-73.7,0-134-60.3-134-134v-43.7c-4.4,1.9-9.2,2.9-14.3,2.9c-19.9,0-36.1-16.2-36.1-36.1s16.2-36.1,36.1-36.1c5.1,0,9.9,1,14.3,2.9
		v-57.7c0-24.7,20.2-44.9,44.9-44.9h178.1c24.7,0,44.9,20.2,44.9,44.9v58.2c4.7-2.2,9.8-3.4,15.3-3.4
		C-1086.3-272.5-1070.2-256.3-1070.2-236.4z"/>
	<g>
		<path class="st6" d="M-1107-372.1v99.7c-9.2,0-17.7,2.7-24.6,7.2c-2.1,1.4-4,2.9-5.7,4.6v-111.5H-1107z"/>
	</g>
	<path class="st5" d="M-1106.3-272.5c-5.5,0-10.7,1.2-15.3,3.4v-58.2c0-18.5-11.3-34.5-27.4-41.3l-109.2,10.9v332.1
		c0.1,0,0.2,0,0.4,0l25.1-1.9c62.9-10.9,111.2-66.1,111.2-132v-44.2c4.7,2.2,9.8,3.4,15.3,3.4c19.9,0,36.1-16.2,36.1-36.1
		S-1086.3-272.5-1106.3-272.5z"/>
	<g>
		<path class="st6" d="M-1286.8-291.2h-62.1c-3.6,0-6.5-2.9-6.5-6.5l0,0c0-3.6,2.9-6.5,6.5-6.5h62.1c3.6,0,6.5,2.9,6.5,6.5l0,0
			C-1280.3-294.2-1283.2-291.2-1286.8-291.2z"/>
	</g>
	<g>
		<g>
			<path class="st6" d="M-1238.3-293.7c12.6,9.6,28.1,3.6,39.5-4.8c5.5-4.1,24.4-23.2,29.9-11.1c3.4,7.6,14.7,1,11.2-6.6
				c-6.6-14.5-23.1-11.2-33.9-4c-10.7,7.2-26.4,25.8-40.2,15.3c-2.8-2.2-7.2-0.4-8.9,2.3C-1242.6-299.2-1241.1-295.8-1238.3-293.7
				L-1238.3-293.7z"/>
		</g>
	</g>
	<g>
		<rect x="-1403.1" y="-383.7" class="st6" width="28.9" height="125.7"/>
	</g>
	<path d="M-1128.7-266.7v1.4c-1.8,1.4-3.5,2.9-5.1,4.6v2.6h-15.2v-8.7H-1128.7z"/>
	<circle class="st7" cx="-1317.9" cy="-249.4" r="46.2"/>
	<path class="st8" d="M-1335.1-213.3h-21.7l51.8-80.9h12.5c4,0,6.4,4.4,4.2,7.7L-1335.1-213.3z"/>
	<path class="st8" d="M-1302.4-226h-14.1l33.6-52.5h6c3.5,0,5.6,3.9,3.7,6.8L-1302.4-226z"/>
	<circle class="st7" cx="-1195.1" cy="-249.4" r="46.2"/>
	<path class="st8" d="M-1212.3-213.3h-21.7l51.8-80.9h12.5c4,0,6.4,4.4,4.2,7.7L-1212.3-213.3z"/>
	<rect x="-1384.3" y="-266.7" width="20.2" height="8.7"/>
	<path class="st8" d="M-1179.6-226h-14.1l33.6-52.5h6c3.5,0,5.6,3.9,3.7,6.8L-1179.6-226z"/>
	<g>
		<path class="st6" d="M-1126.4-357.7h-238.9c-27.2,0-49.3-22.1-49.3-49.3v-9.7c0-27.2,22.1-49.3,49.3-49.3h284.3v62.9
			C-1081-378-1101.3-357.7-1126.4-357.7z"/>
	</g>
	<path class="st9" d="M-1102.7-414.2c0,25.6-19.3,36.3-44.9,36.3"/>
	<path class="st10" d="M-1308.3-134.1v5.6l0.5,0.5l0.2-11.6C-1308-137.9-1308.3-136-1308.3-134.1z"/>
	<path class="st11" d="M-1202.9-128.7v-5.4c0-1.9-0.3-3.7-0.8-5.5c-2.4-8.3-10.1-14.5-19.1-14.5h-65.6c-9.1,0-16.8,6.1-19.2,14.4
		l-0.2,11.6l-0.5-0.5l-81.2-74.5v43.6c0,73.7,60.3,134,133.9,134h0c73.7,0,134-60.3,134-134v-43.7L-1202.9-128.7z M-1217.5-84.6
		c0,7.9-6.5,14.4-14.4,14.4h-47.3c-7.9,0-14.4-6.5-14.4-14.4v-39.1c0-7.9,6.5-14.4,14.4-14.4h47.3c7.9,0,14.4,6.5,14.4,14.4V-84.6z"
		/>
	<circle class="st0" cx="-1403.1" cy="-236.4" r="36.1"/>
	<path d="M-1194.9-301.8c-23.1,0-42.7,14.9-49.7,35.6h-22.4c-7-20.7-26.6-35.6-49.7-35.6c-29,0-52.5,23.5-52.5,52.5
		c0,29,23.5,52.5,52.5,52.5c29,0,52.5-23.5,52.5-52.5c0-2.5-0.2-5-0.5-7.5h17.9c-0.4,2.4-0.5,4.9-0.5,7.5c0,29,23.5,52.5,52.5,52.5
		c29,0,52.5-23.5,52.5-52.5C-1142.4-278.3-1165.9-301.8-1194.9-301.8z M-1316.7-204.4c-24.8,0-45-20.1-45-45s20.1-45,45-45
		c24.8,0,45,20.1,45,45S-1291.8-204.4-1316.7-204.4z M-1194.9-204.4c-24.8,0-45-20.1-45-45s20.1-45,45-45c24.8,0,45,20.1,45,45
		S-1170-204.4-1194.9-204.4z"/>
	<polyline class="st12" points="-1280.1,-175.7 -1257.7,-159.8 -1237.2,-175.7 	"/>
	<polygon class="st0" points="-1133.7,-260.7 -1133.7,-258 -1135.9,-258 	"/>
	<g>
		<rect x="-1390.1" y="-278.2" class="st6" width="15.9" height="89.5"/>
	</g>
	<g>
		<rect x="-1137.3" y="-278.2" class="st6" width="15.9" height="89.5"/>
	</g>
</g>
<g>
	<path class="st13" d="M1645.2-1099.2c-0.7,0.8-1.3,1.5-1.9,2.2C1643.8-1097.7,1644.5-1098.4,1645.2-1099.2z"/>
	<path class="st13" d="M1656.7-1110.5c-0.9,0.8-1.9,1.6-2.8,2.4C1654.8-1108.9,1655.8-1109.7,1656.7-1110.5z"/>
	<path class="st13" d="M2334.7-477.3c-0.5,4.6-1.1,9.1-1.7,13.5c-2.9,21.3-6.5,40.3-11.1,57.4c-2.7,10.1-5.7,19.5-9,28.4
		c-0.4,1.2-0.9,2.3-1.3,3.5c-1.2,3.2-2.5,6.3-3.9,9.3c-30,68.3-82.6,99.7-168.4,135.8c-17.2,7.3-38.1,13-61.3,17.3
		c-66.9,12.4-153.3,12.4-227.5,0c-83.4-13.9-151.5-43.6-159.2-89.2c0,0-53.6,14.4-133.5,22.3c-2.1,0.2-4.3,0.4-6.5,0.6
		c-50.6,4.6-111,6.5-174.7,0.5c-7.2-0.7-14.5-1.5-21.7-2.3c-1.8-0.2-3.5-0.4-5.3-0.7c-1.8-0.2-3.5-0.5-5.3-0.7c0,0,0,0,0,0
		c-1-0.1-1.9-0.3-2.9-0.4c-0.2,0-0.4-0.1-0.7-0.1c-0.3,0-0.5-0.1-0.8-0.1v-99.3h29.5v-24.9h36.8l7.2-17.7l2.4-5.8l4.2-10.4l0.8-1.9
		l0.2-0.4l2.4-5.8l4.1-10l2.2-5.4l13.5-33.1l2.4-5.8l4.3-10.4l0.9-2.2l22.2-54.3l3.1-7.7l2.8-6.9l4.3-10.5l173.3-424.6l10.4-25.4
		l17.4-42.7l8-19.6l12.6-30.8c1.5-0.6,3.1-1.2,4.7-1.7c0.8-0.3,1.6-0.6,2.4-0.8c0.8-0.3,1.6-0.6,2.4-0.8c1.7-0.6,3.3-1.1,5-1.6
		c0.7-0.2,1.5-0.5,2.2-0.7c0.2-0.1,0.4-0.1,0.6-0.2c0.7-0.2,1.3-0.4,2-0.6c1.8-0.5,3.7-1,5.6-1.5c0.7-0.2,1.4-0.4,2.1-0.5
		c0.7-0.2,1.4-0.4,2.1-0.5c3-0.7,6-1.4,9.2-2.1c0.7-0.1,1.3-0.3,2-0.4c0.8-0.2,1.5-0.3,2.3-0.5c29-5.7,65.1-8.5,109.9-6.3
		c23.5,1.1,44.9,3.3,64.4,6.3c10,1.5,19.6,3.3,28.6,5.2c9.5,2,18.4,4.2,26.8,6.5c32.5,9,57.3,20.1,75.9,31.1
		c11.6,6.8,20.9,13.5,28.1,19.6c16.4,13.7,22.4,24,22.4,24s41-2.6,86,13.2c13.8,4.9,28,11.4,41.5,20.3c12.7,8.4,24.8,18.9,35.4,32
		c6.9,8.5,13.1,18.1,18.4,28.9c6.2,12.5,11.1,26.7,14.5,42.7c1,4.7,1.9,9.7,2.6,14.7c0.8,5.5,1.4,11.2,1.8,17.1
		c0.6,8.9,0.9,17.5,0.9,25.6c0,5.7-0.2,11.3-0.6,16.6c-1,15.8-3.3,30-6.5,42.7c-9.2,36.2-26.5,60.6-44.7,77.1
		c-12.4,11.2-25.3,18.7-36.5,23.7c-11.5,5.1-21.2,7.6-26.8,8.7c-3.3,0.7-5.2,0.9-5.2,0.9s1.9,0.8,5.2,2.3c7.4,3.4,21.9,10.6,39,21.9
		c11.9,7.8,25,17.6,37.9,29.4c10.5,9.6,20.9,20.6,30.3,33c9.7,12.7,18.3,27,24.9,42.7c2,4.8,3.9,9.7,5.5,14.8c2,6.1,3.7,12.5,5,19
		C2336-518.3,2337.1-498.6,2334.7-477.3z"/>
	<path class="st14" d="M1645.2-1099.2c-0.7,0.8-1.3,1.5-1.9,2.2C1643.8-1097.7,1644.5-1098.4,1645.2-1099.2z"/>
	<path class="st14" d="M1656.7-1110.5c-0.9,0.8-1.9,1.6-2.8,2.4C1654.8-1108.9,1655.8-1109.7,1656.7-1110.5z"/>
	<path class="st14" d="M2334.7-477.3c-0.5,4.6-1.1,9.1-1.7,13.5c-2.9,21.3-6.5,40.3-11.1,57.4c-2.7,10.1-5.7,19.5-9,28.4
		c-0.4,1.2-0.9,2.3-1.3,3.5c-1.2,3.2-2.5,6.3-3.9,9.3c-30,68.3-82.6,99.7-168.4,135.8c-17.2,7.3-38.1,13-61.3,17.3h-227.5
		c-83.4-13.9-151.5-43.6-159.2-89.2c0,0-53.6,14.4-133.5,22.3c-2.1,0.2-4.3,0.4-6.5,0.6c-50.6,4.6-111,6.5-174.7,0.5
		c-7.2-0.7-14.5-1.5-21.7-2.3c-1.8-0.2-3.5-0.4-5.3-0.7c-1.8-0.2-3.5-0.5-5.3-0.7c0,0,0,0,0,0c-1-0.1-1.9-0.3-2.9-0.4
		c-0.2,0-0.4-0.1-0.7-0.1v-99.4h28.8v-24.9h36.8l7.2-17.7l2.4-5.8l4.2-10.4l0.8-1.9l0.2-0.4l2.4-5.8l4.1-10l2.2-5.4l13.5-33.1
		l2.4-5.8l4.3-10.4l0.9-2.2l22.2-54.3l3.1-7.7l2.8-6.9l4.3-10.5l173.3-424.6l10.4-25.4l17.4-42.7l8-19.6l12.6-30.8
		c1.5-0.6,3.1-1.2,4.7-1.7c0.8-0.3,1.6-0.6,2.4-0.8c0.8-0.3,1.6-0.6,2.4-0.8c1.7-0.6,3.3-1.1,5-1.6c0.7-0.2,1.5-0.5,2.2-0.7
		c0.2-0.1,0.4-0.1,0.6-0.2c0.7-0.2,1.3-0.4,2-0.6c1.8-0.5,3.7-1,5.6-1.5c0.7-0.2,1.4-0.4,2.1-0.5c0.7-0.2,1.4-0.4,2.1-0.5
		c3-0.7,6-1.4,9.2-2.1c0.7-0.1,1.3-0.3,2-0.4c0.8-0.2,1.5-0.3,2.3-0.5c29-5.7,65.1-8.5,109.9-6.3c23.5,1.1,44.9,3.3,64.4,6.3
		c10,1.5,19.6,3.3,28.6,5.2c9.5,2,18.4,4.2,26.8,6.5c32.5,9,57.3,20.1,75.9,31.1c11.6,6.8,20.9,13.5,28.1,19.6
		c16.4,13.7,22.4,24,22.4,24s41-2.6,86,13.2c13.8,4.9,28,11.4,41.5,20.3c12.7,8.4,24.8,18.9,35.4,32c6.9,8.5,13.1,18.1,18.4,28.9
		c6.2,12.5,11.1,26.7,14.5,42.7c1,4.7,1.9,9.7,2.6,14.7c0.8,5.5,1.4,11.2,1.8,17.1c0.6,8.9,0.9,17.5,0.9,25.6
		c0,5.7-0.2,11.3-0.6,16.6c-1,15.8-3.3,30-6.5,42.7c-9.2,36.2-26.5,60.6-44.7,77.1c-12.4,11.2-25.3,18.7-36.5,23.7
		c-11.5,5.1-21.2,7.6-26.8,8.7c-3.3,0.7-5.2,0.9-5.2,0.9s1.9,0.8,5.2,2.3c7.4,3.4,21.9,10.6,39,21.9c11.9,7.8,25,17.6,37.9,29.4
		c10.5,9.6,20.9,20.6,30.3,33c9.7,12.7,18.3,27,24.9,42.7c2,4.8,3.9,9.7,5.5,14.8c2,6.1,3.7,12.5,5,19
		C2336-518.3,2337.1-498.6,2334.7-477.3z"/>
	<g id="XMLID_2_">
		<g id="XMLID_27_">
			<g id="XMLID_65_">
				<path class="st15" d="M1557.6-1207.4v0.7c-0.3-0.2-0.6-0.5-0.9-0.7H1557.6z"/>
			</g>
			<g id="XMLID_57_">
				<path class="st15" d="M1607.9-1149c-0.2-0.3-0.4-0.6-0.6-0.9h0C1607.5-1149.6,1607.7-1149.3,1607.9-1149z"/>
				<path class="st15" d="M1792.5-1149.9v42.7h-100.2l12.6-30.8c1.5-0.6,3.1-1.2,4.7-1.7c0.8-0.3,1.6-0.6,2.4-0.8
					c0.8-0.3,1.6-0.6,2.4-0.8c1.7-0.5,3.3-1.1,5-1.6c0.7-0.2,1.5-0.5,2.2-0.7c0.2-0.1,0.4-0.1,0.6-0.2c0.7-0.2,1.3-0.4,2-0.6
					c1.8-0.5,3.7-1,5.6-1.5c0.7-0.2,1.4-0.4,2.1-0.5c0.7-0.2,1.4-0.4,2.1-0.5c3-0.7,6-1.4,9.2-2.1c0.7-0.1,1.3-0.3,2-0.4
					c0.8-0.2,1.5-0.3,2.3-0.5H1792.5z"/>
				<path class="st15" d="M1950.6-1144.8v37.6h-131.2v-42.7h102.6C1932-1148.4,1941.5-1146.7,1950.6-1144.8z"/>
				<path class="st15" d="M2053.3-1107.2h-75.9v-31.1C2009.9-1129.3,2034.7-1118.1,2053.3-1107.2z"/>
			</g>
			<g id="XMLID_50_">
				<polygon class="st15" points="1715.7,-1087.6 1715.7,-1044.9 1666.9,-1044.9 1684.4,-1087.6 				"/>
				<rect id="XMLID_54_" x="1742.5" y="-1087.6" class="st15" width="131.2" height="42.7"/>
				<rect id="XMLID_53_" x="1900.5" y="-1087.6" class="st15" width="131.2" height="42.7"/>
				<path class="st15" d="M2189.8-1050.5v5.6h-131.2v-42.7h22.9c16.4,13.7,22.4,24,22.4,24S2144.8-1066.2,2189.8-1050.5z"/>
			</g>
			<g id="XMLID_36_">
				<rect id="XMLID_44_" x="1661.3" y="-1030.1" class="st15" width="131.2" height="42.7"/>
				<rect id="XMLID_42_" x="1819.4" y="-1030.1" class="st15" width="131.2" height="42.7"/>
				<rect id="XMLID_41_" x="1977.4" y="-1030.1" class="st15" width="131.2" height="42.7"/>
				<path class="st15" d="M2266.6-998.2v10.7h-131.2v-42.7h95.8C2244-1021.7,2256.1-1011.2,2266.6-998.2z"/>
			</g>
		</g>
	</g>
	<g id="XMLID_2062_">
		<g id="XMLID_2007_">
			<g id="XMLID_2001_">
				<rect id="XMLID_1995_" x="1441.9" y="-969.2" class="st15" width="115.8" height="42.7"/>
				<rect id="XMLID_2002_" x="1584.4" y="-969.2" class="st15" width="131.2" height="42.7"/>
				<rect id="XMLID_2003_" x="1742.5" y="-969.2" class="st15" width="131.2" height="42.7"/>
				<rect id="XMLID_2004_" x="1900.5" y="-969.2" class="st15" width="131.2" height="42.7"/>
				<rect id="XMLID_2005_" x="2058.5" y="-969.2" class="st15" width="131.2" height="42.7"/>
				<path class="st15" d="M2299.6-926.5h-83v-42.7h68.5C2291.2-956.7,2296.2-942.6,2299.6-926.5z"/>
			</g>
			<g id="XMLID_2008_">
				<rect id="XMLID_2014_" x="1503.3" y="-911.8" class="st15" width="131.2" height="42.7"/>
				<rect id="XMLID_2015_" x="1441.9" y="-911.8" class="st15" width="38.9" height="42.7"/>
				<rect id="XMLID_2013_" x="1661.3" y="-911.8" class="st15" width="131.2" height="42.7"/>
				<rect id="XMLID_2012_" x="1819.4" y="-911.8" class="st15" width="131.2" height="42.7"/>
				<rect id="XMLID_2011_" x="1977.4" y="-911.8" class="st15" width="131.2" height="42.7"/>
				<rect id="XMLID_2010_" x="2135.4" y="-911.8" class="st15" width="131.2" height="42.7"/>
				<path class="st15" d="M2304.9-869h-11.4v-42.7h8.7c0.8,5.5,1.4,11.2,1.8,17.1C2304.6-885.7,2304.9-877.2,2304.9-869z"/>
			</g>
			<g id="XMLID_2016_">
				<rect id="XMLID_2023_" x="1503.3" y="-795" class="st15" width="131.2" height="42.7"/>
				<rect id="XMLID_2022_" x="1441.9" y="-795" class="st15" width="38.9" height="42.7"/>
				<rect id="XMLID_2021_" x="1661.3" y="-795" class="st15" width="131.2" height="42.7"/>
				<rect id="XMLID_2020_" x="1819.4" y="-795" class="st15" width="131.2" height="42.7"/>
				<rect id="XMLID_2019_" x="1977.4" y="-795" class="st15" width="131.2" height="42.7"/>
				<rect id="XMLID_2018_" x="2135.4" y="-795" class="st15" width="131.2" height="42.7"/>
			</g>
			<g id="XMLID_2039_">
				<rect id="XMLID_2045_" x="1441.9" y="-732.6" class="st15" width="115.8" height="42.7"/>
				<rect id="XMLID_2044_" x="1584.4" y="-732.6" class="st15" width="131.2" height="42.7"/>
				<rect id="XMLID_2043_" x="1742.5" y="-732.6" class="st15" width="131.2" height="42.7"/>
				<rect id="XMLID_2042_" x="1900.5" y="-732.6" class="st15" width="131.2" height="42.7"/>
				<rect id="XMLID_2041_" x="2058.5" y="-732.6" class="st15" width="131.2" height="42.7"/>
				<path class="st15" d="M2253.1-732.6c-12.4,11.2-25.3,18.7-36.5,23.7v-23.7H2253.1z"/>
			</g>
			<g id="XMLID_2031_">
				<rect id="XMLID_2038_" x="1503.3" y="-675.2" class="st15" width="131.2" height="42.7"/>
				<rect id="XMLID_2037_" x="1441.9" y="-675.2" class="st15" width="38.9" height="42.7"/>
				<rect id="XMLID_2036_" x="1661.3" y="-675.2" class="st15" width="131.2" height="42.7"/>
				<rect id="XMLID_2035_" x="1819.4" y="-675.2" class="st15" width="131.2" height="42.7"/>
				<rect id="XMLID_2034_" x="1977.4" y="-675.2" class="st15" width="131.2" height="42.7"/>
				<path class="st15" d="M2266.6-645.8v13.4h-131.2v-42.7h93.3C2240.6-667.4,2253.7-657.6,2266.6-645.8z"/>
			</g>
			<g id="XMLID_2054_">
				<rect id="XMLID_2060_" x="1441.9" y="-612.8" class="st15" width="115.8" height="42.7"/>
				<rect id="XMLID_2059_" x="1584.4" y="-612.8" class="st15" width="131.2" height="42.7"/>
				<rect id="XMLID_2058_" x="1742.5" y="-612.8" class="st15" width="131.2" height="42.7"/>
				<rect id="XMLID_2057_" x="1900.5" y="-612.8" class="st15" width="131.2" height="42.7"/>
				<rect id="XMLID_2056_" x="2058.5" y="-612.8" class="st15" width="131.2" height="42.7"/>
				<path class="st15" d="M2321.8-570.1h-105.2v-42.7h80.3C2306.5-600.1,2315.2-585.9,2321.8-570.1z"/>
			</g>
			<g id="XMLID_2046_">
				<rect id="XMLID_2053_" x="1503.3" y="-555.4" class="st15" width="131.2" height="42.7"/>
				<rect id="XMLID_2052_" x="1441.9" y="-555.4" class="st15" width="38.9" height="42.7"/>
				<rect id="XMLID_2051_" x="1661.3" y="-555.4" class="st15" width="131.2" height="42.7"/>
				<rect id="XMLID_2050_" x="1819.4" y="-555.4" class="st15" width="131.2" height="42.7"/>
				<rect id="XMLID_2049_" x="1977.4" y="-555.4" class="st15" width="131.2" height="42.7"/>
				<rect id="XMLID_2048_" x="2135.4" y="-555.4" class="st15" width="131.2" height="42.7"/>
				<path class="st15" d="M2332.3-536.3v23.7h-38.9v-42.7h33.9C2329.3-549.2,2331-542.9,2332.3-536.3z"/>
			</g>
			<g id="XMLID_2024_">
				<rect id="XMLID_2030_" x="1441.9" y="-852.4" class="st15" width="115.8" height="42.7"/>
				<rect id="XMLID_2029_" x="1584.4" y="-852.4" class="st15" width="131.2" height="42.7"/>
				<rect id="XMLID_2028_" x="1742.5" y="-852.4" class="st15" width="131.2" height="42.7"/>
				<rect id="XMLID_2027_" x="1900.5" y="-852.4" class="st15" width="131.2" height="42.7"/>
				<rect id="XMLID_2026_" x="2058.5" y="-852.4" class="st15" width="131.2" height="42.7"/>
				<path class="st15" d="M2304.3-852.4c-1,15.8-3.2,30-6.5,42.7h-81.3v-42.7H2304.3z"/>
			</g>
		</g>
	</g>
	<path class="st16" d="M2333-463.8c-2.9,21.3-6.6,40.3-11.1,57.4c-2.7,10.1-5.7,19.5-9,28.4v3.5h-972.1v-89.3H2333z"/>
	<path class="st13" d="M1704.9-1138l-12.6,30.8l-8,19.6l-17.4,42.7l-10.4,25.4l-173.3,424.6l-4.3,10.5l-2.8,6.9l-3.1,7.7l-22.2,54.3
		l-0.9,2.2l-4.3,10.4l-2.4,5.8l-13.5,33.1l-2.2,5.4l-4.1,10l-2.4,5.8l-0.2,0.4l-0.8,1.9L1416-430l-2.4,5.8l-7.2,17.7l-8.5,20.8
		l-1.7,4.1l-2.4,6l-0.4,1l-1.9,4.7l-0.2,0.4l-0.8,1.9l-1,2.3l-3.3,8.1l-1.1,2.8l-1.2,3l-15.7,38.5l-4.1,10l-2.4,5.8l-0.2,0.4
		l-0.8,1.9l-4.2,10.4l-0.5,1.1l-1.2,2.9c-1.8-0.2-3.5-0.4-5.3-0.7c-1.8-0.2-3.5-0.5-5.3-0.7c0,0,0,0,0,0c-1-0.1-1.9-0.3-2.9-0.4
		c-0.2,0-0.4-0.1-0.7-0.1c-0.3,0-0.5-0.1-0.8-0.1c-1.1-0.2-2.1-0.3-3.2-0.5c-1.1-0.2-2.1-0.3-3.2-0.5c0,0-0.1,0-0.1,0
		c-1.1-0.2-2.1-0.3-3.2-0.5c-1.3-0.2-2.6-0.4-3.9-0.6c-1.1-0.2-2.1-0.4-3.2-0.5c-1.3-0.2-2.7-0.4-4-0.7c-7.3-1.2-14.5-2.6-21.8-4.1
		c-1-0.2-2.1-0.4-3.1-0.6c-1-0.2-2.1-0.4-3.1-0.7c-1.7-0.4-3.4-0.7-5.2-1.1c-1.2-0.3-2.4-0.5-3.6-0.8c-0.7-0.2-1.5-0.3-2.2-0.5
		c-1.1-0.3-2.2-0.5-3.3-0.8c-0.6-0.1-1.2-0.3-1.9-0.4c-0.2,0-0.4-0.1-0.6-0.1c-0.4-0.1-0.9-0.2-1.3-0.3c-0.7-0.2-1.4-0.3-2.1-0.5
		c-0.5-0.1-0.9-0.2-1.4-0.3c-1.4-0.3-2.8-0.7-4.1-1.1c-0.1,0-0.2,0-0.3-0.1c-0.3-0.1-0.5-0.1-0.8-0.2c-1.6-0.4-3.3-0.8-4.9-1.3
		c-0.4-0.1-0.8-0.2-1.2-0.3c-1.2-0.3-2.5-0.7-3.7-1c-2.1-0.6-4.1-1.1-6.1-1.7c-0.1,0-0.2,0-0.2-0.1c-1.5-0.4-3-0.9-4.4-1.3
		c-0.7-0.2-1.3-0.4-2-0.6c-1.5-0.5-3-0.9-4.5-1.4c-1.5-0.5-3-0.9-4.6-1.4c-0.3-0.1-0.5-0.2-0.8-0.3c-1.5-0.5-3.1-1-4.6-1.5
		c-0.1,0-0.2-0.1-0.4-0.1c-1.8-0.6-3.5-1.2-5.3-1.8c-1.7-0.6-3.4-1.2-5.1-1.7c-2.2-0.8-4.4-1.5-6.6-2.3c-1.4-0.5-2.7-1-4.1-1.5
		c-0.2-0.1-0.4-0.2-0.6-0.2c-3.2-1.2-6.4-2.4-9.7-3.7c-0.5-0.2-0.9-0.4-1.4-0.6c-1.5-0.6-3.1-1.2-4.6-1.9c-0.9-0.4-1.8-0.7-2.7-1.1
		c-0.4-0.2-0.9-0.4-1.3-0.6c0,0-0.1,0-0.1-0.1c-0.2-0.1-0.4-0.2-0.6-0.3c0,0,0,0,0,0c-1-0.4-1.9-0.8-2.9-1.2c-1-0.4-2-0.8-2.9-1.2
		c-1.8-0.8-3.5-1.5-5.3-2.3c-1.8-0.8-3.5-1.6-5.3-2.4c-24.5-11.2-48.4-24.4-71.3-40c-19.8-13.4-38.8-28.5-56.9-45.6
		c0,0-11.5,34.7-50.8,56.6c-18.1,10.1-42.2,17.5-73.8,17.5c-100.1,0-226-4.8-268-134.8c-10.1-31.2-15.7-63.9-16.9-96.9
		c-0.1-1.9-0.1-3.7-0.2-5.6c-0.1-4.3-0.1-8.6-0.1-12.9c0-0.5,0-0.9,0-1.4c0.1-7.8,0.5-15.5,1.1-23.3c1-13.6,2.8-27.2,5.4-40.5
		c0.7-3.7,1.4-7.3,2.2-11c0.2-0.9,0.4-1.8,0.6-2.7c0.3-1.5,0.7-3.1,1.1-4.6c0-0.2,0.1-0.3,0.1-0.5c5.6-23.2,13.6-46.2,25.3-66.9
		c0.8-1.4,5-6.5,10.4-12.8c12.1-14.1,30.4-34.1,30.8-32.4C699.2-823.8,691-859,688-894.7c-0.2-2-0.3-4-0.5-5.9
		c-0.1-1.3-0.2-2.6-0.2-3.9c0-0.6-0.1-1.1-0.1-1.7c-0.2-4-0.4-8.1-0.4-12.2c0-0.6,0-1.2,0-1.7c0-4.1,0-8.1,0.1-12.2
		c0-0.6,0-1.1,0.1-1.7c0.2-4.1,0.4-8.1,0.8-12.2c0-0.6,0.1-1.2,0.2-1.7c0.4-4.1,0.9-8.1,1.5-12.2c0.1-0.6,0.2-1.2,0.3-1.7
		c0.7-4.1,1.5-8.2,2.4-12.2c0.1-0.6,0.3-1.2,0.4-1.7c1-4.1,2.1-8.2,3.4-12.2c0.2-0.6,0.4-1.2,0.6-1.7c1.4-4.1,2.9-8.2,4.7-12.2
		c0.3-0.6,0.5-1.2,0.8-1.7c1.9-4.2,3.9-8.2,6.2-12.2c0.3-0.6,0.7-1.1,1-1.7c1.6-2.7,3.3-5.3,5.1-7.9c1-1.4,2.1-2.9,3.1-4.3
		c0.4-0.6,0.9-1.2,1.3-1.7c2.1-2.6,4.2-5.1,6.5-7.6c1.4-1.5,2.9-3.1,4.4-4.5c0.2-0.2,0.5-0.5,0.7-0.7c1.6-1.5,3.2-3,4.9-4.4
		c3.3-2.9,6.8-5.5,10.3-8c44.1-30.5,103.1-29.3,154.6-21.3c0,0,1.2-7.4,5.5-19.3c10.3-28.4,38.2-82.8,109.7-125.2
		c4.5-2.7,9.2-5.3,14.1-7.9c15-7.9,31.7-15.3,50.3-21.9c51-18,116.3-29.9,199.8-29.9c22.5,0,43.6,0.9,63.4,2.5
		c2.2,0.2,4.3,0.4,6.4,0.6c35,3.2,65.6,8.8,92.5,16.1c11.9,3.3,23.1,6.8,33.5,10.7c1.8,0.7,3.6,1.3,5.4,2c7.9,3.1,15.4,6.3,22.5,9.7
		c6.8,3.2,13.3,6.6,19.4,10.1c2,1.1,3.9,2.3,5.9,3.4c1,0.6,2,1.2,3,1.9c3.6,2.2,7,4.4,10.3,6.7c3.5,2.4,6.8,4.8,10.1,7.3
		c0.6,0.5,1.3,1,1.9,1.5c0.6,0.5,1.3,1,1.9,1.5c0.3,0.3,0.7,0.5,1,0.8c0.3,0.2,0.6,0.5,0.9,0.7c1.2,1,2.4,2,3.6,3s2.3,2,3.5,3
		c1.1,1,2.3,2,3.4,3c0.6,0.5,1.1,1,1.6,1.5c0.6,0.5,1.1,1,1.6,1.5c0.5,0.4,0.9,0.9,1.4,1.3c3.1,3,6,6,8.8,9c0.5,0.5,1,1.1,1.5,1.6
		c1.3,1.4,2.6,2.9,3.8,4.3c0.4,0.5,0.8,0.9,1.2,1.4c1.9,2.3,3.8,4.6,5.5,6.8c0.6,0.8,1.2,1.6,1.8,2.3c0.3,0.5,0.7,0.9,1,1.4
		c0.1,0.2,0.3,0.4,0.4,0.5c0.3,0.5,0.7,0.9,1,1.4c0.4,0.6,0.9,1.2,1.3,1.9c0.4,0.6,0.9,1.2,1.3,1.9c1.6,2.3,3,4.5,4.4,6.7
		c0.3,0.5,0.7,1.1,1,1.6c0.4,0.7,0.8,1.3,1.2,1.9c0.2,0.3,0.3,0.5,0.5,0.8c0.2,0.3,0.4,0.6,0.6,0.9c0.4,0.7,0.8,1.3,1.2,2
		c0.5,0.9,1,1.7,1.5,2.6c0.1,0.2,0.2,0.3,0.3,0.5c0.2,0.4,0.5,0.9,0.7,1.3c0.3,0.5,0.5,0.9,0.7,1.4c0.5,1,1,2,1.5,2.9
		c0.2,0.4,0.4,0.7,0.5,1.1c1,2,2,4,2.8,6c0.2,0.5,0.5,1,0.7,1.5c0.4,0.9,0.8,1.7,1.1,2.6c0.3,0.7,0.6,1.3,0.8,2
		c0.1,0.2,0.2,0.4,0.3,0.7c0.3,0.7,0.5,1.3,0.8,2c0.3,0.7,0.5,1.3,0.7,2c0.9,2.4,1.8,4.8,2.5,7.1c0.2,0.5,0.3,1,0.5,1.5l0.2,0.6
		c0.1,0.4,0.3,0.8,0.4,1.2c0,0.1,0.1,0.2,0.1,0.3c0.1,0.2,0.1,0.4,0.2,0.5c0.2,0.6,0.3,1.1,0.5,1.7c0,0.1,0.1,0.2,0.1,0.4
		c0.2,0.6,0.3,1.2,0.5,1.8c0.1,0.4,0.2,0.8,0.3,1.1c0.1,0.5,0.3,0.9,0.4,1.4c0.1,0.4,0.2,0.9,0.3,1.3c0.1,0.3,0.2,0.6,0.2,0.9
		c0.1,0.4,0.2,0.7,0.3,1c0.3,1.1,0.5,2.2,0.8,3.3c0.1,0.4,0.2,0.7,0.2,1.1c0,0.2,0.1,0.4,0.1,0.7c0.1,0.4,0.2,0.9,0.3,1.3
		c0.2,1.1,0.4,2.2,0.6,3.2c0.1,0.3,0.1,0.5,0.1,0.8c0.1,0.6,0.2,1.1,0.3,1.7c0,0.2,0.1,0.4,0.1,0.6c0.1,0.5,0.1,0.9,0.2,1.4
		c0.1,0.9,0.2,1.8,0.3,2.5c0,0.1,0,0.3,0.1,0.4v0.1c0,0.2,0.1,0.4,0.1,0.6c0,0.2,0,0.4,0.1,0.5c0,0.1,0,0.2,0,0.4
		c0,0.3,0.1,0.7,0.1,0.9c0,0.1,0,0.2,0,0.3c0,0.2,0,0.4,0.1,0.6c0,0.1,0,0.1,0,0.2c0.1,0.7,0.1,1.1,0.1,1.1s0.1-0.4,0.5-1.3
		c0.1-0.1,0.1-0.2,0.2-0.4c0.1-0.1,0.1-0.3,0.2-0.4c0.1-0.2,0.2-0.4,0.3-0.6c0.2-0.3,0.3-0.7,0.5-1c0.1-0.2,0.1-0.3,0.2-0.5
		c0.2-0.5,0.5-1,0.8-1.6c0.2-0.4,0.4-0.7,0.6-1.1c0.5-0.9,1.1-1.8,1.7-2.9c0.1-0.2,0.2-0.3,0.3-0.5c0.4-0.7,0.8-1.3,1.3-2
		c0.2-0.3,0.3-0.5,0.5-0.8c0.9-1.2,1.8-2.6,2.9-3.9c0.3-0.3,0.6-0.7,0.8-1c0.3-0.4,0.6-0.7,0.9-1.1c0.6-0.7,1.2-1.5,1.9-2.2
		c0.3-0.3,0.6-0.7,0.9-1c0.2-0.2,0.4-0.5,0.6-0.7c0.4-0.4,0.7-0.8,1.1-1.2c0.2-0.2,0.4-0.4,0.6-0.6c0.4-0.4,0.8-0.8,1.2-1.2l0.6-0.6
		c1-1,2.1-2,3.2-3c0.2-0.2,0.4-0.4,0.7-0.6c0.9-0.8,1.8-1.6,2.7-2.4c0.3-0.2,0.5-0.5,0.8-0.7c0.2-0.2,0.5-0.4,0.7-0.6
		c2-1.7,4.2-3.4,6.5-5c0.6-0.4,1.2-0.8,1.8-1.3c2.7-1.9,5.6-3.8,8.7-5.7c0.4-0.2,0.7-0.4,1-0.6c1.1-0.6,2.2-1.3,3.3-1.9
		c0.5-0.3,1.1-0.6,1.6-0.9c1.9-1,3.9-2.1,6-3.1c0.5-0.2,1-0.5,1.5-0.7c0.6-0.3,1.1-0.5,1.7-0.8c3-1.4,6.1-2.8,9.3-4.1
		c0.6-0.2,1.1-0.5,1.7-0.7C1702.6-1137.1,1703.7-1137.5,1704.9-1138z"/>
	<g>
		<path class="st17" d="M1399.9-351.4l2.4-5.8h-154.2v-10.4v-2.2v-54.3h181.2l2.4-5.8h-183.6v-10.4v-2.2V-497h211l2.4-5.8h-213.4
			v-10.4v-2.2v-54.3H1489l3.2-7.7h-250.5v273.9c0.7,0.2,1.3,0.4,2,0.6c1.5,0.4,3,0.9,4.4,1.3v-49.7H1399.9z"/>
		<path class="st17" d="M1372.6-284.4h-46.1c1.3,0.2,2.6,0.4,3.9,0.6c1.1,0.2,2.1,0.3,3.2,0.5c0,0,0.1,0,0.1,0h38.5L1372.6-284.4z"
			/>
		<polygon class="st17" points="1429.3,-424.2 1429.7,-424.2 1432.1,-430 1431.7,-430 		"/>
		<polygon class="st17" points="1489,-569.8 1489.1,-569.8 1492.3,-577.5 1492.2,-577.5 		"/>
		<polygon class="st17" points="1459.2,-497 1459.4,-497 1461.8,-502.8 1461.6,-502.8 		"/>
		<polygon class="st18" points="1492.3,-577.5 1489.1,-569.8 1544.9,-569.8 1544.9,-515.5 1544.9,-513.2 1544.9,-502.8 
			1461.8,-502.8 1459.4,-497 1544.9,-497 1544.9,-442.7 1544.9,-440.4 1544.9,-430 1432.1,-430 1429.7,-424.2 1544.9,-424.2 
			1544.9,-369.8 1544.9,-367.6 1544.9,-357.2 1402.3,-357.2 1399.9,-351.4 1545,-351.4 1545,-297 1545,-294.8 1545,-284.4 
			1372.6,-284.4 1372.1,-283.3 1551.4,-283.3 1551.4,-577.5 		"/>
		<polygon class="st19" points="1248.1,-367.6 1248.1,-357.2 1402.3,-357.2 1406.6,-367.6 		"/>
		<polygon class="st19" points="1402.3,-357.2 1544.9,-357.2 1544.9,-367.6 1406.6,-367.6 		"/>
		<polygon class="st19" points="1360.3,-375.6 1360.3,-385.7 1413.4,-385.7 1429.3,-424.2 1248.1,-424.2 1248.1,-369.8 
			1360.3,-369.8 		"/>
		<polygon class="st20" points="1413.4,-385.7 1413.9,-385.7 1429.7,-424.2 1429.3,-424.2 		"/>
		<polygon class="st20" points="1432.8,-385.7 1432.8,-375.6 1432.8,-369.8 1544.9,-369.8 1544.9,-424.2 1429.7,-424.2 
			1413.9,-385.7 		"/>
		<polygon class="st21" points="1407.3,-369.5 1360.3,-369.5 1360.3,-369.8 1248.1,-369.8 1248.1,-367.6 1406.6,-367.6 		"/>
		<polygon class="st21" points="1432.8,-369.5 1407.3,-369.5 1406.6,-367.6 1544.9,-367.6 1544.9,-369.8 1432.8,-369.8 		"/>
		<polygon class="st21" points="1360.3,-375.6 1409.8,-375.6 1413.9,-385.7 1413.4,-385.7 1360.3,-385.7 		"/>
		<polygon class="st21" points="1432.8,-375.6 1432.8,-385.7 1413.9,-385.7 1409.8,-375.6 		"/>
		<polygon class="st22" points="1407.5,-369.8 1432.8,-369.8 1432.8,-375.6 1409.8,-375.6 		"/>
		<polygon class="st22" points="1409.8,-375.6 1360.3,-375.6 1360.3,-369.8 1407.5,-369.8 		"/>
		<polygon class="st22" points="1407.3,-369.5 1432.8,-369.5 1432.8,-369.8 1407.5,-369.8 		"/>
		<polygon class="st22" points="1360.3,-369.8 1360.3,-369.5 1407.3,-369.5 1407.5,-369.8 		"/>
		<path class="st19" d="M1376.8-294.8h-102.5c0.2,0.1,0.4,0.1,0.6,0.1c0.6,0.2,1.2,0.3,1.9,0.4c1.1,0.3,2.2,0.5,3.3,0.8
			c0.7,0.2,1.5,0.3,2.2,0.5c1.2,0.3,2.4,0.6,3.6,0.8c1.7,0.4,3.4,0.8,5.2,1.1c1,0.2,2.1,0.4,3.1,0.7c1,0.2,2.1,0.4,3.1,0.6
			c7.3,1.5,14.6,2.9,21.8,4.1c1.3,0.2,2.7,0.5,4,0.7c1.1,0.2,2.2,0.4,3.2,0.5h46.1L1376.8-294.8z"/>
		<polygon class="st19" points="1372.6,-284.4 1545,-284.4 1545,-294.8 1376.8,-294.8 		"/>
		<polygon class="st19" points="1432.8,-312.8 1432.8,-302.8 1432.8,-297 1545,-297 1545,-351.4 1399.9,-351.4 1384.2,-312.8 		"/>
		<path class="st19" d="M1360.3-302.8v-10h24l15.7-38.5h-151.8v49.7c0.1,0,0.2,0,0.2,0.1c2,0.6,4.1,1.1,6.1,1.7
			c1.2,0.3,2.5,0.7,3.7,1c0.4,0.1,0.8,0.2,1.2,0.3c1.6,0.4,3.3,0.9,4.9,1.3c0.3,0.1,0.5,0.1,0.8,0.2c0.1,0,0.2,0,0.3,0.1h94.9
			V-302.8z"/>
		<path class="st21" d="M1377.6-296.6h-17.3v-0.4h-94.9c1.4,0.4,2.8,0.7,4.1,1.1c0.5,0.1,0.9,0.2,1.4,0.3c0.7,0.2,1.4,0.4,2.1,0.5
			c0.4,0.1,0.9,0.2,1.3,0.3h102.5L1377.6-296.6z"/>
		<polygon class="st21" points="1432.8,-296.6 1377.6,-296.6 1376.8,-294.8 1545,-294.8 1545,-297 1432.8,-297 		"/>
		<polygon class="st21" points="1432.8,-302.8 1432.8,-312.8 1384.2,-312.8 1380.1,-302.8 		"/>
		<polygon class="st21" points="1384.2,-312.8 1360.3,-312.8 1360.3,-302.8 1380.1,-302.8 		"/>
		<polygon class="st22" points="1377.8,-297 1432.8,-297 1432.8,-302.8 1380.1,-302.8 		"/>
		<polygon class="st22" points="1380.1,-302.8 1360.3,-302.8 1360.3,-297 1377.8,-297 		"/>
		<polygon class="st22" points="1360.3,-297 1360.3,-296.6 1377.6,-296.6 1377.8,-297 		"/>
		<polygon class="st22" points="1432.8,-297 1377.8,-297 1377.6,-296.6 1432.8,-296.6 		"/>
		<polygon class="st19" points="1360.3,-448.4 1360.3,-458.5 1432.8,-458.5 1432.8,-448.4 1432.8,-442.7 1436.9,-442.7 1459.2,-497 
			1248.1,-497 1248.1,-442.7 1360.3,-442.7 		"/>
		<polygon class="st20" points="1436.9,-442.7 1437.2,-442.7 1459.4,-497 1459.2,-497 		"/>
		<polygon class="st23" points="1544.9,-442.7 1544.9,-497 1459.4,-497 1437.2,-442.7 		"/>
		<polygon class="st19" points="1248.1,-440.4 1248.1,-430 1431.7,-430 1436,-440.4 		"/>
		<polygon class="st20" points="1432.1,-430 1544.9,-430 1544.9,-440.4 1436.3,-440.4 		"/>
		<polygon class="st23" points="1436,-440.4 1431.7,-430 1432.1,-430 1436.3,-440.4 		"/>
		<polygon class="st21" points="1436.9,-442.7 1432.8,-442.7 1432.8,-442.3 1360.3,-442.3 1360.3,-442.7 1248.1,-442.7 
			1248.1,-440.4 1436,-440.4 		"/>
		<polygon class="st21" points="1436.3,-440.4 1437.2,-442.7 1436.9,-442.7 1436,-440.4 		"/>
		<polygon class="st18" points="1436.3,-440.4 1544.9,-440.4 1544.9,-442.7 1437.2,-442.7 		"/>
		<rect x="1360.3" y="-458.5" class="st21" width="72.6" height="10"/>
		<rect x="1360.3" y="-448.4" class="st22" width="72.6" height="5.8"/>
		<rect x="1360.3" y="-442.7" class="st22" width="72.6" height="0.4"/>
		<polygon class="st19" points="1248.1,-513.2 1248.1,-502.8 1461.6,-502.8 1465.8,-513.2 		"/>
		<polygon class="st20" points="1466.7,-515.5 1467,-515.5 1489.1,-569.8 1489,-569.8 		"/>
		<polygon class="st23" points="1544.9,-515.5 1544.9,-569.8 1489.1,-569.8 1467,-515.5 		"/>
		<polygon class="st19" points="1360.3,-521.2 1360.3,-531.3 1432.8,-531.3 1432.8,-521.2 1432.8,-515.5 1466.7,-515.5 1489,-569.8 
			1248.1,-569.8 1248.1,-515.5 1360.3,-515.5 		"/>
		<polygon class="st20" points="1461.8,-502.8 1544.9,-502.8 1544.9,-513.2 1466,-513.2 		"/>
		<polygon class="st23" points="1465.8,-513.2 1461.6,-502.8 1461.8,-502.8 1466,-513.2 		"/>
		<polygon class="st21" points="1466,-513.2 1467,-515.5 1466.7,-515.5 1465.8,-513.2 		"/>
		<polygon class="st18" points="1466,-513.2 1544.9,-513.2 1544.9,-515.5 1467,-515.5 		"/>
		<polygon class="st21" points="1466.7,-515.5 1432.8,-515.5 1432.8,-515.1 1360.3,-515.1 1360.3,-515.5 1248.1,-515.5 
			1248.1,-513.2 1465.8,-513.2 		"/>
		<rect x="1360.3" y="-531.3" class="st21" width="72.6" height="10"/>
		<rect x="1360.3" y="-521.2" class="st22" width="72.6" height="5.8"/>
		<rect x="1360.3" y="-515.5" class="st22" width="72.6" height="0.4"/>
		<path class="st24" d="M1557.9-279.1v-4.2h-6.5v4.8C1553.6-278.6,1555.7-278.9,1557.9-279.1z"/>
		<path class="st24" d="M1333.6-283.3c1.1,0.2,2.1,0.3,3.2,0.5c1.1,0.2,2.1,0.3,3.2,0.5c0.3,0,0.5,0.1,0.8,0.1
			c0.2,0,0.4,0.1,0.7,0.1c1,0.1,1.9,0.3,2.9,0.4c1.8,0.2,3.5,0.5,5.3,0.7c1.8,0.2,3.5,0.4,5.3,0.7c5.1,0.6,10.2,1.2,15.3,1.7
			l1.9-4.6H1333.6z"/>
		<path class="st24" d="M1370.2-278.6c66,6.8,128.9,5,181.1,0.2v-4.8h-179.3L1370.2-278.6z"/>
		<path class="st20" d="M1495.1-584.4l2.2-5.4L1495.1-584.4h53.1c1.8,0,3.2,1.2,3.2,2.8v4.1h8.3v-17.4h-60.4l-4.3,10.5H1495.1z"/>
		<path class="st24" d="M1244.9-584.4H1495l4.3-10.5h-269v17.4h11.4v-4.1C1241.7-583.1,1243.1-584.4,1244.9-584.4z"/>
		<path class="st24" d="M1495-584.4h-250.1c-1.8,0-3.2,1.2-3.2,2.8v4.1h250.5L1495-584.4z"/>
		<polygon class="st24" points="1495,-584.4 1492.2,-577.5 1492.3,-577.5 1495.1,-584.4 		"/>
		<path class="st23" d="M1548.2-584.4h-53.1l-2.8,6.9h59.1v-4.1C1551.4-583.1,1549.9-584.4,1548.2-584.4z"/>
	</g>
	<g>
		<rect x="1344.5" y="-694.7" class="st25" width="119.8" height="35"/>
		<rect x="1351.7" y="-700" class="st26" width="105.7" height="21.4"/>
		<g>
			<path class="st25" d="M1494.3-598.4c0,2.7-2.2,5-5,5h-169.1c-2.7,0-5-2.2-5-5v-77c0-2.7,2.2-5,5-5h169.1c2.7,0,5,2.2,5,5V-598.4z
				"/>
			<path class="st27" d="M1457.7-636.9h-105.8c-2.7,0-5,2.2-5,5v38.5h115.7v-38.5C1462.6-634.7,1460.4-636.9,1457.7-636.9z"/>
			<path class="st25" d="M1445.1-611.4h-80.6c-2.1,0-3.8,1.7-3.8,3.8v12.8h88.2v-12.8C1448.9-609.7,1447.2-611.4,1445.1-611.4z"/>
			<rect x="1363.2" y="-614.8" class="st27" width="81.9" height="23"/>
			<rect x="1363.2" y="-614.8" class="st28" width="81.9" height="17.3"/>
			<rect x="1379.1" y="-678.6" class="st26" width="49.7" height="15.4"/>
			<rect x="1385.3" y="-676.7" class="st25" width="37.2" height="4.8"/>
			<rect x="1324.9" y="-676.7" class="st29" width="14.7" height="1.4"/>
		</g>
		<rect x="1368.7" y="-738.6" class="st30" width="73.8" height="58.3"/>
		<rect x="1368.7" y="-689.3" class="st31" width="73.8" height="9"/>
	</g>
	<path class="st13" d="M1704.9-1138l-20.6,50.4h-47.9c0.1-0.2,0.2-0.3,0.3-0.5c0.4-0.7,0.8-1.3,1.3-2c0.2-0.3,0.3-0.5,0.5-0.8
		c0.9-1.2,1.8-2.6,2.9-3.9c0.3-0.3,0.6-0.7,0.8-1c0.3-0.4,0.6-0.7,0.9-1.1c0.6-0.7,1.2-1.5,1.9-2.2c0.3-0.3,0.6-0.7,0.9-1
		c0.2-0.2,0.4-0.5,0.6-0.7c0.4-0.4,0.7-0.8,1.1-1.2c0.2-0.2,0.4-0.4,0.6-0.6c0.4-0.4,0.8-0.8,1.2-1.2l0.6-0.6c1-1,2.1-2,3.2-3
		c0.2-0.2,0.4-0.4,0.7-0.6c0.9-0.8,1.8-1.6,2.7-2.4c0.3-0.2,0.5-0.5,0.8-0.7c0.2-0.2,0.5-0.4,0.7-0.6c2-1.7,4.2-3.4,6.5-5
		c0.6-0.4,1.2-0.8,1.8-1.3c2.7-1.9,5.6-3.8,8.7-5.7c0.4-0.2,0.7-0.4,1-0.6c1.1-0.6,2.2-1.3,3.3-1.9c0.5-0.3,1.1-0.6,1.6-0.9
		c1.9-1,3.9-2.1,6-3.1c0.5-0.2,1-0.5,1.5-0.7c0.6-0.3,1.1-0.5,1.7-0.8c3-1.4,6.1-2.8,9.3-4.1c0.6-0.2,1.1-0.5,1.7-0.7
		C1702.6-1137.1,1703.7-1137.5,1704.9-1138z"/>
	<g>
		<path class="st32" d="M1026.2-1048.7v454.6H630.4c0.1-7.8,0.5-15.5,1.1-23.3c1-13.6,2.8-27.2,5.4-40.5c0.7-3.7,1.4-7.3,2.2-11
			c0.2-0.9,0.4-1.8,0.6-2.7c0.3-1.5,0.7-3.1,1.1-4.6c0-0.2,0.1-0.3,0.1-0.5c5.6-23.2,13.6-46.2,25.3-66.9c0.8-1.4,5-6.5,10.4-12.8
			c12.1-14.1,30.4-34.1,30.8-32.4C699.2-823.8,691-859,688-894.7c-0.2-2-0.3-4-0.5-5.9c-0.1-1.3-0.2-2.6-0.2-3.9
			c0-0.6-0.1-1.1-0.1-1.7c-0.2-4-0.4-8.1-0.4-12.2c0-0.6,0-1.2,0-1.7c0-4.1,0-8.1,0.1-12.2c0-0.6,0-1.1,0.1-1.7
			c0.2-4.1,0.4-8.1,0.8-12.2c0-0.6,0.1-1.2,0.2-1.7c0.4-4.1,0.9-8.1,1.5-12.2c0.1-0.6,0.2-1.2,0.3-1.7c0.7-4.1,1.5-8.2,2.4-12.2
			c0.1-0.6,0.3-1.2,0.4-1.7c1-4.1,2.1-8.2,3.4-12.2c0.2-0.6,0.4-1.2,0.6-1.7c1.4-4.1,2.9-8.2,4.7-12.2c0.3-0.6,0.5-1.2,0.8-1.7
			c1.9-4.2,3.9-8.2,6.2-12.2c0.3-0.6,0.7-1.1,1-1.7c1.6-2.7,3.3-5.3,5.1-7.9c1-1.4,2.1-2.9,3.1-4.3c0.4-0.6,0.9-1.2,1.3-1.7
			c2.1-2.6,4.2-5.1,6.5-7.6c1.4-1.5,2.9-3.1,4.4-4.5c0.2-0.2,0.5-0.5,0.7-0.7c1.6-1.5,3.2-3,4.9-4.4H1026.2z"/>
		<path class="st33" d="M1003.6-1025.4v408H631.5c1-13.6,2.8-27.2,5.4-40.5c0.7-3.7,1.4-7.3,2.2-11c0.2-0.9,0.4-1.8,0.6-2.7
			c0.3-1.5,0.7-3.1,1.1-4.6c0-0.2,0.1-0.3,0.1-0.5c5.6-23.2,13.6-46.2,25.3-66.9c0.8-1.4,5-6.5,10.4-12.8
			c12.1-14.1,30.4-34.1,30.8-32.4C699.2-823.8,691-859,688-894.7c-0.2-2-0.3-4-0.5-5.9c-0.1-1.3-0.2-2.6-0.2-3.9
			c0-0.6-0.1-1.1-0.1-1.7c-0.2-4-0.4-8.1-0.4-12.2c0-0.6,0-1.2,0-1.7c0-4.1,0-8.1,0.1-12.2c0-0.6,0-1.1,0.1-1.7
			c0.2-4.1,0.4-8.1,0.8-12.2c0-0.6,0.1-1.2,0.2-1.7c0.4-4.1,0.9-8.1,1.5-12.2c0.1-0.6,0.2-1.2,0.3-1.7c0.7-4.1,1.5-8.2,2.4-12.2
			c0.1-0.6,0.3-1.2,0.4-1.7c1-4.1,2.1-8.2,3.4-12.2c0.2-0.6,0.4-1.2,0.6-1.7c1.4-4.1,2.9-8.2,4.7-12.2c0.3-0.6,0.5-1.2,0.8-1.7
			c1.9-4.2,3.9-8.2,6.2-12.2c0.3-0.6,0.7-1.1,1-1.7c1.6-2.7,3.3-5.3,5.1-7.9H1003.6z"/>
		<g>
			<g>
				<polygon class="st34" points="890.6,-616.2 853.6,-616.2 864.2,-865.2 880.1,-865.8 				"/>
				<path class="st34" d="M735-839.4v222.6h105.7v-222.6H735z M826.6-807.1v11.7h-11.7v-11.7H826.6z M759.7-820v11.7h-11.8V-820
					H759.7z M757-729.2v11.7h-11.7v-11.7H757z M778.5-656.1v11.8h-11.8v-11.8H778.5z M815.5-698.4h-11.8v-11.7h11.8V-698.4z
					 M791.4-767.7v11.8h-11.8v-11.8H791.4z"/>
				<rect x="862.5" y="-872.3" class="st34" width="24.1" height="8.2"/>
				<path class="st34" d="M975-737.2l-32.4-55.2l-6.9-11.8l-14.1,26.8v0l-21.1,40.2h-10.4v22.3H903v97.5h71.6v-97.5h7v-22.3H975z
					 M913-650.3v-4.1h48.8v4.1H913z M961.7-628.5v4.1H913v-4.1H961.7z M913-676.1v-4.1h48.8v4.1H913z M961.7-706v4.1H913v-4.1H961.7
					z"/>
				<rect x="728" y="-849.9" class="st34" width="119.8" height="16.4"/>
			</g>
			<g>
				<path class="st35" d="M725.3-697c1-2.3,1.5-4.9,1.5-7.6c0-8.3-5.2-15.5-12.5-18.3c-1.8-0.7-3.6-1.1-5.6-1.3
					c1.8-2.6,2.9-5.8,2.9-9.2c0-8.6-6.7-15.6-15.2-16.1c-3.1-2.9-7.2-4.7-11.8-4.7c-2.5,0-4.8,0.5-6.9,1.5c-0.2-1.3-0.6-2.5-1-3.8
					c-5.4,6.3-9.6,11.4-10.4,12.8c-11.8,20.8-19.7,43.8-25.3,66.9c0,0.2-0.1,0.3-0.1,0.5c-0.4,1.5-0.7,3.1-1.1,4.6
					c-0.2,0.9-0.4,1.8-0.6,2.7c-0.8,3.6-1.5,7.3-2.2,11c0.4,0,0.7,0,1.1-0.1c4.7,6.3,12.1,10.5,20.6,10.7c0.2,0,0.3,0,0.5,0
					c3.9,0,7.6-0.8,10.9-2.4c3.6-1.6,6.8-4.1,9.3-7.1c0.6,0.1,1.2,0.1,1.9,0.1c8,0,14.8-5.2,17.2-12.3c2.8,1.5,6.1,2.4,9.5,2.4
					c11.2,0,20.3-9.1,20.3-20.3C728-690.6,727-694.1,725.3-697z M689.3-695.5c-0.6,1.2-1,2.5-1.3,3.8c-0.2-0.1-0.5-0.2-0.7-0.3
					c0.7-1,1.2-2.1,1.8-3.3c0.1-0.2,0.2-0.5,0.3-0.7c0,0.1,0.1,0.1,0.1,0.2C689.4-695.7,689.4-695.6,689.3-695.5z M691.1-717.8
					c0.4,0.1,0.8,0.2,1.2,0.3c-0.4,0.4-0.7,0.8-1,1.2c-0.1-0.5-0.2-0.9-0.3-1.4C691-717.7,691.1-717.7,691.1-717.8z"/>
				<path class="st36" d="M700-695.3l-30.2,25.5v52.4h-11.2v-29.7l-0.2-0.3l-18.8-24.3c0.3-1.5,0.7-3.1,1.1-4.6
					c0-0.2,0.1-0.3,0.1-0.5l2.3-1.8l0.4,0.5l15,19.4v-38.7h11.2v18.2l19.3-16.3l0.3-0.2l6.1-5.1L700-695.3z"/>
			</g>
		</g>
		<g class="st37">
			<path class="st38" d="M1003.6-1025.4v118.7l-0.7,0.4l-2.7,1.7l-118.6,75.3l-19.5,12.4l-21.4,13.6l-55.9,35.5l-5.2,3.3L735-736.1
				l-20.8,13.2l-44.4,28.2l-11.2,7.1l-15,9.6l-2.8,1.8c0-0.2,0.1-0.3,0.1-0.5c5.6-23.2,13.6-46.2,25.3-66.9c0.8-1.4,5-6.5,10.4-12.8
				c12.1-14.1,30.4-34.1,30.8-32.4C699.2-823.8,691-859,688-894.7l15.2-9.8l2.7-1.7l18.8-12.2l2.7-1.7l18.9-12.2l2.7-1.7l18.9-12.2
				l2.7-1.7l18.9-12.2l2.7-1.7l18.9-12.2l2.7-1.7l18.9-12.2l2.7-1.7l18.9-12.2l2.7-1.7l18.9-12.2l2.7-1.7l12.2-7.9H1003.6z"/>
			<polygon class="st38" points="1003.6,-749.3 1003.6,-836 697.8,-617.4 806.4,-617.4 			"/>
		</g>
		<path class="st39" d="M1046.1-589.2v5.9c0,2-1.6,3.5-3.5,3.5H630.5c-0.1-4.3-0.1-8.6-0.1-12.9h412.2
			C1044.6-592.7,1046.1-591.1,1046.1-589.2z"/>
		<path class="st40" d="M1041.4-1056.7v17.6H725.3c1.4-1.5,2.9-3.1,4.4-4.5c0.2-0.2,0.5-0.5,0.7-0.7c1.6-1.5,3.2-3,4.9-4.4
			c3.3-2.9,6.8-5.5,10.3-8H1041.4z"/>
		<g>
			<g>
				<path class="st41" d="M1017-1031.4H718.8c2.1-2.6,4.2-5.1,6.5-7.6c1.4-1.5,2.9-3.1,4.4-4.5h281.1l2.3,4.5L1017-1031.4z"/>
				<path class="st42" d="M1017-1031.4l-6.2,1.7H717.4c0.4-0.6,0.9-1.2,1.3-1.7H1017z"/>
			</g>
			<g>
				<path class="st41" d="M1017-1017.5H709.2c1.6-2.7,3.3-5.3,5.1-7.9c1-1.4,2.1-2.9,3.1-4.3h293.4L1017-1017.5z"/>
				<path class="st42" d="M1017-1017.5l-6.2,1.7H708.2c0.3-0.6,0.7-1.1,1-1.7H1017z"/>
			</g>
			<g>
				<path class="st41" d="M1017-1003.6H702c1.9-4.2,3.9-8.2,6.2-12.2h302.7L1017-1003.6z"/>
				<path class="st42" d="M1017-1003.6l-6.2,1.7H701.2c0.3-0.6,0.5-1.2,0.8-1.7H1017z"/>
			</g>
			<g>
				<path class="st41" d="M1017-989.7H696.5c1.4-4.1,2.9-8.2,4.7-12.2h309.7L1017-989.7z"/>
				<path class="st42" d="M1017-989.7l-6.2,1.7H696c0.2-0.6,0.4-1.2,0.6-1.7H1017z"/>
			</g>
			<g>
				<path class="st41" d="M1017-975.8H692.6c1-4.1,2.1-8.2,3.4-12.2h314.9L1017-975.8z"/>
				<path class="st42" d="M1017-975.8l-6.2,1.7H692.1c0.1-0.6,0.3-1.2,0.4-1.7H1017z"/>
			</g>
			<g>
				<path class="st41" d="M1017-961.9H689.8c0.7-4.1,1.5-8.2,2.4-12.2h318.7L1017-961.9z"/>
				<path class="st42" d="M1017-961.9l-6.2,1.7H689.5c0.1-0.6,0.2-1.2,0.3-1.7H1017z"/>
			</g>
			<g>
				<path class="st41" d="M1015.7-948H688c0.4-4.1,0.9-8.1,1.5-12.2h320.1L1015.7-948z"/>
				<path class="st42" d="M1015.7-948l-6.2,1.7H687.8c0-0.6,0.1-1.2,0.2-1.7H1015.7z"/>
			</g>
			<g>
				<path class="st41" d="M1015.7-934.1H687c0.2-4.1,0.4-8.1,0.8-12.2h321.8L1015.7-934.1z"/>
				<path class="st42" d="M1015.7-934.1l-6.2,1.7H686.9c0-0.6,0-1.1,0.1-1.7H1015.7z"/>
			</g>
			<g>
				<path class="st41" d="M1015.7-920.2H686.8c0-4.1,0-8.1,0.1-12.2h322.6L1015.7-920.2z"/>
				<path class="st42" d="M1015.7-920.2l-6.2,1.7H686.8c0-0.6,0-1.2,0-1.7H1015.7z"/>
			</g>
			<g>
				<path class="st41" d="M1015.7-906.3H687.2c-0.2-4-0.4-8.1-0.4-12.2h322.7L1015.7-906.3z"/>
				<path class="st42" d="M1015.7-906.3l-6.2,1.7H687.3c0-0.6-0.1-1.1-0.1-1.7H1015.7z"/>
			</g>
			<g>
				<rect x="942.7" y="-1044.7" class="st43" width="5.3" height="159.4"/>
			</g>
		</g>
		<path class="st44" d="M1047.5-579.8v43.3l-416.9-37.8c-0.1-1.9-0.1-3.7-0.2-5.6H1047.5z"/>
	</g>
	<g>
		<path class="st45" d="M1922.8-387.8h-263.4l-7.8-158.9c0-23.8,19.3-43.1,43.1-43.1h192.7c23.8,0,43.1,19.3,43.1,43.1L1922.8-387.8
			z"/>
		<polygon class="st46" points="1918.5,-394.7 1870.8,-618.3 1870.8,-620.1 1710.7,-620.1 1710.7,-618.3 1663,-394.7 1697.2,-387.4 
			1710.7,-450.7 1710.7,-390.1 1870.8,-390.1 1870.8,-450.7 1884.3,-387.4 		"/>
		<path class="st46" d="M1870.8-618.3v-1.8h-133.6c1,17.4,30.8,37.2,70.3,46c29.6,6.6,56.9,5.1,72.2-2.5L1870.8-618.3z"/>
		<path class="st0" d="M1791.3-592.1h-1.2c-11.5,0-20.8-9.3-20.8-20.8v-47c0-11.5,9.3-20.8,20.8-20.8h1.2c11.5,0,20.8,9.3,20.8,20.8
			v47C1812.1-601.5,1802.8-592.1,1791.3-592.1z"/>
		<path class="st5" d="M1769.4-650.5v9.3l38.8,40.4c2.5-3.4,4-7.6,4-12.2v-42.6C1795.1-655.2,1778.5-652.4,1769.4-650.5z"/>
		<path class="st10" d="M1651.7-735.1"/>
		<circle class="st0" cx="1870.4" cy="-750.7" r="19.4"/>
		<path class="st0" d="M1889.8-750.7c0,10.7-8.7,19.4-19.4,19.4c-3,0-5.8-0.7-8.3-1.8v23.8c0,39.6-32.4,72.1-72.1,72.1h0
			c-39.6,0-72.1-32.4-72.1-72.1v-23.5c-2.4,1-4.9,1.6-7.7,1.6c-10.7,0-19.4-8.7-19.4-19.4c0-10.7,8.7-19.4,19.4-19.4
			c2.7,0,5.3,0.6,7.7,1.6v-31c0-13.3,10.9-24.2,24.2-24.2h95.8c13.3,0,24.2,10.9,24.2,24.2v31.3c2.5-1.2,5.3-1.8,8.3-1.8
			C1881.1-770.1,1889.8-761.4,1889.8-750.7z"/>
		<g>
			<path class="st6" d="M1870-823.7v53.6c-5,0-9.5,1.4-13.2,3.9c-1.1,0.7-2.2,1.6-3.1,2.5v-60H1870z"/>
		</g>
		<path class="st5" d="M1870.4-770.1c-3,0-5.8,0.7-8.3,1.8v-31.3c0-9.9-6.1-18.5-14.7-22.2l-58.8,5.8v178.7c0.1,0,0.1,0,0.2,0
			l13.5-1c33.9-5.9,59.8-35.6,59.8-71v-23.8c2.5,1.2,5.3,1.8,8.3,1.8c10.7,0,19.4-8.7,19.4-19.4
			C1889.8-761.4,1881.1-770.1,1870.4-770.1z"/>
		<g>
			<path class="st6" d="M1773.3-780.2h-33.4c-1.9,0-3.5-1.6-3.5-3.5l0,0c0-1.9,1.6-3.5,3.5-3.5h33.4c1.9,0,3.5,1.6,3.5,3.5l0,0
				C1776.8-781.8,1775.2-780.2,1773.3-780.2z"/>
		</g>
		<g>
			<path class="st6" d="M1839.3-780.2h-33.4c-1.9,0-3.5-1.6-3.5-3.5l0,0c0-1.9,1.6-3.5,3.5-3.5h33.4c1.9,0,3.5,1.6,3.5,3.5l0,0
				C1842.8-781.8,1841.2-780.2,1839.3-780.2z"/>
		</g>
		<g>
			<rect x="1710.7" y="-829.9" class="st6" width="15.5" height="67.6"/>
		</g>
		<path d="M1858.3-767v0.8c-1,0.7-1.9,1.6-2.7,2.5v1.4h-8.2v-4.7H1858.3z"/>
		<circle class="st7" cx="1756.6" cy="-757.7" r="24.9"/>
		<path class="st8" d="M1747.3-738.2h-11.7l27.8-43.5h6.7c2.1,0,3.4,2.4,2.3,4.2L1747.3-738.2z"/>
		<path class="st8" d="M1764.9-745.1h-7.6l18.1-28.2h3.2c1.9,0,3,2.1,2,3.7L1764.9-745.1z"/>
		<circle class="st7" cx="1822.6" cy="-757.7" r="24.9"/>
		<path class="st8" d="M1813.3-738.2h-11.7l27.8-43.5h6.7c2.1,0,3.4,2.4,2.3,4.2L1813.3-738.2z"/>
		<rect x="1720.8" y="-767" width="10.9" height="4.7"/>
		<path class="st8" d="M1830.9-745.1h-7.6l18.1-28.2h3.2c1.9,0,3,2.1,2,3.7L1830.9-745.1z"/>
		<g>
			<path class="st6" d="M1859.6-815.9H1731c-14.7,0-26.5-11.9-26.5-26.5v-5.2c0-14.7,11.9-26.5,26.5-26.5h153v33.8
				C1884-826.9,1873.1-815.9,1859.6-815.9z"/>
		</g>
		<path class="st47" d="M1872.3-846.3c0,13.8-10.4,19.5-24.2,19.5"/>
		<path class="st10" d="M1761.7-695.7v3l0.3,0.3l0.1-6.2C1761.8-697.7,1761.7-696.7,1761.7-695.7z"/>
		<path class="st11" d="M1853.7-725.1l-35.3,32.3v-2.9c0-1-0.1-2-0.4-2.9c-1.3-4.5-5.4-7.8-10.3-7.8h-35.3c-4.9,0-9,3.3-10.3,7.8
			l-0.1,6.2l-0.3-0.3l-35.4-32.5l-8.2-7.5l-0.1-0.1v23.5c0,1.4,0,2.8,0.1,4.1c0,0.7,0.1,1.4,0.1,2.1c0.1,0.7,0.1,1.4,0.2,2
			c0.2,1.4,0.3,2.7,0.6,4c0.1,0.7,0.2,1.3,0.4,2c0.1,0.3,0.1,0.7,0.2,1c0.1,0.3,0.1,0.7,0.2,1c0.1,0.5,0.2,1,0.3,1.5
			c0.1,0.3,0.2,0.7,0.3,1c0,0.1,0,0.2,0.1,0.3c0.1,0.3,0.2,0.6,0.3,0.9c0.1,0.5,0.3,1,0.5,1.5c0.7,2.3,1.5,4.5,2.4,6.6
			c0.2,0.5,0.5,1.1,0.7,1.6c0.5,1.1,1,2.1,1.5,3.1c0.3,0.5,0.5,1,0.8,1.5c0.6,1,1.1,2,1.7,3c0.6,1,1.2,2,1.9,2.9
			c0.7,1,1.3,1.9,2,2.8c0.4,0.5,0.8,1,1.2,1.5c0.3,0.3,0.5,0.7,0.8,1c0.4,0.5,0.9,1.1,1.4,1.6c0.4,0.4,0.7,0.8,1.1,1.2
			c0.3,0.3,0.6,0.7,0.9,1c0.1,0.1,0.3,0.3,0.4,0.4c0.4,0.4,0.7,0.7,1.1,1.1c0.4,0.4,0.8,0.8,1.2,1.1c0.1,0.1,0.1,0.1,0.2,0.2
			c0.4,0.3,0.8,0.7,1.1,1c0.4,0.3,0.7,0.6,1.1,1c0.3,0.2,0.5,0.5,0.8,0.7c0.2,0.2,0.5,0.4,0.7,0.6c0.2,0.1,0.3,0.3,0.5,0.4
			c0.3,0.3,0.6,0.5,1,0.8c0.4,0.3,0.7,0.6,1.1,0.8c0.1,0.1,0.2,0.2,0.3,0.3c0.4,0.3,0.8,0.6,1.2,0.9c0.5,0.3,0.9,0.7,1.4,1
			c0,0,0,0,0,0c0.5,0.3,0.9,0.6,1.4,0.9c0.4,0.3,0.9,0.6,1.4,0.9c0.1,0.1,0.2,0.1,0.3,0.2c0.5,0.3,0.9,0.5,1.4,0.8
			c0.5,0.3,1,0.6,1.5,0.9c0.5,0.3,1,0.6,1.5,0.8c0.5,0.3,1,0.5,1.6,0.8c0.5,0.3,1,0.5,1.6,0.7c0.4,0.2,0.9,0.4,1.3,0.6
			c0.3,0.1,0.6,0.2,0.9,0.4c0.4,0.2,0.8,0.3,1.2,0.5c0.9,0.3,1.8,0.7,2.7,1c0.5,0.2,0.9,0.3,1.4,0.5c0.5,0.1,0.9,0.3,1.4,0.4
			c0,0,0,0,0.1,0c0,0,0.1,0,0.1,0c0.3,0.1,0.5,0.2,0.8,0.2c0.1,0,0.1,0,0.2,0.1c0.4,0.1,0.7,0.2,1.1,0.3c0.4,0.1,0.7,0.2,1.1,0.3
			c0.7,0.2,1.5,0.4,2.2,0.5c0.3,0.1,0.7,0.1,1,0.2c0.1,0,0.1,0,0.2,0c0.3,0.1,0.7,0.1,1,0.2c0.1,0,0.2,0,0.3,0.1
			c0.5,0.1,1,0.2,1.5,0.3c0.1,0,0.1,0,0.2,0c0.6,0.1,1.1,0.2,1.7,0.2c0.6,0.1,1.2,0.1,1.8,0.2c0.5,0,0.9,0.1,1.4,0.1c0,0,0,0,0.1,0
			c0.3,0,0.7,0,1,0.1h0c0.4,0,0.7,0.1,1.1,0.1c0.2,0,0.5,0,0.7,0c0.3,0,0.5,0,0.8,0h0.1c0.3,0,0.5,0,0.8,0c0.1,0,0.1,0,0.2,0
			c0.4,0,0.8,0,1.2,0h0c0.6,0,1.2,0,1.7,0c0.1,0,0.1,0,0.2,0c0.4,0,0.8,0,1.1,0c0,0,0.1,0,0.1,0c0.2,0,0.5,0,0.7,0
			c0.1,0,0.1,0,0.2,0c0.4,0,0.8,0,1.1-0.1c0.2,0,0.4,0,0.5,0c0.4,0,0.8-0.1,1.2-0.1c0.1,0,0.3,0,0.4,0c0.4,0,0.8-0.1,1.2-0.1
			c0.2,0,0.5-0.1,0.7-0.1c0.4,0,0.7-0.1,1.1-0.2c0.1,0,0.2,0,0.3,0c0.5-0.1,1-0.2,1.5-0.2c0,0,0,0,0,0h0c0,0,0,0,0,0
			c0,0,0.1,0,0.1,0c0.2,0,0.5-0.1,0.7-0.1c0.2,0,0.3-0.1,0.5-0.1c0.1,0,0.2,0,0.3-0.1c0.5-0.1,1-0.2,1.6-0.3
			c0.5-0.1,0.9-0.2,1.4-0.3c0.1,0,0.2,0,0.3-0.1c0,0,0,0,0.1,0c0,0,0,0,0,0c0.4-0.1,0.9-0.2,1.3-0.3c0.1,0,0.2-0.1,0.3-0.1
			c0.1,0,0.1,0,0.2-0.1c0.1,0,0.2,0,0.3-0.1c0.3-0.1,0.5-0.1,0.8-0.2c0,0,0,0,0,0c0,0,0.1,0,0.1,0c0.3-0.1,0.7-0.2,1-0.3
			c0.1,0,0.2-0.1,0.4-0.1c0,0,0.1,0,0.1,0c0,0,0,0,0.1,0c0,0,0.1,0,0.1,0c0.1,0,0.1,0,0.2-0.1c0.5-0.2,1-0.3,1.5-0.5
			c0.2-0.1,0.4-0.1,0.6-0.2c0,0,0.1,0,0.1-0.1c0.1,0,0.2-0.1,0.3-0.1c0.1,0,0.1,0,0.2-0.1c0.4-0.2,0.9-0.3,1.3-0.5
			c0.3-0.1,0.7-0.3,1-0.4c0.2-0.1,0.4-0.2,0.7-0.3c0.1,0,0.2-0.1,0.2-0.1c0.4-0.1,0.7-0.3,1.1-0.5c0.2-0.1,0.3-0.1,0.5-0.2l0.2-0.1
			l0.1,0c0,0,0.1,0,0.1,0c0,0,0.1,0,0.1,0c0,0,0,0,0.1,0c0.3-0.1,0.6-0.3,0.8-0.4c0.1,0,0.2-0.1,0.3-0.1c0.1,0,0.2-0.1,0.3-0.1
			c0.1,0,0.1-0.1,0.2-0.1c0,0,0.1,0,0.1-0.1c0.1,0,0.1-0.1,0.2-0.1c0.2-0.1,0.3-0.1,0.5-0.2c0.1-0.1,0.3-0.2,0.5-0.2
			c0.1,0,0.1-0.1,0.2-0.1c0.5-0.2,1-0.5,1.4-0.8c0.2-0.1,0.3-0.2,0.5-0.3c0.2-0.1,0.5-0.2,0.7-0.4c0.1,0,0.1-0.1,0.2-0.1
			c0.1-0.1,0.2-0.1,0.3-0.2c0.4-0.2,0.7-0.4,1.1-0.7c0.1,0,0.1-0.1,0.2-0.1c0.1,0,0.1-0.1,0.2-0.1c0.1-0.1,0.2-0.1,0.3-0.2
			c0.3-0.2,0.6-0.3,0.8-0.5c0.3-0.2,0.7-0.4,1-0.6c0.1,0,0.1-0.1,0.2-0.1c0,0,0.1,0,0.1-0.1c0.2-0.1,0.4-0.3,0.6-0.4
			c0.1,0,0.1-0.1,0.2-0.1c0.1-0.1,0.2-0.1,0.3-0.2c0.2-0.1,0.3-0.2,0.5-0.4c0.1-0.1,0.2-0.2,0.3-0.2c0.1-0.1,0.2-0.2,0.4-0.3
			c0.1,0,0.1-0.1,0.2-0.1c0.1,0,0.1-0.1,0.2-0.1c0.1-0.1,0.2-0.1,0.3-0.2c0.2-0.1,0.3-0.3,0.5-0.4c0,0,0,0,0.1,0
			c0.1-0.1,0.2-0.1,0.3-0.2c0,0,0,0,0.1,0c0.2-0.1,0.3-0.2,0.5-0.4c0.1-0.1,0.2-0.2,0.3-0.2c0.1-0.1,0.1-0.1,0.2-0.2
			c0,0,0.1,0,0.1-0.1c0.2-0.1,0.4-0.3,0.5-0.4c0,0,0,0,0.1-0.1c0.1-0.1,0.2-0.1,0.3-0.2c0,0,0,0,0,0c0,0,0.1-0.1,0.1-0.1
			c0,0,0.1,0,0.1-0.1c0.1-0.1,0.1-0.1,0.2-0.2c0.1-0.1,0.2-0.1,0.2-0.2c0.2-0.2,0.5-0.4,0.7-0.6c0,0,0.1-0.1,0.1-0.1
			c0.4-0.3,0.8-0.7,1.2-1l0,0c0.3-0.2,0.6-0.5,0.8-0.8c0.1-0.1,0.2-0.2,0.3-0.3c0.2-0.2,0.4-0.4,0.6-0.6c0.3-0.3,0.5-0.5,0.8-0.8
			c0.4-0.4,0.7-0.7,1-1.1c0.1-0.1,0.3-0.3,0.4-0.4c0,0,0.1-0.1,0.1-0.1c0.2-0.2,0.3-0.4,0.5-0.5c0.1-0.1,0.2-0.3,0.4-0.4
			c0.1-0.1,0.2-0.2,0.3-0.3c0.2-0.2,0.3-0.4,0.5-0.6c0,0,0,0,0,0c0,0,0.1-0.1,0.1-0.1c0.1-0.1,0.1-0.1,0.2-0.2v0
			c0.1-0.1,0.2-0.2,0.2-0.3c0,0,0.1-0.1,0.1-0.1c0,0,0,0,0,0c0.3-0.4,0.6-0.8,1-1.1c0.3-0.3,0.6-0.7,0.8-1c0.1-0.1,0.1-0.2,0.2-0.3
			c0.1-0.1,0.2-0.3,0.3-0.4c0.1-0.2,0.3-0.3,0.4-0.5c0.1-0.1,0.1-0.2,0.2-0.2c0,0,0-0.1,0.1-0.1c0.3-0.4,0.7-0.9,1-1.3
			c0,0,0,0,0-0.1c0.1-0.2,0.2-0.3,0.3-0.5c0.1-0.1,0.2-0.2,0.2-0.3c0.1-0.2,0.3-0.4,0.4-0.6c0.3-0.5,0.6-1,1-1.5c0,0,0,0,0,0
			c0.2-0.3,0.4-0.6,0.6-0.9c0-0.1,0.1-0.1,0.1-0.2c0,0,0-0.1,0-0.1c0.1-0.2,0.2-0.3,0.3-0.5c0,0,0.1-0.1,0.1-0.2c0,0,0,0,0-0.1
			c0.2-0.4,0.4-0.7,0.7-1.1c0,0,0,0,0,0c0-0.1,0.1-0.1,0.1-0.2c0.2-0.3,0.3-0.5,0.5-0.8c0,0,0.1-0.1,0.1-0.1c0,0,0,0,0-0.1
			c0-0.1,0.1-0.1,0.1-0.2c0.2-0.4,0.4-0.7,0.6-1.1c0.1-0.1,0.1-0.3,0.2-0.4c0,0,0-0.1,0-0.1c0,0,0-0.1,0.1-0.1
			c0.1-0.1,0.1-0.3,0.2-0.4c0-0.1,0.1-0.1,0.1-0.2c0.1-0.3,0.3-0.5,0.4-0.8l0,0c0-0.1,0-0.1,0.1-0.2c0.2-0.5,0.5-0.9,0.7-1.4
			c0,0,0-0.1,0-0.1c0.1-0.1,0.1-0.2,0.2-0.4c0.1-0.3,0.3-0.6,0.4-1c0-0.1,0-0.1,0.1-0.2c0-0.1,0-0.1,0.1-0.2
			c0.2-0.5,0.4-0.9,0.6-1.4c0.1-0.2,0.2-0.4,0.2-0.6c0-0.1,0.1-0.2,0.1-0.3c0-0.1,0.1-0.1,0.1-0.2c0-0.1,0-0.1,0.1-0.2
			c0.1-0.2,0.1-0.4,0.2-0.6c0.1-0.1,0.1-0.3,0.2-0.4v0c0-0.1,0.1-0.2,0.1-0.2c0.1-0.3,0.2-0.7,0.3-1c0,0,0-0.1,0-0.1
			c0-0.1,0-0.1,0.1-0.2c0.1-0.3,0.2-0.5,0.3-0.8c0-0.1,0-0.1,0.1-0.2c0,0,0,0,0-0.1c0-0.1,0.1-0.2,0.1-0.4c0,0,0-0.1,0-0.1
			c0.1-0.3,0.2-0.5,0.2-0.8c0-0.1,0.1-0.3,0.1-0.4c0-0.1,0.1-0.2,0.1-0.3c0,0,0,0,0,0c0-0.1,0-0.1,0.1-0.2c0,0,0-0.1,0-0.1
			c0,0,0-0.1,0-0.1c0-0.2,0.1-0.3,0.1-0.5c0.1-0.3,0.1-0.5,0.2-0.8c0.3-1.1,0.5-2.1,0.7-3.2c0.1-0.3,0.1-0.6,0.2-0.8
			c0-0.2,0.1-0.3,0.1-0.5c0-0.2,0.1-0.3,0.1-0.5c0.1-0.5,0.2-0.9,0.2-1.4c0,0,0-0.1,0-0.1c0,0,0,0,0-0.1c0-0.3,0.1-0.5,0.1-0.8
			c0,0,0-0.1,0-0.1l0-0.2c0-0.2,0.1-0.3,0.1-0.5c0-0.1,0-0.2,0-0.2c0-0.2,0-0.3,0.1-0.5c0-0.3,0.1-0.7,0.1-1.1c0-0.1,0-0.1,0-0.2
			c0-0.3,0.1-0.6,0.1-0.9c0,0,0,0,0-0.1c0,0,0-0.1,0-0.1c0,0,0-0.1,0-0.1c0-0.2,0-0.5,0.1-0.7c0-0.2,0-0.4,0-0.6c0,0,0-0.1,0-0.1v0
			c0,0,0-0.1,0-0.1c0-0.1,0-0.2,0-0.3c0,0,0,0,0,0c0-0.4,0.1-0.8,0.1-1.2c0,0,0-0.1,0-0.1c0-0.5,0-1,0.1-1.5c0-0.6,0-1.2,0-1.8
			v-23.5L1853.7-725.1z M1769.6-690.1c0-4.3,3.5-7.7,7.7-7.7h25.5c4.3,0,7.7,3.5,7.7,7.7v21.1c0,0.3,0,0.6-0.1,1
			c-0.5,3.8-3.7,6.8-7.7,6.8h-25.5c-3.2,0-5.9-1.9-7.1-4.6v0c-0.4-0.9-0.7-2-0.7-3.1V-690.1z"/>
		<circle class="st0" cx="1710.7" cy="-750.7" r="19.4"/>
		<path d="M1850.6-762.3c-0.3-1.6-0.7-3.2-1.2-4.7c-1.9-5.3-5.3-9.9-9.7-13.2c-4.7-3.6-10.6-5.7-17-5.7c-6.4,0-12.3,2.1-17,5.7
			c-4.5,3.4-7.9,8.1-9.7,13.5h-12.1c-1.8-5.5-5.3-10.2-9.9-13.6c-4.7-3.5-10.5-5.6-16.9-5.6c-6.4,0-12.3,2.1-17,5.7
			c-4.4,3.3-7.8,7.9-9.6,13.2c-0.5,1.5-0.9,3.1-1.2,4.7c-0.3,1.5-0.4,3.1-0.4,4.7c0,0.1,0,0.2,0,0.4c0,0,0,0,0,0
			c0,2.6,0.4,5.2,1.1,7.6c1.2,4,3.2,7.7,6,10.8c0.2,0.2,0.4,0.5,0.6,0.7c5.1,5.4,12.4,8.8,20.5,8.8c15.6,0,28.2-12.6,28.2-28.2
			c0-1.4-0.1-2.7-0.3-4h9.7c-0.2,1.3-0.3,2.7-0.3,4c0,7.4,2.8,14,7.4,19.1c0.1,0.1,0.2,0.2,0.3,0.4c5.1,5.4,12.4,8.8,20.5,8.8
			c15.6,0,28.2-12.6,28.2-28.2C1851-759.2,1850.8-760.8,1850.6-762.3z M1757.2-733.5c-5.4,0-10.4-1.8-14.4-4.8
			c-1.6-1.2-3.1-2.7-4.4-4.3c-3.3-4.1-5.4-9.4-5.4-15.2c0-10.2,6.4-19,15.4-22.5c2.7-1.1,5.7-1.7,8.8-1.7c2,0,4,0.2,5.9,0.7
			c1,0.2,2,0.6,2.9,0.9c2.2,0.8,4.1,2,5.9,3.4c1.3,1,2.6,2.2,3.7,3.5c1.5,1.7,2.7,3.7,3.6,5.8c1.4,3,2.1,6.4,2.1,9.9
			C1781.4-744.3,1770.6-733.5,1757.2-733.5z M1822.7-733.5c-5.4,0-10.4-1.8-14.4-4.8c-1.5-1.1-2.9-2.4-4.1-3.9
			c-3.5-4.2-5.6-9.6-5.6-15.5c0-10.2,6.4-19,15.4-22.5c2.7-1.1,5.7-1.7,8.8-1.7c2.2,0,4.3,0.3,6.3,0.8c0.9,0.2,1.7,0.5,2.5,0.8
			c2.3,0.9,4.4,2.1,6.3,3.6c1.3,1,2.4,2.2,3.5,3.4c1.5,1.8,2.8,3.9,3.7,6.1c1.2,2.9,1.9,6.1,1.9,9.4
			C1846.9-744.3,1836.1-733.5,1822.7-733.5z"/>
		<polygon class="st12" points="1776.8,-718 1788.9,-709.5 1800,-718 		"/>
		<polygon class="st0" points="1855.6,-763.7 1855.6,-762.3 1854.5,-762.3 		"/>
		<g>
			<rect x="1717.7" y="-773.2" class="st6" width="8.5" height="48.2"/>
		</g>
		<g>
			<rect x="1853.7" y="-773.2" class="st6" width="8.5" height="48.2"/>
		</g>
		<polygon class="st46" points="1871.2,-554.9 1871.2,-443.8 1881.7,-401.8 1890.2,-401.8 		"/>
		<polygon class="st46" points="1710.7,-543.2 1700.3,-401.8 1710.7,-450.7 		"/>
	</g>
	<g>
		<rect x="1037.5" y="-1123.5" class="st43" width="472.1" height="22.7"/>
		<path class="st48" d="M1531.6-1226.2v108.2c0,2.3-1.9,4.2-4.2,4.2h-507.7c-2.3,0-4.2-1.9-4.2-4.2v-104.5c4.5-2.7,9.2-5.3,14.1-7.9
			c15-7.9,31.7-15.3,50.3-21.9h395.5c1.8,0.7,3.6,1.3,5.4,2c7.9,3.1,15.4,6.3,22.5,9.7c6.8,3.2,13.3,6.6,19.4,10.1h4.7
			C1529.7-1230.4,1531.6-1228.5,1531.6-1226.2z"/>
		<path class="st43" d="M1522.7-1230.4h-493.1c15-7.9,31.7-15.3,50.3-21.9h395.5c1.8,0.7,3.6,1.3,5.4,2c7.9,3.1,15.4,6.3,22.5,9.7
			C1510.1-1237.3,1516.6-1233.9,1522.7-1230.4z"/>
		<g>
			<g>
				<rect x="1041.8" y="-1224.9" class="st49" width="100.8" height="6.1"/>
				<rect x="1041.8" y="-1212.8" class="st49" width="100.8" height="6.1"/>
				<rect x="1154.8" y="-1224.9" class="st49" width="100.8" height="6.1"/>
				<rect x="1154.8" y="-1212.8" class="st49" width="100.8" height="6.1"/>
			</g>
			<g>
				<rect x="1291.4" y="-1224.9" class="st49" width="100.8" height="6.1"/>
				<rect x="1291.4" y="-1212.8" class="st49" width="100.8" height="6.1"/>
				<rect x="1404.4" y="-1224.9" class="st49" width="100.8" height="6.1"/>
				<rect x="1404.4" y="-1212.8" class="st49" width="100.8" height="6.1"/>
			</g>
		</g>
		<circle class="st50" cx="1519.4" cy="-1124.7" r="5.5"/>
		<path class="st51" d="M1043-1141.1v25.5h461v-25.5H1043z M1495.6-1116.9h-444.2l4.2-6.7l7.8-12.3h413.1l12.4,12.3L1495.6-1116.9z"
			/>
	</g>
	<g>
		<path class="st52" d="M1184.7-458.7v134.8c-2-0.8-3.9-1.6-5.8-2.5c-1.8-0.8-3.5-1.5-5.3-2.3c-1.8-0.8-3.5-1.6-5.3-2.4
			c-24.5-11.2-48.4-24.4-71.3-40v-87.7H1184.7z"/>
		<path class="st52" d="M1273.1-458.7v163.6c-0.7-0.2-1.4-0.3-2.1-0.5c-0.5-0.1-0.9-0.2-1.4-0.3c-1.4-0.3-2.8-0.7-4.1-1.1
			c-0.1,0-0.2,0-0.3-0.1c-0.3-0.1-0.5-0.1-0.8-0.2c-1.6-0.4-3.3-0.8-4.9-1.3c-0.4-0.1-0.8-0.2-1.2-0.3c-1.2-0.3-2.5-0.7-3.7-1
			c-2.1-0.6-4.1-1.1-6.1-1.7c-0.1,0-0.2,0-0.2-0.1c-1.5-0.4-3-0.9-4.4-1.3c-0.7-0.2-1.3-0.4-2-0.6c-1.5-0.5-3-0.9-4.5-1.4
			c-1.5-0.5-3-0.9-4.6-1.4c-0.3-0.1-0.5-0.2-0.8-0.3c-1.5-0.5-3.1-1-4.6-1.5c-0.1,0-0.2-0.1-0.4-0.1c-1.8-0.6-3.5-1.2-5.3-1.8
			c-1.7-0.6-3.4-1.2-5.1-1.7c-2.2-0.8-4.4-1.5-6.6-2.3c-1.4-0.5-2.7-1-4.1-1.5c-0.2-0.1-0.4-0.2-0.6-0.2c-3.2-1.2-6.4-2.4-9.7-3.7
			c-0.5-0.2-0.9-0.4-1.4-0.6c-1.5-0.6-3.1-1.2-4.6-1.9c-0.9-0.4-1.8-0.7-2.7-1.1c-0.4-0.2-0.9-0.4-1.3-0.6v-135.2H1273.1z"/>
		
			<rect x="1058.4" y="-782.9" transform="matrix(0.9977 6.783714e-02 -6.783714e-02 0.9977 -49.3091 -74.8752)" class="st53" width="38.8" height="38.8"/>
		
			<rect x="1058.4" y="-769.7" transform="matrix(0.9977 6.783714e-02 -6.783714e-02 0.9977 -48.4146 -74.8448)" class="st54" width="38.8" height="38.8"/>
		
			<rect x="1184.7" y="-744.1" transform="matrix(-1 -1.224647e-16 1.224647e-16 -1 2395.9119 -1456.259)" class="st55" width="26.6" height="32"/>
		<rect x="1158" y="-744.1" class="st55" width="26.6" height="32"/>
		<path class="st0" d="M1185.2-708.5h-1.2c-11.5,0-20.7-9.3-20.7-20.7v-46.9c0-11.5,9.3-20.7,20.7-20.7h1.2
			c11.5,0,20.7,9.3,20.7,20.7v46.9C1206-717.8,1196.7-708.5,1185.2-708.5z"/>
		<path class="st5" d="M1163.3-766.8v9.3l38.7,40.4c2.5-3.4,4-7.6,4-12.2v-42.5C1189-771.5,1172.5-768.6,1163.3-766.8z"/>
		<path class="st10" d="M1045.8-851.2"/>
		<circle class="st0" cx="1264.2" cy="-866.7" r="19.4"/>
		<path class="st0" d="M1283.6-866.7c0,10.7-8.7,19.4-19.4,19.4c-2.9,0-5.7-0.7-8.2-1.8v23.7c0,39.6-32.4,71.9-71.9,71.9h0
			c-39.6,0-71.9-32.4-71.9-71.9v-23.5c-2.4,1-4.9,1.6-7.7,1.6c-10.7,0-19.4-8.7-19.4-19.4s8.7-19.4,19.4-19.4c2.7,0,5.3,0.6,7.7,1.6
			v-31c0-13.3,10.9-24.1,24.1-24.1h95.6c13.3,0,24.1,10.9,24.1,24.1v31.2c2.5-1.2,5.3-1.8,8.2-1.8
			C1274.9-886.1,1283.6-877.4,1283.6-866.7z"/>
		<g>
			<path class="st56" d="M1263.8-939.6v53.5c-4.9,0-9.5,1.4-13.2,3.9c-1.1,0.7-2.1,1.6-3.1,2.5v-59.9H1263.8z"/>
		</g>
		<path class="st5" d="M1264.2-886.1c-2.9,0-5.7,0.7-8.2,1.8v-31.2c0-9.9-6.1-18.5-14.7-22.2l-58.6,5.8v178.4c0.1,0,0.1,0,0.2,0
			l13.5-1c33.8-5.9,59.7-35.5,59.7-70.9v-23.7c2.5,1.2,5.3,1.8,8.2,1.8c10.7,0,19.4-8.7,19.4-19.4S1274.9-886.1,1264.2-886.1z"/>
		<g>
			<path class="st6" d="M1167.2-896.2h-33.4c-1.9,0-3.5-1.6-3.5-3.5l0,0c0-1.9,1.6-3.5,3.5-3.5h33.4c1.9,0,3.5,1.6,3.5,3.5l0,0
				C1170.7-897.8,1169.1-896.2,1167.2-896.2z"/>
		</g>
		<g>
			<path class="st6" d="M1233.1-896.2h-33.4c-1.9,0-3.5-1.6-3.5-3.5l0,0c0-1.9,1.6-3.5,3.5-3.5h33.4c1.9,0,3.5,1.6,3.5,3.5l0,0
				C1236.6-897.8,1235.1-896.2,1233.1-896.2z"/>
		</g>
		<g>
			<rect x="1104.8" y="-945.8" class="st56" width="15.5" height="67.5"/>
		</g>
		<circle class="st0" cx="1104.8" cy="-866.7" r="19.4"/>
		<polygon class="st12" points="1170.8,-834.1 1182.8,-825.6 1193.9,-834.1 		"/>
		<polygon class="st0" points="1249.4,-879.8 1249.4,-878.4 1248.3,-878.4 		"/>
		<g>
			<rect x="1111.7" y="-889.2" class="st56" width="8.5" height="48.1"/>
		</g>
		<g>
			<rect x="1247.5" y="-889.2" class="st56" width="8.5" height="48.1"/>
		</g>
		<path class="st11" d="M1210.8-809.3c-4.5-8.6-15.6-14.7-28.4-14.7c-12.9,0-23.9,6.1-28.4,14.7H1210.8z"/>
		<path class="st57" d="M1172.5-863.6h-40.1c-2,0-3.6-1.6-3.6-3.6V-884c0-2,1.6-3.6,3.6-3.6h40.1c2,0,3.6,1.6,3.6,3.6v16.8
			C1176.1-865.2,1174.5-863.6,1172.5-863.6z"/>
		<path class="st57" d="M1236.1-863.6H1196c-2,0-3.6-1.6-3.6-3.6V-884c0-2,1.6-3.6,3.6-3.6h40.1c2,0,3.6,1.6,3.6,3.6v16.8
			C1239.7-865.2,1238.1-863.6,1236.1-863.6z"/>
		<g>
			<path class="st58" d="M1170.6-865.2H1132c-2.2,0-4-1.8-4-4v-20h46.5v20C1174.6-867,1172.8-865.2,1170.6-865.2z"/>
			<polygon class="st59" points="1157.4,-889.2 1142.2,-865.2 1135.4,-865.2 1150.6,-889.2 			"/>
			<polygon class="st59" points="1169.2,-889.2 1154,-865.2 1148.3,-865.2 1163.5,-889.2 			"/>
		</g>
		<g>
			<path class="st58" d="M1234.2-865.2h-38.5c-2.2,0-4-1.8-4-4v-20h46.5v20C1238.2-867,1236.4-865.2,1234.2-865.2z"/>
			<polygon class="st59" points="1221,-889.2 1205.8,-865.2 1199.1,-865.2 1214.2,-889.2 			"/>
			<polygon class="st59" points="1232.8,-889.2 1217.6,-865.2 1211.9,-865.2 1227.1,-889.2 			"/>
		</g>
		<rect x="1127.3" y="-889.2" class="st6" width="48.1" height="3.1"/>
		<rect x="1190.9" y="-889.2" class="st6" width="48.1" height="3.1"/>
		<rect x="1173.8" y="-886.1" class="st6" width="18.6" height="4.7"/>
		<rect x="1115.6" y="-889.2" class="st6" width="12.4" height="4.7"/>
		<rect x="1238.2" y="-889.2" class="st6" width="12.4" height="4.7"/>
		<path class="st60" d="M1191.6-790.7H1173c-1.7,0-3.1-1.4-3.1-3.1l0,0c0-1.7,1.4-3.1,3.1-3.1h18.6c1.7,0,3.1,1.4,3.1,3.1l0,0
			C1194.7-792.1,1193.4-790.7,1191.6-790.7z"/>
		
			<ellipse transform="matrix(0.2222 -0.975 0.975 0.2222 1875.6772 435.001)" class="st56" cx="1210.5" cy="-958.1" rx="43.1" ry="69.3"/>
		<ellipse transform="matrix(0.866 -0.5 0.5 0.866 636.609 440.2401)" class="st56" cx="1139.8" cy="-967.8" rx="50.1" ry="31.3"/>
		<path class="st53" d="M1169.2-950.7c0,0,46.9,50.2,98.9,8.3C1268-942.4,1223.9-913.3,1169.2-950.7z"/>
		<polygon class="st53" points="1184.7,-713.8 1221.1,-735.9 1226.3,-702.3 1217.9,-610.1 1184.7,-555.7 		"/>
		<polygon class="st53" points="1184.7,-713.8 1148.2,-735.9 1143,-702.3 1151.4,-610.1 1184.7,-555.7 		"/>
		<polygon class="st61" points="1182.1,-691.7 1171.5,-587.4 1182.1,-552.1 1197.9,-557.3 1200.5,-586.3 1187.3,-691.7 		"/>
		<g>
			<polygon class="st62" points="1287.3,-393.9 1284.1,-659.6 1284.1,-660 1283.2,-735.8 1284.2,-659.6 			"/>
			<polygon class="st63" points="1287.4,-392.9 1287.1,-392.8 1287,-396.5 1287,-396.5 1284.1,-659.6 1287.3,-393.9 1287.3,-393.9 
							"/>
			<path class="st63" d="M1287.1-392.8l-3.9-341.3l0.9,74.1l-0.8-75.8c-0.1,0.1-62.1-0.1-62.1-0.1l4.5,83.8l-40.9,96.4v164.1
				c3.1,10.6,16.2,23.3,20.8,22.9c47.8-3.6,81.9-24.2,81.9-24.2l0,0L1287.1-392.8z"/>
			<polygon class="st63" points="1283.2,-734.1 1287.1,-392.8 1284.1,-660 			"/>
		</g>
		<rect x="1183.9" y="-556.5" class="st64" width="1.6" height="164.4"/>
		<path class="st52" d="M1221.1-735.9c0,0-17.9,141.5-36.5,180.2c0,0,38.7-46.8,64-117.9l-14.9-15.4l14.9-20.9L1221.1-735.9z"/>
		<polygon class="st65" points="1171.5,-712 1197.9,-712 1187.3,-690.9 1182.1,-690.9 		"/>
		<path class="st66" d="M1184.7-713.8c0,0,8.6,18.2,11.9,22.7c3.3,4.5,24.6-44.8,24.6-44.8s-3.9-5.5-9.9-8.3
			C1211.3-744.2,1197.3-723.9,1184.7-713.8z"/>
		<g>
			<path class="st62" d="M1085.2-735.1c0,0,0-0.1,0-0.1"/>
			<path class="st63" d="M1143.7-652.1l4.5-83.8c0,0-63-0.2-62.9,0c0,0,0,0.2-0.1,0.6l-2.9,342.5l-0.3-0.1l0,0
				c0,0,34,20.6,81.9,24.2c4.6,0.3,17.8-12.3,20.8-22.9v-164.1L1143.7-652.1z"/>
			<path class="st63" d="M1085.2-735.2c0,0,0,0.1,0,0.1l-3.2,342.3l0.3,0.1L1085.2-735.2z"/>
		</g>
		<path class="st52" d="M1148.2-735.9c0,0,17.9,141.5,36.5,180.2c0,0-38.7-46.8-64-117.9l14.9-15.4l-14.9-20.9L1148.2-735.9z"/>
		<path class="st66" d="M1184.7-713.8c0,0-8.6,18.2-11.9,22.7c-3.3,4.5-24.6-44.8-24.6-44.8s3.9-5.5,9.9-8.3
			C1158-744.2,1172-723.9,1184.7-713.8z"/>
		<circle class="st52" cx="1184.7" cy="-523" r="7"/>
		<circle class="st52" cx="1184.7" cy="-452.1" r="7"/>
		<path class="st64" d="M1184.7-555.7"/>
		<path class="st64" d="M1184.7-555.7"/>
		<path class="st54" d="M1083.3-536.6c0,0,32.3,5.7,32.3-26.8s7-172.5,7-172.5h-37.2L1083.3-536.6z"/>
		<path class="st63" d="M1060.5-547l-2.5-0.2c-13.4-0.9-23.6-12.5-22.6-25.9l13.1-193.2l51.1,3.5l-13.1,193.2
			C1085.5-556.2,1073.9-546.1,1060.5-547z"/>
		
			<rect x="1093.8" y="-905" transform="matrix(0.9914 -0.1308 0.1308 0.9914 120.5742 136.3963)" class="st52" width="10.1" height="110.1"/>
		<polygon class="st0" points="1068.4,-783.6 1059.9,-831.6 1080.2,-889.3 1090.7,-895.5 1097,-839.9 1098.5,-815.7 1095.8,-781.7 
					"/>
		<polygon class="st53" points="1291.6,-442 1326.4,-445.2 1330.3,-402.4 1295.5,-399.2 		"/>
		<polygon class="st54" points="1289.4,-450.3 1324.6,-455 1330.1,-412.4 1295,-407.7 		"/>
		<polygon class="st0" points="1325.7,-401.9 1339.8,-362.5 1310.5,-331.8 1295.8,-328.7 1302.8,-355.9 1299.6,-371.3 
			1298.3,-400.2 		"/>
		<circle class="st53" cx="1085.4" cy="-749.6" r="4.7"/>
		<circle class="st53" cx="1083.8" cy="-734.1" r="4.7"/>
		<polygon class="st54" points="1287,-396.5 1287,-396.5 1252.9,-655.4 1284,-659.5 1284.1,-659.6 1284.2,-659.6 1287.3,-393.9 		
			"/>
		<polygon class="st63" points="1336.8,-422.8 1289,-416.5 1246.7,-735.6 1295.6,-736.4 		"/>
		
			<ellipse transform="matrix(0.9906 -0.1368 0.1368 0.9906 74.3145 173.0521)" class="st53" cx="1296.1" cy="-454.1" rx="4.7" ry="4.7"/>
		
			<ellipse transform="matrix(0.9906 -0.1368 0.1368 0.9906 72.203 173.491)" class="st53" cx="1298.2" cy="-438.5" rx="4.7" ry="4.7"/>
	</g>
	<g>
		<g>
			<path class="st62" d="M2081.2-1007.7c-0.9,0-1.8-0.2-2.6-0.6l-91.8,60.6h5.7h177.5h5.7l-91.8-60.6
				C2083-1007.9,2082.1-1007.7,2081.2-1007.7z"/>
			<path class="st67" d="M2169.9-764.2h22.5v-24.9v-133.7v-24.9h-7.9l-97.6-64.4c0.1-0.5,0.2-1,0.2-1.5c0-3.3-2.6-5.9-5.9-5.9
				c-3.3,0-5.9,2.6-5.9,5.9c0,0.5,0.1,1,0.2,1.5l-97.6,64.4h-7.9v24.9v133.7v24.3h39.8h-39.8L2169.9-764.2z M2169.9-947.7h-177.5
				h-5.7l91.8-60.6c0.8,0.4,1.7,0.6,2.6,0.6s1.8-0.2,2.6-0.6l91.8,60.6H2169.9z"/>
		</g>
		<polyline id="XMLID_380_" class="st68" points="1985,-952.1 2078.2,-1013.6 2171.4,-952.1 		"/>
		<g id="XMLID_379_">
			<rect id="XMLID_325_" x="1978" y="-954.8" class="st14" width="200.3" height="165.3"/>
			<rect id="XMLID_323_" x="1978" y="-811.9" class="st69" width="200.3" height="22.4"/>
			<rect id="XMLID_326_" x="1978" y="-954.8" class="st69" width="200.3" height="22.4"/>
			<rect id="XMLID_322_" x="1978" y="-954.8" class="st70" width="20.2" height="165.3"/>
			<rect id="XMLID_324_" x="2158.1" y="-954.8" class="st70" width="20.2" height="165.3"/>
			<rect id="XMLID_66_" x="1998.3" y="-837.2" class="st71" width="159.9" height="26"/>
			<polygon id="XMLID_95_" class="st15" points="1998.3,-837.2 2041.5,-882.1 2086.3,-837.2 			"/>
			<polygon id="XMLID_131_" class="st72" points="2070,-837.2 2113.2,-882.1 2158,-837.2 			"/>
			<circle id="XMLID_92_" class="st73" cx="2030.5" cy="-904.9" r="10.9"/>
			<g id="XMLID_164_">
				<path id="XMLID_259_" class="st53" d="M2067.2-910.8h-2.8v-0.8c0-2.4-1.9-4.3-4.3-4.3c-2.4,0-4.3,1.9-4.3,4.3v0.8h-0.2
					c-2.3,0-4.2,1.9-4.2,4.2c0,2.3,1.9,4.2,4.2,4.2h11.6c2.3,0,4.2-1.9,4.2-4.2C2071.3-908.9,2069.5-910.8,2067.2-910.8z"/>
				<path id="XMLID_261_" class="st53" d="M2102.1-897.4h-2.8v-0.8c0-2.4-1.9-4.3-4.3-4.3s-4.3,1.9-4.3,4.3v0.8h-0.2
					c-2.3,0-4.2,1.9-4.2,4.2c0,2.3,1.9,4.2,4.2,4.2h11.6c2.3,0,4.2-1.9,4.2-4.2C2106.3-895.5,2104.4-897.4,2102.1-897.4z"/>
				<path id="XMLID_264_" class="st53" d="M2140-909.6h-2.8v-0.8c0-2.4-1.9-4.3-4.3-4.3c-2.4,0-4.3,1.9-4.3,4.3v0.8h-0.2
					c-2.3,0-4.2,1.9-4.2,4.2c0,2.3,1.9,4.2,4.2,4.2h11.6c2.3,0,4.2-1.9,4.2-4.2C2144.1-907.7,2142.3-909.6,2140-909.6z"/>
			</g>
		</g>
	</g>
	<circle id="XMLID_381_" class="st74" cx="2078.8" cy="-1014.4" r="4.3"/>
	<g>
		<g>
			<path class="st53" d="M2103.3-478.4c4-1.5,9.2,1.3,8.1,6c-0.5,2-2.2,3.3-4.2,3.3c-0.8,0-1.7-0.2-2.4-0.7
				c-1.2-0.8-1.8-2.5-0.5-3.5c1.9-1.3,4.1,0.1,5,1.9c1,2,0.6,4.3-0.6,6.1c-1,1.5-4.4,4.8-6.3,2.9c-0.6-0.6-0.7-1.5,0.1-2
				c0.5-0.3,1.2-0.4,1.8-0.4c1.1,0,2.4,0.3,3.2,1.1c1.6,1.6,1.1,4.2,0.2,6.1c-0.8,1.8-2.2,3.6-4.1,4.4c-0.5,0.2-1.1,0.4-1.6,0.4
				c-0.3,0-0.5,0-0.8-0.1c-0.4-0.1-1-0.6-1.1-1.1c-0.1-1,2.9-1.3,3.5-1.3c2.5,0,3.4,2.5,3.2,4.7c-0.2,1.9-1.1,3.6-2.6,4.8
				c-0.7,0.6-1.6,1-2.6,1.2c-0.6,0.1-1.3,0.1-1.8-0.4c-0.6-0.6-0.5-1.6,0.1-2.1c1.2-1.2,2.9-0.1,3.6,1c0.6,0.9,0.8,2.1,0.7,3.2
				c-0.1,2.3-1.4,4.5-3.7,5.3c-1.2,0.4-2.6,0.4-3.7-0.2c-0.5-0.3-0.5-0.3-0.6-0.8c-0.1-0.7,0.2-0.9,0.8-1.2c0.6-0.3,1.3-0.2,1.9,0
				c2.5,0.6,4.2,3.1,3.6,5.7c-0.6,2.7-2.9,3.8-5.4,4.2c-2.4,0.4-5.3,0.8-7.4-0.7c-0.3-0.2-0.7,0.3-0.3,0.6c1.3,0.9,2.9,1.2,4.5,1.1
				c1.6,0,3.4-0.2,5-0.7c2.8-0.8,4.8-3.3,4.4-6.3c-0.4-2.6-2.9-4.9-5.6-4.7c-1,0.1-2.3,0.8-2.3,1.9c0,1.2,1.4,1.8,2.4,2
				c2.9,0.5,5.6-1.3,6.6-4c0.9-2.4,0.5-6.5-2.4-7.4c-1.1-0.3-2.4,0-3,1.1c-0.5,0.9-0.3,2,0.6,2.6c2.2,1.4,5.2-0.8,6.4-2.5
				c1.5-2.1,2.1-5.4,0.6-7.7c-0.7-1.1-2-1.5-3.3-1.4c-1,0.1-3,0.2-3.6,1.2c-0.6,1,0.2,2.1,1.2,2.4c1.3,0.4,2.7-0.1,3.8-0.7
				c2.4-1.5,4.2-4.4,4.4-7.3c0.3-2.9-1.8-5.1-4.7-5.1c-1.1,0-2.6,0.2-3,1.3c-0.4,1,0.3,2.2,1.3,2.6c2.7,1.2,6-2.2,7.1-4.3
				c1.3-2.5,1-5.8-1.3-7.6c-1.6-1.3-5-1.5-5.6,1.1c-0.6,2.6,2.8,4.1,4.9,3.9c2.6-0.3,4.3-2.5,4.3-5.1c0-2.9-2.1-5.2-4.9-5.8
				c-1.4-0.3-2.8-0.2-4.2,0.3C2102.8-478.8,2102.9-478.2,2103.3-478.4L2103.3-478.4z"/>
		</g>
		<g id="XMLID_1204_">
			<g id="XMLID_1309_">
				<g>
					<rect id="XMLID_51_" x="2010.9" y="-504.1" class="st75" width="11.4" height="9.8"/>
					<rect id="XMLID_49_" x="2054.4" y="-504.1" class="st75" width="11.4" height="9.8"/>
				</g>
			</g>
			<g id="XMLID_602_">
				<path id="XMLID_609_" class="st76" d="M2081.5-519.9h-86.3c-17,0-30.8,13.8-30.8,30.8v5.3c0,4.5,3.6,8.1,8.1,8.1h17
					c4.5,0,8.1-3.6,8.1-8.1v0c0-9.4,7.7-17.1,17.1-17.1h47.4c9.4,0,17.1,7.7,17.1,17.1v0c0,4.5,3.6,8.1,8.1,8.1h17
					c4.5,0,8.1-3.6,8.1-8.1v-5.3C2112.4-506.1,2098.6-519.9,2081.5-519.9z"/>
				<path id="XMLID_606_" class="st77" d="M1997.6-483.7h-33.2v0.7c0,4.1,3.3,7.4,7.4,7.4h18.5c4.1,0,7.4-3.3,7.4-7.4V-483.7z"/>
				<path id="XMLID_603_" class="st77" d="M2112.4-483.7h-33.2v0.7c0,4.1,3.3,7.4,7.4,7.4h18.5c4.1,0,7.4-3.3,7.4-7.4V-483.7z"/>
			</g>
			<g id="XMLID_588_">
				<g>
					<g id="XMLID_48_">
						<path class="st78" d="M1998.3-488.6h-33.9v4.9h33.2v0C1997.6-485.4,1997.8-487,1998.3-488.6z"/>
					</g>
					<g id="XMLID_47_">
						<path class="st78" d="M2078.5-488.6c0.5,1.5,0.7,3.2,0.7,4.9v0h33.2v-4.9H2078.5z"/>
					</g>
				</g>
			</g>
			<g id="XMLID_1205_">
				<path id="XMLID_585_" class="st76" d="M2097.4-428.9l-19.2-60.3c-1.6-3.1-4.9-5-8.4-5h-0.1h-22.1h-0.1c0,5.1-4.1,9.2-9.2,9.3
					c-5.1,0-9.2-4.2-9.2-9.3h-0.1h-22.1h-0.1c-3.5,0-6.7,1.9-8.4,5l-19.2,60.3c-3,10.9,5.2,21.7,16.5,21.7h85.1
					C2092.2-407.2,2100.4-418,2097.4-428.9z"/>
				<path id="XMLID_582_" class="st45" d="M1979.5-418.9c2.3,6.7,8.5,11.7,16.2,11.7h85.1c7.7,0,14-5,16.2-11.7H1979.5z"/>
				<path id="XMLID_237_" class="st78" d="M1979.5-418.9h117.6c0.6-1.8,0.9-3.7,0.9-5.7h-119.4
					C1978.6-422.6,1978.9-420.7,1979.5-418.9z"/>
				<circle id="XMLID_198_" class="st78" cx="2038.4" cy="-449.8" r="26.5"/>
				<g id="XMLID_1212_">
					<circle id="XMLID_195_" class="st77" cx="2038.4" cy="-453.9" r="26.5"/>
					<circle id="XMLID_192_" class="st76" cx="2038.4" cy="-453.9" r="14"/>
					<g id="XMLID_1213_">
						<g>
							<g id="XMLID_143_">
								<circle class="st79" cx="2038.4" cy="-474.2" r="4.1"/>
							</g>
							<g id="XMLID_142_">
								
									<ellipse transform="matrix(0.866 -0.5 0.5 0.866 507.4858 950.9203)" class="st79" cx="2028.2" cy="-471.5" rx="4.1" ry="4.1"/>
							</g>
							<g id="XMLID_141_">
								
									<ellipse transform="matrix(0.5 -0.866 0.866 0.5 1412.2423 1517.9626)" class="st79" cx="2020.7" cy="-464.1" rx="4.1" ry="4.1"/>
							</g>
							<g id="XMLID_140_">
								<circle class="st79" cx="2018" cy="-453.9" r="4.1"/>
							</g>
							<g id="XMLID_139_">
								
									<ellipse transform="matrix(0.866 -0.5 0.5 0.866 492.571 950.9203)" class="st79" cx="2020.7" cy="-443.7" rx="4.1" ry="4.1"/>
							</g>
							<g id="XMLID_138_">
								
									<ellipse transform="matrix(0.5 -0.866 0.866 0.5 1391.8684 1538.3365)" class="st79" cx="2028.2" cy="-436.2" rx="4.1" ry="4.1"/>
							</g>
							<g id="XMLID_137_">
								<circle class="st79" cx="2038.4" cy="-433.5" r="4.1"/>
							</g>
							<g id="XMLID_136_">
								
									<ellipse transform="matrix(0.866 -0.5 0.5 0.866 492.567 965.8306)" class="st79" cx="2048.6" cy="-436.2" rx="4.1" ry="4.1"/>
							</g>
							<g id="XMLID_135_">
								
									<ellipse transform="matrix(0.5 -0.866 0.866 0.5 1412.2416 1558.7102)" class="st79" cx="2056" cy="-443.7" rx="4.1" ry="4.1"/>
							</g>
							<g id="XMLID_134_">
								<circle class="st79" cx="2058.7" cy="-453.9" r="4.1"/>
							</g>
							<g id="XMLID_133_">
								
									<ellipse transform="matrix(0.866 -0.5 0.5 0.866 507.4745 965.8228)" class="st79" cx="2056" cy="-464.1" rx="4.1" ry="4.1"/>
							</g>
							<g id="XMLID_132_">
								
									<ellipse transform="matrix(0.5 -0.866 0.866 0.5 1432.6221 1538.3384)" class="st79" cx="2048.6" cy="-471.5" rx="4.1" ry="4.1"/>
							</g>
						</g>
					</g>
				</g>
				<path id="XMLID_1209_" class="st78" d="M2024.4-452.3c0.8,7,6.7,12.5,13.9,12.5c7.2,0,13.2-5.4,13.9-12.5H2024.4z"/>
				<path id="XMLID_1206_" class="st78" d="M2038.4-465.6c7.4,0,13.4,5.7,14,12.9c0-0.4,0.1-0.8,0.1-1.2c0-7.8-6.3-14-14-14
					s-14,6.3-14,14c0,0.4,0,0.8,0.1,1.2C2025-459.9,2031-465.6,2038.4-465.6z"/>
			</g>
		</g>
	</g>
	<path class="st80" d="M2312.9-381.6v7h-1.3c-1.2,3.2-2.5,6.3-3.9,9.3c-30,68.3-82.6,99.7-168.4,135.8c-17.2,7.3-38.1,13-61.3,17.3
		c-66.9,12.4-153.3,12.4-227.5,0c-83.4-13.9-151.5-43.6-159.2-89.2c0,0-53.6,14.4-133.5,22.3c-2.1,0.2-4.3,0.4-6.5,0.6
		c-56.3,5.2-124.8,6.9-196.4-1.9l1.2-2.9l0.5-1.1l4.2-10.4l0.8-1.9l0.2-0.4l2.4-5.8l4.1-10l15.7-38.5l1.2-3l1.1-2.8l3.3-8.1l1-2.3
		l0.8-1.9l0.2-0.4l1.9-4.7l0.4-1l2.4-6H2312.9z"/>
	<path class="st81" d="M2321.9-406.4c-2.7,10.1-5.7,19.5-9,28.4v3.5h-1.3c-1.2,3.2-2.5,6.3-3.9,9.3h-918.1l3.8-9.3l2.9-7l10.1-24.9
		H2321.9z"/>
	<path class="st53" d="M1729.9-1145.9l-15.8,38.7l-8,19.6l-17.4,42.7l-6,14.8l-17.4,42.7L1376.7-278c-7.2-0.7-14.5-1.5-21.7-2.3
		c-1.8-0.2-3.5-0.4-5.3-0.7c-1.8-0.2-3.5-0.5-5.3-0.7l50.8-124.7l277.2-681.2l18-44.2c3-1.4,6.1-2.8,9.3-4.1
		c0.6-0.2,1.1-0.5,1.7-0.7c1.1-0.4,2.3-0.9,3.5-1.3c1.5-0.6,3.1-1.2,4.7-1.7c0.8-0.3,1.6-0.6,2.4-0.8c0.8-0.3,1.6-0.6,2.4-0.8
		c1.7-0.6,3.3-1.1,5-1.6c0.7-0.2,1.5-0.5,2.2-0.7c0.2-0.1,0.4-0.1,0.6-0.2c0.7-0.2,1.3-0.4,2-0.6
		C1726.1-1144.9,1728-1145.4,1729.9-1145.9z"/>
	<g>
		<g>
			<path class="st82" d="M1535.8-416.3l-6,6c-0.6,0.6-0.6,1.6,0,2.2c0.3,0.3,0.7,0.4,1.1,0.4s0.8-0.1,1.1-0.4l6-6
				c0.6-0.6,0.6-1.6,0-2.2C1537.3-416.9,1536.4-416.9,1535.8-416.3z"/>
			<path class="st82" d="M1580.8-410.3l-6.1-6.1c-0.6-0.6-1.6-0.6-2.2,0c-0.6,0.6-0.6,1.6,0,2.2l6.1,6.1c0.3,0.3,0.7,0.4,1.1,0.4
				s0.8-0.1,1.1-0.4C1581.4-408.8,1581.4-409.7,1580.8-410.3z"/>
		</g>
		<path class="st83" d="M1583.9-478c0,0,0.1,0,0.1-0.1l4.6-4.6c0.6-0.6,0.6-1.6,0-2.2c-0.6-0.6-1.6-0.6-2.2,0l-4.6,4.6
			c0,0-0.1,0.1-0.1,0.2c-7-6.3-16.3-10.1-26.4-10.1c-10.2,0-19.4,3.8-26.4,10.1c0-0.1-0.1-0.1-0.1-0.2l-4.6-4.6
			c-0.6-0.6-1.6-0.6-2.2,0c-0.6,0.6-0.6,1.6,0,2.2l4.6,4.6c0,0,0.1,0,0.1,0.1c-6.9,7.1-11.1,16.8-11.1,27.5
			c0,21.9,17.8,39.7,39.7,39.7s39.7-17.8,39.7-39.7C1595-461.2,1590.7-470.9,1583.9-478z"/>
		<circle class="st84" cx="1555.3" cy="-450.5" r="33.6"/>
		<circle class="st53" cx="1555.3" cy="-450.5" r="22.9"/>
		<g>
			<path class="st53" d="M1555.3-485.6c-0.8,0-1.5,0.7-1.5,1.5v3.1c0,0.8,0.7,1.5,1.5,1.5s1.5-0.7,1.5-1.5v-3.1
				C1556.8-484.9,1556.1-485.6,1555.3-485.6z"/>
			<path class="st53" d="M1555.3-421.5c-0.8,0-1.5,0.7-1.5,1.5v3.1c0,0.8,0.7,1.5,1.5,1.5s1.5-0.7,1.5-1.5v-3.1
				C1556.8-420.8,1556.1-421.5,1555.3-421.5z"/>
			<path class="st53" d="M1588.9-452h-3.1c-0.8,0-1.5,0.7-1.5,1.5s0.7,1.5,1.5,1.5h3.1c0.8,0,1.5-0.7,1.5-1.5S1589.7-452,1588.9-452
				z"/>
			<path class="st53" d="M1526.3-450.5c0-0.8-0.7-1.5-1.5-1.5h-3.1c-0.8,0-1.5,0.7-1.5,1.5s0.7,1.5,1.5,1.5h3.1
				C1525.6-448.9,1526.3-449.6,1526.3-450.5z"/>
			<path class="st53" d="M1539.8-480.3c-0.4-0.7-1.4-1-2.1-0.6c-0.7,0.4-1,1.4-0.6,2.1l1.5,2.6c0.3,0.5,0.8,0.8,1.3,0.8
				c0.3,0,0.5-0.1,0.8-0.2c0.7-0.4,1-1.4,0.6-2.1L1539.8-480.3z"/>
			<path class="st53" d="M1571.9-424.8c-0.4-0.7-1.4-1-2.1-0.6c-0.7,0.4-1,1.4-0.6,2.1l1.5,2.6c0.3,0.5,0.8,0.8,1.3,0.8
				c0.3,0,0.5-0.1,0.8-0.2c0.7-0.4,1-1.4,0.6-2.1L1571.9-424.8z"/>
			<path class="st53" d="M1529.6-467.1l-2.6-1.5c-0.7-0.4-1.7-0.2-2.1,0.6c-0.4,0.7-0.2,1.7,0.6,2.1l2.6,1.5
				c0.2,0.1,0.5,0.2,0.8,0.2c0.5,0,1-0.3,1.3-0.8C1530.6-465.7,1530.3-466.6,1529.6-467.1z"/>
			<path class="st53" d="M1585.1-435l-2.6-1.5c-0.7-0.4-1.7-0.2-2.1,0.6c-0.4,0.7-0.2,1.7,0.6,2.1l2.6,1.5c0.2,0.1,0.5,0.2,0.8,0.2
				c0.5,0,1-0.3,1.3-0.8C1586.1-433.6,1585.9-434.6,1585.1-435z"/>
			<path class="st53" d="M1528.1-436.5l-2.6,1.5c-0.7,0.4-1,1.4-0.6,2.1c0.3,0.5,0.8,0.8,1.3,0.8c0.3,0,0.5-0.1,0.8-0.2l2.6-1.5
				c0.7-0.4,1-1.4,0.6-2.1C1529.7-436.7,1528.8-437,1528.1-436.5z"/>
			<path class="st53" d="M1581.7-464.2c0.3,0,0.5-0.1,0.8-0.2l2.6-1.5c0.7-0.4,1-1.4,0.6-2.1c-0.4-0.7-1.4-1-2.1-0.6l-2.6,1.5
				c-0.7,0.4-1,1.4-0.6,2.1C1580.7-464.5,1581.2-464.2,1581.7-464.2z"/>
			<path class="st53" d="M1540.8-425.4c-0.7-0.4-1.7-0.2-2.1,0.6l-1.5,2.6c-0.4,0.7-0.2,1.7,0.6,2.1c0.2,0.1,0.5,0.2,0.8,0.2
				c0.5,0,1-0.3,1.3-0.8l1.5-2.6C1541.8-424,1541.5-424.9,1540.8-425.4z"/>
			<path class="st53" d="M1572.8-480.9c-0.7-0.4-1.7-0.2-2.1,0.6l-1.5,2.6c-0.4,0.7-0.2,1.7,0.6,2.1c0.2,0.1,0.5,0.2,0.8,0.2
				c0.5,0,1-0.3,1.3-0.8l1.5-2.6C1573.8-479.5,1573.6-480.5,1572.8-480.9z"/>
		</g>
		<path class="st83" d="M1572.1-452h-10.9c-0.6-2.1-2.2-3.8-4.4-4.4v-15.5c0-0.8-0.7-1.5-1.5-1.5c-0.8,0-1.5,0.7-1.5,1.5v15.5
			c-0.9,0.2-1.7,0.6-2.4,1.2c-1.4,1.1-2.2,2.8-2.2,4.7c0,1.9,0.9,3.6,2.2,4.7c1.1,0.9,2.4,1.4,3.9,1.4c2.8,0,5.2-2,5.9-4.6h10.9
			c0.8,0,1.5-0.7,1.5-1.5C1573.6-451.3,1572.9-452,1572.1-452z M1555.3-447.4c-1.7,0-3.1-1.4-3.1-3.1c0-1.7,1.4-3.1,3.1-3.1
			s3.1,1.4,3.1,3.1C1558.3-448.8,1557-447.4,1555.3-447.4z"/>
		<path class="st82" d="M1594.8-491.8c4.2,4.2,4.2,11.1,0,15.4l-15.4-15.4C1583.7-496.1,1590.6-496.1,1594.8-491.8z"/>
		<path class="st82" d="M1515.7-491.8c-4.2,4.2-4.2,11.1,0,15.4l15.4-15.4C1526.8-496.1,1520-496.1,1515.7-491.8z"/>
	</g>
	<g>
		<path class="st85" d="M2245-552c-14.1-5.9-30.9,2.2-37.7,18.1c-1.5,3.7-2.8,7.5-2.8,14.6c0,0,0,0,0,0c17.3,0,31.9,12.5,36.8,30.1
			c6.8-8.4,13.3-14.7,16.9-23.2C2265-528.4,2259.1-546.1,2245-552"/>
		<path class="st86" d="M2240.6-460.2c1.6-5.1,2.5-10.6,2.5-16.1c0-24.1-17.2-43-38.5-43c-21.3,0-38.5,19.1-38.5,43.2
			c0,5.4,0.9,10.8,2.5,15.9L2240.6-460.2L2240.6-460.2z"/>
		<path class="st85" d="M2179.1-508.5c-4.6-3.1-6.5-4.3-8.7-5.2c-10.7-4.3-22.4-0.2-26.3,9.2c-3.8,9.4,1.7,20.6,12.4,24.9
			c2.2,0.9,4.5,1.4,9.5,3.3C2166.1-489.2,2171.1-500.7,2179.1-508.5"/>
		<path class="st87" d="M2255.9-454c0,2.2-1.8,4-4,4h-94.7c-2.2,0-4-1.8-4-4v-2.2c0-2.2,1.8-4,4-4h94.7c2.2,0,4,1.8,4,4L2255.9-454
			L2255.9-454z"/>
		<polygon class="st88" points="2232.8,-406.3 2176.3,-406.3 2160.9,-449.9 2248.2,-449.9 		"/>
		<g>
			<path class="st86" d="M2225.1-539.9c-0.9,0-1.7-0.4-2.2-1.2l-7.7-12.8c-0.7-1.2-0.3-2.8,0.9-3.5c1.2-0.7,2.8-0.3,3.5,0.9
				l7.7,12.8c0.7,1.2,0.3,2.8-0.9,3.5C2226-540,2225.5-539.9,2225.1-539.9"/>
			<path class="st86" d="M2232.8-527c-0.2,0-0.4,0-0.6-0.1c-1.4-0.3-2.2-1.7-1.9-3.1l2.6-10.3c0.3-1.4,1.7-2.2,3.1-1.9
				c1.4,0.3,2.2,1.7,1.9,3.1l-2.6,10.3C2235-527.8,2234-527,2232.8-527"/>
			<path class="st86" d="M2255.9-521.9c-0.9,0-1.8-0.5-2.3-1.4c-0.6-1.3-0.1-2.8,1.2-3.4l10.3-5.1c1.3-0.6,2.8-0.1,3.4,1.2
				c0.6,1.3,0.1,2.8-1.2,3.4l-10.3,5.1C2256.7-522,2256.3-521.9,2255.9-521.9"/>
			<path class="st86" d="M2248.2-539.9c-0.7,0-1.3-0.3-1.8-0.8c-1-1-1-2.6,0-3.6l10.3-10.3c1-1,2.6-1,3.6,0c1,1,1,2.6,0,3.6
				l-10.3,10.3C2249.5-540.1,2248.9-539.9,2248.2-539.9"/>
			<path class="st86" d="M2237.9-511.6c-1.2,0-2.2-0.8-2.5-1.9c-0.3-1.4,0.5-2.8,1.9-3.1l10.3-2.6c1.4-0.3,2.8,0.5,3.1,1.9
				c0.3,1.4-0.5,2.8-1.9,3.1l-10.3,2.6C2238.3-511.6,2238.1-511.6,2237.9-511.6"/>
		</g>
		<g>
			<path class="st85" d="M2191.7-475.6c-0.7,0-1.3-0.3-1.8-0.8l-7.7-7.7c-1-1-1-2.6,0-3.6c1-1,2.6-1,3.6,0l7.7,7.7c1,1,1,2.6,0,3.6
				C2193-475.9,2192.4-475.6,2191.7-475.6"/>
			<path class="st85" d="M2217.4-483.3c-0.2,0-0.3,0-0.5-0.1c-1.4-0.3-2.3-1.6-2-3l2.6-12.8c0.3-1.4,1.6-2.3,3-2
				c1.4,0.3,2.3,1.6,2,3l-2.6,12.8C2219.7-484.2,2218.6-483.3,2217.4-483.3"/>
			<path class="st85" d="M2194.3-506.5c-1.1,0-2.1-0.7-2.4-1.8l-5.1-15.4c-0.4-1.3,0.3-2.8,1.6-3.2c1.3-0.5,2.8,0.3,3.2,1.6
				l5.1,15.4c0.4,1.3-0.3,2.8-1.6,3.2C2194.8-506.5,2194.5-506.5,2194.3-506.5"/>
		</g>
		<g>
			<path class="st86" d="M2160.9-506.5c-1.2,0-2.3-0.8-2.5-2.1l-2.6-12.8c-0.3-1.4,0.6-2.7,2-3c1.4-0.3,2.7,0.6,3,2l2.6,12.8
				c0.3,1.4-0.6,2.7-2,3C2161.2-506.5,2161-506.5,2160.9-506.5"/>
			<path class="st86" d="M2148-496.2h-12.8c-1.4,0-2.6-1.2-2.6-2.6c0-1.4,1.2-2.6,2.6-2.6h12.8c1.4,0,2.6,1.2,2.6,2.6
				C2150.6-497.3,2149.4-496.2,2148-496.2"/>
			<path class="st86" d="M2148-473.1c-0.5,0-1.1-0.2-1.5-0.5c-1.1-0.9-1.4-2.5-0.5-3.6l7.7-10.3c0.9-1.1,2.5-1.4,3.6-0.5
				c1.1,0.9,1.4,2.5,0.5,3.6l-7.7,10.3C2149.6-473.4,2148.8-473.1,2148-473.1"/>
		</g>
		<path class="st89" d="M2238.7-423.1l-5-2.9c-2.1-1.3-4.8-1.1-6.6,0.5l-3.9,3.3c-2.1,1.8-4.7,3-7.5,3.1c-2.6,0.1-5-0.6-6.3-2.2
			l-10-10.6c-3-3-5.5-3.2-10-1.3c-2.7,1.1-4.9,3.9-8,3.9c-3.7,0-6.3-1.4-7.7-2.6l-9.4-8.1l11.9,33.8h56.5L2238.7-423.1z"/>
		<path class="st85" d="M2235.4-470.5c-0.8,0-1.6-0.4-2.1-1.1c-0.8-1.2-0.5-2.8,0.7-3.6l15.4-10.3c1.2-0.8,2.8-0.5,3.6,0.7
			c0.8,1.2,0.5,2.8-0.7,3.6l-15.4,10.3C2236.4-470.6,2235.9-470.5,2235.4-470.5"/>
	</g>
	<g>
		<rect x="1414" y="-1034.1" class="st43" width="147.9" height="147.9"/>
		<rect x="1427.1" y="-1021" class="st38" width="121.6" height="121.6"/>
		<g>
			<rect x="1488.8" y="-918.2" class="st43" width="2.1" height="15.7"/>
			<rect x="1488.8" y="-1017.8" class="st43" width="2.1" height="15.7"/>
		</g>
		<g>
			<rect x="1430.3" y="-961.2" class="st43" width="15.7" height="2.1"/>
			<rect x="1529.9" y="-961.2" class="st43" width="15.7" height="2.1"/>
		</g>
		<polygon class="st25" points="1487.7,-1002.3 1487.7,-961.7 1451.8,-961.7 1451.8,-957.7 1487.7,-957.7 1491.7,-957.7 
			1491.7,-961.7 1491.7,-1002.3 		"/>
		<circle class="st90" cx="1490.1" cy="-959.6" r="4.2"/>
		
			<rect x="1441.9" y="-944.9" transform="matrix(0.8005 -0.5994 0.5994 0.8005 859.1696 692.1376)" class="st90" width="54.5" height="0.9"/>
		<circle class="st38" cx="1490.1" cy="-959.6" r="2.3"/>
	</g>
	<g>
		<path class="st91" d="M1349.4-1279.1v203h-6.4v-203.6C1345.1-1279.5,1347.3-1279.3,1349.4-1279.1z"/>
		<circle class="st92" cx="1345.1" cy="-1062.1" r="19.8"/>
		<path class="st93" d="M1406.2-1074.9c0,0.5-1.1,1-2.4,1h-114.2c-1.3,0-2.4-0.4-2.4-1v-9.8c0-0.5,1.1-1,2.4-1h114.2
			c1.3,0,2.4,0.4,2.4,1V-1074.9z"/>
	</g>
	<path class="st94" d="M2243.1-476.3c0-23.9-17-42.7-38-43c-0.4,0-0.7,0-1,0c0,0,37.5,29.8,6.2,58.9l30.3,0.1v0
		C2242.2-465.4,2243.1-470.8,2243.1-476.3z"/>
</g>
<g>
	<defs>
		<circle id="SVGID_1_" cx="371" cy="375" r="361"/>
	</defs>
	<clipPath id="SVGID_2_">
		<use xlink:href="#SVGID_1_"  style="overflow:visible;"/>
	</clipPath>
	<circle class="st95" cx="371" cy="375" r="361"/>
	<polygon class="st96" points="594.5,947 154.5,947 214.5,605 534.5,605 	"/>
	<g class="st97">
		<path class="st0" d="M372.3,639.3h-2.2c-21.3,0-38.6-17.3-38.6-38.6v-87.4c0-21.3,17.3-38.6,38.6-38.6h2.2
			c21.3,0,38.6,17.3,38.6,38.6v87.4C410.9,622,393.6,639.3,372.3,639.3z"/>
		<path class="st5" d="M331.5,530.8v17.4l72.1,75.2c4.6-6.4,7.4-14.2,7.4-22.7v-79.2C379.2,522,348.5,527.3,331.5,530.8z"/>
		<circle class="st0" cx="519.3" cy="344.6" r="36.1"/>
		<path class="st0" d="M555.4,344.6c0,19.9-16.2,36.1-36.1,36.1c-5.5,0-10.7-1.2-15.3-3.4v44.2c0,73.7-60.3,134-134,134h0
			c-73.7,0-134-60.3-134-134v-43.7c-4.4,1.9-9.2,2.9-14.3,2.9c-19.9,0-36.1-16.2-36.1-36.1c0-19.9,16.2-36.1,36.1-36.1
			c5.1,0,9.9,1,14.3,2.9v-57.7c0-24.7,20.2-44.9,44.9-44.9H459c24.7,0,44.9,20.2,44.9,44.9v58.2c4.7-2.2,9.8-3.4,15.3-3.4
			C539.2,308.5,555.4,324.7,555.4,344.6z"/>
		<path class="st5" d="M519.3,308.5c-5.5,0-10.7,1.2-15.3,3.4v-58.2c0-18.5-11.3-34.5-27.4-41.3l-109.2,10.9v332.1
			c0.1,0,0.2,0,0.4,0l25.1-1.9c62.9-10.9,111.2-66.1,111.2-132v-44.2c4.7,2.2,9.8,3.4,15.3,3.4c19.9,0,36.1-16.2,36.1-36.1
			C555.4,324.7,539.2,308.5,519.3,308.5z"/>
		<g>
			<path class="st6" d="M338.7,289.8h-62.1c-3.6,0-6.5-2.9-6.5-6.5l0,0c0-3.6,2.9-6.5,6.5-6.5h62.1c3.6,0,6.5,2.9,6.5,6.5l0,0
				C345.2,286.8,342.3,289.8,338.7,289.8z"/>
		</g>
		<g>
			<g>
				<path class="st6" d="M387.2,287.3c12.6,9.6,28.1,3.6,39.5-4.8c5.5-4.1,24.4-23.2,29.9-11.1c3.4,7.6,14.7,1,11.2-6.6
					c-6.6-14.5-23.1-11.2-33.9-4c-10.7,7.2-26.4,25.8-40.2,15.3c-2.8-2.2-7.2-0.4-8.9,2.3C382.9,281.8,384.5,285.2,387.2,287.3
					L387.2,287.3z"/>
			</g>
		</g>
		<g>
			<rect x="222.5" y="197.3" class="st6" width="28.9" height="125.7"/>
		</g>
		<path d="M496.9,314.3v1.4c-1.8,1.4-3.5,2.9-5.1,4.6v2.6h-15.2v-8.7H496.9z"/>
		<circle class="st7" cx="307.7" cy="331.6" r="46.2"/>
		<path class="st8" d="M290.5,367.7h-21.7l51.8-80.9H333c4,0,6.4,4.4,4.2,7.7L290.5,367.7z"/>
		<path class="st8" d="M323.2,355h-14.1l33.6-52.5h6c3.5,0,5.6,3.9,3.7,6.8L323.2,355z"/>
		<circle class="st7" cx="430.4" cy="331.6" r="46.2"/>
		<path class="st8" d="M413.2,367.7h-21.7l51.8-80.9h12.5c4,0,6.4,4.4,4.2,7.7L413.2,367.7z"/>
		<rect x="241.2" y="314.3" width="20.2" height="8.7"/>
		<path class="st8" d="M445.9,355h-14.1l33.6-52.5h6c3.5,0,5.6,3.9,3.7,6.8L445.9,355z"/>
		<g>
			<path class="st6" d="M499.1,223.3H260.2c-27.2,0-49.3-22.1-49.3-49.3v-9.7c0-27.2,22.1-49.3,49.3-49.3h284.3v62.9
				C544.5,203,524.2,223.3,499.1,223.3z"/>
		</g>
		<path class="st9" d="M522.9,166.8c0,25.6-19.3,36.3-44.9,36.3"/>
		<path class="st10" d="M317.2,446.9v5.6l0.5,0.5l0.2-11.6C317.5,443.1,317.2,445,317.2,446.9z"/>
		<path class="st11" d="M422.7,452.3v-5.4c0-1.9-0.3-3.7-0.8-5.5c-2.4-8.3-10.1-14.5-19.1-14.5h-65.6c-9.1,0-16.8,6.1-19.2,14.4
			l-0.2,11.6l-0.5-0.5L236,377.9v43.6c0,73.7,60.3,134,133.9,134h0c73.7,0,134-60.3,134-134v-43.7L422.7,452.3z M408,496.4
			c0,7.9-6.5,14.4-14.4,14.4h-47.3c-7.9,0-14.4-6.5-14.4-14.4v-39.1c0-7.9,6.5-14.4,14.4-14.4h47.3c7.9,0,14.4,6.5,14.4,14.4V496.4z
			"/>
		<circle class="st0" cx="222.5" cy="344.6" r="36.1"/>
		<path d="M430.7,279.2c-23.1,0-42.7,14.9-49.7,35.6h-22.4c-7-20.7-26.6-35.6-49.7-35.6c-29,0-52.5,23.5-52.5,52.5
			c0,29,23.5,52.5,52.5,52.5c29,0,52.5-23.5,52.5-52.5c0-2.5-0.2-5-0.5-7.5h17.9c-0.4,2.4-0.5,4.9-0.5,7.5c0,29,23.5,52.5,52.5,52.5
			c29,0,52.5-23.5,52.5-52.5C483.2,302.7,459.7,279.2,430.7,279.2z M308.9,376.6c-24.8,0-45-20.1-45-45s20.1-45,45-45s45,20.1,45,45
			S333.7,376.6,308.9,376.6z M430.7,376.6c-24.8,0-45-20.1-45-45s20.1-45,45-45c24.8,0,45,20.1,45,45S455.5,376.6,430.7,376.6z"/>
		<polyline class="st12" points="345.4,405.3 367.8,421.2 388.4,405.3 		"/>
		<polygon class="st0" points="491.8,320.3 491.8,323 489.7,323 		"/>
		<g>
			<rect x="235.5" y="302.8" class="st6" width="15.9" height="89.5"/>
		</g>
		<g>
			<rect x="488.2" y="302.8" class="st6" width="15.9" height="89.5"/>
		</g>
		<g>
			<path class="st6" d="M518.5,208.9v99.7c-9.2,0-17.7,2.7-24.6,7.2c-2.1,1.4-4,2.9-5.7,4.6V208.9H518.5z"/>
		</g>
	</g>
</g>
</svg>
