<?xml version="1.0" encoding="utf-8"?>
<!-- Generator: Adobe Illustrator 21.0.0, SVG Export Plug-In . SVG Version: 6.00 Build 0)  -->
<svg version="1.1" id="Layer_1" xmlns="http://www.w3.org/2000/svg" xmlns:xlink="http://www.w3.org/1999/xlink" x="0px" y="0px"
	 viewBox="0 0 1244 949" style="enable-background:new 0 0 1244 949;" xml:space="preserve">
<style type="text/css">
	.st0{fill:#FFD199;}
	.st1{fill:#567CD1;}
	.st2{opacity:0.3;fill:#567CD1;enable-background:new    ;}
	.st3{opacity:0.6;}
	.st4{fill:#304975;}
	.st5{opacity:0.4;fill:#FFD199;enable-background:new    ;}
	.st6{fill:#140A00;}
	.st7{opacity:0.83;fill:#CFEDFF;enable-background:new    ;}
	.st8{opacity:0.74;fill:#FFFFFF;enable-background:new    ;}
	.st9{fill:none;stroke:#8E4E32;stroke-width:8.6656;stroke-miterlimit:10;}
	.st10{fill:#211100;}
	.st11{fill:#3A1607;}
	.st12{fill:#D39C5F;}
	.st13{fill:#A3DB95;}
	.st14{fill:#B2E5F4;}
	.st15{fill:#00AAAD;}
	.st16{fill:#0A3542;}
	.st17{fill:#D6D6D6;}
	.st18{fill:#ED9A62;}
	.st19{fill:#F0F0F0;}
	.st20{fill:#492A15;}
	.st21{fill:#BDBDBD;}
	.st22{fill:#A2A3A4;}
	.st23{fill:#8C5028;}
	.st24{fill:#8A8A8A;}
	.st25{fill:#666666;}
	.st26{fill:#333333;}
	.st27{fill:#4D4D4D;}
	.st28{fill:#999999;}
	.st29{fill:#DFE0E1;}
	.st30{fill:#CDCECF;}
	.st31{fill:#B3B5B6;}
	.st32{fill:#578DA0;}
	.st33{fill:#ACD6F2;}
	.st34{fill:#5EAACF;}
	.st35{fill:#6BA795;}
	.st36{fill:#7B7031;}
	.st37{opacity:0.2;}
	.st38{fill:#F2F2F2;}
	.st39{fill:#518394;}
	.st40{fill:#CCCCCC;}
	.st41{fill:#E2E2E2;}
	.st42{fill:#A5A5A5;}
	.st43{fill:#B3B3B3;}
	.st44{opacity:0.1;enable-background:new    ;}
	.st45{fill:#78151B;}
	.st46{fill:#EFA706;}
	.st47{fill:none;stroke:#8E4E32;stroke-width:4.2289;stroke-miterlimit:10;}
	.st48{fill:#E6E6E6;}
	.st49{fill:#C6C7C7;}
	.st50{fill:#96BEE5;}
	.st51{fill:#CDCECE;}
	.st52{fill:#373339;}
	.st53{fill:#FFFFFF;}
	.st54{opacity:0.3;fill:#5B565D;enable-background:new    ;}
	.st55{fill:#D4D4CF;}
	.st56{fill:#231000;}
	.st57{fill:#CFEDFF;}
	.st58{opacity:0.83;fill:#8FC8E5;enable-background:new    ;}
	.st59{opacity:0.7;fill:#FFFFFF;enable-background:new    ;}
	.st60{opacity:0.7;fill:#D39C5F;enable-background:new    ;}
	.st61{fill:#B60700;}
	.st62{fill:none;}
	.st63{fill:#5B565D;}
	.st64{fill:#48444A;}
	.st65{fill:#9E0404;}
	.st66{fill:#F1F1F1;}
	.st67{fill:#A7A8A3;}
	.st68{fill:none;stroke:#594A42;stroke-width:3.9891;stroke-miterlimit:10;}
	.st69{fill:#F5D38A;}
	.st70{fill:#DAAC69;}
	.st71{fill:#B2D235;}
	.st72{fill:#00878A;}
	.st73{fill:#F09B36;}
	.st74{fill:#454545;}
	.st75{fill:#980110;}
	.st76{fill:#D83030;}
	.st77{fill:#FAFFBE;}
	.st78{fill:#AB1D28;}
	.st79{fill:#F28076;}
	.st80{fill:#545454;}
	.st81{fill:#BCBCBC;}
	.st82{fill:#7383BF;}
	.st83{fill:#424A60;}
	.st84{fill:#E7ECED;}
	.st85{fill:#91CF96;}
	.st86{fill:#5ABA63;}
	.st87{fill:#7F5B53;}
	.st88{fill:#AF8066;}
	.st89{fill:#D9AA94;}
	.st90{fill:#F58C7E;}
	.st91{fill:#808080;}
	.st92{fill:#E8D4AA;}
	.st93{fill:#306E89;}
	.st94{opacity:0.4;fill:#5ABA63;enable-background:new    ;}
</style>
<g>
	<path class="st0" d="M162.6,550.9L31,496.3c-5.4-2.2-3.7-9.7,2.3-9.7H169c0,0,21.9,2.9,37.6,37.6S162.6,550.9,162.6,550.9z"/>
	<path class="st0" d="M1085.4,550.9l131.6-54.6c5.4-2.2,3.7-9.7-2.3-9.7H1079c0,0-21.9,2.9-37.6,37.6
		C1025.7,558.8,1085.4,550.9,1085.4,550.9z"/>
	<path class="st1" d="M934.8,700.7l160.9-131.9l-52.9-64.5l-161.1,132L773,503.6v-1.1H476.9v1.2l-0.8-0.7L366.3,637L204.5,504.3
		l-52.9,64.5l173.8,142.5c27.9,22.8,68.6,19.3,92.3-7.4c3.5-3,6.9-6.4,9.9-10.1l49.3-60.1V930H773V635.3l54.7,66.7
		c23.6,28.8,66.1,33,94.8,9.4l12.4-10.2l-0.3-0.3C934.7,700.8,934.8,700.8,934.8,700.7z"/>
	<path class="st2" d="M541.9,504.5c0,47.6,50.8,86.1,113.4,86.1s113.4-38.5,113.4-86.1c0-0.7,0-1.3-0.1-2H542
		C542,503.2,541.9,503.8,541.9,504.5z"/>
	<path class="st0" d="M626.8,560.3h-2.2c-21.3,0-38.6-17.3-38.6-38.6v-87.4c0-21.3,17.3-38.6,38.6-38.6h2.2
		c21.3,0,38.6,17.3,38.6,38.6v87.4C665.4,543,648.1,560.3,626.8,560.3z"/>
	<g class="st3">
		<path class="st4" d="M706.9,617.5H541.6c-9.4,0-17,7.6-17,17v102c0,9.4,7.6,17,17,17h66.3v15.4h-13.4c-6.3,0-11.5,5.1-11.5,11.5
			c0,6.3,5.1,11.5,11.5,11.5H654c6.3,0,11.5-5.1,11.5-11.5c0-6.3-5.1-11.5-11.5-11.5h-13.4v-15.4h66.3c9.4,0,17-7.6,17-17v-102
			C723.9,625.1,716.3,617.5,706.9,617.5z M544.6,717.1c0-9,7.3-16.3,16.3-16.3s16.3,7.3,16.3,16.3s-7.3,16.3-16.3,16.3
			C551.9,733.4,544.6,726.1,544.6,717.1z M704.2,733.8H604c0.5-1.2,0.2-2.5-0.8-3.4l-6.5-5.8c0.5-2.4,0.8-4.9,0.8-7.5
			s-0.3-5.1-0.8-7.5l6.5-5.8c1.1-1,1.3-2.5,0.6-3.8l-6.7-11.5c-0.7-1.2-2.2-1.8-3.6-1.4l-8.3,2.8c-3.7-3.3-8.1-5.9-13-7.5l-1.8-8.6
			c-0.3-1.4-1.5-2.4-3-2.4h-13.3c-1.4,0-2.7,1-3,2.4l-1.8,8.6c-1.8,0.6-3.5,1.3-5.2,2.2v-47.3H704L704.2,733.8L704.2,733.8z"/>
		<path class="st4" d="M614.2,684.6c-0.8-0.3-1.7,0.1-2.1,0.8l-3.9,6.8c-0.4,0.7-0.3,1.7,0.4,2.2l3.8,3.4c-0.3,1.4-0.5,2.9-0.5,4.4
			s0.2,3,0.5,4.4l-3.8,3.4c-0.6,0.6-0.8,1.5-0.4,2.2l3.9,6.8c0.4,0.7,1.3,1.1,2.1,0.8l4.9-1.6c2.2,2,4.8,3.5,7.7,4.4l1,5
			c0.2,0.8,0.9,1.4,1.8,1.4h7.9c0.8,0,1.6-0.6,1.8-1.4l1-5c2.9-0.9,5.5-2.5,7.7-4.4l4.9,1.6c0.8,0.3,1.7-0.1,2.1-0.8l3.9-6.8
			c0.4-0.7,0.3-1.7-0.4-2.2l-3.8-3.4c0.3-1.4,0.5-2.9,0.5-4.4s-0.2-3-0.5-4.4l3.8-3.4c0.6-0.6,0.8-1.5,0.4-2.2l-3.9-6.8
			c-0.4-0.7-1.3-1.1-2.1-0.8l-4.9,1.6c-2.2-2-4.8-3.5-7.7-4.4l-1-5c-0.2-0.8-0.9-1.4-1.7-1.4h-7.9c-0.8,0-1.6,0.6-1.8,1.4l-1,5
			c-2.9,0.9-5.5,2.5-7.7,4.4L614.2,684.6z M633.5,692.7c5.3,0,9.6,4.3,9.6,9.6s-4.3,9.6-9.6,9.6s-9.6-4.3-9.6-9.6
			S628.2,692.7,633.5,692.7z"/>
		<path class="st4" d="M589.8,662.3c-0.2,1-0.3,2-0.3,3s0.1,2.1,0.3,3l-2.6,2.3c-0.4,0.4-0.5,1-0.2,1.5l2.7,4.7
			c0.3,0.5,0.9,0.7,1.4,0.5l3.4-1.1c1.5,1.4,3.3,2.4,5.3,3l0.7,3.5c0.1,0.6,0.6,1,1.2,1h5.4c0.6,0,1.1-0.4,1.2-1l0.7-3.5
			c2-0.6,3.7-1.7,5.3-3l3.4,1.1c0.6,0.2,1.2,0,1.4-0.5l2.7-4.7c0.3-0.5,0.2-1.1-0.2-1.5l-2.6-2.3c0.2-1,0.3-2,0.3-3s-0.1-2.1-0.3-3
			l2.6-2.3c0.4-0.4,0.5-1,0.2-1.5l-2.7-4.7c-0.3-0.5-0.9-0.7-1.4-0.5l-3.4,1.1c-1.5-1.4-3.3-2.4-5.3-3l-0.7-3.5
			c-0.1-0.6-0.6-1-1.2-1h-5.4c-0.6,0-1.1,0.4-1.2,1l-0.7,3.5c-2,0.6-3.7,1.7-5.3,3l-3.4-1.1c-0.6-0.2-1.2,0-1.4,0.5l-2.7,4.7
			c-0.3,0.5-0.2,1.1,0.2,1.5L589.8,662.3z M604.3,658.8c3.6,0,6.6,2.9,6.6,6.6c0,3.6-2.9,6.6-6.6,6.6s-6.6-2.9-6.6-6.6
			S600.6,658.8,604.3,658.8z"/>
	</g>
	<path class="st5" d="M586,451.8v17.4l72.1,75.2c4.6-6.4,7.4-14.2,7.4-22.7v-79.2C633.7,443,603,448.3,586,451.8z"/>
	<polyline class="st2" points="773,635.4 476.9,930 773,930 	"/>
	<g>
		<circle class="st0" cx="773.7" cy="265.6" r="36.1"/>
		<path class="st0" d="M809.8,265.6c0,19.9-16.2,36.1-36.1,36.1c-5.5,0-10.7-1.2-15.3-3.4v44.2c0,73.7-60.3,134-134,134l0,0
			c-73.7,0-134-60.3-134-134v-43.7c-4.4,1.9-9.2,2.9-14.3,2.9c-19.9,0-36.1-16.2-36.1-36.1s16.2-36.1,36.1-36.1
			c5.1,0,9.9,1,14.3,2.9v-57.7c0-24.7,20.2-44.9,44.9-44.9h178.1c24.7,0,44.9,20.2,44.9,44.9v58.2c4.7-2.2,9.8-3.4,15.3-3.4
			C793.7,229.5,809.8,245.7,809.8,265.6z"/>
		<path class="st5" d="M773.7,229.5c-5.5,0-10.7,1.2-15.3,3.4v-58.2c0-18.5-11.3-34.5-27.4-41.3l-109.2,10.9v332.1
			c0.1,0,0.2,0,0.4,0l25.1-1.9c62.9-10.9,111.2-66.1,111.2-132v-44.2c4.7,2.2,9.8,3.4,15.3,3.4c19.9,0,36.1-16.2,36.1-36.1
			S793.7,229.5,773.7,229.5z"/>
		<g>
			<path class="st6" d="M593.2,210.8h-62.1c-3.6,0-6.5-2.9-6.5-6.5l0,0c0-3.6,2.9-6.5,6.5-6.5h62.1c3.6,0,6.5,2.9,6.5,6.5l0,0
				C599.7,207.8,596.8,210.8,593.2,210.8z"/>
		</g>
		<g>
			<g>
				<path class="st6" d="M641.7,208.3c12.6,9.6,28.1,3.6,39.5-4.8c5.5-4.1,24.4-23.2,29.9-11.1c3.4,7.6,14.7,1,11.2-6.6
					c-6.6-14.5-23.1-11.2-33.9-4c-10.7,7.2-26.4,25.8-40.2,15.3c-2.8-2.2-7.2-0.4-8.9,2.3C637.4,202.8,638.9,206.2,641.7,208.3
					L641.7,208.3z"/>
			</g>
		</g>
		<g>
			<rect x="476.9" y="118.3" class="st6" width="28.9" height="125.7"/>
		</g>
		<path d="M751.3,235.3v1.4c-1.8,1.4-3.5,2.9-5.1,4.6v2.6H731v-8.7L751.3,235.3L751.3,235.3z"/>
		<g>
			<path class="st6" d="M773,129.9v99.7c-9.2,0-17.7,2.7-24.6,7.2c-2.1,1.4-4,2.9-5.7,4.6V129.9H773z"/>
		</g>
		<circle class="st7" cx="562.1" cy="252.6" r="46.2"/>
		<path class="st8" d="M544.9,288.7h-21.7l51.8-80.9h12.5c4,0,6.4,4.4,4.2,7.7L544.9,288.7z"/>
		<path class="st8" d="M577.6,276h-14.1l33.6-52.5h6c3.5,0,5.6,3.9,3.7,6.8L577.6,276z"/>
		<circle class="st7" cx="684.9" cy="252.6" r="46.2"/>
		<path class="st8" d="M667.7,288.7H646l51.8-80.9h12.5c4,0,6.4,4.4,4.2,7.7L667.7,288.7z"/>
		<rect x="495.7" y="235.3" width="20.2" height="8.7"/>
		<path class="st8" d="M700.4,276h-14.1l33.6-52.5h6c3.5,0,5.6,3.9,3.7,6.8L700.4,276z"/>
		<g>
			<path class="st6" d="M753.6,144.3H514.7c-27.2,0-49.3-22.1-49.3-49.3v-9.7c0-27.2,22.1-49.3,49.3-49.3H799v62.9
				C799,124,778.7,144.3,753.6,144.3z"/>
		</g>
		<path class="st9" d="M777.3,87.8c0,25.6-19.3,36.3-44.9,36.3"/>
		<path class="st10" d="M571.7,367.9v5.6l0.5,0.5l0.2-11.6C572,364.1,571.7,366,571.7,367.9z"/>
		<path class="st11" d="M677.1,373.3v-5.4c0-1.9-0.3-3.7-0.8-5.5c-2.4-8.3-10.1-14.5-19.1-14.5h-65.6c-9.1,0-16.8,6.1-19.2,14.4
			l-0.2,11.6l-0.5-0.5l-81.2-74.5v43.6c0,73.7,60.3,134,133.9,134l0,0c73.7,0,134-60.3,134-134v-43.7L677.1,373.3z M662.5,417.4
			c0,7.9-6.5,14.4-14.4,14.4h-47.3c-7.9,0-14.4-6.5-14.4-14.4v-39.1c0-7.9,6.5-14.4,14.4-14.4h47.3c7.9,0,14.4,6.5,14.4,14.4V417.4z
			"/>
		<circle class="st0" cx="476.9" cy="265.6" r="36.1"/>
		<path d="M685.1,200.2c-23.1,0-42.7,14.9-49.7,35.6H613c-7-20.7-26.6-35.6-49.7-35.6c-29,0-52.5,23.5-52.5,52.5
			s23.5,52.5,52.5,52.5s52.5-23.5,52.5-52.5c0-2.5-0.2-5-0.5-7.5h17.9c-0.4,2.4-0.5,4.9-0.5,7.5c0,29,23.5,52.5,52.5,52.5
			s52.5-23.5,52.5-52.5C737.6,223.7,714.1,200.2,685.1,200.2z M563.3,297.6c-24.8,0-45-20.1-45-45s20.1-45,45-45
			c24.8,0,45,20.1,45,45S588.2,297.6,563.3,297.6z M685.1,297.6c-24.8,0-45-20.1-45-45s20.1-45,45-45s45,20.1,45,45
			S710,297.6,685.1,297.6z"/>
		<polyline class="st12" points="599.9,326.3 622.3,342.2 642.8,326.3 		"/>
	</g>
	<polygon class="st0" points="746.3,241.3 746.3,244 744.1,244 	"/>
	<g>
		<rect x="489.9" y="223.8" class="st6" width="15.9" height="89.5"/>
	</g>
	<g>
		<rect x="742.7" y="223.8" class="st6" width="15.9" height="89.5"/>
	</g>
</g>
<g>
	<path class="st13" d="M2675.1,351c-0.6,0.7-1.2,1.4-1.7,2C2673.9,352.3,2674.5,351.7,2675.1,351z"/>
	<path class="st13" d="M2685.6,340.7c-0.9,0.7-1.7,1.5-2.5,2.2C2683.9,342.2,2684.7,341.4,2685.6,340.7z"/>
	<path class="st13" d="M3300.5,915c-0.5,4.2-1,8.2-1.5,12.2c-2.6,19.3-5.9,36.5-10.1,52.1c-2.4,9.2-5.1,17.7-8.1,25.7
		c-0.4,1.1-0.8,2.1-1.2,3.2c-1.1,2.9-2.3,5.7-3.5,8.5c-27.2,61.9-75,90.4-152.7,123.1c-15.6,6.6-34.6,11.8-55.6,15.7
		c-60.7,11.2-139.1,11.3-206.4,0c-75.7-12.7-137.4-39.6-144.4-80.9c0,0-48.6,13.1-121.1,20.2c-1.9,0.2-3.9,0.4-5.9,0.6
		c-45.9,4.2-100.7,5.9-158.5,0.4c-6.5-0.6-13.1-1.3-19.7-2.1c-1.6-0.2-3.2-0.4-4.8-0.6s-3.2-0.4-4.8-0.6l0,0
		c-0.9-0.1-1.7-0.2-2.6-0.4c-0.2,0-0.4,0-0.6-0.1c-0.2,0-0.5-0.1-0.7-0.1v-90h26.8v-22.6h33.4l6.6-16.1l2.2-5.3l3.9-9.4l0.7-1.7
		l0.1-0.3l2.1-5.2l3.7-9.1l2-4.9l12.3-30.1l2.2-5.3l3.9-9.4l0.8-2l20.1-49.3l2.9-7l2.5-6.2l3.9-9.5l157.2-385.2l9.4-23l15.8-38.8
		l7.3-17.8l11.4-27.9c1.4-0.5,2.8-1,4.2-1.5c0.7-0.3,1.4-0.5,2.2-0.8s1.5-0.5,2.2-0.8c1.5-0.5,3-1,4.6-1.5c0.7-0.2,1.3-0.4,2-0.6
		c0.2,0,0.4-0.1,0.5-0.1c0.6-0.2,1.2-0.4,1.8-0.5c1.7-0.5,3.4-0.9,5.1-1.4c0.6-0.2,1.3-0.3,1.9-0.5c0.6-0.2,1.3-0.3,1.9-0.5
		c2.7-0.7,5.5-1.3,8.3-1.9c0.6-0.1,1.2-0.3,1.8-0.4c0.7-0.1,1.4-0.3,2.1-0.4c26.3-5.2,59.1-7.7,99.7-5.7c21.3,1,40.7,3,58.4,5.7
		c9.1,1.4,17.8,3,26,4.7c8.6,1.8,16.7,3.8,24.3,5.9c29.5,8.2,52,18.3,68.9,28.2c10.5,6.2,18.9,12.3,25.5,17.8
		c14.8,12.4,20.3,21.8,20.3,21.8s37.2-2.3,78,11.9c12.5,4.4,25.4,10.4,37.6,18.5c11.5,7.6,22.5,17.1,32.1,29
		c6.2,7.7,11.9,16.4,16.7,26.2c5.6,11.3,10.1,24.2,13.2,38.8c0.9,4.3,1.7,8.8,2.4,13.4c0.7,5,1.3,10.2,1.6,15.5
		c0.6,8.1,0.8,15.9,0.8,23.3c0,5.2-0.2,10.2-0.5,15.1c-0.9,14.3-2.9,27.2-5.9,38.8c-8.4,32.8-24,55-40.6,69.9
		c-11.3,10.2-23,17-33.1,21.5c-10.4,4.6-19.2,6.9-24.3,7.9c-3,0.6-4.7,0.8-4.7,0.8s1.7,0.7,4.7,2.1c6.7,3.1,19.8,9.6,35.4,19.8
		c10.8,7.1,22.7,15.9,34.4,26.6c9.5,8.7,18.9,18.7,27.4,29.9c8.8,11.6,16.6,24.5,22.6,38.8c1.8,4.3,3.5,8.8,5,13.4
		c1.8,5.6,3.3,11.3,4.6,17.3C3301.8,877.9,3302.8,895.7,3300.5,915z"/>
	<path class="st14" d="M2675.1,351c-0.6,0.7-1.2,1.4-1.7,2C2673.9,352.3,2674.5,351.7,2675.1,351z"/>
	<path class="st14" d="M2685.6,340.7c-0.9,0.7-1.7,1.5-2.5,2.2C2683.9,342.2,2684.7,341.4,2685.6,340.7z"/>
	<path class="st14" d="M3300.5,915c-0.5,4.2-1,8.2-1.5,12.2c-2.6,19.3-5.9,36.5-10.1,52.1c-2.4,9.2-5.1,17.7-8.1,25.7
		c-0.4,1.1-0.8,2.1-1.2,3.2c-1.1,2.9-2.3,5.7-3.5,8.5c-27.2,61.9-75,90.4-152.7,123.1c-15.6,6.6-34.6,11.8-55.6,15.7h-206.4
		c-75.7-12.7-137.4-39.6-144.4-80.9c0,0-48.6,13.1-121.1,20.2c-1.9,0.2-3.9,0.4-5.9,0.6c-45.9,4.2-100.7,5.9-158.5,0.4
		c-6.5-0.6-13.1-1.3-19.7-2.1c-1.6-0.2-3.2-0.4-4.8-0.6s-3.2-0.4-4.8-0.6l0,0c-0.9-0.1-1.7-0.2-2.6-0.4c-0.2,0-0.4,0-0.6-0.1v-90.1
		h26.1v-22.6h33.4l6.6-16.1l2.2-5.3l3.9-9.4l0.7-1.7l0.1-0.3l2.1-5.2l3.7-9.1l2-4.9l12.3-30.1l2.2-5.3l3.9-9.4l0.8-2l20.1-49.3
		l2.9-7l2.5-6.2l3.9-9.5l157.2-385.2l9.4-23l15.8-38.8l7.3-17.8l11.4-27.9c1.4-0.5,2.8-1,4.2-1.5c0.7-0.3,1.4-0.5,2.2-0.8
		s1.5-0.5,2.2-0.8c1.5-0.5,3-1,4.6-1.5c0.7-0.2,1.3-0.4,2-0.6c0.2,0,0.4-0.1,0.5-0.1c0.6-0.2,1.2-0.4,1.8-0.5
		c1.7-0.5,3.4-0.9,5.1-1.4c0.6-0.2,1.3-0.3,1.9-0.5c0.6-0.2,1.3-0.3,1.9-0.5c2.7-0.7,5.5-1.3,8.3-1.9c0.6-0.1,1.2-0.3,1.8-0.4
		c0.7-0.1,1.4-0.3,2.1-0.4c26.3-5.2,59.1-7.7,99.7-5.7c21.3,1,40.7,3,58.4,5.7c9.1,1.4,17.8,3,26,4.7c8.6,1.8,16.7,3.8,24.3,5.9
		c29.5,8.2,52,18.3,68.9,28.2c10.5,6.2,18.9,12.3,25.5,17.8c14.8,12.4,20.3,21.8,20.3,21.8s37.2-2.3,78,11.9
		c12.5,4.4,25.4,10.4,37.6,18.5c11.5,7.6,22.5,17.1,32.1,29c6.2,7.7,11.9,16.4,16.7,26.2c5.6,11.3,10.1,24.2,13.2,38.8
		c0.9,4.3,1.7,8.8,2.4,13.4c0.7,5,1.3,10.2,1.6,15.5c0.6,8.1,0.8,15.9,0.8,23.3c0,5.2-0.2,10.2-0.5,15.1
		c-0.9,14.3-2.9,27.2-5.9,38.8c-8.4,32.8-24,55-40.6,69.9c-11.3,10.2-23,17-33.1,21.5c-10.4,4.6-19.2,6.9-24.3,7.9
		c-3,0.6-4.7,0.8-4.7,0.8s1.7,0.7,4.7,2.1c6.7,3.1,19.8,9.6,35.4,19.8c10.8,7.1,22.7,15.9,34.4,26.6c9.5,8.7,18.9,18.7,27.4,29.9
		c8.8,11.6,16.6,24.5,22.6,38.8c1.8,4.3,3.5,8.8,5,13.4c1.8,5.6,3.3,11.3,4.6,17.3C3301.8,877.9,3302.8,895.7,3300.5,915z"/>
	<g id="XMLID_2_">
		<g id="XMLID_27_">
			<g id="XMLID_65_">
				<path class="st15" d="M2595.7,252.8v0.6c-0.3-0.2-0.5-0.4-0.8-0.6H2595.7z"/>
			</g>
			<g id="XMLID_57_">
				<path class="st15" d="M2641.3,305.8c-0.2-0.3-0.3-0.6-0.5-0.9l0,0C2641,305.2,2641.1,305.5,2641.3,305.8z"/>
				<path class="st15" d="M2808.8,304.9v38.8h-90.9l11.4-27.9c1.4-0.5,2.8-1,4.2-1.5c0.7-0.3,1.4-0.5,2.2-0.8s1.5-0.5,2.2-0.8
					c1.5-0.5,3-1,4.6-1.5c0.7-0.2,1.3-0.4,2-0.6c0.2,0,0.4-0.1,0.5-0.1c0.6-0.2,1.2-0.4,1.8-0.5c1.7-0.5,3.4-0.9,5.1-1.4
					c0.6-0.2,1.3-0.3,1.9-0.5c0.6-0.2,1.3-0.3,1.9-0.5c2.7-0.7,5.5-1.3,8.3-1.9c0.6-0.1,1.2-0.3,1.8-0.4c0.7-0.1,1.4-0.3,2.1-0.4
					L2808.8,304.9L2808.8,304.9z"/>
				<path class="st15" d="M2952.1,309.6v34.1h-119v-38.8h93.1C2935.3,306.3,2943.9,307.9,2952.1,309.6z"/>
				<path class="st15" d="M3045.3,343.7h-68.9v-28.2C3005.9,323.7,3028.4,333.8,3045.3,343.7z"/>
			</g>
			<g id="XMLID_50_">
				<polygon class="st15" points="2739.1,361.5 2739.1,400.2 2694.8,400.2 2710.7,361.5 				"/>
				<rect id="XMLID_54_" x="2763.4" y="361.5" class="st15" width="119" height="38.8"/>
				<rect id="XMLID_53_" x="2906.7" y="361.5" class="st15" width="119" height="38.8"/>
				<path class="st15" d="M3169.1,395.1v5.1h-119v-38.8h20.7c14.9,12.4,20.3,21.8,20.3,21.8S3128.3,380.9,3169.1,395.1z"/>
			</g>
			<g id="XMLID_36_">
				<rect id="XMLID_44_" x="2689.8" y="413.6" class="st15" width="119" height="38.8"/>
				<rect id="XMLID_42_" x="2833.1" y="413.6" class="st15" width="119" height="38.8"/>
				<rect id="XMLID_41_" x="2976.4" y="413.6" class="st15" width="119" height="38.8"/>
				<path class="st15" d="M3238.8,442.6v9.7h-119v-38.8h86.9C3218.3,421.2,3229.2,430.7,3238.8,442.6z"/>
			</g>
		</g>
	</g>
	<g id="XMLID_2062_">
		<g id="XMLID_2007_">
			<g id="XMLID_2001_">
				<rect id="XMLID_1995_" x="2490.7" y="468.8" class="st15" width="105" height="38.8"/>
				<rect id="XMLID_2002_" x="2620" y="468.8" class="st15" width="119" height="38.8"/>
				<rect id="XMLID_2003_" x="2763.4" y="468.8" class="st15" width="119" height="38.8"/>
				<rect id="XMLID_2004_" x="2906.7" y="468.8" class="st15" width="119" height="38.8"/>
				<rect id="XMLID_2005_" x="3050.1" y="468.8" class="st15" width="119" height="38.8"/>
				<path class="st15" d="M3268.7,507.6h-75.3v-38.8h62.1C3261.1,480.2,3265.6,493,3268.7,507.6z"/>
			</g>
			<g id="XMLID_2008_">
				<rect id="XMLID_2014_" x="2546.4" y="521" class="st15" width="119" height="38.8"/>
				<rect id="XMLID_2015_" x="2490.7" y="521" class="st15" width="35.3" height="38.8"/>
				<rect id="XMLID_2013_" x="2689.8" y="521" class="st15" width="119" height="38.8"/>
				<rect id="XMLID_2012_" x="2833.1" y="521" class="st15" width="119" height="38.8"/>
				<rect id="XMLID_2011_" x="2976.4" y="521" class="st15" width="119" height="38.8"/>
				<rect id="XMLID_2010_" x="3119.8" y="521" class="st15" width="119" height="38.8"/>
				<path class="st15" d="M3273.5,559.7h-10.4V521h7.9c0.7,5,1.3,10.2,1.6,15.5C3273.3,544.6,3273.6,552.3,3273.5,559.7z"/>
			</g>
			<g id="XMLID_2016_">
				<rect id="XMLID_2023_" x="2546.4" y="626.9" class="st15" width="119" height="38.8"/>
				<rect id="XMLID_2022_" x="2490.7" y="626.9" class="st15" width="35.3" height="38.8"/>
				<rect id="XMLID_2021_" x="2689.8" y="626.9" class="st15" width="119" height="38.8"/>
				<rect id="XMLID_2020_" x="2833.1" y="626.9" class="st15" width="119" height="38.8"/>
				<rect id="XMLID_2019_" x="2976.4" y="626.9" class="st15" width="119" height="38.8"/>
				<rect id="XMLID_2018_" x="3119.8" y="626.9" class="st15" width="119" height="38.8"/>
			</g>
			<g id="XMLID_2039_">
				<rect id="XMLID_2045_" x="2490.7" y="683.4" class="st15" width="105" height="38.8"/>
				<rect id="XMLID_2044_" x="2620" y="683.4" class="st15" width="119" height="38.8"/>
				<rect id="XMLID_2043_" x="2763.4" y="683.4" class="st15" width="119" height="38.8"/>
				<rect id="XMLID_2042_" x="2906.7" y="683.4" class="st15" width="119" height="38.8"/>
				<rect id="XMLID_2041_" x="3050.1" y="683.4" class="st15" width="119" height="38.8"/>
				<path class="st15" d="M3226.5,683.4c-11.3,10.1-23,16.9-33.1,21.5v-21.5H3226.5z"/>
			</g>
			<g id="XMLID_2031_">
				<rect id="XMLID_2038_" x="2546.4" y="735.6" class="st15" width="119" height="38.8"/>
				<rect id="XMLID_2037_" x="2490.7" y="735.6" class="st15" width="35.3" height="38.8"/>
				<rect id="XMLID_2036_" x="2689.8" y="735.6" class="st15" width="119" height="38.8"/>
				<rect id="XMLID_2035_" x="2833.1" y="735.6" class="st15" width="119" height="38.8"/>
				<rect id="XMLID_2034_" x="2976.4" y="735.6" class="st15" width="119" height="38.8"/>
				<path class="st15" d="M3238.8,762.2v12.1h-119v-38.8h84.6C3215.2,742.7,3227.1,751.5,3238.8,762.2z"/>
			</g>
			<g id="XMLID_2054_">
				<rect id="XMLID_2060_" x="2490.7" y="792.1" class="st15" width="105" height="38.8"/>
				<rect id="XMLID_2059_" x="2620" y="792.1" class="st15" width="119" height="38.8"/>
				<rect id="XMLID_2058_" x="2763.4" y="792.1" class="st15" width="119" height="38.8"/>
				<rect id="XMLID_2057_" x="2906.7" y="792.1" class="st15" width="119" height="38.8"/>
				<rect id="XMLID_2056_" x="3050.1" y="792.1" class="st15" width="119" height="38.8"/>
				<path class="st15" d="M3288.9,830.9h-95.5v-38.8h72.8C3275,803.7,3282.8,816.6,3288.9,830.9z"/>
			</g>
			<g id="XMLID_2046_">
				<rect id="XMLID_2053_" x="2546.4" y="844.2" class="st15" width="119" height="38.8"/>
				<rect id="XMLID_2052_" x="2490.7" y="844.2" class="st15" width="35.3" height="38.8"/>
				<rect id="XMLID_2051_" x="2689.8" y="844.2" class="st15" width="119" height="38.8"/>
				<rect id="XMLID_2050_" x="2833.1" y="844.2" class="st15" width="119" height="38.8"/>
				<rect id="XMLID_2049_" x="2976.4" y="844.2" class="st15" width="119" height="38.8"/>
				<rect id="XMLID_2048_" x="3119.8" y="844.2" class="st15" width="119" height="38.8"/>
				<path class="st15" d="M3298.4,861.5V883h-35.3v-38.8h30.7C3295.7,849.8,3297.2,855.6,3298.4,861.5z"/>
			</g>
			<g id="XMLID_2024_">
				<rect id="XMLID_2030_" x="2490.7" y="574.8" class="st15" width="105" height="38.8"/>
				<rect id="XMLID_2029_" x="2620" y="574.8" class="st15" width="119" height="38.8"/>
				<rect id="XMLID_2028_" x="2763.4" y="574.8" class="st15" width="119" height="38.8"/>
				<rect id="XMLID_2027_" x="2906.7" y="574.8" class="st15" width="119" height="38.8"/>
				<rect id="XMLID_2026_" x="3050.1" y="574.8" class="st15" width="119" height="38.8"/>
				<path class="st15" d="M3273,574.8c-0.9,14.3-2.9,27.2-5.9,38.8h-73.7v-38.8H3273z"/>
			</g>
		</g>
	</g>
	<path class="st16" d="M3299,927.3c-2.6,19.3-5.9,36.5-10.1,52.1c-2.4,9.2-5.1,17.7-8.1,25.7v3.2h-881.7v-81H3299z"/>
	<path class="st13" d="M2729.3,315.8l-11.4,27.9l-7.3,17.8l-15.8,38.8l-9.4,23l-157.2,385.2l-3.9,9.5l-2.5,6.2l-2.9,7l-20.1,49.3
		l-0.8,2l-3.9,9.4l-2.2,5.3l-12.3,30.1l-2,4.9l-3.7,9.1l-2.1,5.2l-0.1,0.3l-0.7,1.7l-3.9,9.4l-2.2,5.3l-6.6,16.1l-7.7,18.9l-1.5,3.7
		l-2.2,5.4l-0.4,0.9l-1.8,4.3l-0.1,0.3l-0.7,1.7l-0.9,2.1l-3,7.3l-1,2.6l-1.1,2.7l-14.3,34.9l-3.7,9.1l-2.1,5.2l-0.1,0.3l-0.7,1.7
		l-3.8,9.5l-0.4,1l-1.1,2.6c-1.6-0.2-3.2-0.4-4.8-0.6s-3.2-0.4-4.8-0.6l0,0c-0.9-0.1-1.7-0.2-2.6-0.4c-0.2,0-0.4,0-0.6-0.1
		c-0.2,0-0.5-0.1-0.7-0.1c-1-0.1-2-0.3-2.9-0.4c-1-0.2-1.9-0.3-2.9-0.4h-0.1c-1-0.1-1.9-0.3-2.9-0.4c-1.2-0.2-2.4-0.4-3.5-0.6
		c-1-0.2-1.9-0.3-2.9-0.5c-1.2-0.2-2.4-0.4-3.7-0.6c-6.6-1.1-13.2-2.4-19.8-3.7c-0.9-0.2-1.9-0.4-2.8-0.6c-0.9-0.2-1.9-0.4-2.8-0.6
		c-1.6-0.3-3.1-0.7-4.7-1c-1.1-0.2-2.2-0.5-3.2-0.7c-0.7-0.2-1.4-0.3-2-0.5c-1-0.2-2-0.5-3-0.7c-0.6-0.1-1.1-0.3-1.7-0.4
		c-0.2,0-0.4-0.1-0.6-0.1c-0.4-0.1-0.8-0.2-1.2-0.3c-0.7-0.2-1.3-0.3-1.9-0.5c-0.4-0.1-0.9-0.2-1.3-0.3c-1.3-0.3-2.5-0.6-3.8-1
		c-0.1,0-0.2,0-0.2-0.1c-0.3-0.1-0.5-0.1-0.7-0.2c-1.5-0.4-3-0.8-4.4-1.2c-0.4-0.1-0.8-0.2-1.1-0.3c-1.1-0.3-2.3-0.6-3.4-0.9
		c-1.9-0.5-3.7-1-5.5-1.6c-0.1,0-0.1,0-0.2-0.1c-1.3-0.4-2.7-0.8-4-1.2c-0.6-0.2-1.2-0.3-1.8-0.5c-1.4-0.4-2.7-0.8-4.1-1.2
		c-1.4-0.4-2.8-0.9-4.1-1.3c-0.2-0.1-0.5-0.2-0.7-0.2c-1.4-0.4-2.8-0.9-4.2-1.3c-0.1,0-0.2-0.1-0.3-0.1c-1.6-0.5-3.2-1-4.8-1.6
		c-1.5-0.5-3.1-1.1-4.6-1.6c-2-0.7-4-1.4-6-2.1c-1.3-0.5-2.5-0.9-3.7-1.4c-0.2-0.1-0.4-0.1-0.5-0.2c-2.9-1.1-5.9-2.2-8.8-3.4
		c-0.4-0.2-0.9-0.3-1.3-0.5c-1.4-0.6-2.8-1.1-4.2-1.7c-0.8-0.3-1.6-0.7-2.4-1c-0.4-0.2-0.8-0.3-1.2-0.5c0,0-0.1,0-0.1-0.1
		c-0.2-0.1-0.4-0.2-0.6-0.2l0,0c-0.9-0.4-1.8-0.7-2.6-1.1c-0.9-0.4-1.8-0.8-2.7-1.1c-1.6-0.7-3.2-1.4-4.8-2.1s-3.2-1.4-4.8-2.2
		c-22.2-10.2-43.9-22.2-64.7-36.3c-17.9-12.2-35.2-25.9-51.6-41.3c0,0-10.4,31.5-46.1,51.3c-16.4,9.2-38.3,15.8-66.9,15.8
		c-90.8,0-205-4.4-243.1-122.3c-9.1-28.3-14.2-58-15.3-87.9c-0.1-1.7-0.1-3.4-0.1-5c-0.1-3.9-0.1-7.8-0.1-11.7c0-0.4,0-0.8,0-1.3
		c0.1-7,0.4-14.1,1-21.1c1-12.3,2.6-24.6,4.9-36.8c0.6-3.3,1.3-6.6,2-9.9c0.2-0.8,0.4-1.7,0.6-2.5c0.3-1.4,0.6-2.8,1-4.2
		c0-0.2,0.1-0.3,0.1-0.5c5.1-21,12.3-41.9,23-60.7c0.7-1.3,4.5-5.9,9.5-11.6c11-12.8,27.5-31,27.9-29.4c-7.4-31.7-14.8-63.5-17.6-96
		c-0.1-1.8-0.3-3.6-0.4-5.4c-0.1-1.2-0.2-2.4-0.2-3.5c0-0.5-0.1-1-0.1-1.6c-0.2-3.7-0.3-7.3-0.4-11c0-0.5,0-1,0-1.6
		c0-3.7,0-7.4,0.1-11c0-0.5,0-1,0.1-1.6c0.1-3.7,0.4-7.4,0.7-11c0-0.5,0.1-1,0.1-1.6c0.4-3.7,0.8-7.4,1.4-11
		c0.1-0.5,0.2-1.1,0.3-1.6c0.6-3.7,1.3-7.4,2.2-11c0.1-0.5,0.2-1.1,0.4-1.6c0.9-3.7,1.9-7.4,3.1-11.1c0.2-0.5,0.3-1,0.5-1.6
		c1.3-3.7,2.7-7.4,4.2-11c0.2-0.5,0.5-1.1,0.7-1.6c1.7-3.8,3.6-7.4,5.6-11c0.3-0.5,0.6-1,0.9-1.6c1.5-2.4,3-4.8,4.6-7.2
		c0.9-1.3,1.9-2.6,2.8-3.9c0.4-0.5,0.8-1.1,1.2-1.6c1.9-2.4,3.8-4.7,5.9-6.9c1.3-1.4,2.6-2.8,4-4.1c0.2-0.2,0.4-0.4,0.6-0.6
		c1.4-1.4,2.9-2.7,4.4-4c3-2.6,6.1-5,9.3-7.2c40-27.7,93.6-26.6,140.3-19.3c0,0,1.1-6.7,5-17.6c9.3-25.8,34.6-75.1,99.5-113.6
		c4.1-2.4,8.4-4.8,12.8-7.2c13.6-7.2,28.7-13.9,45.6-19.8c46.3-16.3,105.5-27.1,181.2-27.1c20.4,0,39.6,0.8,57.5,2.3
		c2,0.2,3.9,0.3,5.8,0.5c31.7,2.9,59.5,8,83.9,14.6c10.8,2.9,20.9,6.2,30.4,9.7c1.6,0.6,3.3,1.2,4.9,1.8c7.2,2.8,14,5.7,20.4,8.8
		c6.2,2.9,12,6,17.6,9.2c1.8,1,3.6,2,5.3,3.1c0.9,0.6,1.8,1.1,2.8,1.7c3.2,2,6.4,4,9.4,6.1c3.2,2.2,6.2,4.4,9.1,6.6
		c0.6,0.4,1.2,0.9,1.7,1.3s1.1,0.9,1.7,1.3c0.3,0.3,0.6,0.5,0.9,0.7c0.3,0.2,0.5,0.4,0.8,0.6c1.1,0.9,2.2,1.8,3.2,2.7
		c1.1,0.9,2.1,1.8,3.2,2.7c1,0.9,2.1,1.8,3.1,2.7c0.5,0.5,1,0.9,1.5,1.4c0.5,0.4,1,0.9,1.5,1.4c0.4,0.4,0.8,0.8,1.3,1.2
		c2.8,2.7,5.5,5.4,8,8.2c0.5,0.5,0.9,1,1.3,1.5c1.2,1.3,2.4,2.6,3.5,3.9c0.4,0.4,0.7,0.8,1.1,1.2c1.8,2.1,3.4,4.1,5,6.2
		c0.5,0.7,1.1,1.4,1.6,2.1c0.3,0.4,0.6,0.8,0.9,1.2c0.1,0.2,0.2,0.3,0.3,0.5c0.3,0.4,0.6,0.8,0.9,1.3c0.4,0.6,0.8,1.1,1.2,1.7
		s0.8,1.1,1.2,1.7c1.4,2,2.8,4.1,4,6.1c0.3,0.5,0.6,1,0.9,1.4c0.4,0.6,0.7,1.2,1.1,1.8c0.2,0.2,0.3,0.5,0.4,0.7
		c0.2,0.3,0.4,0.6,0.5,0.9c0.4,0.6,0.7,1.2,1,1.8c0.5,0.8,0.9,1.6,1.3,2.4c0.1,0.2,0.2,0.3,0.2,0.4c0.2,0.4,0.4,0.8,0.6,1.2
		c0.2,0.4,0.5,0.8,0.7,1.3c0.5,0.9,0.9,1.8,1.4,2.7c0.2,0.3,0.3,0.6,0.5,1c0.9,1.8,1.8,3.6,2.6,5.4c0.2,0.5,0.4,0.9,0.6,1.3
		c0.3,0.8,0.7,1.6,1,2.4c0.3,0.6,0.5,1.2,0.8,1.8c0.1,0.2,0.2,0.4,0.3,0.6c0.2,0.6,0.5,1.2,0.7,1.8c0.2,0.6,0.4,1.2,0.7,1.8
		c0.9,2.2,1.6,4.4,2.3,6.5c0.2,0.5,0.3,0.9,0.5,1.4l0.2,0.6c0.1,0.3,0.2,0.7,0.3,1c0,0.1,0.1,0.2,0.1,0.3c0.1,0.2,0.1,0.3,0.1,0.5
		c0.2,0.5,0.3,1,0.4,1.5c0,0.1,0.1,0.2,0.1,0.3c0.2,0.5,0.3,1.1,0.4,1.6c0.1,0.3,0.2,0.7,0.3,1c0.1,0.4,0.2,0.9,0.3,1.3
		s0.2,0.8,0.3,1.2c0.1,0.3,0.1,0.6,0.2,0.8c0.1,0.3,0.2,0.6,0.2,0.9c0.3,1,0.5,2,0.7,3c0.1,0.3,0.1,0.7,0.2,1c0,0.2,0.1,0.4,0.1,0.6
		c0.1,0.4,0.2,0.8,0.2,1.2c0.2,1,0.4,2,0.5,2.9c0.1,0.2,0.1,0.5,0.1,0.7c0.1,0.5,0.2,1,0.3,1.5c0,0.2,0.1,0.4,0.1,0.5
		c0.1,0.4,0.1,0.8,0.2,1.3c0.1,0.8,0.2,1.6,0.3,2.3c0,0.1,0,0.2,0,0.3v0.1c0,0.2,0.1,0.4,0.1,0.6s0,0.3,0.1,0.5c0,0.1,0,0.2,0,0.3
		c0,0.3,0.1,0.6,0.1,0.9c0,0.1,0,0.2,0,0.3c0,0.2,0,0.4,0.1,0.6c0,0.1,0,0.1,0,0.2c0.1,0.7,0.1,1,0.1,1s0.1-0.4,0.4-1.2
		c0.1-0.1,0.1-0.2,0.1-0.3c0-0.1,0.1-0.2,0.1-0.4c0.1-0.2,0.2-0.3,0.2-0.5c0.1-0.3,0.3-0.6,0.4-0.9c0.1-0.1,0.1-0.3,0.2-0.4
		c0.2-0.4,0.4-0.9,0.7-1.4c0.2-0.3,0.4-0.7,0.6-1c0.5-0.8,1-1.7,1.5-2.6c0.1-0.1,0.2-0.3,0.3-0.4c0.4-0.6,0.8-1.2,1.2-1.8
		c0.2-0.2,0.3-0.5,0.5-0.7c0.8-1.1,1.7-2.3,2.6-3.6c0.2-0.3,0.5-0.6,0.8-0.9s0.5-0.7,0.8-1c0.5-0.7,1.1-1.3,1.7-2
		c0.3-0.3,0.5-0.6,0.8-0.9c0.2-0.2,0.4-0.4,0.6-0.6c0.3-0.3,0.6-0.7,1-1.1c0.2-0.2,0.3-0.3,0.5-0.5c0.3-0.4,0.7-0.7,1.1-1.1l0.5-0.5
		c0.9-0.9,1.9-1.8,2.9-2.8c0.2-0.2,0.4-0.4,0.6-0.6c0.8-0.7,1.6-1.5,2.5-2.2c0.2-0.2,0.5-0.4,0.7-0.6s0.5-0.4,0.7-0.6
		c1.8-1.5,3.8-3,5.9-4.6c0.5-0.4,1.1-0.8,1.6-1.1c2.5-1.7,5.1-3.4,7.9-5.1c0.3-0.2,0.6-0.4,1-0.6c1-0.6,2-1.2,3-1.7
		c0.5-0.3,1-0.5,1.5-0.8c1.8-0.9,3.6-1.9,5.4-2.8c0.4-0.2,0.9-0.4,1.3-0.7c0.5-0.3,1-0.5,1.5-0.7c2.7-1.3,5.5-2.5,8.4-3.7
		c0.5-0.2,1-0.4,1.5-0.6C2727.2,316.6,2728.2,316.2,2729.3,315.8z"/>
	<g>
		<path class="st17" d="M2452.7,1029.3l2.2-5.3H2315v-9.5v-2v-49.3h164.3l2.2-5.3H2315v-9.4v-2v-49.3h191.4l2.2-5.3H2315v-9.4v-2
			v-49.3h218.5l2.9-7h-227.2v248.5c0.6,0.2,1.2,0.3,1.8,0.5c1.3,0.4,2.7,0.8,4,1.2v-45L2452.7,1029.3L2452.7,1029.3z"/>
		<path class="st17" d="M2427.9,1090.1h-41.8c1.2,0.2,2.4,0.4,3.5,0.6c1,0.2,1.9,0.3,2.9,0.4h0.1h34.9L2427.9,1090.1z"/>
		<polygon class="st17" points="2479.3,963.2 2479.6,963.2 2481.8,958 2481.5,958 		"/>
		<polygon class="st17" points="2533.5,831.1 2533.6,831.1 2536.4,824.2 2536.3,824.2 		"/>
		<polygon class="st17" points="2506.4,897.2 2506.6,897.2 2508.8,891.9 2508.6,891.9 		"/>
		<polygon class="st18" points="2536.4,824.2 2533.6,831.1 2584.2,831.1 2584.2,880.4 2584.2,882.5 2584.2,891.9 2508.8,891.9 
			2506.6,897.2 2584.2,897.2 2584.2,946.5 2584.2,948.5 2584.2,958 2481.8,958 2479.6,963.2 2584.2,963.2 2584.2,1012.5 
			2584.2,1014.5 2584.2,1024 2454.8,1024 2452.7,1029.3 2584.2,1029.3 2584.2,1078.6 2584.2,1080.6 2584.2,1090.1 2427.9,1090.1 
			2427.5,1091.1 2590.1,1091.1 2590.1,824.2 		"/>
		<polygon class="st19" points="2315,1014.5 2315,1024 2454.8,1024 2458.7,1014.5 		"/>
		<polygon class="st19" points="2454.8,1024 2584.2,1024 2584.2,1014.5 2458.7,1014.5 		"/>
		<polygon class="st19" points="2416.7,1007.3 2416.7,998.2 2464.9,998.2 2479.3,963.2 2315,963.2 2315,1012.5 2416.7,1012.5 		"/>
		<polygon class="st20" points="2464.9,998.2 2465.4,998.2 2479.6,963.2 2479.3,963.2 		"/>
		<polygon class="st20" points="2482.5,998.2 2482.5,1007.3 2482.5,1012.5 2584.2,1012.5 2584.2,963.2 2479.6,963.2 2465.4,998.2 		
			"/>
		<polygon class="st21" points="2459.4,1012.9 2416.7,1012.9 2416.7,1012.5 2315,1012.5 2315,1014.5 2458.7,1014.5 		"/>
		<polygon class="st21" points="2482.5,1012.9 2459.4,1012.9 2458.7,1014.5 2584.2,1014.5 2584.2,1012.5 2482.5,1012.5 		"/>
		<polygon class="st21" points="2416.7,1007.3 2461.7,1007.3 2465.4,998.2 2464.9,998.2 2416.7,998.2 		"/>
		<polygon class="st21" points="2482.5,1007.3 2482.5,998.2 2465.4,998.2 2461.7,1007.3 		"/>
		<polygon class="st22" points="2459.5,1012.5 2482.5,1012.5 2482.5,1007.3 2461.7,1007.3 		"/>
		<polygon class="st22" points="2461.7,1007.3 2416.7,1007.3 2416.7,1012.5 2459.5,1012.5 		"/>
		<polygon class="st22" points="2459.4,1012.9 2482.5,1012.9 2482.5,1012.5 2459.5,1012.5 		"/>
		<polygon class="st22" points="2416.7,1012.5 2416.7,1012.9 2459.4,1012.9 2459.5,1012.5 		"/>
		<path class="st19" d="M2431.7,1080.6h-92.9c0.2,0,0.4,0.1,0.6,0.1c0.6,0.1,1.1,0.3,1.7,0.4c1,0.3,2,0.5,3,0.7
			c0.7,0.2,1.3,0.3,2,0.5c1.1,0.3,2.2,0.5,3.2,0.7c1.6,0.3,3.1,0.7,4.7,1c0.9,0.2,1.9,0.4,2.8,0.6c0.9,0.2,1.9,0.4,2.8,0.6
			c6.6,1.4,13.2,2.6,19.8,3.7c1.2,0.2,2.4,0.4,3.7,0.6c1,0.2,2,0.3,2.9,0.5h41.8L2431.7,1080.6z"/>
		<polygon class="st19" points="2427.9,1090.1 2584.2,1090.1 2584.2,1080.6 2431.7,1080.6 		"/>
		<polygon class="st19" points="2482.5,1064.2 2482.5,1073.3 2482.5,1078.6 2584.2,1078.6 2584.2,1029.3 2452.7,1029.3 
			2438.4,1064.2 		"/>
		<path class="st19" d="M2416.7,1073.3v-9.1h21.7l14.3-34.9H2315v45c0.1,0,0.1,0,0.2,0.1c1.8,0.5,3.7,1,5.5,1.6
			c1.1,0.3,2.3,0.6,3.4,0.9c0.4,0.1,0.8,0.2,1.1,0.3c1.5,0.4,2.9,0.8,4.4,1.2c0.2,0.1,0.5,0.1,0.7,0.2c0.1,0,0.2,0,0.2,0.1h86v-5.4
			H2416.7z"/>
		<path class="st21" d="M2432.4,1078.9h-15.7v-0.3h-86c1.3,0.3,2.5,0.6,3.8,1c0.4,0.1,0.9,0.2,1.3,0.3c0.6,0.2,1.3,0.3,1.9,0.5
			c0.4,0.1,0.8,0.2,1.2,0.3h92.9L2432.4,1078.9z"/>
		<polygon class="st21" points="2482.5,1078.9 2432.4,1078.9 2431.7,1080.6 2584.2,1080.6 2584.2,1078.6 2482.5,1078.6 		"/>
		<polygon class="st21" points="2482.5,1073.3 2482.5,1064.2 2438.4,1064.2 2434.7,1073.3 		"/>
		<polygon class="st21" points="2438.4,1064.2 2416.7,1064.2 2416.7,1073.3 2434.7,1073.3 		"/>
		<polygon class="st22" points="2432.6,1078.6 2482.5,1078.6 2482.5,1073.3 2434.7,1073.3 		"/>
		<polygon class="st22" points="2434.7,1073.3 2416.7,1073.3 2416.7,1078.6 2432.6,1078.6 		"/>
		<polygon class="st22" points="2416.7,1078.6 2416.7,1078.9 2432.4,1078.9 2432.6,1078.6 		"/>
		<polygon class="st22" points="2482.5,1078.6 2432.6,1078.6 2432.4,1078.9 2482.5,1078.9 		"/>
		<polygon class="st19" points="2416.7,941.2 2416.7,932.1 2482.5,932.1 2482.5,941.2 2482.5,946.5 2486.2,946.5 2506.4,897.2 
			2315,897.2 2315,946.5 2416.7,946.5 		"/>
		<polygon class="st20" points="2486.2,946.5 2486.5,946.5 2506.6,897.2 2506.4,897.2 		"/>
		<polygon class="st23" points="2584.2,946.5 2584.2,897.2 2506.6,897.2 2486.5,946.5 		"/>
		<polygon class="st19" points="2315,948.5 2315,958 2481.5,958 2485.4,948.5 		"/>
		<polygon class="st20" points="2481.8,958 2584.2,958 2584.2,948.5 2485.7,948.5 		"/>
		<polygon class="st23" points="2485.4,948.5 2481.5,958 2481.8,958 2485.7,948.5 		"/>
		<polygon class="st21" points="2486.2,946.5 2482.5,946.5 2482.5,946.8 2416.7,946.8 2416.7,946.5 2315,946.5 2315,948.5 
			2485.4,948.5 		"/>
		<polygon class="st21" points="2485.7,948.5 2486.5,946.5 2486.2,946.5 2485.4,948.5 		"/>
		<polygon class="st18" points="2485.7,948.5 2584.2,948.5 2584.2,946.5 2486.5,946.5 		"/>
		<rect x="2416.7" y="932.1" class="st21" width="65.8" height="9.1"/>
		<rect x="2416.7" y="941.2" class="st22" width="65.8" height="5.2"/>
		<rect x="2416.7" y="946.5" class="st22" width="65.8" height="0.3"/>
		<polygon class="st19" points="2315,882.5 2315,891.9 2508.6,891.9 2512.4,882.5 		"/>
		<polygon class="st20" points="2513.3,880.4 2513.5,880.4 2533.6,831.1 2533.5,831.1 		"/>
		<polygon class="st23" points="2584.2,880.4 2584.2,831.1 2533.6,831.1 2513.5,880.4 		"/>
		<polygon class="st19" points="2416.7,875.2 2416.7,866.1 2482.5,866.1 2482.5,875.2 2482.5,880.4 2513.3,880.4 2533.5,831.1 
			2315,831.1 2315,880.4 2416.7,880.4 		"/>
		<polygon class="st20" points="2508.8,891.9 2584.2,891.9 2584.2,882.5 2512.6,882.5 		"/>
		<polygon class="st23" points="2512.4,882.5 2508.6,891.9 2508.8,891.9 2512.6,882.5 		"/>
		<polygon class="st21" points="2512.6,882.5 2513.5,880.4 2513.3,880.4 2512.4,882.5 		"/>
		<polygon class="st18" points="2512.6,882.5 2584.2,882.5 2584.2,880.4 2513.5,880.4 		"/>
		<polygon class="st21" points="2513.3,880.4 2482.5,880.4 2482.5,880.8 2416.7,880.8 2416.7,880.4 2315,880.4 2315,882.5 
			2512.4,882.5 		"/>
		<rect x="2416.7" y="866.1" class="st21" width="65.8" height="9.1"/>
		<rect x="2416.7" y="875.2" class="st22" width="65.8" height="5.2"/>
		<rect x="2416.7" y="880.4" class="st22" width="65.8" height="0.3"/>
		<path class="st24" d="M2595.9,1094.9v-3.8h-5.9v4.4C2592,1095.2,2594,1095.1,2595.9,1094.9z"/>
		<path class="st24" d="M2392.5,1091.1c1,0.2,1.9,0.3,2.9,0.4s1.9,0.3,2.9,0.4c0.2,0,0.5,0.1,0.7,0.1s0.4,0.1,0.6,0.1
			c0.9,0.1,1.7,0.2,2.6,0.4c1.6,0.2,3.2,0.4,4.8,0.6s3.2,0.4,4.8,0.6c4.6,0.6,9.3,1.1,13.9,1.6l1.7-4.2H2392.5z"/>
		<path class="st24" d="M2425.7,1095.3c59.9,6.2,116.9,4.5,164.3,0.2v-4.4h-162.6L2425.7,1095.3z"/>
		<path class="st20" d="M2539,817.9l2-4.9L2539,817.9h48.1c1.6,0,2.9,1.1,2.9,2.5v3.7h7.5v-15.8h-54.8l-3.9,9.5L2539,817.9
			L2539,817.9z"/>
		<path class="st24" d="M2312.1,817.9h226.8l3.9-9.5h-244v15.8h10.3v-3.7C2309.1,819.1,2310.4,817.9,2312.1,817.9z"/>
		<path class="st24" d="M2538.9,817.9h-226.8c-1.6,0-2.9,1.1-2.9,2.5v3.7h227.2L2538.9,817.9z"/>
		<polygon class="st24" points="2538.9,817.9 2536.3,824.2 2536.4,824.2 2539,817.9 		"/>
		<path class="st23" d="M2587.1,817.9H2539l-2.5,6.2h53.6v-3.7C2590.1,819.1,2588.7,817.9,2587.1,817.9z"/>
	</g>
	<g>
		<rect x="2402.4" y="717.8" class="st25" width="108.7" height="31.8"/>
		<rect x="2409" y="713" class="st26" width="95.9" height="19.4"/>
		<g>
			<path class="st25" d="M2538.3,805.2c0,2.5-2,4.5-4.5,4.5h-153.4c-2.5,0-4.5-2-4.5-4.5v-69.8c0-2.5,2-4.5,4.5-4.5h153.4
				c2.5,0,4.5,2,4.5,4.5V805.2z"/>
			<path class="st27" d="M2505,770.3h-95.9c-2.5,0-4.5,2-4.5,4.5v34.9h104.9v-34.9C2509.5,772.3,2507.5,770.3,2505,770.3z"/>
			<path class="st25" d="M2493.6,793.4h-73.1c-1.9,0-3.4,1.5-3.4,3.4v11.6h80v-11.6C2497.1,794.9,2495.5,793.4,2493.6,793.4z"/>
			<rect x="2419.4" y="790.3" class="st27" width="74.3" height="20.9"/>
			<rect x="2419.4" y="790.3" class="st28" width="74.3" height="15.7"/>
			<rect x="2433.7" y="732.4" class="st26" width="45" height="14"/>
			<rect x="2439.4" y="734.2" class="st25" width="33.8" height="4.3"/>
			<rect x="2384.6" y="734.2" class="st29" width="13.3" height="1.3"/>
		</g>
		<rect x="2424.3" y="678" class="st30" width="66.9" height="52.9"/>
		<rect x="2424.3" y="722.7" class="st31" width="66.9" height="8.2"/>
	</g>
	<path class="st13" d="M2729.3,315.8l-18.7,45.7h-43.4c0.1-0.1,0.2-0.3,0.3-0.4c0.4-0.6,0.8-1.2,1.2-1.8c0.2-0.2,0.3-0.5,0.5-0.7
		c0.8-1.1,1.7-2.3,2.6-3.6c0.2-0.3,0.5-0.6,0.8-0.9s0.5-0.7,0.8-1c0.5-0.7,1.1-1.3,1.7-2c0.3-0.3,0.5-0.6,0.8-0.9
		c0.2-0.2,0.4-0.4,0.6-0.6c0.3-0.3,0.6-0.7,1-1.1c0.2-0.2,0.3-0.3,0.5-0.5c0.3-0.4,0.7-0.7,1.1-1.1l0.5-0.5c0.9-0.9,1.9-1.8,2.9-2.8
		c0.2-0.2,0.4-0.4,0.6-0.6c0.8-0.7,1.6-1.5,2.5-2.2c0.2-0.2,0.5-0.4,0.7-0.6s0.5-0.4,0.7-0.6c1.8-1.5,3.8-3,5.9-4.6
		c0.5-0.4,1.1-0.8,1.6-1.1c2.5-1.7,5.1-3.4,7.9-5.1c0.3-0.2,0.6-0.4,1-0.6c1-0.6,2-1.2,3-1.7c0.5-0.3,1-0.5,1.5-0.8
		c1.8-0.9,3.6-1.9,5.4-2.8c0.4-0.2,0.9-0.4,1.3-0.7c0.5-0.3,1-0.5,1.5-0.7c2.7-1.3,5.5-2.5,8.4-3.7c0.5-0.2,1-0.4,1.5-0.6
		C2727.2,316.6,2728.2,316.2,2729.3,315.8z"/>
	<g>
		<path class="st32" d="M2113.7,396.8v412.4h-359c0.1-7,0.4-14.1,1-21.1c1-12.3,2.6-24.6,4.9-36.8c0.6-3.3,1.3-6.6,2-9.9
			c0.2-0.8,0.4-1.7,0.6-2.5c0.3-1.4,0.6-2.8,1-4.2c0-0.2,0.1-0.3,0.1-0.5c5.1-21,12.3-41.9,23-60.7c0.7-1.3,4.5-5.9,9.5-11.6
			c11-12.8,27.5-31,27.9-29.4c-7.4-31.7-14.8-63.5-17.6-96c-0.1-1.8-0.3-3.6-0.4-5.4c-0.1-1.2-0.2-2.4-0.2-3.5c0-0.5-0.1-1-0.1-1.6
			c-0.2-3.7-0.3-7.3-0.4-11c0-0.5,0-1,0-1.6c0-3.7,0-7.4,0.1-11c0-0.5,0-1,0.1-1.6c0.1-3.7,0.4-7.4,0.7-11c0-0.5,0.1-1,0.1-1.6
			c0.4-3.7,0.8-7.4,1.4-11c0.1-0.5,0.2-1.1,0.3-1.6c0.6-3.7,1.3-7.4,2.2-11c0.1-0.5,0.2-1.1,0.4-1.6c0.9-3.7,1.9-7.4,3.1-11.1
			c0.2-0.5,0.3-1,0.5-1.6c1.3-3.7,2.7-7.4,4.2-11c0.2-0.5,0.5-1.1,0.7-1.6c1.7-3.8,3.6-7.4,5.6-11c0.3-0.5,0.6-1,0.9-1.6
			c1.5-2.4,3-4.8,4.6-7.2c0.9-1.3,1.9-2.6,2.8-3.9c0.4-0.5,0.8-1.1,1.2-1.6c1.9-2.4,3.8-4.7,5.9-6.9c1.3-1.4,2.6-2.8,4-4.1
			c0.2-0.2,0.4-0.4,0.6-0.6c1.4-1.4,2.9-2.7,4.4-4L2113.7,396.8L2113.7,396.8z"/>
		<path class="st33" d="M2093.2,417.9V788h-337.5c1-12.3,2.6-24.6,4.9-36.8c0.6-3.3,1.3-6.6,2-9.9c0.2-0.8,0.4-1.7,0.6-2.5
			c0.3-1.4,0.6-2.8,1-4.2c0-0.2,0.1-0.3,0.1-0.5c5.1-21,12.3-41.9,23-60.7c0.7-1.3,4.5-5.9,9.5-11.6c11-12.8,27.5-31,27.9-29.4
			c-7.4-31.7-14.8-63.5-17.6-96c-0.1-1.8-0.3-3.6-0.4-5.4c-0.1-1.2-0.2-2.4-0.2-3.5c0-0.5-0.1-1-0.1-1.6c-0.2-3.7-0.3-7.3-0.4-11
			c0-0.5,0-1,0-1.6c0-3.7,0-7.4,0.1-11c0-0.5,0-1,0.1-1.6c0.1-3.7,0.4-7.4,0.7-11c0-0.5,0.1-1,0.1-1.6c0.4-3.7,0.8-7.4,1.4-11
			c0.1-0.5,0.2-1.1,0.3-1.6c0.6-3.7,1.3-7.4,2.2-11c0.1-0.5,0.2-1.1,0.4-1.6c0.9-3.7,1.9-7.4,3.1-11.1c0.2-0.5,0.3-1,0.5-1.6
			c1.3-3.7,2.7-7.4,4.2-11c0.2-0.5,0.5-1.1,0.7-1.6c1.7-3.8,3.6-7.4,5.6-11c0.3-0.5,0.6-1,0.9-1.6c1.5-2.4,3-4.8,4.6-7.2h262.3
			V417.9z"/>
		<g>
			<g>
				<polygon class="st34" points="1990.7,789.1 1957.2,789.1 1966.7,563.2 1981.1,562.7 				"/>
				<path class="st34" d="M1849.6,586.6v201.9h95.9V586.6H1849.6z M1932.7,615.9v10.7H1922v-10.7H1932.7z M1871.9,604.2v10.7h-10.7
					v-10.7H1871.9z M1869.5,686.5v10.6h-10.7v-10.6H1869.5z M1889,752.8v10.7h-10.7v-10.7H1889z M1922.5,714.5h-10.7v-10.7h10.7
					V714.5z M1900.7,651.6v10.7H1890v-10.7H1900.7z"/>
				<rect x="1965.1" y="556.8" class="st34" width="21.8" height="7.5"/>
				<path class="st34" d="M2067.2,679.3l-29.4-50l-6.3-10.7l-12.8,24.3l0,0l-19.1,36.4h-9.4v20.2h11.7V788h65v-88.4h6.4v-20.2
					L2067.2,679.3L2067.2,679.3z M2011,758.2v-3.7h44.2v3.7H2011z M2055.2,777.9v3.7H2011v-3.7H2055.2z M2011,734.7V731h44.2v3.7
					H2011z M2055.2,707.6v3.7H2011v-3.7H2055.2z"/>
				<rect x="1843.2" y="577" class="st34" width="108.7" height="14.9"/>
			</g>
			<g>
				<path class="st35" d="M1840.7,715.8c0.9-2.1,1.4-4.4,1.4-6.9c0-7.6-4.7-14-11.4-16.6c-1.6-0.6-3.3-1-5.1-1.2
					c1.6-2.4,2.6-5.2,2.6-8.3c0-7.8-6.1-14.2-13.8-14.6c-2.8-2.7-6.5-4.3-10.7-4.3c-2.2,0-4.3,0.5-6.3,1.3c-0.2-1.2-0.5-2.3-0.9-3.4
					c-4.9,5.7-8.7,10.4-9.5,11.6c-10.7,18.8-17.9,39.7-23,60.7c0,0.2-0.1,0.3-0.1,0.5c-0.3,1.4-0.7,2.8-1,4.2
					c-0.2,0.8-0.4,1.6-0.6,2.5c-0.7,3.3-1.4,6.6-2,9.9c0.3,0,0.6,0,1-0.1c4.2,5.8,11,9.5,18.7,9.7c0.2,0,0.3,0,0.5,0
					c3.5,0,6.9-0.8,9.8-2.2c3.3-1.5,6.2-3.7,8.4-6.5c0.6,0.1,1.1,0.1,1.7,0.1c7.3,0,13.4-4.7,15.6-11.2c2.6,1.4,5.5,2.1,8.6,2.1
					c10.2,0,18.4-8.2,18.4-18.4C1843.2,721.6,1842.3,718.4,1840.7,715.8z M1808.1,717.1c-0.5,1.1-0.9,2.2-1.2,3.4
					c-0.2-0.1-0.4-0.2-0.6-0.2c0.6-1,1.1-2,1.6-3c0.1-0.2,0.2-0.4,0.3-0.7c0,0.1,0.1,0.1,0.1,0.2
					C1808.2,716.9,1808.2,717,1808.1,717.1z M1809.7,696.9c0.4,0.1,0.7,0.2,1.1,0.3c-0.3,0.4-0.6,0.7-0.9,1.1
					c-0.1-0.4-0.2-0.8-0.3-1.3C1809.6,697,1809.7,697,1809.7,696.9z"/>
				<path class="st36" d="M1817.8,717.3l-27.4,23.1V788h-10.1v-26.9l-0.2-0.3l-17-22c0.3-1.4,0.6-2.8,1-4.2c0-0.2,0.1-0.3,0.1-0.5
					l2.1-1.6l0.3,0.5l13.7,17.6v-35.1h10.1V732l17.5-14.8l0.3-0.2l5.5-4.7L1817.8,717.3z"/>
			</g>
		</g>
		<g class="st37">
			<path class="st38" d="M2093.2,417.9v107.7l-0.6,0.4l-2.5,1.6l-107.6,68.3l-17.7,11.2l-19.4,12.3l-50.7,32.2l-4.7,3l-40.5,25.7
				l-18.8,12l-40.3,25.6l-10.1,6.4l-13.7,8.7l-2.6,1.6c0-0.2,0.1-0.3,0.1-0.5c5.1-21,12.3-41.9,23-60.7c0.7-1.3,4.5-5.9,9.5-11.6
				c11-12.8,27.5-31,27.9-29.4c-7.4-31.7-14.8-63.5-17.6-96l13.8-8.9l2.4-1.6l17.1-11l2.4-1.6l17.1-11l2.4-1.6l17.1-11l2.4-1.6
				l17.1-11l2.4-1.6l17.1-11l2.4-1.6l17.1-11.1l2.4-1.6l17.1-11l2.4-1.6l17.1-11l2.4-1.6l11.1-7.2h103V417.9z"/>
			<polygon class="st38" points="2093.2,668.3 2093.2,589.7 1815.8,788 1914.3,788 			"/>
		</g>
		<path class="st39" d="M2131.8,813.6v5.3c0,1.8-1.4,3.2-3.2,3.2h-373.8c-0.1-3.9-0.1-7.8-0.1-11.7h373.9
			C2130.3,810.4,2131.8,811.8,2131.8,813.6z"/>
		<path class="st40" d="M2127.5,389.5v16h-286.7c1.3-1.4,2.6-2.8,4-4.1c0.2-0.2,0.4-0.4,0.6-0.6c1.4-1.4,2.9-2.7,4.4-4
			c3-2.6,6.1-5,9.3-7.2L2127.5,389.5L2127.5,389.5z"/>
		<g>
			<g>
				<path class="st41" d="M2105.4,412.4h-270.5c1.9-2.4,3.8-4.7,5.9-6.9c1.3-1.4,2.6-2.8,4-4.1h255l2.1,4.1L2105.4,412.4z"/>
				<path class="st42" d="M2105.4,412.4l-5.6,1.6h-266.2c0.4-0.5,0.8-1.1,1.2-1.6H2105.4z"/>
			</g>
			<g>
				<path class="st41" d="M2105.4,425.1h-279.2c1.5-2.4,3-4.8,4.6-7.2c0.9-1.3,1.9-2.6,2.8-3.9h266.2L2105.4,425.1z"/>
				<path class="st42" d="M2105.4,425.1l-5.6,1.6h-274.6c0.3-0.5,0.6-1,0.9-1.6H2105.4z"/>
			</g>
			<g>
				<path class="st41" d="M2105.4,437.7h-285.8c1.7-3.8,3.6-7.4,5.6-11h274.6L2105.4,437.7z"/>
				<path class="st42" d="M2105.4,437.7l-5.6,1.6h-280.9c0.2-0.5,0.5-1.1,0.7-1.6H2105.4z"/>
			</g>
			<g>
				<path class="st41" d="M2105.4,450.3h-290.7c1.3-3.7,2.7-7.4,4.2-11h280.9L2105.4,450.3z"/>
				<path class="st42" d="M2105.4,450.3l-5.6,1.6h-285.6c0.2-0.5,0.3-1,0.5-1.6H2105.4z"/>
			</g>
			<g>
				<path class="st41" d="M2105.4,462.9H1811c0.9-3.7,1.9-7.4,3.1-11.1h285.6L2105.4,462.9z"/>
				<path class="st42" d="M2105.4,462.9l-5.6,1.6h-289.1c0.1-0.5,0.2-1.1,0.4-1.6H2105.4z"/>
			</g>
			<g>
				<path class="st41" d="M2105.4,475.5h-296.9c0.6-3.7,1.3-7.4,2.2-11h289.1L2105.4,475.5z"/>
				<path class="st42" d="M2105.4,475.5l-5.6,1.6h-291.5c0.1-0.5,0.2-1.1,0.3-1.6H2105.4z"/>
			</g>
			<g>
				<path class="st41" d="M2104.2,488.1h-297.3c0.4-3.7,0.8-7.4,1.4-11h290.3L2104.2,488.1z"/>
				<path class="st42" d="M2104.2,488.1l-5.6,1.6h-291.9c0-0.5,0.1-1,0.1-1.6H2104.2z"/>
			</g>
			<g>
				<path class="st41" d="M2104.2,500.7H1806c0.1-3.7,0.4-7.4,0.7-11h291.9L2104.2,500.7z"/>
				<path class="st42" d="M2104.2,500.7l-5.6,1.6H1806c0-0.5,0-1,0.1-1.6H2104.2z"/>
			</g>
			<g>
				<path class="st41" d="M2104.2,513.3h-298.3c0-3.7,0-7.4,0.1-11h292.6L2104.2,513.3z"/>
				<path class="st42" d="M2104.2,513.3l-5.6,1.6h-292.7c0-0.5,0-1,0-1.6H2104.2z"/>
			</g>
			<g>
				<path class="st41" d="M2104.2,526h-298c-0.2-3.7-0.3-7.3-0.4-11h292.7L2104.2,526z"/>
				<path class="st42" d="M2104.2,526l-5.6,1.6h-292.3c0-0.5-0.1-1-0.1-1.6H2104.2z"/>
			</g>
			<g>
				<rect x="2037.9" y="400.4" class="st43" width="4.8" height="144.6"/>
			</g>
		</g>
		<path class="st44" d="M2133,822.1v39.3l-378.2-34.3c-0.1-1.7-0.1-3.4-0.1-5H2133z"/>
	</g>
	<g>
		<path class="st45" d="M2927,996.2h-239l-7-144.1c0-21.6,17.5-39.1,39.1-39.1h174.8c21.6,0,39.1,17.5,39.1,39.1L2927,996.2z"/>
		<polygon class="st46" points="2923,989.9 2879.8,787.1 2879.8,785.5 2734.6,785.5 2734.6,787.1 2691.3,989.9 2722.3,996.5 
			2734.6,939.2 2734.6,994.1 2879.8,994.1 2879.8,939.2 2892,996.5 		"/>
		<path class="st46" d="M2879.8,787.1v-1.6h-121.2c0.9,15.8,27.9,33.8,63.7,41.7c26.9,5.9,51.6,4.6,65.5-2.2L2879.8,787.1z"/>
		<path class="st0" d="M2807.7,810.9h-1.1c-10.4,0-18.9-8.4-18.9-18.9v-42.6c0-10.4,8.4-18.9,18.9-18.9h1.1
			c10.4,0,18.9,8.4,18.9,18.9V792C2826.5,802.4,2818.1,810.9,2807.7,810.9z"/>
		<path class="st5" d="M2787.8,757.9v8.5l35.2,36.7c2.3-3.1,3.6-6.9,3.6-11.1v-38.7C2811.1,753.7,2796.1,756.2,2787.8,757.9z"/>
		<path class="st10" d="M2681,681.2"/>
		<circle class="st0" cx="2879.4" cy="667.1" r="17.6"/>
		<path class="st0" d="M2897,667.1c0,9.7-7.9,17.6-17.6,17.6c-2.7,0-5.2-0.6-7.5-1.7v21.6c0,36-29.4,65.4-65.4,65.4l0,0
			c-36,0-65.4-29.4-65.4-65.4v-21.3c-2.1,0.9-4.5,1.4-7,1.4c-9.7,0-17.6-7.9-17.6-17.6c0-9.7,7.9-17.6,17.6-17.6
			c2.5,0,4.8,0.5,7,1.4v-28.2c0-12.1,9.9-21.9,21.9-21.9h86.9c12.1,0,21.9,9.9,21.9,21.9v28.4c2.3-1.1,4.8-1.7,7.5-1.7
			C2889.1,649.5,2897,657.4,2897,667.1z"/>
		<g>
			<path class="st6" d="M2879,600.8v48.6c-4.5,0-8.7,1.3-12,3.5c-1,0.7-2,1.4-2.8,2.2v-54.4h14.8V600.8z"/>
		</g>
		<path class="st5" d="M2879.4,649.5c-2.7,0-5.2,0.6-7.5,1.7v-28.4c0-9-5.5-16.8-13.4-20.2l-53.3,5.3V770c0.1,0,0.1,0,0.2,0
			l12.2-0.9c30.7-5.3,54.3-32.3,54.3-64.4V683c2.3,1.1,4.8,1.7,7.5,1.7c9.7,0,17.6-7.9,17.6-17.6
			C2897,657.4,2889.1,649.5,2879.4,649.5z"/>
		<g>
			<path class="st6" d="M2791.3,640.3H2761c-1.8,0-3.2-1.4-3.2-3.2l0,0c0-1.8,1.4-3.2,3.2-3.2h30.3c1.8,0,3.2,1.4,3.2,3.2l0,0
				C2794.5,638.9,2793.1,640.3,2791.3,640.3z"/>
		</g>
		<g>
			<path class="st6" d="M2851.2,640.3h-30.3c-1.8,0-3.2-1.4-3.2-3.2l0,0c0-1.8,1.4-3.2,3.2-3.2h30.3c1.8,0,3.2,1.4,3.2,3.2l0,0
				C2854.4,638.9,2853,640.3,2851.2,640.3z"/>
		</g>
		<g>
			<rect x="2734.6" y="595.2" class="st6" width="14.1" height="61.3"/>
		</g>
		<path d="M2868.5,652.3v0.7c-0.9,0.7-1.7,1.4-2.5,2.2v1.3h-7.4v-4.2H2868.5z"/>
		<circle class="st7" cx="2776.1" cy="660.7" r="22.6"/>
		<path class="st8" d="M2767.7,678.4h-10.6l25.3-39.5h6.1c1.9,0,3.1,2.1,2.1,3.8L2767.7,678.4z"/>
		<path class="st8" d="M2783.7,672.1h-6.9l16.4-25.6h2.9c1.7,0,2.7,1.9,1.8,3.3L2783.7,672.1z"/>
		<circle class="st7" cx="2836.1" cy="660.7" r="22.6"/>
		<path class="st8" d="M2827.7,678.4h-10.6l25.3-39.5h6.1c1.9,0,3.1,2.1,2.1,3.8L2827.7,678.4z"/>
		<rect x="2743.7" y="652.3" width="9.9" height="4.2"/>
		<path class="st8" d="M2843.6,672.1h-6.9l16.4-25.6h2.9c1.7,0,2.7,1.9,1.8,3.3L2843.6,672.1z"/>
		<g>
			<path class="st6" d="M2869.6,607.9H2753c-13.3,0-24.1-10.8-24.1-24.1v-4.7c0-13.3,10.8-24.1,24.1-24.1h138.7v30.7
				C2891.7,598,2881.8,607.9,2869.6,607.9z"/>
		</g>
		<path class="st47" d="M2881.2,580.3c0,12.5-9.4,17.7-21.9,17.7"/>
		<path class="st10" d="M2780.8,717v2.7l0.3,0.2l0.1-5.6C2780.9,715.2,2780.8,716.1,2780.8,717z"/>
		<path class="st11" d="M2864.2,690.3l-32,29.3V717c0-0.9-0.1-1.8-0.4-2.7c-1.2-4.1-4.9-7.1-9.3-7.1h-32c-4.4,0-8.2,3-9.3,7
			l-0.1,5.6l-0.3-0.2l-32.2-29.5l-7.4-6.8l-0.1-0.1v21.3c0,1.3,0,2.5,0.1,3.8c0,0.6,0.1,1.2,0.1,1.9c0.1,0.6,0.1,1.2,0.2,1.8
			c0.1,1.2,0.3,2.4,0.5,3.7c0.1,0.6,0.2,1.2,0.3,1.8c0.1,0.3,0.1,0.6,0.2,0.9c0.1,0.3,0.1,0.6,0.2,0.9c0.1,0.4,0.2,0.9,0.3,1.3
			c0.1,0.3,0.2,0.6,0.2,0.9c0,0.1,0,0.2,0.1,0.3c0.1,0.3,0.2,0.6,0.2,0.8c0.1,0.4,0.3,0.9,0.4,1.3c0.6,2,1.4,4,2.2,6
			c0.2,0.5,0.4,1,0.6,1.5c0.4,1,0.9,1.9,1.4,2.9c0.2,0.5,0.5,0.9,0.7,1.4c0.5,0.9,1,1.8,1.6,2.7c0.5,0.9,1.1,1.8,1.7,2.7
			c0.6,0.9,1.2,1.7,1.8,2.6c0.3,0.5,0.7,0.9,1.1,1.4c0.2,0.3,0.5,0.6,0.7,0.9c0.4,0.5,0.8,1,1.2,1.5c0.3,0.4,0.7,0.7,1,1.1
			c0.3,0.3,0.5,0.6,0.8,0.9c0.1,0.1,0.2,0.3,0.4,0.4c0.3,0.3,0.7,0.7,1,1s0.7,0.7,1,1c0.1,0.1,0.1,0.1,0.2,0.2c0.3,0.3,0.7,0.6,1,1
			c0.3,0.3,0.6,0.6,1,0.9c0.2,0.2,0.5,0.4,0.7,0.6c0.2,0.2,0.4,0.4,0.7,0.6c0.2,0.1,0.3,0.3,0.5,0.4c0.3,0.2,0.6,0.5,0.9,0.7
			c0.3,0.3,0.7,0.5,1,0.8c0.1,0.1,0.2,0.2,0.3,0.2c0.4,0.3,0.7,0.5,1.1,0.8c0.4,0.3,0.9,0.6,1.3,0.9l0,0c0.4,0.3,0.9,0.6,1.3,0.8
			c0.4,0.3,0.8,0.5,1.2,0.8c0.1,0,0.2,0.1,0.2,0.1c0.4,0.2,0.8,0.5,1.2,0.7c0.5,0.3,0.9,0.5,1.4,0.8s0.9,0.5,1.4,0.7
			s0.9,0.5,1.4,0.7s1,0.5,1.4,0.7s0.8,0.4,1.2,0.5c0.3,0.1,0.5,0.2,0.8,0.3c0.4,0.1,0.7,0.3,1.1,0.4c0.8,0.3,1.6,0.6,2.5,0.9
			c0.4,0.1,0.8,0.3,1.3,0.4c0.4,0.1,0.8,0.3,1.3,0.4c0,0,0,0,0.1,0h0.1c0.2,0.1,0.5,0.2,0.7,0.2c0.1,0,0.1,0,0.2,0
			c0.3,0.1,0.7,0.2,1,0.3s0.7,0.2,1,0.3c0.7,0.2,1.3,0.3,2,0.5c0.3,0.1,0.6,0.1,0.9,0.2c0,0,0.1,0,0.2,0c0.3,0.1,0.6,0.1,0.9,0.2
			c0.1,0,0.2,0,0.3,0.1c0.5,0.1,0.9,0.2,1.4,0.2c0.1,0,0.1,0,0.2,0c0.5,0.1,1,0.2,1.6,0.2c0.5,0.1,1.1,0.1,1.6,0.2
			c0.4,0,0.8,0.1,1.2,0.1l0,0c0.3,0,0.6,0,0.9,0.1l0,0c0.3,0,0.6,0,1,0.1c0.2,0,0.4,0,0.6,0c0.2,0,0.5,0,0.7,0h0.1
			c0.2,0,0.5,0,0.7,0c0.1,0,0.1,0,0.2,0c0.4,0,0.7,0,1.1,0l0,0c0.5,0,1.1,0,1.6,0c0.1,0,0.1,0,0.2,0c0.3,0,0.7,0,1,0h0.1
			c0.2,0,0.4,0,0.6,0c0,0,0.1,0,0.2,0c0.3,0,0.7,0,1-0.1c0.2,0,0.3,0,0.5,0c0.4,0,0.8-0.1,1.1-0.1c0.1,0,0.3,0,0.4,0
			c0.4,0,0.7-0.1,1.1-0.1c0.2,0,0.4,0,0.6-0.1c0.3,0,0.7-0.1,1-0.1c0.1,0,0.2,0,0.3,0c0.4-0.1,0.9-0.1,1.3-0.2l0,0l0,0l0,0h0.1
			c0.2,0,0.4-0.1,0.6-0.1c0.1,0,0.3-0.1,0.4-0.1c0.1,0,0.2,0,0.3,0c0.5-0.1,1-0.2,1.4-0.3s0.9-0.2,1.3-0.3c0.1,0,0.2,0,0.2-0.1
			c0,0,0,0,0.1,0l0,0c0.4-0.1,0.8-0.2,1.2-0.3c0.1,0,0.2,0,0.3-0.1c0.1,0,0.1,0,0.2,0c0.1,0,0.2,0,0.3-0.1c0.2-0.1,0.5-0.1,0.7-0.2
			l0,0c0,0,0,0,0.1,0c0.3-0.1,0.6-0.2,0.9-0.3c0.1,0,0.2-0.1,0.3-0.1h0.1l0,0h0.1c0.1,0,0.1,0,0.2-0.1c0.5-0.1,0.9-0.3,1.4-0.5
			c0.2-0.1,0.3-0.1,0.5-0.2h0.1c0.1,0,0.2-0.1,0.3-0.1c0,0,0.1,0,0.2,0c0.4-0.1,0.8-0.3,1.2-0.5c0.3-0.1,0.6-0.2,1-0.4
			c0.2-0.1,0.4-0.2,0.6-0.2c0.1,0,0.1-0.1,0.2-0.1c0.3-0.1,0.7-0.3,1-0.4c0.1-0.1,0.3-0.1,0.4-0.2l0.2-0.1h0.1h0.1h0.1l0,0
			c0.3-0.1,0.5-0.2,0.8-0.4c0.1,0,0.2-0.1,0.2-0.1c0.1,0,0.2-0.1,0.2-0.1c0.1,0,0.1-0.1,0.2-0.1h0.1c0.1,0,0.1-0.1,0.2-0.1
			c0.1-0.1,0.3-0.1,0.4-0.2c0.1-0.1,0.3-0.1,0.4-0.2c0.1,0,0.1-0.1,0.2-0.1c0.4-0.2,0.9-0.5,1.3-0.7c0.1-0.1,0.3-0.2,0.4-0.2
			c0.2-0.1,0.4-0.2,0.6-0.3c0.1,0,0.1-0.1,0.2-0.1c0.1-0.1,0.2-0.1,0.3-0.2c0.3-0.2,0.7-0.4,1-0.6c0.1,0,0.1-0.1,0.2-0.1
			c0.1,0,0.1-0.1,0.2-0.1c0.1-0.1,0.2-0.1,0.3-0.2c0.3-0.2,0.5-0.3,0.7-0.5c0.3-0.2,0.6-0.4,0.9-0.6c0.1,0,0.1-0.1,0.2-0.1
			c0,0,0.1,0,0.1-0.1c0.2-0.1,0.3-0.2,0.5-0.4c0.1,0,0.1-0.1,0.2-0.1c0.1-0.1,0.2-0.1,0.3-0.2c0.2-0.1,0.3-0.2,0.5-0.3
			c0.1-0.1,0.2-0.1,0.3-0.2c0.1-0.1,0.2-0.1,0.3-0.2c0,0,0.1-0.1,0.2-0.1c0,0,0.1-0.1,0.2-0.1c0.1-0.1,0.2-0.1,0.2-0.2
			c0.2-0.1,0.3-0.2,0.5-0.4l0,0c0.1-0.1,0.2-0.1,0.2-0.2l0,0c0.1-0.1,0.3-0.2,0.5-0.3c0.1-0.1,0.2-0.1,0.3-0.2
			c0.1,0,0.1-0.1,0.2-0.1c0,0,0,0,0.1-0.1c0.2-0.1,0.3-0.3,0.5-0.4c0,0,0,0,0.1,0c0.1-0.1,0.2-0.1,0.2-0.2l0,0l0.1-0.1
			c0,0,0,0,0.1-0.1c0.1,0,0.1-0.1,0.2-0.2c0.1-0.1,0.1-0.1,0.2-0.2c0.2-0.2,0.4-0.3,0.6-0.5l0.1-0.1c0.4-0.3,0.7-0.6,1-0.9l0,0
			c0.3-0.2,0.5-0.5,0.7-0.7c0.1-0.1,0.2-0.2,0.3-0.3c0.2-0.2,0.4-0.3,0.5-0.5c0.2-0.2,0.5-0.5,0.7-0.7c0.3-0.3,0.6-0.6,1-1
			c0.1-0.1,0.2-0.2,0.4-0.4c0,0,0,0,0.1-0.1c0.2-0.2,0.3-0.3,0.5-0.5c0.1-0.1,0.2-0.2,0.3-0.4c0.1-0.1,0.2-0.2,0.2-0.3
			c0.2-0.2,0.3-0.3,0.5-0.5l0,0l0.1-0.1c0.1-0.1,0.1-0.1,0.2-0.2l0,0c0.1-0.1,0.1-0.2,0.2-0.2c0,0,0-0.1,0.1-0.1l0,0
			c0.3-0.3,0.6-0.7,0.9-1c0.3-0.3,0.5-0.6,0.8-0.9c0.1-0.1,0.1-0.2,0.2-0.3c0.1-0.1,0.2-0.3,0.3-0.4c0.1-0.2,0.3-0.3,0.4-0.5
			c0.1-0.1,0.1-0.1,0.2-0.2c0,0,0-0.1,0.1-0.1c0.3-0.4,0.6-0.8,0.9-1.2c0,0,0,0,0-0.1c0.1-0.1,0.2-0.3,0.3-0.4
			c0.1-0.1,0.1-0.2,0.2-0.3c0.1-0.2,0.3-0.4,0.4-0.6c0.3-0.4,0.6-0.9,0.9-1.3l0,0c0.2-0.3,0.3-0.5,0.5-0.8c0,0,0.1-0.1,0.1-0.2
			c0,0,0,0,0-0.1c0.1-0.2,0.2-0.3,0.3-0.5l0.1-0.1c0,0,0,0,0-0.1c0.2-0.3,0.4-0.7,0.6-1l0,0c0-0.1,0.1-0.1,0.1-0.2
			c0.1-0.2,0.3-0.5,0.4-0.7c0,0,0-0.1,0.1-0.1l0,0c0-0.1,0.1-0.1,0.1-0.2c0.2-0.3,0.3-0.6,0.5-1c0.1-0.1,0.1-0.2,0.2-0.3
			c0,0,0,0,0-0.1c0,0,0-0.1,0.1-0.1c0.1-0.1,0.1-0.2,0.2-0.4c0-0.1,0.1-0.1,0.1-0.2c0.1-0.2,0.2-0.5,0.4-0.7l0,0c0,0,0-0.1,0.1-0.1
			c0.2-0.4,0.4-0.9,0.6-1.3v-0.1c0-0.1,0.1-0.2,0.1-0.3c0.1-0.3,0.3-0.6,0.4-0.9c0,0,0-0.1,0.1-0.1c0-0.1,0-0.1,0.1-0.2
			c0.2-0.4,0.4-0.9,0.5-1.3c0.1-0.2,0.1-0.4,0.2-0.6c0-0.1,0.1-0.2,0.1-0.2c0-0.1,0-0.1,0.1-0.2c0,0,0-0.1,0.1-0.2
			c0.1-0.2,0.1-0.3,0.2-0.5c0-0.1,0.1-0.3,0.1-0.4l0,0c0-0.1,0-0.1,0.1-0.2c0.1-0.3,0.2-0.6,0.3-0.9c0,0,0,0,0-0.1s0-0.1,0.1-0.2
			c0.1-0.2,0.2-0.5,0.2-0.7c0-0.1,0-0.1,0.1-0.2c0,0,0,0,0-0.1s0.1-0.2,0.1-0.3v-0.1c0.1-0.2,0.1-0.5,0.2-0.7c0-0.1,0.1-0.3,0.1-0.4
			c0-0.1,0-0.2,0.1-0.2l0,0c0-0.1,0-0.1,0.1-0.2v-0.1v-0.1c0-0.2,0.1-0.3,0.1-0.5c0.1-0.2,0.1-0.5,0.2-0.7c0.2-1,0.5-1.9,0.7-2.9
			c0.1-0.2,0.1-0.5,0.1-0.8c0-0.2,0.1-0.3,0.1-0.5s0.1-0.3,0.1-0.5c0.1-0.4,0.1-0.8,0.2-1.2v-0.1c0,0,0,0,0-0.1
			c0-0.2,0.1-0.5,0.1-0.7v-0.1v-0.1c0-0.2,0-0.3,0.1-0.5c0-0.1,0-0.1,0-0.2c0-0.1,0-0.3,0-0.4c0-0.3,0.1-0.6,0.1-1
			c0-0.1,0-0.1,0-0.2c0-0.3,0.1-0.5,0.1-0.8c0,0,0,0,0-0.1c0,0,0,0,0-0.1v-0.1c0-0.2,0-0.4,0.1-0.6c0-0.2,0-0.3,0-0.5v-0.1l0,0v-0.1
			c0-0.1,0-0.2,0-0.2l0,0c0-0.4,0-0.7,0.1-1.1v-0.1c0-0.5,0-0.9,0-1.4c0-0.6,0-1.1,0-1.7v-21.3L2864.2,690.3z M2788,722
			c0-3.9,3.2-7,7-7h23.1c3.9,0,7,3.2,7,7v19.1c0,0.3,0,0.6-0.1,0.9c-0.4,3.4-3.4,6.1-7,6.1h-23c-2.9,0-5.3-1.7-6.4-4.2l0,0
			c-0.4-0.9-0.6-1.8-0.6-2.8V722z"/>
		<circle class="st0" cx="2734.6" cy="667.1" r="17.6"/>
		<path d="M2861.4,656.5c-0.2-1.5-0.6-2.9-1.1-4.2c-1.7-4.8-4.8-9-8.8-12c-4.3-3.2-9.6-5.1-15.4-5.1c-5.8,0-11.1,1.9-15.4,5.2
			c-4.1,3.1-7.2,7.3-8.8,12.2h-11c-1.7-4.9-4.8-9.2-8.9-12.3c-4.3-3.2-9.6-5.1-15.3-5.1c-5.8,0-11.1,1.9-15.4,5.2
			c-4,3-7.1,7.2-8.7,12c-0.5,1.4-0.8,2.8-1.1,4.2c-0.2,1.4-0.4,2.8-0.4,4.2c0,0.1,0,0.2,0,0.3l0,0c0,2.4,0.4,4.7,1,6.9
			c1.1,3.7,2.9,7,5.4,9.8c0.2,0.2,0.4,0.4,0.6,0.6c4.7,4.9,11.3,8,18.6,8c14.1,0,25.6-11.5,25.6-25.6c0-1.2-0.1-2.5-0.3-3.7h8.8
			c-0.2,1.2-0.3,2.4-0.3,3.7c0,6.7,2.5,12.7,6.7,17.3c0.1,0.1,0.2,0.2,0.3,0.3c4.7,4.9,11.3,8,18.6,8c14.1,0,25.6-11.5,25.6-25.6
			C2861.8,659.3,2861.7,657.9,2861.4,656.5z M2776.7,682.7c-4.9,0-9.4-1.6-13.1-4.3c-1.5-1.1-2.8-2.4-4-3.9c-3-3.8-4.9-8.5-4.9-13.8
			c0-9.3,5.8-17.2,13.9-20.4c2.5-1,5.2-1.5,8-1.5c1.8,0,3.6,0.2,5.3,0.7c0.9,0.2,1.8,0.5,2.7,0.9c2,0.8,3.8,1.8,5.4,3.1
			c1.2,0.9,2.3,2,3.3,3.2c1.3,1.6,2.4,3.3,3.3,5.2c1.2,2.7,1.9,5.8,1.9,9C2798.7,672.9,2788.9,682.7,2776.7,682.7z M2836.2,682.7
			c-4.9,0-9.4-1.6-13.1-4.3c-1.4-1-2.6-2.2-3.7-3.5c-3.2-3.8-5.1-8.7-5.1-14.1c0-9.3,5.8-17.2,13.9-20.4c2.5-1,5.2-1.5,8-1.5
			c2,0,3.9,0.3,5.7,0.8c0.8,0.2,1.5,0.5,2.3,0.7c2.1,0.8,4,1.9,5.7,3.3c1.1,0.9,2.2,2,3.2,3.1c1.4,1.6,2.5,3.5,3.3,5.5
			c1.1,2.6,1.7,5.5,1.7,8.5C2858.1,672.9,2848.3,682.7,2836.2,682.7z"/>
		<polygon class="st12" points="2794.6,696.7 2805.5,704.4 2815.5,696.7 		"/>
		<polygon class="st0" points="2866,655.2 2866,656.5 2865,656.5 		"/>
		<g>
			<rect x="2740.9" y="646.7" class="st6" width="7.8" height="43.7"/>
		</g>
		<g>
			<rect x="2864.2" y="646.7" class="st6" width="7.8" height="43.7"/>
		</g>
		<polygon class="st46" points="2880.2,844.7 2880.2,945.5 2889.6,983.6 2897.4,983.6 		"/>
		<polygon class="st46" points="2734.6,855.3 2725.1,983.6 2734.6,939.2 		"/>
	</g>
	<g>
		<rect x="2123.9" y="328.9" class="st43" width="428.2" height="20.6"/>
		<path class="st48" d="M2572.1,235.8v98.1c0,2.1-1.7,3.8-3.8,3.8h-460.5c-2.1,0-3.8-1.7-3.8-3.8v-94.8c4.1-2.4,8.4-4.8,12.8-7.2
			c13.6-7.2,28.7-13.9,45.6-19.8h358.8c1.6,0.6,3.3,1.2,4.9,1.8c7.2,2.8,14,5.7,20.4,8.8c6.2,2.9,12,6,17.6,9.2h4.3
			C2570.4,231.9,2572.1,233.6,2572.1,235.8z"/>
		<path class="st43" d="M2564,231.9h-447.3c13.6-7.2,28.7-13.9,45.6-19.8h358.8c1.6,0.6,3.3,1.2,4.9,1.8c7.2,2.8,14,5.7,20.4,8.8
			C2552.6,225.7,2558.5,228.8,2564,231.9z"/>
		<g>
			<g>
				<rect x="2127.8" y="236.9" class="st49" width="91.4" height="5.5"/>
				<rect x="2127.8" y="247.9" class="st49" width="91.4" height="5.5"/>
				<rect x="2230.3" y="236.9" class="st49" width="91.4" height="5.5"/>
				<rect x="2230.3" y="247.9" class="st49" width="91.4" height="5.5"/>
			</g>
			<g>
				<rect x="2354.2" y="236.9" class="st49" width="91.4" height="5.5"/>
				<rect x="2354.2" y="247.9" class="st49" width="91.4" height="5.5"/>
				<rect x="2456.7" y="236.9" class="st49" width="91.4" height="5.5"/>
				<rect x="2456.7" y="247.9" class="st49" width="91.4" height="5.5"/>
			</g>
		</g>
		<circle class="st50" cx="2561" cy="327.8" r="5"/>
		<path class="st51" d="M2128.9,312.9V336H2547v-23.1H2128.9z M2539.4,334.9h-402.9l3.8-6l7.1-11.2h374.7l11.3,11.2L2539.4,334.9z"
			/>
	</g>
	<g>
		<path class="st52" d="M2257.4,931.9v122.3c-1.8-0.7-3.5-1.5-5.3-2.2c-1.6-0.7-3.2-1.4-4.8-2.1s-3.2-1.4-4.8-2.1
			c-22.2-10.2-43.9-22.2-64.7-36.2V932h79.6V931.9z"/>
		<path class="st52" d="M2337.6,931.9v148.4c-0.7-0.2-1.3-0.3-1.9-0.5c-0.4-0.1-0.9-0.2-1.3-0.3c-1.3-0.3-2.5-0.6-3.8-1
			c-0.1,0-0.2,0-0.2-0.1c-0.3-0.1-0.5-0.1-0.7-0.2c-1.5-0.4-3-0.8-4.4-1.2c-0.4-0.1-0.8-0.2-1.1-0.3c-1.1-0.3-2.3-0.6-3.4-0.9
			c-1.9-0.5-3.7-1-5.5-1.6c-0.1,0-0.1,0-0.2-0.1c-1.3-0.4-2.7-0.8-4-1.2c-0.6-0.2-1.2-0.3-1.8-0.5c-1.4-0.4-2.7-0.8-4.1-1.2
			c-1.4-0.4-2.8-0.9-4.1-1.3c-0.2-0.1-0.5-0.2-0.7-0.2c-1.4-0.4-2.8-0.9-4.2-1.3c-0.1,0-0.2-0.1-0.3-0.1c-1.6-0.5-3.2-1-4.8-1.6
			c-1.5-0.5-3.1-1.1-4.6-1.6c-2-0.7-4-1.4-6-2.1c-1.3-0.5-2.5-0.9-3.7-1.4c-0.2-0.1-0.4-0.1-0.5-0.2c-2.9-1.1-5.9-2.2-8.8-3.4
			c-0.4-0.2-0.9-0.3-1.3-0.5c-1.4-0.6-2.8-1.1-4.2-1.7c-0.8-0.3-1.6-0.7-2.4-1c-0.4-0.2-0.8-0.3-1.2-0.5V931.9H2337.6z"/>
		
			<rect x="2142.9" y="637.9" transform="matrix(6.783690e-02 -0.9977 0.9977 6.783690e-02 1359.9513 2766.5637)" class="st53" width="35.2" height="35.2"/>
		
			<rect x="2142.9" y="649.8" transform="matrix(6.783690e-02 -0.9977 0.9977 6.783690e-02 1348.0824 2777.6609)" class="st54" width="35.2" height="35.2"/>
		<rect x="2257.4" y="673.1" class="st55" width="24.1" height="29"/>
		<rect x="2233.3" y="673" class="st55" width="24.1" height="29"/>
		<path class="st0" d="M2257.9,705.4h-1.1c-10.4,0-18.8-8.4-18.8-18.8V644c0-10.4,8.4-18.8,18.8-18.8h1.1c10.4,0,18.8,8.4,18.8,18.8
			v42.6C2276.8,696.9,2268.3,705.4,2257.9,705.4z"/>
		<path class="st5" d="M2238.1,652.5v8.5l35.1,36.6c2.3-3.1,3.6-6.9,3.6-11V648C2261.3,648.2,2246.4,650.8,2238.1,652.5z"/>
		<path class="st10" d="M2131.5,575.9"/>
		<circle class="st0" cx="2329.5" cy="561.8" r="17.6"/>
		<path class="st0" d="M2347.1,561.8c0,9.7-7.9,17.6-17.6,17.6c-2.7,0-5.2-0.6-7.5-1.7v21.5c0,35.9-29.4,65.3-65.3,65.3l0,0
			c-35.9,0-65.3-29.4-65.3-65.3V578c-2.1,0.9-4.5,1.4-6.9,1.4c-9.7,0-17.6-7.9-17.6-17.6s7.9-17.6,17.6-17.6c2.5,0,4.8,0.5,7,1.4
			v-28.1c0-12,9.8-21.9,21.9-21.9h86.8c12,0,21.9,9.8,21.9,21.9v28.3c2.3-1.1,4.8-1.7,7.5-1.7
			C2339.2,544.2,2347.1,552.1,2347.1,561.8z"/>
		<g>
			<path class="st56" d="M2329.2,495.7v48.5c-4.5,0-8.6,1.3-12,3.5c-1,0.7-1.9,1.4-2.8,2.2v-54.3L2329.2,495.7L2329.2,495.7z"/>
		</g>
		<path class="st5" d="M2329.5,544.2c-2.7,0-5.2,0.6-7.5,1.7v-28.3c0-9-5.5-16.8-13.4-20.1l-53.2,5.3v161.8c0.1,0,0.1,0,0.2,0
			l12.2-0.9c30.7-5.3,54.2-32.2,54.2-64.3v-21.5c2.3,1.1,4.8,1.7,7.5,1.7c9.7,0,17.6-7.9,17.6-17.6S2339.2,544.2,2329.5,544.2z"/>
		<g>
			<path class="st6" d="M2241.6,535.1h-30.3c-1.7,0-3.2-1.4-3.2-3.2l0,0c0-1.7,1.4-3.2,3.2-3.2h30.3c1.7,0,3.2,1.4,3.2,3.2l0,0
				C2244.7,533.7,2243.3,535.1,2241.6,535.1z"/>
		</g>
		<g>
			<path class="st6" d="M2301.4,535.1h-30.3c-1.7,0-3.2-1.4-3.2-3.2l0,0c0-1.7,1.4-3.2,3.2-3.2h30.3c1.7,0,3.2,1.4,3.2,3.2l0,0
				C2304.5,533.7,2303.1,535.1,2301.4,535.1z"/>
		</g>
		<g>
			<rect x="2184.9" y="490.1" class="st56" width="14.1" height="61.2"/>
		</g>
		<circle class="st0" cx="2184.9" cy="561.8" r="17.6"/>
		<polygon class="st12" points="2244.8,591.4 2255.8,599.1 2265.8,591.4 		"/>
		<polygon class="st0" points="2316.2,550 2316.2,551.3 2315.1,551.3 		"/>
		<g>
			<rect x="2191.3" y="541.4" class="st56" width="7.7" height="43.6"/>
		</g>
		<g>
			<rect x="2314.4" y="541.4" class="st56" width="7.7" height="43.6"/>
		</g>
		<path class="st11" d="M2281.1,613.9c-4.1-7.8-14.1-13.4-25.8-13.4s-21.7,5.5-25.8,13.4H2281.1z"/>
		<path class="st57" d="M2246.4,564.6H2210c-1.8,0-3.3-1.5-3.3-3.3v-15.2c0-1.8,1.5-3.3,3.3-3.3h36.4c1.8,0,3.3,1.5,3.3,3.3v15.2
			C2249.7,563.2,2248.2,564.6,2246.4,564.6z"/>
		<path class="st57" d="M2304.1,564.6h-36.4c-1.8,0-3.3-1.5-3.3-3.3v-15.2c0-1.8,1.5-3.3,3.3-3.3h36.4c1.8,0,3.3,1.5,3.3,3.3v15.2
			C2307.4,563.2,2305.9,564.6,2304.1,564.6z"/>
		<g>
			<path class="st58" d="M2244.6,563.2h-34.9c-2,0-3.6-1.6-3.6-3.6v-18.2h42.2v18.2C2248.3,561.6,2246.6,563.2,2244.6,563.2z"/>
			<polygon class="st59" points="2232.6,541.4 2218.9,563.2 2212.8,563.2 2226.5,541.4 			"/>
			<polygon class="st59" points="2243.4,541.4 2229.6,563.2 2224.4,563.2 2238.2,541.4 			"/>
		</g>
		<g>
			<path class="st58" d="M2302.3,563.2h-34.9c-2,0-3.6-1.6-3.6-3.6v-18.2h42.2v18.2C2306,561.6,2304.3,563.2,2302.3,563.2z"/>
			<polygon class="st59" points="2290.3,541.4 2276.6,563.2 2270.5,563.2 2284.2,541.4 			"/>
			<polygon class="st59" points="2301.1,541.4 2287.3,563.2 2282.1,563.2 2295.9,541.4 			"/>
		</g>
		<rect x="2205.3" y="541.4" class="st6" width="43.6" height="2.8"/>
		<rect x="2263" y="541.4" class="st6" width="43.6" height="2.8"/>
		<rect x="2247.6" y="544.2" class="st6" width="16.9" height="4.2"/>
		<rect x="2194.8" y="541.4" class="st6" width="11.3" height="4.2"/>
		<rect x="2306" y="541.4" class="st6" width="11.3" height="4.2"/>
		<path class="st60" d="M2263.7,630.8h-16.9c-1.6,0-2.8-1.3-2.8-2.8l0,0c0-1.6,1.3-2.8,2.8-2.8h16.9c1.6,0,2.8,1.3,2.8,2.8l0,0
			C2266.6,629.5,2265.3,630.8,2263.7,630.8z"/>
		
			<ellipse transform="matrix(0.2222 -0.975 0.975 0.2222 1307.0165 2596.3386)" class="st56" cx="2280.8" cy="479" rx="39.1" ry="62.8"/>
		<ellipse transform="matrix(0.866 -0.5 0.5 0.866 61.9304 1171.3245)" class="st56" cx="2216.6" cy="470.1" rx="45.5" ry="28.4"/>
		<path class="st53" d="M2243.4,485.7c0,0,42.5,45.6,89.7,7.6C2333,493.2,2293,519.6,2243.4,485.7z"/>
		<polygon class="st53" points="2257.4,700.5 2290.5,680.5 2295.2,710.9 2287.5,794.6 2257.4,844 		"/>
		<polygon class="st53" points="2257.4,700.5 2224.3,680.5 2219.6,710.9 2227.3,794.6 2257.4,844 		"/>
		<polygon class="st61" points="2255,720.6 2245.5,815.2 2255,847.2 2269.4,842.5 2271.8,816.2 2259.8,720.6 		"/>
		<g>
			<polygon class="st62" points="2350.5,990.7 2347.6,749.7 2347.6,749.4 2346.8,680.6 2347.7,749.7 			"/>
			<polygon class="st63" points="2350.6,991.6 2350.3,991.7 2350.2,988.3 2350.2,988.3 2347.6,749.7 2350.5,990.7 2350.5,990.7 			
				"/>
			<path class="st63" d="M2350.3,991.7l-3.5-309.6l0.8,67.2l-0.8-68.8c-0.1,0.1-56.3-0.1-56.3-0.1l4.1,76l-37.1,87.4v148.9
				c2.8,9.6,14.7,21.1,18.9,20.8c43.4-3.3,74.3-21.9,74.3-21.9l0,0L2350.3,991.7z"/>
			<polygon class="st63" points="2346.8,682.1 2350.3,991.7 2347.6,749.4 			"/>
		</g>
		<rect x="2256.7" y="843.3" class="st64" width="1.4" height="149.2"/>
		<path class="st52" d="M2290.5,680.5c0,0-16.2,128.4-33.1,163.5c0,0,35.1-42.5,58.1-107l-13.5-14l13.5-18.9L2290.5,680.5z"/>
		<polygon class="st65" points="2245.5,702.2 2269.4,702.2 2259.8,721.3 2255,721.3 		"/>
		<path class="st66" d="M2257.4,700.5c0,0,7.8,16.5,10.8,20.6s22.3-40.6,22.3-40.6s-3.5-5-8.9-7.5
			C2281.5,673,2268.9,691.4,2257.4,700.5z"/>
		<g>
			<path class="st62" d="M2167.1,681.2L2167.1,681.2"/>
			<path class="st63" d="M2220.3,756.5l4.1-76c0,0-57.1-0.2-57.1,0c0,0,0,0.2-0.1,0.6l-2.6,310.6l-0.3-0.1l0,0
				c0,0,30.9,18.6,74.3,21.9c4.2,0.3,16.1-11.2,18.9-20.8V844L2220.3,756.5z"/>
			<path class="st63" d="M2167.2,681.1L2167.2,681.1l-2.9,310.6l0.3,0.1L2167.2,681.1z"/>
		</g>
		<path class="st52" d="M2224.3,680.5c0,0,16.2,128.4,33.1,163.5c0,0-35.1-42.5-58.1-107l13.5-14l-13.5-18.9L2224.3,680.5z"/>
		<path class="st66" d="M2257.4,700.5c0,0-7.8,16.5-10.8,20.6s-22.3-40.6-22.3-40.6s3.5-5,8.9-7.5
			C2233.3,673,2245.9,691.4,2257.4,700.5z"/>
		<circle class="st52" cx="2257.4" cy="873.6" r="6.3"/>
		<circle class="st52" cx="2257.4" cy="937.9" r="6.3"/>
		<path class="st64" d="M2257.4,844"/>
		<path class="st64" d="M2257.4,844"/>
		<path class="st54" d="M2165.5,861.3c0,0,29.3,5.2,29.3-24.4c0-29.6,6.3-156.5,6.3-156.5h-33.8L2165.5,861.3z"/>
		<path class="st63" d="M2144.8,851.9l-2.3-0.2c-12.2-0.8-21.4-11.4-20.5-23.5l11.9-175.2l46.3,3.2l-11.9,175.2
			C2167.5,843.5,2156.9,852.7,2144.8,851.9z"/>
		
			<rect x="2175" y="527" transform="matrix(0.9914 -0.1308 0.1308 0.9914 -56.7436 290.0429)" class="st52" width="9.1" height="99.9"/>
		<polygon class="st0" points="2152,637.3 2144.2,593.7 2162.6,541.4 2172.2,535.7 2177.9,586.1 2179.2,608.1 2176.8,638.9 		"/>
		<polygon class="st53" points="2354.4,947.1 2385.9,944.1 2389.5,982.9 2358,985.9 		"/>
		<polygon class="st54" points="2352.4,939.5 2384.3,935.3 2389.4,973.9 2357.5,978.2 		"/>
		<polygon class="st0" points="2385.3,983.5 2398.1,1019.1 2371.6,1047 2358.2,1049.8 2364.5,1025.1 2361.7,1011.2 2360.5,985 		"/>
		<circle class="st53" cx="2167.3" cy="668.1" r="4.2"/>
		<circle class="st53" cx="2165.9" cy="682.1" r="4.2"/>
		<polygon class="st54" points="2350.2,988.3 2350.2,988.3 2319.3,753.5 2347.5,749.7 2347.6,749.7 2347.7,749.7 2350.5,990.7 		"/>
		<polygon class="st63" points="2395.4,964.5 2352.1,970.2 2313.7,680.7 2358,680 		"/>
		
			<ellipse transform="matrix(0.9906 -0.1368 0.1368 0.9906 -105.8901 331.4424)" class="st53" cx="2358.5" cy="936.1" rx="4.2" ry="4.2"/>
		
			<ellipse transform="matrix(0.9906 -0.1368 0.1368 0.9906 -107.8019 331.8343)" class="st53" cx="2360.4" cy="950.2" rx="4.2" ry="4.2"/>
	</g>
	<g>
		<g>
			<path class="st62" d="M3070.6,433.9c-0.8,0-1.6-0.2-2.3-0.6l-83.3,55h5.1h161h5.1l-83.3-55
				C3072.2,433.7,3071.4,433.9,3070.6,433.9z"/>
			<path class="st67" d="M3151.1,654.9h20.4v-22.6V511v-22.6h-7.2l-88.5-58.4c0.1-0.4,0.2-0.9,0.2-1.3c0-3-2.4-5.4-5.4-5.4
				s-5.4,2.4-5.4,5.4c0,0.5,0.1,0.9,0.2,1.3l-88.5,58.4h-7.2V511v121.3v22h36.1h-36.1L3151.1,654.9z M3151.1,488.4h-161h-5.1
				l83.3-55c0.7,0.3,1.5,0.6,2.3,0.6s1.6-0.2,2.3-0.6l83.3,55H3151.1z"/>
		</g>
		<polyline id="XMLID_380_" class="st68" points="2983.4,484.4 3067.9,428.6 3152.4,484.4 		"/>
		<g id="XMLID_379_">
			<rect id="XMLID_325_" x="2977.1" y="481.9" class="st14" width="181.7" height="150"/>
			<rect id="XMLID_323_" x="2977.1" y="611.5" class="st69" width="181.7" height="20.4"/>
			<rect id="XMLID_326_" x="2977.1" y="481.9" class="st69" width="181.7" height="20.4"/>
			<rect id="XMLID_322_" x="2977.1" y="481.9" class="st70" width="18.4" height="150"/>
			<rect id="XMLID_324_" x="3140.4" y="481.9" class="st70" width="18.4" height="150"/>
			<rect id="XMLID_66_" x="2995.4" y="588.6" class="st71" width="145" height="23.6"/>
			<polygon id="XMLID_95_" class="st15" points="2995.4,588.6 3034.6,547.8 3075.2,588.6 			"/>
			<polygon id="XMLID_131_" class="st72" points="3060.4,588.6 3099.6,547.8 3140.3,588.6 			"/>
			<circle id="XMLID_92_" class="st73" cx="3024.6" cy="527.2" r="9.9"/>
			<g id="XMLID_164_">
				<path id="XMLID_259_" class="st53" d="M3057.9,521.8h-2.6v-0.7c0-2.1-1.7-3.9-3.9-3.9c-2.1,0-3.9,1.7-3.9,3.9v0.7h-0.2
					c-2.1,0-3.8,1.7-3.8,3.8s1.7,3.8,3.8,3.8h10.5c2.1,0,3.8-1.7,3.8-3.8C3061.7,523.5,3060,521.8,3057.9,521.8z"/>
				<path id="XMLID_261_" class="st53" d="M3089.6,534h-2.6v-0.7c0-2.1-1.7-3.9-3.9-3.9s-3.9,1.7-3.9,3.9v0.7h-0.2
					c-2.1,0-3.8,1.7-3.8,3.8s1.7,3.8,3.8,3.8h10.5c2.1,0,3.8-1.7,3.8-3.8C3093.4,535.7,3091.7,534,3089.6,534z"/>
				<path id="XMLID_264_" class="st53" d="M3123.9,522.9h-2.6v-0.7c0-2.1-1.7-3.9-3.9-3.9c-2.1,0-3.9,1.7-3.9,3.9v0.7h-0.2
					c-2.1,0-3.8,1.7-3.8,3.8s1.7,3.8,3.8,3.8h10.5c2.1,0,3.8-1.7,3.8-3.8C3127.7,524.6,3126,522.9,3123.9,522.9z"/>
			</g>
		</g>
	</g>
	<circle id="XMLID_381_" class="st74" cx="3068.4" cy="427.8" r="3.9"/>
	<g>
		<g>
			<path class="st53" d="M3090.7,914.1c3.6-1.4,8.3,1.1,7.3,5.5c-0.4,1.8-2,3-3.8,3c-0.8,0-1.5-0.2-2.2-0.7c-1-0.7-1.7-2.3-0.4-3.1
				c1.7-1.2,3.8,0.1,4.6,1.7c0.9,1.8,0.5,3.9-0.6,5.5c-0.9,1.4-4,4.4-5.7,2.6c-0.5-0.6-0.6-1.3,0.1-1.8c0.5-0.3,1.1-0.3,1.6-0.4
				c1,0,2.2,0.2,2.9,1c1.4,1.5,1,3.8,0.2,5.5c-0.8,1.6-2,3.2-3.7,4c-0.5,0.2-1,0.3-1.5,0.3c-0.2,0-0.5,0-0.7-0.1
				c-0.4-0.1-0.9-0.6-1-1c-0.1-0.9,2.6-1.2,3.2-1.2c2.3,0,3.1,2.3,2.9,4.3c-0.2,1.7-1,3.3-2.4,4.4c-0.7,0.5-1.5,0.9-2.3,1.1
				c-0.5,0.1-1.2,0.1-1.7-0.3c-0.6-0.5-0.4-1.4,0.1-1.9c1.1-1,2.7-0.1,3.3,0.9c0.5,0.9,0.7,1.9,0.6,2.9c-0.1,2.1-1.3,4.1-3.3,4.8
				c-1.1,0.4-2.4,0.4-3.4-0.2c-0.4-0.2-0.5-0.3-0.5-0.8c-0.1-0.6,0.2-0.8,0.7-1.1c0.6-0.2,1.2-0.2,1.7,0c2.3,0.6,3.8,2.8,3.3,5.1
				c-0.5,2.5-2.6,3.5-4.9,3.8c-2.2,0.3-4.8,0.7-6.7-0.6c-0.3-0.2-0.6,0.3-0.3,0.5c1.2,0.8,2.6,1.1,4,1c1.5,0,3.1-0.2,4.5-0.6
				c2.5-0.7,4.3-3,4-5.7c-0.3-2.3-2.7-4.5-5.1-4.3c-0.9,0.1-2,0.7-2.1,1.7c0,1.1,1.3,1.6,2.2,1.8c2.6,0.5,5.1-1.2,6-3.6
				c0.8-2.2,0.5-5.9-2.2-6.7c-1-0.3-2.2,0-2.7,1c-0.4,0.8-0.3,1.9,0.5,2.4c2,1.3,4.7-0.7,5.8-2.3c1.4-1.9,1.9-4.9,0.5-7
				c-0.7-1-1.8-1.4-3-1.3c-0.9,0.1-2.7,0.2-3.3,1.1c-0.6,0.9,0.2,1.9,1.1,2.2c1.2,0.4,2.5-0.1,3.5-0.7c2.2-1.3,3.8-4,4-6.6
				c0.2-2.7-1.6-4.6-4.3-4.6c-1,0-2.4,0.1-2.7,1.2c-0.3,0.9,0.3,2,1.1,2.4c2.4,1.1,5.4-2,6.4-3.9c1.2-2.3,0.9-5.2-1.1-6.9
				c-1.5-1.2-4.5-1.3-5.1,1c-0.6,2.4,2.5,3.7,4.4,3.5c2.4-0.3,3.9-2.3,3.9-4.6c0-2.6-1.9-4.7-4.4-5.2c-1.3-0.3-2.6-0.2-3.8,0.3
				C3090.2,913.6,3090.3,914.2,3090.7,914.1L3090.7,914.1z"/>
		</g>
		<g id="XMLID_1204_">
			<g id="XMLID_1309_">
				<g>
					<rect id="XMLID_51_" x="3006.9" y="890.7" class="st75" width="10.3" height="8.9"/>
					<rect id="XMLID_49_" x="3046.3" y="890.7" class="st75" width="10.3" height="8.9"/>
				</g>
			</g>
			<g id="XMLID_602_">
				<path id="XMLID_609_" class="st76" d="M3070.9,876.4h-78.3c-15.5,0-28,12.5-28,28v4.8c0,4.1,3.3,7.4,7.4,7.4h15.4
					c4.1,0,7.4-3.3,7.4-7.4l0,0c0-8.6,6.9-15.5,15.5-15.5h43c8.6,0,15.5,6.9,15.5,15.5l0,0c0,4.1,3.3,7.4,7.4,7.4h15.4
					c4.1,0,7.4-3.3,7.4-7.4v-4.8C3098.9,888.9,3086.4,876.4,3070.9,876.4z"/>
				<path id="XMLID_606_" class="st77" d="M2994.8,909.2h-30.1v0.7c0,3.7,3,6.7,6.7,6.7h16.8c3.7,0,6.7-3,6.7-6.7L2994.8,909.2
					L2994.8,909.2z"/>
				<path id="XMLID_603_" class="st77" d="M3098.9,909.2h-30.1v0.7c0,3.7,3,6.7,6.7,6.7h16.8c3.7,0,6.7-3,6.7-6.7L3098.9,909.2
					L3098.9,909.2z"/>
			</g>
			<g id="XMLID_588_">
				<g>
					<g id="XMLID_48_">
						<path class="st78" d="M2995.4,904.8h-30.8v4.4h30.1l0,0C2994.8,907.7,2995,906.2,2995.4,904.8z"/>
					</g>
					<g id="XMLID_47_">
						<path class="st78" d="M3068.1,904.8c0.4,1.4,0.6,2.9,0.6,4.4l0,0h30.1v-4.4H3068.1z"/>
					</g>
				</g>
			</g>
			<g id="XMLID_1205_">
				<path id="XMLID_585_" class="st76" d="M3085.3,958.9l-17.4-54.7c-1.5-2.8-4.4-4.6-7.6-4.6h-0.1h-20.1h-0.1
					c0,4.6-3.7,8.4-8.4,8.4c-4.6,0-8.4-3.8-8.4-8.4h-0.1H3003h-0.1c-3.2,0-6.1,1.8-7.6,4.6l-17.4,54.7c-2.8,9.9,4.7,19.7,15,19.7
					h77.2C3080.6,978.6,3088.1,968.8,3085.3,958.9z"/>
				<path id="XMLID_582_" class="st45" d="M2978.4,968c2,6,7.7,10.6,14.7,10.6h77.2c7,0,12.7-4.6,14.7-10.6H2978.4z"/>
				<path id="XMLID_237_" class="st78" d="M2978.4,968h106.7c0.5-1.6,0.8-3.4,0.8-5.1h-108.3C2977.5,964.7,2977.8,966.4,2978.4,968z
					"/>
				<circle id="XMLID_198_" class="st78" cx="3031.8" cy="940" r="24"/>
				<g id="XMLID_1212_">
					<circle id="XMLID_195_" class="st77" cx="3031.8" cy="936.3" r="24"/>
					<circle id="XMLID_192_" class="st76" cx="3031.8" cy="936.3" r="12.7"/>
					<g id="XMLID_1213_">
						<g>
							<g id="XMLID_143_">
								<circle class="st79" cx="3031.8" cy="917.8" r="3.7"/>
							</g>
							<g id="XMLID_142_">
								
									<ellipse transform="matrix(0.866 -0.5 0.5 0.866 -55.2085 1634.5502)" class="st79" cx="3022.4" cy="920.3" rx="3.7" ry="3.7"/>
							</g>
							<g id="XMLID_141_">
								
									<ellipse transform="matrix(0.5 -0.866 0.866 0.5 704.9626 3075.2739)" class="st79" cx="3015.8" cy="927.1" rx="3.7" ry="3.7"/>
							</g>
							<g id="XMLID_140_">
								<circle class="st79" cx="3013.3" cy="936.3" r="3.7"/>
							</g>
							<g id="XMLID_139_">
								
									<ellipse transform="matrix(0.866 -0.5 0.5 0.866 -68.6972 1634.5576)" class="st79" cx="3015.7" cy="945.5" rx="3.7" ry="3.7"/>
							</g>
							<g id="XMLID_138_">
								
									<ellipse transform="matrix(0.5 -0.866 0.866 0.5 686.4177 3093.709)" class="st79" cx="3022.5" cy="952.4" rx="3.7" ry="3.7"/>
							</g>
							<g id="XMLID_137_">
								<circle class="st79" cx="3031.8" cy="954.8" r="3.7"/>
							</g>
							<g id="XMLID_136_">
								
									<ellipse transform="matrix(0.866 -0.5 0.5 0.866 -68.7223 1648.0806)" class="st79" cx="3040.9" cy="952.3" rx="3.7" ry="3.7"/>
							</g>
							<g id="XMLID_135_">
								
									<ellipse transform="matrix(0.5 -0.866 0.866 0.5 704.953 3112.1528)" class="st79" cx="3047.7" cy="945.6" rx="3.7" ry="3.7"/>
							</g>
							<g id="XMLID_134_">
								<circle class="st79" cx="3050.2" cy="936.3" r="3.7"/>
							</g>
							<g id="XMLID_133_">
								
									<ellipse transform="matrix(0.866 -0.5 0.5 0.866 -55.1897 1648.106)" class="st79" cx="3047.7" cy="927" rx="3.7" ry="3.7"/>
							</g>
							<g id="XMLID_132_">
								
									<ellipse transform="matrix(0.5 -0.866 0.866 0.5 723.3948 3093.7278)" class="st79" cx="3041" cy="920.4" rx="3.7" ry="3.7"/>
							</g>
						</g>
					</g>
				</g>
				<path id="XMLID_1209_" class="st78" d="M3019.1,937.7c0.7,6.4,6.1,11.3,12.7,11.3c6.5,0,11.9-4.9,12.7-11.3H3019.1z"/>
				<path id="XMLID_1206_" class="st78" d="M3031.8,925.7c6.7,0,12.1,5.1,12.7,11.7c0-0.3,0-0.7,0-1c0-7-5.7-12.7-12.7-12.7
					s-12.7,5.7-12.7,12.7c0,0.4,0,0.7,0,1C3019.6,930.8,3025.1,925.7,3031.8,925.7z"/>
			</g>
		</g>
	</g>
	<path class="st80" d="M3280.8,1001.9v6.3h-1.2c-1.1,2.9-2.3,5.7-3.5,8.5c-27.2,61.9-75,90.4-152.7,123.1
		c-15.6,6.6-34.6,11.8-55.6,15.7c-60.7,11.2-139.1,11.3-206.4,0c-75.7-12.7-137.4-39.6-144.4-80.9c0,0-48.6,13.1-121.1,20.2
		c-1.9,0.2-3.9,0.4-5.9,0.6c-51.1,4.7-113.2,6.2-178.2-1.7l1.1-2.6l0.4-1l3.8-9.5l0.7-1.7l0.1-0.3l2.1-5.2l3.7-9.1l14.3-34.9
		l1.1-2.7l1-2.6l3-7.3l0.9-2.1l0.7-1.7l0.1-0.3l1.8-4.3l0.4-0.9l2.2-5.4h831.6V1001.9z"/>
	<path class="st81" d="M3288.9,979.3c-2.4,9.2-5.1,17.7-8.1,25.7v3.2h-1.2c-1.1,2.9-2.3,5.7-3.5,8.5h-832.8l3.5-8.5l2.6-6.3
		l9.2-22.6L3288.9,979.3L3288.9,979.3z"/>
	<path class="st53" d="M2752,308.6l-14.3,35.1l-7.2,17.8l-15.8,38.8l-5.4,13.4l-15.8,38.8L2431.6,1096c-6.5-0.6-13.1-1.3-19.7-2.1
		c-1.6-0.2-3.2-0.4-4.8-0.6s-3.2-0.4-4.8-0.6l46.1-113.1l251.5-617.9l16.3-40.1c2.7-1.3,5.5-2.5,8.4-3.7c0.5-0.2,1-0.4,1.5-0.6
		c1-0.4,2.1-0.8,3.2-1.2c1.4-0.5,2.8-1,4.2-1.5c0.7-0.3,1.4-0.5,2.2-0.8s1.5-0.5,2.2-0.8c1.5-0.5,3-1,4.6-1.5c0.7-0.2,1.3-0.4,2-0.6
		c0.2,0,0.4-0.1,0.5-0.1c0.6-0.2,1.2-0.4,1.8-0.5C2748.5,309.5,2750.3,309,2752,308.6z"/>
	<g>
		<g>
			<path class="st82" d="M2575.9,970.3l-5.4,5.4c-0.5,0.5-0.5,1.4,0,2c0.3,0.3,0.6,0.4,1,0.4s0.7-0.1,1-0.4l5.4-5.4
				c0.5-0.5,0.5-1.4,0-2S2576.4,969.8,2575.9,970.3z"/>
			<path class="st82" d="M2616.7,975.8l-5.5-5.5c-0.5-0.5-1.4-0.5-2,0c-0.5,0.5-0.5,1.4,0,2l5.5,5.5c0.3,0.3,0.6,0.4,1,0.4
				s0.7-0.1,1-0.4C2617.3,977.2,2617.3,976.3,2616.7,975.8z"/>
		</g>
		<path class="st83" d="M2619.5,914.4c0,0,0.1,0,0.1-0.1l4.2-4.2c0.5-0.5,0.5-1.4,0-2s-1.4-0.5-2,0l-4.2,4.2l-0.1,0.1
			c-6.4-5.7-14.8-9.2-24-9.2s-17.6,3.5-24,9.2l-0.1-0.1l-4.2-4.2c-0.5-0.5-1.4-0.5-2,0c-0.5,0.5-0.5,1.4,0,2l4.2,4.2
			c0,0,0.1,0,0.1,0.1c-6.2,6.5-10.1,15.3-10.1,25c0,19.9,16.1,36,36,36s36-16.1,36-36C2629.6,929.7,2625.7,920.9,2619.5,914.4z"/>
		<circle class="st84" cx="2593.6" cy="939.4" r="30.5"/>
		<circle class="st53" cx="2593.6" cy="939.4" r="20.8"/>
		<g>
			<path class="st53" d="M2593.6,907.5c-0.8,0-1.4,0.6-1.4,1.4v2.8c0,0.8,0.6,1.4,1.4,1.4c0.8,0,1.4-0.6,1.4-1.4v-2.8
				C2595,908.1,2594.3,907.5,2593.6,907.5z"/>
			<path class="st53" d="M2593.6,965.7c-0.8,0-1.4,0.6-1.4,1.4v2.8c0,0.8,0.6,1.4,1.4,1.4c0.8,0,1.4-0.6,1.4-1.4v-2.8
				C2595,966.3,2594.3,965.7,2593.6,965.7z"/>
			<path class="st53" d="M2624,938h-2.8c-0.8,0-1.4,0.6-1.4,1.4s0.6,1.4,1.4,1.4h2.8c0.8,0,1.4-0.6,1.4-1.4S2624.8,938,2624,938z"/>
			<path class="st53" d="M2567.3,939.4c0-0.8-0.6-1.4-1.4-1.4h-2.8c-0.8,0-1.4,0.6-1.4,1.4s0.6,1.4,1.4,1.4h2.8
				C2566.6,940.8,2567.3,940.1,2567.3,939.4z"/>
			<path class="st53" d="M2579.5,912.3c-0.4-0.7-1.2-0.9-1.9-0.5s-0.9,1.2-0.5,1.9l1.4,2.4c0.3,0.4,0.7,0.7,1.2,0.7
				c0.2,0,0.5-0.1,0.7-0.2c0.7-0.4,0.9-1.2,0.5-1.9L2579.5,912.3z"/>
			<path class="st53" d="M2608.6,962.7c-0.4-0.7-1.2-0.9-1.9-0.5s-0.9,1.2-0.5,1.9l1.4,2.4c0.3,0.4,0.7,0.7,1.2,0.7
				c0.2,0,0.5-0.1,0.7-0.2c0.7-0.4,0.9-1.2,0.5-1.9L2608.6,962.7z"/>
			<path class="st53" d="M2570.3,924.3l-2.4-1.4c-0.7-0.4-1.5-0.2-1.9,0.5s-0.2,1.5,0.5,1.9l2.4,1.4c0.2,0.1,0.5,0.2,0.7,0.2
				c0.5,0,0.9-0.2,1.2-0.7C2571.2,925.6,2570.9,924.7,2570.3,924.3z"/>
			<path class="st53" d="M2620.7,953.4l-2.4-1.4c-0.7-0.4-1.5-0.2-1.9,0.5s-0.2,1.5,0.5,1.9l2.4,1.4c0.2,0.1,0.5,0.2,0.7,0.2
				c0.5,0,0.9-0.2,1.2-0.7C2621.5,954.6,2621.3,953.8,2620.7,953.4z"/>
			<path class="st53" d="M2568.9,952l-2.4,1.4c-0.7,0.4-0.9,1.2-0.5,1.9c0.3,0.4,0.7,0.7,1.2,0.7c0.2,0,0.5-0.1,0.7-0.2l2.4-1.4
				c0.7-0.4,0.9-1.2,0.5-1.9C2570.4,951.9,2569.6,951.6,2568.9,952z"/>
			<path class="st53" d="M2617.6,926.9c0.2,0,0.5-0.1,0.7-0.2l2.4-1.4c0.7-0.4,0.9-1.2,0.5-1.9s-1.2-0.9-1.9-0.5l-2.4,1.4
				c-0.7,0.4-0.9,1.2-0.5,1.9C2616.6,926.7,2617.1,926.9,2617.6,926.9z"/>
			<path class="st53" d="M2580.4,962.2c-0.7-0.4-1.5-0.2-1.9,0.5l-1.4,2.4c-0.4,0.7-0.2,1.5,0.5,1.9c0.2,0.1,0.5,0.2,0.7,0.2
				c0.5,0,0.9-0.2,1.2-0.7l1.4-2.4C2581.3,963.4,2581.1,962.5,2580.4,962.2z"/>
			<path class="st53" d="M2609.5,911.8c-0.7-0.4-1.5-0.2-1.9,0.5l-1.4,2.4c-0.4,0.7-0.2,1.5,0.5,1.9c0.2,0.1,0.5,0.2,0.7,0.2
				c0.5,0,0.9-0.2,1.2-0.7l1.4-2.4C2610.4,913,2610.2,912.2,2609.5,911.8z"/>
		</g>
		<path class="st83" d="M2608.8,938h-9.9c-0.5-1.9-2-3.4-4-3.9V920c0-0.8-0.6-1.4-1.4-1.4c-0.8,0-1.4,0.6-1.4,1.4v14
			c-0.8,0.2-1.5,0.6-2.1,1.1c-1.2,1-2,2.5-2,4.3c0,1.7,0.8,3.3,2,4.3c1,0.8,2.2,1.3,3.5,1.3c2.6,0,4.7-1.8,5.3-4.2h9.9
			c0.8,0,1.4-0.6,1.4-1.4C2610.2,938.6,2609.6,938,2608.8,938z M2593.6,942.1c-1.5,0-2.8-1.2-2.8-2.8c0-1.5,1.2-2.8,2.8-2.8
			c1.5,0,2.8,1.2,2.8,2.8C2596.4,940.9,2595.1,942.1,2593.6,942.1z"/>
		<path class="st82" d="M2629.5,901.9c3.9,3.9,3.9,10.1,0,13.9l-13.9-13.9C2619.4,898,2625.6,898,2629.5,901.9z"/>
		<path class="st82" d="M2557.7,901.9c-3.9,3.9-3.9,10.1,0,13.9l13.9-13.9C2567.8,898,2561.5,898,2557.7,901.9z"/>
	</g>
	<g>
		<path class="st85" d="M3219.2,847.3c-12.8-5.4-28.1,2-34.2,16.4c-1.4,3.3-2.5,6.8-2.6,13.2l0,0c15.7,0,29,11.3,33.4,27.3
			c6.2-7.6,12.1-13.3,15.4-21.1C3237.3,868.7,3231.9,852.6,3219.2,847.3"/>
		<path class="st86" d="M3215.2,930.5c1.5-4.7,2.3-9.6,2.3-14.6c0-21.9-15.6-39-34.9-39c-19.3,0-34.9,17.3-34.9,39.2
			c0,4.9,0.8,9.8,2.3,14.4L3215.2,930.5L3215.2,930.5z"/>
		<path class="st85" d="M3159.4,886.7c-4.1-2.8-5.9-3.9-7.9-4.7c-9.7-3.9-20.4-0.2-23.8,8.3c-3.5,8.5,1.6,18.7,11.2,22.6
			c2,0.8,4.1,1.3,8.6,3C3147.6,904.2,3152.2,893.8,3159.4,886.7"/>
		<path class="st87" d="M3229.1,936.2c0,2-1.6,3.7-3.7,3.7h-85.9c-2,0-3.7-1.6-3.7-3.7v-2c0-2,1.6-3.7,3.7-3.7h85.9
			c2,0,3.7,1.6,3.7,3.7V936.2L3229.1,936.2z"/>
		<polygon class="st88" points="3208.1,979.5 3156.9,979.5 3142.9,939.9 3222.1,939.9 		"/>
		<g>
			<path class="st86" d="M3201.1,858.3c-0.8,0-1.6-0.4-2-1.1l-7-11.6c-0.7-1.1-0.3-2.5,0.8-3.2s2.5-0.3,3.2,0.8l7,11.6
				c0.7,1.1,0.3,2.5-0.8,3.2C3202,858.2,3201.5,858.3,3201.1,858.3"/>
			<path class="st86" d="M3208.1,870c-0.2,0-0.4,0-0.6-0.1c-1.2-0.3-2-1.6-1.7-2.8l2.3-9.3c0.3-1.2,1.6-2,2.8-1.7s2,1.6,1.7,2.8
				l-2.3,9.3C3210.1,869.3,3209.2,870,3208.1,870"/>
			<path class="st86" d="M3229.1,874.6c-0.9,0-1.7-0.5-2.1-1.3c-0.6-1.2-0.1-2.5,1-3.1l9.3-4.7c1.2-0.6,2.6-0.1,3.1,1
				c0.6,1.2,0.1,2.5-1,3.1l-9.3,4.7C3229.8,874.5,3229.4,874.6,3229.1,874.6"/>
			<path class="st86" d="M3222.1,858.3c-0.6,0-1.2-0.2-1.6-0.7c-0.9-0.9-0.9-2.4,0-3.3l9.3-9.3c0.9-0.9,2.4-0.9,3.3,0s0.9,2.4,0,3.3
				l-9.3,9.3C3223.3,858.1,3222.7,858.3,3222.1,858.3"/>
			<path class="st86" d="M3212.8,883.9c-1,0-2-0.7-2.3-1.8c-0.3-1.2,0.4-2.5,1.7-2.8l9.3-2.3c1.2-0.3,2.5,0.4,2.8,1.7
				c0.3,1.2-0.4,2.5-1.7,2.8l-9.3,2.3C3213.2,883.9,3213,883.9,3212.8,883.9"/>
		</g>
		<g>
			<path class="st85" d="M3170.8,916.6c-0.6,0-1.2-0.2-1.6-0.7l-7-7c-0.9-0.9-0.9-2.4,0-3.3c0.9-0.9,2.4-0.9,3.3,0l7,7
				c0.9,0.9,0.9,2.4,0,3.3C3172,916.3,3171.4,916.6,3170.8,916.6"/>
			<path class="st85" d="M3194.1,909.6c-0.2,0-0.3,0-0.5,0c-1.3-0.3-2.1-1.5-1.8-2.7l2.3-11.6c0.2-1.3,1.5-2.1,2.7-1.8
				c1.3,0.3,2.1,1.5,1.8,2.7l-2.3,11.6C3196.2,908.8,3195.2,909.6,3194.1,909.6"/>
			<path class="st85" d="M3173.2,888.6c-1,0-1.9-0.6-2.2-1.6l-4.7-14c-0.4-1.2,0.3-2.5,1.5-2.9s2.5,0.3,2.9,1.5l4.7,14
				c0.4,1.2-0.3,2.5-1.5,2.9C3173.7,888.6,3173.4,888.6,3173.2,888.6"/>
		</g>
		<g>
			<path class="st86" d="M3142.9,888.6c-1.1,0-2.1-0.8-2.3-1.9l-2.3-11.6c-0.3-1.3,0.6-2.5,1.8-2.7c1.3-0.3,2.5,0.6,2.7,1.8
				l2.3,11.6c0.3,1.3-0.6,2.5-1.8,2.7C3143.2,888.6,3143,888.6,3142.9,888.6"/>
			<path class="st86" d="M3131.2,897.9h-11.6c-1.3,0-2.3-1-2.3-2.3s1-2.3,2.3-2.3h11.6c1.3,0,2.3,1,2.3,2.3
				C3133.6,896.9,3132.5,897.9,3131.2,897.9"/>
			<path class="st86" d="M3131.2,918.9c-0.5,0-1-0.2-1.4-0.5c-1-0.8-1.2-2.2-0.5-3.3l7-9.3c0.8-1,2.2-1.2,3.3-0.5
				c1,0.8,1.2,2.2,0.5,3.3l-7,9.3C3132.6,918.6,3131.9,918.9,3131.2,918.9"/>
		</g>
		<path class="st89" d="M3213.5,964.2l-4.5-2.6c-1.9-1.1-4.3-1-6,0.5l-3.5,3c-1.9,1.6-4.3,2.7-6.8,2.8c-2.4,0.1-4.5-0.6-5.7-2
			l-9.1-9.6c-2.8-2.8-5-2.9-9.1-1.2c-2.4,1-4.5,3.5-7.2,3.5c-3.3,0-5.7-1.2-7-2.3l-8.5-7.4l10.8,30.7h51.3L3213.5,964.2z"/>
		<path class="st85" d="M3210.5,921.2c-0.8,0-1.5-0.4-1.9-1c-0.7-1.1-0.4-2.5,0.6-3.2l14-9.3c1.1-0.7,2.5-0.4,3.2,0.6
			c0.7,1.1,0.4,2.5-0.6,3.2l-14,9.3C3211.3,921.1,3210.9,921.2,3210.5,921.2"/>
	</g>
	<g>
		<rect x="2465.4" y="410" class="st43" width="134.2" height="134.2"/>
		<rect x="2477.4" y="421.9" class="st38" width="110.3" height="110.3"/>
		<g>
			<rect x="2533.3" y="515.2" class="st43" width="1.9" height="14.3"/>
			<rect x="2533.3" y="424.7" class="st43" width="1.9" height="14.3"/>
		</g>
		<g>
			<rect x="2480.2" y="476.1" class="st43" width="14.3" height="1.9"/>
			<rect x="2570.6" y="476.1" class="st43" width="14.3" height="1.9"/>
		</g>
		<polygon class="st25" points="2532.3,438.8 2532.3,475.7 2499.7,475.7 2499.7,479.3 2532.3,479.3 2535.9,479.3 2535.9,475.7 
			2535.9,438.8 		"/>
		<circle class="st90" cx="2534.4" cy="477.6" r="3.8"/>
		
			<rect x="2490.9" y="490.8" transform="matrix(0.8005 -0.5994 0.5994 0.8005 207.4929 1605.7865)" class="st90" width="49.4" height="0.9"/>
		<circle class="st38" cx="2534.4" cy="477.6" r="2.1"/>
	</g>
	<g>
		<path class="st91" d="M2406.8,187.8V372h-5.8V187.3C2402.9,187.4,2404.9,187.6,2406.8,187.8z"/>
		<circle class="st92" cx="2402.9" cy="384.6" r="18"/>
		<path class="st93" d="M2458.4,373c0,0.5-1,0.9-2.2,0.9h-103.6c-1.2,0-2.2-0.4-2.2-0.9v-8.9c0-0.5,1-0.9,2.2-0.9h103.6
			c1.2,0,2.2,0.4,2.2,0.9V373z"/>
	</g>
	<path class="st94" d="M3217.4,916c0-21.7-15.4-38.7-34.5-39c-0.3,0-0.6,0-1,0c0,0,34,27,5.7,53.5l27.5,0.1l0,0
		C3216.6,925.9,3217.4,920.9,3217.4,916z"/>
</g>
</svg>
