<?xml version="1.0" encoding="utf-8"?>
<!-- Generator: Adobe Illustrator 21.0.0, SVG Export Plug-In . SVG Version: 6.00 Build 0)  -->
<svg version="1.1" id="Layer_1" xmlns="http://www.w3.org/2000/svg" xmlns:xlink="http://www.w3.org/1999/xlink" x="0px" y="0px"
	 viewBox="0 0 1824 900" style="enable-background:new 0 0 1824 900;" xml:space="preserve">
<style type="text/css">
	.st0{fill:#603501;}
	.st1{fill:#3D2000;}
	.st2{opacity:0.47;fill:#603501;}
	.st3{fill:#FFD599;}
	.st4{fill:#FFEC00;}
	.st5{fill:none;}
	.st6{fill:#512A00;}
	.st7{fill:#301900;}
	.st8{opacity:0.6;fill:#603501;}
	.st9{fill:#7A4000;}
	.st10{fill:#E5E5E5;}
	.st11{fill:#511B00;}
	.st12{fill:#BF750A;}
	.st13{fill:#006CC3;}
	.st14{fill:#E0E0E0;}
	.st15{fill:#C3C7CB;}
	.st16{opacity:0.5;fill:#006CC3;}
	.st17{fill:#FFFFFF;}
	.st18{fill:#824400;}
	.st19{fill:#DBDBDB;}
	.st20{fill:#003B91;}
	.st21{fill:#262626;}
	.st22{fill:#7F7C79;}
	.st23{fill:#565656;}
	.st24{fill:#E86F5B;}
	.st25{fill:none;stroke:#BC4B42;stroke-width:1.0182;stroke-miterlimit:10;}
	.st26{fill:#999999;}
	.st27{fill:#E8E8E8;}
	.st28{fill:#C0DDD8;}
	.st29{fill:#C7C7C7;}
	.st30{fill:#ADC9C4;}
	.st31{enable-background:new    ;}
	.st32{clip-path:url(#SVGID_2_);enable-background:new    ;}
	.st33{fill:#C8C8C8;}
	.st34{fill:#CACACA;}
	.st35{fill:#CCCCCC;}
	.st36{fill:#CFCFCF;}
	.st37{fill:#D1D1D1;}
	.st38{fill:#D3D3D3;}
	.st39{fill:#D6D6D6;}
	.st40{fill:#D8D8D8;}
	.st41{fill:#DADADA;}
	.st42{fill:#DCDCDC;}
	.st43{fill:#DFDFDF;}
	.st44{clip-path:url(#SVGID_4_);enable-background:new    ;}
	.st45{fill:#DDDDDD;}
	.st46{fill:#C6C6C6;}
	.st47{fill:#67C1B6;}
	.st48{clip-path:url(#SVGID_6_);enable-background:new    ;}
	.st49{fill:#FF8812;}
	.st50{clip-path:url(#SVGID_8_);enable-background:new    ;}
	.st51{clip-path:url(#SVGID_10_);enable-background:new    ;}
	.st52{fill:#3F9E90;}
</style>
<g>
	<g>
		<path class="st0" d="M1675,715l-3,12.1c0,0-16,21.1-20,22.1c-4,1-8,3-10,10.1s0,13.1,0,13.1s14,8,53,0c0,0,7-17.1,21-23.1l8-8
			c0,0,4-15.1-3-26.2H1675z"/>
		<path class="st1" d="M1641.1,770c0,0-4.1,7.3-0.1,9.4c4,2,26,7,53,0l3-2c0,0,12-25.1,19-23.1c7,2,9-13.1,9-13.1l-0.3-5
			c0,0-0.7,4-7.7,8s-20,19.1-23,26.2C1694,770.3,1669.2,780.8,1641.1,770z"/>
		<path class="st2" d="M1678,721c0,0-2,23.1-16,26.2l4,7l21-1c0,0,16-10.1,16-18.1s0-14.7,0-14.7L1678,721z"/>
	</g>
	<path class="st3" d="M1782,363.7l-28.6-34l20.1-16.9l20,23.8c4.7,5.6,4,14-1.6,18.8L1782,363.7z"/>
	
		<rect x="1508.9" y="314.6" transform="matrix(0.8423 0.5389 -0.5389 0.8423 421.1475 -768.2452)" class="st3" width="29.6" height="42.2"/>
	<path class="st4" d="M1782.1,315.6l-55-55c-2.2-6.2-8-10.6-15-10.6h-140.2c-4.3,0-8.1,1.7-11,4.4l-0.1-0.1l-1,1.3
		c-0.4,0.5-0.8,1-1.1,1.5l-47.8,62.7l28.6,21.8l16.5-21.6V516h172V312l28.8,28.8L1782.1,315.6z"/>
	<g>
		<path class="st5" d="M1604.1,758.2h1C1604.8,758.2,1604.5,758.2,1604.1,758.2z"/>
		<g>
			<path class="st6" d="M1605.1,758.2h18.8c3.1-7.9,2.5-18.7-0.2-26.8c-2.6-7.9-7-14.8-11.6-21.3c0,0.1-0.1,0.1-0.1,0.2l-3.1-3
				c0,0,0.1-0.2,0.4-0.6c-0.3-0.3-0.7-0.5-1.1-0.7c-1.2-0.5-2.4-0.4-3.7-0.4c-9.2,0.5-18.4,1.1-27.6,1.6c0.7,4.1,1.5,11.8-0.6,16.6
				c-3,6.9-18.8,13.7-18.8,13.7s-22.8,5.7-31.7,1.1c-4-2-6-5.2-7-8.1c-4.5-0.2-9.4,2.9-12.6,7.5c-2.8,4-3.7,9.2-3.4,14.3
				c0.1,2,0.4,4.1,1.4,5.7c0,0,0,0,0,0h79c0.9-0.3,1.8-0.5,2.6-0.9c2.9-1.2,6-3.2,8.9-2.1c1.8,0.7,3.2,2.4,4.9,3h4.4
				C1604.5,758.2,1604.8,758.2,1605.1,758.2z"/>
		</g>
		<g>
			<path class="st0" d="M1533.4,731.3c0.6-0.1,1.2-0.2,1.8-0.3C1534.7,731.1,1534,731.2,1533.4,731.3z"/>
		</g>
		<g>
			<path class="st0" d="M1518.8,730.7c0.3,0,0.7,0,1,0.1C1519.5,730.7,1519.2,730.7,1518.8,730.7z"/>
		</g>
		<g>
			<path class="st0" d="M1559.9,715.4L1559.9,715.4c-0.8,1.1-1.6,2.1-2.5,3.1l0,0C1558.3,717.5,1559.1,716.5,1559.9,715.4z"/>
		</g>
		<g>
			<path class="st0" d="M1552.7,723.1c0.5-0.4,1-0.8,1.5-1.3C1553.7,722.3,1553.2,722.7,1552.7,723.1z"/>
		</g>
		<polygon class="st7" points="1605.1,758.2 1604.1,758.2 1599.7,758.2 1599.2,758.2 1599.2,768.1 1624.9,768.1 1624.9,758.2 
			1623.9,758.2 		"/>
		<polygon class="st7" points="1502,758.2 1502,768.1 1584.3,768.1 1584.3,758.2 1583.3,758.2 1504.2,758.2 		"/>
		<path class="st8" d="M1549.5,725.5c-0.3,0.2-0.7,0.5-1.1,0.7C1548.8,726,1549.1,725.7,1549.5,725.5L1549.5,725.5z"/>
		<path class="st8" d="M1535.3,731c1-0.2,2-0.4,2.9-0.6C1537.2,730.6,1536.2,730.8,1535.3,731z"/>
		<polygon class="st8" points="1518.8,730.7 1518.8,730.7 1518.8,730.7 		"/>
		<path class="st8" d="M1547,727c-0.9,0.5-1.8,0.9-2.8,1.4l0,0C1545.2,727.9,1546.1,727.5,1547,727z"/>
		<path class="st8" d="M1576.9,707.4L1576.9,707.4c-3.6,0.2-7.3,0.4-10.9,0.6h0C1569.6,707.8,1573.3,707.6,1576.9,707.4z"/>
		<path class="st8" d="M1525.1,731.4c1.1,0.1,2.3,0.1,3.4,0.1C1527.4,731.5,1526.2,731.5,1525.1,731.4z"/>
		<path class="st8" d="M1563,710.7L1563,710.7c-0.4,0.7-0.8,1.4-1.2,2l0,0C1562.2,712,1562.6,711.4,1563,710.7z"/>
		<path class="st8" d="M1541,729.6c-0.9,0.3-1.9,0.6-2.8,0.8C1539.2,730.2,1540.1,729.9,1541,729.6L1541,729.6z"/>
		<path class="st8" d="M1552.7,723.1c-0.2,0.2-0.4,0.3-0.6,0.5h0C1552.3,723.4,1552.5,723.3,1552.7,723.1z"/>
		<path class="st8" d="M1555.2,720.9c-0.3,0.3-0.7,0.6-1,1C1554.5,721.5,1554.9,721.2,1555.2,720.9L1555.2,720.9z"/>
		<g>
			<path class="st0" d="M1525.8,738.8c8.9,4.6,31.7-1.1,31.7-1.1s15.9-6.9,18.8-13.7c2.1-4.8,1.2-12.5,0.6-16.6
				c-3.6,0.2-7.3,0.4-10.9,0.6c0.7,0.4,1.5,0.8,2,1.1c0.1,0,0.3-0.1,0.4-0.1c1.1,0,2,1,2,2.3c0,1.3-0.9,2.3-2,2.3
				c-0.9,0-1.6-0.7-1.9-1.6c-0.5-0.7-2.6-1.2-3.6-1.3c-0.4,0.7-0.8,1.4-1.2,2c1,0.3,2.8,2.5,3.6,3.5c0.7,0.4,1.1,1.1,1.1,2.1
				c0,1.3-0.9,2.3-2,2.3s-2-1-2-2.3c0-0.2,0-0.5,0.1-0.7c-0.6-0.8-2-1.7-2.7-2.2c-0.8,1.1-1.6,2.1-2.5,3.1c0.8,0.6,1.8,2.1,2.4,3.2
				c0.9,0.2,1.6,1.1,1.6,2.2c0,1.3-0.9,2.3-2,2.3s-2-1-2-2.3c0-0.1,0-0.2,0-0.3c-0.3-0.8-1.6-2.1-2.4-2.8c-0.3,0.3-0.7,0.6-1,1
				c-0.5,0.4-1,0.9-1.5,1.3c-0.2,0.2-0.4,0.3-0.6,0.5c1.1,1.4,2.2,3.8,2.2,3.8s-0.1,0-0.1,0.1c0.8,0.3,1.4,1.1,1.4,2.2
				c0,1.3-0.9,2.3-2,2.3s-2-1-2-2.3c0-0.3,0.1-0.6,0.1-0.9c-0.1,0-0.1-0.1-0.1-0.3c0-0.8-1.3-2.2-2.1-3c-0.3,0.2-0.7,0.5-1.1,0.7
				c-0.5,0.3-0.9,0.5-1.4,0.8c-0.9,0.5-1.8,0.9-2.8,1.4c0.6,0.8,1.1,1.7,1.5,2.5c1,0.1,1.8,1.1,1.8,2.3c0,1.3-0.9,2.3-2,2.3
				s-2-1-2-2.3c0-0.9-1.9-2.8-2.6-3.5c-0.9,0.3-1.9,0.6-2.8,0.8c-1,0.2-1.9,0.4-2.9,0.6c-0.6,0.1-1.2,0.2-1.8,0.3
				c-1.6,0.2-3.3,0.3-4.9,0.3c-1.1,0-2.3,0-3.4-0.1c-1.7-0.1-3.5-0.3-5.2-0.6c-0.3-0.1-0.7-0.1-1-0.1c0,0,0,0,0,0
				C1519.8,733.6,1521.8,736.8,1525.8,738.8z"/>
		</g>
		<path class="st8" d="M1525.8,738.8c8.9,4.6,31.7-1.1,31.7-1.1s15.9-6.9,18.8-13.7c2.1-4.8,1.2-12.5,0.6-16.6
			c-3.6,0.2-7.3,0.4-10.9,0.6c0.7,0.4,1.5,0.8,2,1.1c0.1,0,0.3-0.1,0.4-0.1c1.1,0,2,1,2,2.3c0,1.3-0.9,2.3-2,2.3
			c-0.9,0-1.6-0.7-1.9-1.6c-0.5-0.7-2.6-1.2-3.6-1.3c-0.4,0.7-0.8,1.4-1.2,2c1,0.3,2.8,2.5,3.6,3.5c0.7,0.4,1.1,1.1,1.1,2.1
			c0,1.3-0.9,2.3-2,2.3s-2-1-2-2.3c0-0.2,0-0.5,0.1-0.7c-0.6-0.8-2-1.7-2.7-2.2c-0.8,1.1-1.6,2.1-2.5,3.1c0.8,0.6,1.8,2.1,2.4,3.2
			c0.9,0.2,1.6,1.1,1.6,2.2c0,1.3-0.9,2.3-2,2.3s-2-1-2-2.3c0-0.1,0-0.2,0-0.3c-0.3-0.8-1.6-2.1-2.4-2.8c-0.3,0.3-0.7,0.6-1,1
			c-0.5,0.4-1,0.9-1.5,1.3c-0.2,0.2-0.4,0.3-0.6,0.5c1.1,1.4,2.2,3.8,2.2,3.8s-0.1,0-0.1,0.1c0.8,0.3,1.4,1.1,1.4,2.2
			c0,1.3-0.9,2.3-2,2.3s-2-1-2-2.3c0-0.3,0.1-0.6,0.1-0.9c-0.1,0-0.1-0.1-0.1-0.3c0-0.8-1.3-2.2-2.1-3c-0.3,0.2-0.7,0.5-1.1,0.7
			c-0.5,0.3-0.9,0.5-1.4,0.8c-0.9,0.5-1.8,0.9-2.8,1.4c0.6,0.8,1.1,1.7,1.5,2.5c1,0.1,1.8,1.1,1.8,2.3c0,1.3-0.9,2.3-2,2.3
			s-2-1-2-2.3c0-0.9-1.9-2.8-2.6-3.5c-0.9,0.3-1.9,0.6-2.8,0.8c-1,0.2-1.9,0.4-2.9,0.6c-0.6,0.1-1.2,0.2-1.8,0.3
			c-1.6,0.2-3.3,0.3-4.9,0.3c-1.1,0-2.3,0-3.4-0.1c-1.7-0.1-3.5-0.3-5.2-0.6c-0.3-0.1-0.7-0.1-1-0.1c0,0,0,0,0,0
			C1519.8,733.6,1521.8,736.8,1525.8,738.8z"/>
		<path class="st9" d="M1543.6,733.1c0-1.3,0.9-2.3,2-2.3c0.1,0,0.1,0,0.2,0c-0.4-0.8-1-1.7-1.5-2.5l0,0c-0.6-0.8-1.2-1.4-1.6-1
			c-1,1.1-1.9,2-1.9,2s0.1,0.1,0.3,0.2l0,0C1541.7,730.3,1543.6,732.1,1543.6,733.1z"/>
		<path class="st9" d="M1551.6,728.5c0,0.2,0.1,0.2,0.1,0.3c0.3-0.8,1-1.4,1.8-1.4c0.2,0,0.4,0,0.6,0.1c0.1-0.1,0.1-0.1,0.1-0.1
			s-1.1-2.4-2.2-3.8h0c-0.6-0.8-1.1-1.2-1.5-0.8c-1,1.1-1.9,2-1.9,2s0.3,0.3,0.8,0.7h0C1550.3,726.4,1551.6,727.7,1551.6,728.5z"/>
		<path class="st9" d="M1557.5,723.6c0.1-1.1,0.9-2,2-2c0.1,0,0.2,0,0.4,0c-0.6-1.1-1.6-2.6-2.4-3.2l0,0c-0.4-0.3-0.7-0.3-0.9-0.1
			c-1.1,1.1-2,1.9-2,1.9s0.3,0.2,0.6,0.6v0C1556,721.6,1557.3,722.8,1557.5,723.6z"/>
		<path class="st9" d="M1562.6,717.5c0.3-0.9,1-1.6,1.9-1.6c0.3,0,0.6,0.1,0.8,0.2c-0.7-1-2.5-3.2-3.6-3.5l0,0
			c-0.2-0.1-0.5,0-0.6,0.2c-0.9,1.3-1.7,2.2-1.7,2.2s0.2,0.1,0.5,0.3h0C1560.6,715.9,1562,716.8,1562.6,717.5z"/>
		<path class="st9" d="M1566.5,712c-0.1-0.2-0.1-0.4-0.1-0.6c0-1.1,0.7-2,1.6-2.2c-0.5-0.3-1.3-0.8-2-1.1h0
			c-1.2-0.6-2.3-0.9-2.5-0.2c-0.5,1.6-1,2.8-1,2.8s0.2,0,0.5,0.1l0,0C1563.9,710.9,1566,711.3,1566.5,712z"/>
		<path class="st7" d="M1612,710.4c0-0.1,0.1-0.1,0.1-0.2c2.1-5.3,8.8-4.5,8.8-4.5s1-4.6-3-5.7c-3.4-1-7.5,5-8.7,6.8
			c-0.2,0.3-0.4,0.6-0.4,0.6L1612,710.4z"/>
		<path class="st10" d="M1543.6,733.1c0,1.3,0.9,2.3,2,2.3s2-1,2-2.3c0-1.2-0.8-2.2-1.8-2.3c-0.1,0-0.1,0-0.2,0
			C1544.5,730.8,1543.6,731.8,1543.6,733.1z"/>
		<path class="st10" d="M1557.5,723.6c0,0.1,0,0.2,0,0.3c0,1.3,0.9,2.3,2,2.3s2-1,2-2.3c0-1.1-0.7-2-1.6-2.2c-0.1,0-0.2,0-0.4,0
			C1558.5,721.7,1557.7,722.5,1557.5,723.6z"/>
		<path class="st10" d="M1562.6,717.5c-0.1,0.2-0.1,0.4-0.1,0.7c0,1.3,0.9,2.3,2,2.3s2-1,2-2.3c0-0.9-0.5-1.7-1.1-2.1
			c-0.3-0.1-0.5-0.2-0.8-0.2C1563.6,715.9,1562.8,716.6,1562.6,717.5z"/>
		<path class="st10" d="M1566.4,711.4c0,0.2,0,0.4,0.1,0.6c0.2,0.9,1,1.6,1.9,1.6c1.1,0,2-1,2-2.3c0-1.3-0.9-2.3-2-2.3
			c-0.1,0-0.3,0-0.4,0.1C1567.1,709.4,1566.4,710.3,1566.4,711.4z"/>
		<path class="st10" d="M1551.7,728.8c-0.1,0.3-0.1,0.6-0.1,0.9c0,1.3,0.9,2.3,2,2.3s2-1,2-2.3c0-1-0.6-1.9-1.4-2.2
			c-0.2-0.1-0.4-0.1-0.6-0.1C1552.7,727.4,1552,728,1551.7,728.8z"/>
	</g>
	<circle class="st3" cx="1578.4" cy="144.4" r="13.9"/>
	<path class="st3" d="M1642.5,292L1642.5,292c-11.9,0-21.5-9.6-21.5-21.5V226h43v44.5C1664,282.4,1654.4,292,1642.5,292z"/>
	<path class="st3" d="M1642.5,292L1642.5,292c-11.9,0-21.5-9.6-21.5-21.5V226h43v44.5C1664,282.4,1654.4,292,1642.5,292z"/>
	<path class="st3" d="M1670.5,244.4h-55.6c-22,0-40-18-40-40V107h135.6v97.4C1710.5,226.4,1692.5,244.4,1670.5,244.4z"/>
	<rect x="1574.9" y="129.6" class="st11" width="3.5" height="35.6"/>
	<path class="st11" d="M1665.7,177.4h-63.4c-5.5,0-10,3.4-10,7.6v54.4c0,4.2,4.5,7.6,10,7.6h63.4c5.5,0,10-3.4,10-7.6V185
		C1675.7,180.9,1671.2,177.4,1665.7,177.4z M1665.3,219.9c0,2.7-2.9,4.8-6.4,4.8h-49.8c-3.5,0-6.4-2.2-6.4-4.8v-28.2
		c0-2.7,2.9-4.8,6.4-4.8h49.8c3.5,0,6.4,2.2,6.4,4.8V219.9z"/>
	<path class="st11" d="M1602.1,182.4l-27.2-24.1v46.1c0,18.8,13.1,34.6,30.7,38.9L1602.1,182.4z"/>
	<path class="st11" d="M1672.2,180.9l38.5-27.9v51.3c0,18.8-15,39.1-40.2,40L1672.2,180.9z"/>
	<rect x="1702.7" y="121.8" class="st11" width="11.3" height="22.6"/>
	<circle class="st3" cx="1710.5" cy="148.8" r="13.9"/>
	<rect x="1696.6" y="123.5" class="st11" width="9.6" height="44.3"/>
	<g>
		<path class="st3" d="M1577.1,139.7c14.7,7.1,36.9,11.7,61.8,11.7c31.7,0,59.1-7.4,72-18.1V122h-133.8V139.7z"/>
		<path class="st4" d="M1716.9,111.5c-3.4,16.5-37.8,29.4-79.8,29.4c-42,0-76.4-12.9-79.8-29.4H1716.9z"/>
		<path class="st4" d="M1719.8,111.5c-3.4-41.4-37.5-73.9-79.2-73.9s-75.8,32.5-79.2,73.9H1719.8z"/>
		<rect x="1557.3" y="111.5" class="st12" width="166.6" height="10.6"/>
		<rect x="1550.7" y="103.9" class="st12" width="11.4" height="18.2"/>
		<rect x="1719.1" y="103.9" class="st12" width="11.4" height="18.2"/>
		<path class="st12" d="M1599.9,49.2l36.6,35.6l38.1-38.8c-7.1-4.7-20.2-8.3-34.1-8.3C1626.8,37.7,1611.2,43,1599.9,49.2z"/>
		<path class="st4" d="M1635.9,87.7l32.7-39.2c4.6-6,0.3-14.5-7.4-14.5h-50.6c-7.7,0-12,8.6-7.4,14.5L1635.9,87.7z"/>
	</g>
	<rect x="1574.5" y="250" class="st13" width="30.5" height="124"/>
	<rect x="1681.8" y="250" class="st13" width="28.7" height="124"/>
	<path class="st13" d="M1556,340v168v29l6.5,174l52.7-1l10.2-160.5c0-6.9,5.2-12.5,11.6-12.5h14.8c6.4,0,11.6,5.6,11.6,12.5
		l10.2,170.5h49.9l4.6-183v-29V340H1556z"/>
	<g>
		<path class="st14" d="M1636.5,352.7l1.2,12.4l7.3-1.1l-1.2-12.1c-0.5-4.7,0.2-11.8,0.8-17.3l-0.2,0c-1.7,2.1-4.5,3.3-7.5,3.1
			c-1.7-0.1-3.2-0.9-4.5-1.8l-0.2,0C1634,341.2,1636,348.1,1636.5,352.7"/>
	</g>
	<g>
		<path class="st15" d="M1642.7,322l-1.3,7.5l-0.6,0.3c-2.1,1-4.6,0.5-6.2-1l-0.5-0.4l1.3-7.4c-4.2,1.3-7,5.8-5.8,10.5
			c0.9,3.4,3.9,5.9,7.4,6.3c5.6,0.5,9.9-4.1,9.5-9.4C1646.1,325.7,1644.7,323.4,1642.7,322"/>
	</g>
	<g>
		<path class="st15" d="M1640.9,348.6l2.6-0.3c0-0.8,0-1.6,0.1-2.5c0,0-0.1-0.1-0.2,0l-2.8,0.3c-0.7,0.1-1.2,0.6-1.1,1.3
			C1639.7,348.2,1640.3,348.7,1640.9,348.6"/>
		<path class="st15" d="M1640.6,343.7l3.3-0.3c0-0.8,0.1-1.7,0.1-2.5l-0.2,0l-3.5,0.3c-0.7,0.1-1.2,0.6-1.1,1.3
			S1639.9,343.8,1640.6,343.7"/>
	</g>
	<path class="st16" d="M1727.1,508v23.1c-34.2-4.1-34.2-43.1-34.2-43.1h34.2V508z"/>
	<g>
		<path class="st14" d="M1702.6,476.9l-7-2l-2.3,6.7c-1.9,5.5-4.4,10.6-7.9,15.2l0.2,0.1c2.4-1.2,5.4-1.1,7.9,0.4
			c1.5,0.8,2.6,2,3.3,3.5l0.2,0.1c0.2-5.9,1.4-11.3,3.4-16.8L1702.6,476.9z"/>
		<path class="st14" d="M1703,454.1l-4.1,11.7l7,2l4-11.3c1.5-4.4,5.1-10.5,7.9-15.2l-0.2-0.1c-2.4,1.2-5.4,1.1-8-0.3
			c-1.5-0.8-2.5-2.2-3.3-3.5l-0.2-0.1C1705.6,442.7,1704.5,449.7,1703,454.1"/>
	</g>
	<g>
		<path class="st15" d="M1681.9,509l4.3-6.2l0.7,0c2.3,0,4.3,1.4,5.2,3.4l0.3,0.5l-4.2,6.2c4.3,0.6,8.7-2.3,9.6-7
			c0.7-3.4-1-6.9-4-8.7c-4.8-2.8-10.6-0.4-12.4,4.5C1680.3,504.3,1680.5,506.8,1681.9,509"/>
		<path class="st15" d="M1721.3,429.2l-4.3,6.2l-0.7,0c-2.3,0-4.3-1.4-5.2-3.4l-0.3-0.5l4.2-6.1c-4.3-0.6-8.7,2.3-9.6,7
			c-0.7,3.4,1,6.9,4,8.7c4.8,2.8,10.6,0.4,12.4-4.5C1722.9,433.9,1722.6,431.2,1721.3,429.2"/>
	</g>
	<g>
		<path class="st15" d="M1708.7,452.3l2.4,0.9c0.3-0.7,0.7-1.4,1.1-2.2c0,0-0.1-0.1-0.2-0.1l-2.6-0.9c-0.6-0.2-1.3,0.1-1.5,0.7
			C1707.8,451.4,1708.1,452,1708.7,452.3"/>
		<path class="st15" d="M1710.4,447.7l3.1,1.1c0.3-0.7,0.8-1.5,1.1-2.2l-0.2-0.1l-3.2-1.1c-0.6-0.2-1.3,0.1-1.5,0.7
			C1709.5,446.8,1709.8,447.5,1710.4,447.7"/>
	</g>
	<ellipse class="st17" cx="1589.8" cy="344.5" rx="6.5" ry="7"/>
	<ellipse class="st17" cx="1696.1" cy="344.5" rx="6.5" ry="7"/>
	<path class="st16" d="M1581.9,364.9v64.5c0,9.7,7.3,17.6,16.3,17.6h89.5c9,0,16.3-7.9,16.3-17.6v-64.5H1581.9z"/>
	<rect x="1556" y="459" class="st0" width="172" height="21"/>
	<rect x="1563.4" y="456" class="st18" width="18.5" height="27.6"/>
	<rect x="1591.1" y="456" class="st18" width="18.5" height="27.6"/>
	<rect x="1701.2" y="456" class="st18" width="18.5" height="27.6"/>
	<rect x="1673.4" y="456" class="st18" width="18.5" height="27.6"/>
	<path class="st19" d="M1624.9,458v23h32.3v-23H1624.9z M1628.3,478.6v-18.2h23.1v7.6h-18.6v3h18.6v7.6H1628.3z"/>
	<path class="st16" d="M1556,508v23.1c34.2-4.1,34.2-43.1,34.2-43.1H1556V508z"/>
	<path class="st16" d="M1606.9,556c0,23,0,144,0,144h8.3l9.5-146.5c0,0,0.2-0.5,0.5-1.4l0.2-2.6c0-5.3,3-9.8,7.3-11.6
		c0.3-0.2,0.5-0.3,0.8-0.3C1633.5,537.6,1606.9,533,1606.9,556z"/>
	<rect x="1556" y="700" class="st20" width="63" height="16"/>
	<rect x="1666" y="710" class="st20" width="63" height="16"/>
	<rect x="1641.1" y="481" class="st16" width="4.6" height="56"/>
	
		<rect x="1530.7" y="325.2" transform="matrix(0.7646 -0.6445 0.6445 0.7646 120.1614 1083.5481)" class="st3" width="25.7" height="104.2"/>
	<path class="st3" d="M1596.2,400.2l-16.2,5.2c-1.8,0.6-3.8-0.4-4.4-2.3l0,0c-0.6-1.8,0.4-3.8,2.3-4.4l16.2-5.2
		c1.8-0.6,3.8,0.4,4.4,2.3l0,0C1599,397.6,1598,399.6,1596.2,400.2z"/>
	<path class="st21" d="M1626.1,343.6l-14.5-4.5l-1.7,5.4l2.6,0.8l-23.6,76.7c-0.8,2.6,0.6,5.4,3.1,6.2c2.5,0.8,5.3-0.7,6.1-3.3
		l23.6-76.7l2.6,0.8L1626.1,343.6z"/>
	<path class="st3" d="M1605.1,413.8c1.2,0.4,2.5-0.3,2.9-1.5l0.6-1.8c0.4-1.2-0.3-2.5-1.5-2.9l-10.3-3.2c-1.8-1.6-4-2.8-6.6-3.4
		l-8.5-2c-8.1-1.9-16.8,3-19.3,10.9v0c-2.5,7.9,2.1,16,10.2,17.9l8.6,2.1c0.1,0.1,0.3,0.1,0.4,0.2l16.6,5.2c1.2,0.4,2.5-0.3,2.9-1.5
		l0.6-1.8c0.4-1.2-0.3-2.5-1.5-2.9l-4.6-1.4c0.3-0.3,0.7-0.5,1-0.8l3.9,1.2c1.2,0.4,2.5-0.3,2.9-1.5l0.6-1.8
		c0.4-1.2-0.3-2.5-1.5-2.9l-1.9-0.6c0.1-0.3,0.3-0.7,0.4-1l1.9,0.6c1.2,0.4,2.5-0.3,2.9-1.5l0.6-1.8c0.4-1.2-0.3-2.5-1.5-2.9l-3.2-1
		c0-0.4-0.1-0.8-0.2-1.2L1605.1,413.8z"/>
	<path class="st22" d="M1657.6,288.4l-6.2,9.2c-1.1,1.7-2.6,3-4.5,3.7c-2.8,0.9-3.6,0.3-5.3,2.9c-0.5,0.7-0.2,1.8,0.5,2.3
		c0.7,0.5,1,1.4,0.5,2.1l-3.9,6.3c-1,1.5-2.8,1.9-4.3,0.9l-13.3-8.5c-1.5-1-1.9-2.8-0.9-4.3l4.2-6.5c0.5-0.7,1.4-1,2.1-0.5
		s1.7,0.3,2.1-0.5c1.5-2.6,0.6-3,0.4-6c-0.1-1.9,0.4-4,1.5-5.6l4.3-6.7c2.4-3.7,3.6-5.6,7.1-8.1c8-6.1,17.2-6.8,30.6-4.1
		c-8.1,1.8-12.4,1.9-18.1,10.7C1651.6,280.2,1653.3,285.6,1657.6,288.4"/>
	<path class="st23" d="M1650.7,298.7l77.4,55c2.2,1.4,5.2,1,6.6-1.3l1.7-2.6c1.5-2.1,0.6-5.1-1.6-6.6l-77.2-54.9L1650.7,298.7z"/>
	<g>
		<path class="st22" d="M1710.3,327.2c0.1-0.2,0.1-0.3,0.1-0.3l-2.3-1.7c-0.2,0-0.3,0.2-0.4,0.4l-2.5,3.9c-0.5,0.7-0.3,1.7,0.5,2.1
			c0.4,0.2,0.7,0.3,1.2,0.2c0.3-0.1,0.7-0.3,1-0.7L1710.3,327.2"/>
		<path class="st22" d="M1715.6,330.5C1715.7,330.5,1715.7,330.5,1715.6,330.5l-2.5-1.9l-0.1,0.2l-2.5,3.9c-0.5,0.7-0.3,1.7,0.5,2.1
			c0.4,0.2,0.7,0.3,1.2,0.2c0.3-0.1,0.7-0.3,1-0.7L1715.6,330.5"/>
	</g>
	
		<rect x="1677.3" y="322.3" transform="matrix(-0.9571 -0.2897 0.2897 -0.9571 3293.9985 1158.5477)" class="st3" width="111" height="26.3"/>
	<path class="st3" d="M1698.1,317.2l-21.9-15.8c-1.8-1.3-2.2-3.8-0.9-5.6l0,0c1.3-1.8,3.8-2.2,5.6-0.9l21.9,15.8
		c1.8,1.3,2.2,3.8,0.9,5.6l0,0C1702.4,318.1,1699.9,318.5,1698.1,317.2z"/>
	<path class="st3" d="M1695.8,335l-26.4,5c-2.9,0.5-5.7-1.4-6.2-4.3l-3.9-20.7c-0.5-2.9,1.4-5.7,4.3-6.2l26.4-5
		c2.9-0.5,5.7,1.4,6.2,4.3l3.9,20.7C1700.6,331.6,1698.7,334.4,1695.8,335z"/>
	<polygon class="st3" points="1676,298 1681.8,298 1690,304 1681,305 1674.9,299.7 	"/>
	<g>
		<rect x="1653.1" y="353.1" class="st10" width="3.2" height="11.9"/>
		<path class="st24" d="M1655.6,355.5h-2c-2,0-3.6-1.6-3.6-3.6v-36.4c0-2,1.6-3.6,3.6-3.6h2c2,0,3.6,1.6,3.6,3.6v36.4
			C1659.2,353.9,1657.6,355.5,1655.6,355.5z"/>
		<line class="st25" x1="1654.7" y1="315.2" x2="1654.7" y2="353.5"/>
	</g>
	<polygon class="st3" points="1585,401 1596.8,396.4 1596.2,400.2 1589.8,402.3 	"/>
</g>
<g>
	<path class="st26" d="M768.7,812.2c68.2,7.7,137,8.3,205.7,9c30.8,0.3,61.6,0.6,92.4,0.8c85.8,0.8,171.5,1.6,257.3,2.3
		c35.5,0.3,71,0.6,106.5-0.5c76.1-2.4,151.8-11.5,227.5-19.3c-102-4.5-203.9-9-305.9-13.4c-82.5-3.6-165.2-7.3-247.8-5.4
		c-110.9,2.5-221.3,14.8-331.5,27.1"/>
	<path class="st26" d="M82.1,823.5c31.7,1.4,63.4,2.8,95.1,4.2c24.5,1.1,49,2.1,73.4,0c27.7-2.5,54.8-9.1,82.1-14.3
		c108-20.5,218.7-18.9,328.6-17.2c1.4,3.6,2.8,7.3,4.2,10.9C585.8,840,494.1,828.1,412,854.4c-20.7,6.6-40.7,15.7-61.9,20.6
		c-24,5.6-49,5.9-73.7,4.7c-73.9-3.3-146.7-18.5-219.2-33.5c-2.5-0.5-5.2-1.1-7-2.9c-5.8-5.8,2.3-14.9,9.7-18.5
		c24.1-11.6,50.7-17.9,77.4-18.3"/>
	<path class="st26" d="M1034.9,673.4c-18.3,2.4-38.1-0.7-52.2-12.5c-14.1-11.7-20.9-30.5-22.4-48.8c-1.5-18.3,1.4-36.7,3.5-54.9
		c7-61.6,3.3-123.8-0.3-185.6c-0.6-9.5-2-20.3-7.1-27.6c-0.1-0.2-0.2-0.4-0.3-0.5c-1.4-1.8-2.9-3.4-4.8-4.8
		c-0.6-1.3-1.6-2.5-2.7-3.3c-3.6-2.5-8.4-2.6-12.8-2.5c-19,0.4-37.9,1.6-56.8,3.8c-15.6,1-31.2,4-44.7,11.3
		c-0.8,0.1-1.7,0.1-2.5,0.3c-4.1,0.7-8.2,2.5-10.9,5.6c-0.3,0-0.5,0-0.8-0.1l0,1.1c-0.6,0.8-1.1,1.7-1.4,2.6l1-1.3
		c1,11,3.2,23.9,13.1,28.9c3.8,1.9,8.1,2.3,12.3,2.5c26.4,1.2,53-3.4,77.4-13.5c3.7-1.5,7.5-3.4,10.8-5.7
		c-0.7,67.7-1.4,135.4-2.1,203.1c-0.4,36.5,0.4,76.5,23.6,104.6c17.1,20.7,45.3,31.5,71.9,27.6c26.5-4,50.4-22.6,60.7-47.3
		C1070.3,663.6,1053.1,671,1034.9,673.4z"/>
	<path class="st26" d="M1109,350.8c-2.6-0.6-5.3,1.2-6.5,3.6c-1.2,2.4-1.2,5.2-1.1,7.9c0.3,5.2,1.4,10.3,3.1,15.2
		c1.1,3.2,2.6,6.4,5.4,8.2c2.9,1.9,6.5,2,10,1.9c9.6-0.2,19.4-1.4,27.7-6.1c6.1-3.5,11.5-10.3,9.6-17.1c-1.8-6.3-8.8-9.3-15.1-11
		c-10.2-2.8-20.7-4.5-31.3-4.9c-2.2-0.1-4.5-0.1-6.3,1.2c-1.8,1.3-2.5,4.2-0.7,5.6"/>
	<path class="st26" d="M759.2,451.2c-1.1,15.5,1.9,31.1,2.3,46.7c0.3,13.3-1.2,26.6-2.4,39.9c-8,84.6-5.8,170.2,6.8,254.2
		c4.9,1.6,10.3-1.6,12.9-6.1s3-9.8,3.3-14.9c0.6-8.6,1.1-17.2,1.7-25.8c0.8-11.7,1.5-23.4,0.7-35c-0.8-12.5-3.4-24.9-5.3-37.3
		c-11-71.5,1-144.7-6.3-216.6c-0.3-3.1-0.7-6.4-2.6-8.9c-1.9-2.5-5.7-3.9-8.3-2c-2.7,2-2.8,6.5-5.7,7.9"/>
	<path class="st26" d="M681,303.8c13.4-4.8,27.7-7.1,41.9-6.6c5.6,0.2,11.5,0.9,16.2,4c3.6,2.4,6.2,6.1,9.7,8.6
		c5.1,3.7,12,4.8,16.5,9.2c4.6,4.5,5.7,11.3,6.5,17.7c1.5,11.5,3.1,23,4.6,34.4c0.7,5.2,1.4,10.5,0.8,15.7
		c-1.3,11.1-8.4,20.8-17,27.9c-8.6,7.1-18.8,11.9-28.7,17.2c-1.5,0.8-3,1.6-4,3c-3.5,4.7,1.3,11.8-1,17.2"/>
	<g>
		<path class="st26" d="M508.6,255.2c22.6-0.9,45.2-1.8,67.8-1c2.3,0.1,4.6,0.2,6.8-0.6c2.3-0.8,4.1-2.3,6-3.7
			c5.5-4,11.9-6.8,18.1-9.5c-18.9-3.8-38.4,0-57.6,0.1c-28.9,0.1-59.3-7.9-85.9,3.5c-4.4,1.9-8.7,4.4-12.1,7.8
			c-2.3,2.3-4.1,5.1-5.3,8.1l1.7-2.3C468.3,256.7,488.4,255.9,508.6,255.2z"/>
		<path class="st26" d="M607.3,240.5l-136.3,15.3l-7.6,506.2l-144.9,36.6c36.5,11.3,75.7,6.7,113.6,1.7c22.9-3,46.1-6.2,67.7-14.4
			c42.4-16,76.9-51.5,91.6-94.4c10.6-30.9,11.2-64.2,11.7-96.8c1.4-93.7,2.7-187.4,4.1-281.1C607.5,289.2,607.8,264.9,607.3,240.5z"
			/>
	</g>
	<path class="st26" d="M656.7,454.5c4.1-7.5,13.2-11,21.8-11.4c8.6-0.4,17.1,1.5,25.6,1.8c21.9,0.7,45.2-9.3,65.1,0.1
		c-5,7-14.7,8.1-23.3,8.5c-16.5,0.9-33,1.7-49.4,2.6c-14.1,0.7-28.6,1.4-42-3.1"/>
	<path class="st26" d="M770.3,445.3c8.8,23.7,7.6,49.7,6.3,74.9c-1.5,28.4-3,56.7-4.4,85.1c-0.9,16.7-1.7,33.6,1.7,49.9
		c2.4,11.4,6.7,22.2,9.4,33.5c6,25.4,3.1,51.9,0.2,77.8c-0.7,5.9-1.4,12.1-4.7,17c-3.3,4.9-10.1,8-15.4,5.2
		c-13.6-70.7-10.9-143.3-8.1-215.2c1.6-41,3.2-82.1,4.8-123.1"/>
	<path class="st26" d="M1101.2,355.7c5.8-11.5,20.9-13.7,33.7-14.5c12.1-0.7,24.3-1.5,36.4-2.2c20.8-1.3,42.1-2.5,62.3,3
		c-23.1,12.5-50.5,13.2-76.7,13.6c-17,0.2-34,0.5-50.9,0.7"/>
	<path class="st26" d="M1233.7,342.6c-18.2,74.1-5.6,216.8-9.6,321.7c-0.7,17.8-1.5,35.9-7.3,52.7c-9.1,26.4-30.2,47.7-54.9,60.7
		s-52.8,18.5-80.7,20c-22.4,1.2-51.5-18.4-52.6,2.4l65.8-116.3l37.2-327L1233.7,342.6z"/>
	<path class="st26" d="M1233.9,452.1c-1.1-2.6-1.1-5.7,0-8.3c41.7-2.7,83.5-5.4,125.2-8.2c6.1-0.4,13.3-0.4,17.2,4.3
		c-8.6,2.5-16.7,6.7-23.7,12.3c12.8,33.7,30.7,65.5,52.8,94c1,1.3,2.1,2.8,2.1,4.4s-1.8,3.3-3.3,2.6c-1.5-0.8,0.1-3.7,1.3-2.6"/>
	<path class="st26" d="M1373.9,443.3c10.3,15.8,20.6,31.5,30.9,47.3c6,9.2,12.2,18.8,13.7,29.8c1.5,10.9-3.2,23.5-13.4,27.6"/>
	<g>
		<path class="st26" d="M409.4,649.9c-13.3,6.4-27.7,11.5-42.4,11.5c-16.3,0-31.8-6.1-46.9-12.1c-13.9-5.5-28.9-12-35.9-25.2
			c-3.6-6.9-4.5-14.7-5.4-22.4c-3.4-30-6.6-60.1-9.6-90.2c-1.7-17.2-3.3-34.5-2.5-51.8c0.6-13.3,2.7-26.5,3.5-39.8
			c2.4-38.6-5.7-77.4-1.7-115.8c1.6-15.3,5.1-30.7,2.7-45.8c-0.2-1-0.4-2.1-1-2.9c0.8-1.7-0.2-4.3-2-5.4c-0.1-0.2-0.1-0.4-0.2-0.5
			c0.7-0.1,1.4-0.3,2.1-0.4c-9.2-7-21.7-7.5-33.2-7.4c-38.7,0.2-77.4,4-115.4,11.2c-1.7,1.2-3.3,2.5-4.8,3.8
			c13.7,0.8,27.4,1.5,41.1,2.3c10,0.6,19.9,1.1,29.9,1c8.6-0.1,17.2-0.7,25.8-1.6c5,0.9,9.9,1.8,14.9,2.7c4.2,0.8,8.4,1.5,12.7,1.9
			c3.2,42.9-4.4,86-2.8,129c0.7,19,3.3,37.9,4.4,56.9c2.2,37.8-1.4,75.7-0.2,113.5c0.9,28.9,5.1,59,21.8,82.5
			c13.8,19.5,35.4,32.9,58.6,38.4c23.2,5.5,47.9,3.4,70.5-4.2c6.6-2.2,13-4.9,18.9-8.5c16.4-10.2,27.8-28.1,30-47.2
			C435,635.5,422.3,643.6,409.4,649.9z"/>
	</g>
	<g>
		<path class="st26" d="M677.7,413.8c3.3,4.5,8.1,6.3,13.5,7.1c8.4,1.2,17,1.2,25.4,1.6c-0.5-0.3-0.9-0.7-1.4-1
			c2.8,8,5.1,16.2,6.9,24.5c0.3-0.6,0.7-1.2,1-1.8c-3,0.7-6,1.3-9,1.9c-1.8,0.3-9.1,2.5-10.5,1.6c-1.9-1.3,0.3-4.4,0.5-6
			c0.2-1.6,0-3.2-0.4-4.7c-2.5-8.5-11.7-15-18.9-19.2c-1.6-0.9-3,1.6-1.4,2.5c5.7,3.2,11.3,7.4,15.1,12.8c1.8,2.6,3.5,6,2.7,9.2
			c-0.5,1.8-2,3.4-1.8,5.3c0.3,3.4,3.5,3.1,6.1,2.8c6.2-0.8,12.4-2,18.4-3.4c0.8-0.2,1.2-1,1-1.8c-1.7-8.3-4-16.5-6.9-24.5
			c-0.2-0.6-0.7-1-1.4-1c-6.7-0.4-13.4-0.7-20.1-1.2c-5.9-0.4-12.6-0.9-16.4-6.1C679.1,410.9,676.6,412.3,677.7,413.8L677.7,413.8z"
			/>
	</g>
	<path class="st26" d="M682.4,419.5c8.1,4.1,13.9,12.6,14.7,21.6c0.1,1.6,0.2,3.3,1.3,4.4c0.9,0.9,2.3,1.2,3.5,1.4
		c4.2,0.8,8.6,1.4,12.8,0.7c4.2-0.8,8.4-3.2,10.1-7.2c2.4-5.7-1.2-12.4-6.4-15.7c-5.2-3.3-11.6-3.9-17.7-4.5c-6-0.5-12-1.1-18-1.6"
		/>
	<g>
		<path class="st27" d="M449.3,257v314.2c0,34.1-9.3,61.1-27.8,81.2c-18.6,20.1-42.8,30.1-72.8,30.1c-30.5,0-55.7-10.2-75.5-30.5
			c-19.8-20.3-29.7-47.3-29.7-80.8V257H115.9c-1.5,1.3-3,2.6-4.4,4c-1.5,1.7-3.1,3.4-4.6,5.1c-0.7,0.9-1.4,1.8-2.1,2.7
			c-0.3,0.6-0.7,1.2-1,1.8v300.5c0,35.7,6,68.1,18,97c6.8,3.7,14.8,5.9,21.1,9.5c10.4,5.9,14.6,15.1,10,26.5c-0.2,0.6-0.6,1-1,1.3
			c0.1,1.7,0.2,3.4,0.2,5.2c0.3,1.2,0.6,2.4,0.8,3.6c0.2,1,0,1.7-0.5,2.3c0.1,1.2,0.3,2.3,0.5,3.5c0,0.1,0,0.2,0,0.3
			c17.8,21.8,40,39.5,66.5,53c36.9,18.8,79.7,28.2,128.5,28.2c48.8,0,91.4-9.4,127.7-28.2c36.3-18.8,64.3-45.6,83.9-80.5
			c19.6-34.8,29.4-75.4,29.4-121.6V257H449.3z"/>
		<path class="st27" d="M651.6,460.5c0.2,0.4,0.4,0.8,0.4,1.3c0.8,24.5,1.5,48.9,0.5,73.3c1.2,0.1,2.4,0.9,2.4,2.5
			c0,11.5-0.9,22.7-3.3,33.8v220.2h109.7V456.4H651.6V460.5z"/>
		<path class="st10" d="M705.5,419.8c16.9,0,30.9-5.6,41.8-16.7c10.9-11.2,16.4-25.2,16.4-42.1c0-17.4-5.5-31.5-16.4-42.4
			c-10.9-10.9-24.9-16.4-41.8-16.4c-16.9,0-30.9,5.5-41.8,16.4c-10.9,11-16.4,25.1-16.4,42.4c0,16.9,5.5,31,16.4,42.1
			C674.6,414.2,688.6,419.8,705.5,419.8z"/>
		<path class="st28" d="M957.1,678.2c16.1,16.5,36.6,24.8,61.3,24.8c24.4,0,44.1-8.2,59.2-24.5c15.1-16.3,22.6-38.3,22.6-66V357.2
			h113.4v255.3c0,37.6-8,70.5-23.9,98.8c-15.9,28.3-38.6,50.1-68.2,65.4c-29.5,15.3-64.1,22.9-103.8,22.9
			c-39.7,0-74.5-7.6-104.4-22.9c-30-15.3-53.1-37.1-69.4-65.4c-16.3-28.3-24.5-61.2-24.5-98.8V357.2h113.4v255.3
			C932.9,639.8,941,661.7,957.1,678.2z"/>
		<path class="st10" d="M1227.3,456.4h126.4l53.9,94.2l58.2-94.2h120.8l-106,163.6l113.4,171.6h-127l-59.5-102.2l-66.3,102.2h-121.5
			l114-171.6L1227.3,456.4z"/>
	</g>
	<path class="st26" d="M670.3,443.4c-8.4,1.2-16.1,6.9-19.7,14.6c16.8-0.5,33.6-1.1,50.5-1.6c19.9-0.6,39.9-1.3,59.7,1.3
		c0.8-2.6-0.9-5.3-3.2-6.7c-2.3-1.4-5-1.7-7.7-1.9c-9.6-0.8-19.3-1-29-0.5c-13.4,0.6-28,2.1-39.2-5.3c-2.8-1.8-5.5-4.2-8.8-4.1
		c-1.7,0-3.4,0.7-4.9,1.5c-5.7,2.8-10.2,10-14.7,14.5"/>
	<path class="st26" d="M1230.3,446.8c-1.7,1.6-3.4,3.2-5,4.8c-1.2,1.1-2.5,2.8-1.6,4.3c0.7,1.1,2.3,1.2,3.6,1.1
		c29.2-1.7,58.5-1.2,87.6,1.5c9.9,0.9,19.9,2.1,29.8,0.8s19.8-5.2,26.2-12.8c0.4-0.5,0.9-1.1,1-1.8c0.6-2.8-3.6-3.8-6.4-3.5
		c-43.3,4.2-86.9,5.2-130.4,3.1c-3-0.1-6.8,0.4-7.4,3.3"/>
	<path class="st26" d="M1353.2,457.6c4.8,5.1,8.3,11.4,11.6,17.6c12,22,23.9,44,35.9,66c1,1.8,2.5,3.8,4.5,3.5
		c1.2-0.2,2.1,6.3,2.8,5.3c5.1-6.8,13.9-24.2,19-31c-6-3-13.5-6.3-16.7-12.2c-9.1-16.7-18.2-33.5-27.3-50.2
		c-3.4-6.3-7.8-13.3-14.8-14.7c-3.8,6.1-9.3,11.2-15.6,14.5"/>
	<path class="st26" d="M1580.1,540.3c22.5-21.5,43.7-45.9,54.8-76.3c0.8-2.3,1.6-4.7,1.9-7.2c0.9-2-0.6-8.9,0.2-10.9l-0.1,7.7
		c-0.1-1.1-0.3-2.2-0.6-3.2c1-1.3,1.5-2.9,1.4-4.7c-0.5-6.4-8.7-8.5-15.1-8.8c-33.5-1.5-67.1-0.4-100.5,3.4
		c-18.2,2.1-37,5.1-52.4,15.2l110.7,0.8c0.4,0.1,0.8,0.1,1.2,0.2c-1.4,1.9-2.8,3.7-4.1,5.6c-31.8,43.7-57.7,92.1-82.6,141
		c-5.6,1.6-10.7,5.7-12.9,11.1c-6,7.9-2.9,20.3,1.1,30c16.5,40.4,39.6,77.7,67.9,109.6c11.2,12.6,23.5,24.6,38.3,31.7
		c14.8,7.1,32.5,8.7,46.9,0.9c-0.5-18.2-10-34.8-21.7-47.9c-11.7-13.1-25.6-23.5-38.1-35.8c-9.3-9.2-17.7-19.3-26.1-29.4
		c-4.3-5.2-8.8-10.7-11-17.3c-3.1-9.4-1.3-20.3-5.4-29.3c-2.1-4.7-5.7-8.5-9.4-11.9c-3.6-3.3-7.6-6.4-11.8-8.7
		c0.2-0.3,0.4-0.5,0.6-0.8C1533.3,581.1,1557.6,561.8,1580.1,540.3z"/>
	<path class="st28" d="M1518.1,683.7c-10.6-12.1-21.7-25.1-23.8-40.4c-1.5-10.8,1.6-22.3-3-32.3c-4.6-9.8-15.6-15.9-26.5-20.1
		c-24-9.2-50.9-12.2-76.7-8.4c-10.5,1.5-22.5,3.9-31-1.9c-4.3-2.9-6.9-7.6-11.4-10.3c-6.1-3.7-14.1-3.1-21.4-2.3
		c-22,2.3-44,4.6-66,6.8l2.8,7.6l-7.4-7.8c-17.5,7.6-38-5.7-57.3-3.2c-14.9,1.9-26.5,13.2-31.8,25.7c-5.3,12.5-5.4,26.3-5.5,39.6
		c-0.2,25.3-0.7,50.9-8.2,75.2c-7.5,24.4-23,47.7-47.3,60.8c-12.5,6.8-28.4,12-33,24.4c64.7-1.5,129.5,0.2,193.9,4.9
		c18,1.3,37.3,2.7,53-5.2c7.3-3.6,13.2-9,18.5-14.9c9.2,11.3,27.1,14.8,43,13.6c16.6-1.2,32.7-6.1,49.4-6.1
		c27.6,0,53.9,13.6,81.4,11.9c24.8-1.5,49.2-15.3,73-8.9c10.9,3,24.6,9.4,31.9,1.6C1582.6,757.3,1550.3,720.5,1518.1,683.7z"/>
	<path class="st29" d="M655.7,775.6c-4,6.7-7.6,16.3-1.6,21.3c4.5,3.8,11.2,1.9,16.9,0.8c20-4,40.8,3.9,61,1.1
		c12.6-1.8,25.1-7.6,37.5-4.7c-5.1-2.6-8.9-7.8-9.8-13.5c-0.2-1.4-0.3-2.9-1.4-3.9c-1-0.9-2.4-1-3.7-1c-21.1-0.2-42.6,5.9-62.9,0.2
		c-3.6-1-7.1-2.4-10.8-3c-10.7-1.8-22.2,3.7-27.6,13.1"/>
	<path class="st29" d="M1102.8,620.7c-8.4,20.2-17.2,41-32.5,56.6c-19.7,20.1-49.7,29.5-77.3,24.2c9,12.7,26.2,16.6,41.8,16.6
		c24.8,0,50.8-8.2,66.8-27.2s18.4-50,1.3-68c-0.7,2-1.4,4-2.1,6"/>
	<path class="st26" d="M757.9,435.3c-0.1,0-0.1-0.1-0.2-0.1c-1.5-0.9-2.9-1.9-4.3-3.1c-13.7-1.4-27.6-2.6-41.2-0.7
		c-8.7,1.2-17.4,3.6-26.2,3c-4.3-0.3-8.7-1.2-12.7,0.3c-3.2,1.2-5.7,4.9-5.1,8c-0.1,0.7-0.1,1.5,0,2.2c13.2,4,26.7,8.1,40.5,7.6
		c19.8-0.7,39.5-10.9,58.7-5.9c-2.1-2-2.7-5.3-3.7-8.1C761.8,437.5,759.8,436.5,757.9,435.3z"/>
	<path class="st29" d="M230.9,510.5c-2.7,25-5.5,50-8.2,75.1c-1.3,12-2.6,24.3-0.4,36.2c4.7,25.1,24.1,44.6,42.5,62.3
		c10.4,9.9,21.3,20.2,35.1,24c18.2,5,37.3-2.1,54.8-9c14-5.6,28.1-11.2,42.1-16.8c15.2-6,32.7-15.1,34.2-31.4
		c-26.8,16.2-56.5,31.1-87.7,28.8c-29.4-2.2-56.4-20.1-73-44.5c-16.6-24.4-23.5-54.4-23.2-83.9c0.2-20.7,3.7-42.4-4.4-61.4
		c-12.6,6-19.3,22.1-14.8,35.3"/>
	<path class="st29" d="M116.7,256.4c-1.8,1.5-3.5,3-5.1,4.7c-1.5,1.7-3.1,3.4-4.6,5.1c-0.7,0.9-1.4,1.8-2.1,2.7
		c-0.8,1.6-1.7,3.1-2.6,4.6l2.1,139c2.2-3.6,5.3-6.5,9-8.4c6.5-3.3,14.1-3.3,21.1-5.2c11.9-3.3,21.7-12.3,28.5-22.7
		c6.8-10.4,10.9-22.2,15-33.9c0.7-1.9,1.3-3.9,0.8-5.8c-0.8-2.9-4-4.3-5.8-6.6c-4.2-5.5,0.3-13.3,4.7-18.7
		c10.6-13,21.1-26,31.7-38.9c1.7-2.1,3.4-4.2,5.8-5.4c7.4-3.7,18.5,2.5,23.5-4C197.8,263.7,157.1,261.5,116.7,256.4z"/>
	<path class="st29" d="M529.6,261.8c-1.2-1.8-2.4-3.7-3.7-5.5c4.1,6,4.2,15,4.1,23.2c-0.7,59.3-1.4,118.5-2.1,177.8
		c7-1.2,9-13.2,9.1-22.4c0.9-51.2,1.8-102.4,2.6-153.5c0.1-7.2,0.8-15.8,5.6-19.5c2.1-1.6,4.6-2,7-2.2c7.5-0.7,15-0.7,22.5,0.1
		c-8.8-4.3-18.5-4.4-28-4.4c-7,0-14-0.1-21.1-0.1c-1.2,0-2.5,0-3.4,0.9c-1,0.9-1.4,3.1-0.4,4c0.9,0.9,2.5-1.3,1.6-2.2"/>
	<path class="st29" d="M693.1,422.6c-4.2-7-8.6-15.5-5.1-22.9c4-8.4,15.2-9.7,23.1-14.6c8.8-5.5,13.6-16.8,11.4-27
		c-1.5-6.7-5.6-13.8-2.5-19.9c3.3-6.7,12.4-7.2,19.9-6.7c2.9,0.2,6,0.4,8.5,1.8c4.2,2.4,6,7.4,7.3,12c2.7,9.4,4.7,19,6.2,28.7
		c0.6,3.9,1.1,7.9,0.2,11.7c-0.9,4.2-3.5,8-6.3,11.2c-13.4,15.5-33.9,22.4-53.5,28.1c-1.5,0.4-3.2,0.9-4.7,0.4
		c-1.4-0.5-2.4-1.7-3.2-2.9c-3.4-4.9-5.7-10.5-6.6-16.4"/>
	<path class="st29" d="M659.3,462.7c0.8,0.2-0.4,1.5-0.9,0.8s0.1-1.6,0.6-2.2c8.2-8.8,24.9-6.7,30.7,3.8c2.7,5,3.1,10.9,3.3,16.5
		c1.8,36.2,3.1,72.5,3.9,108.8c0.6-43.4,1.2-86.8,1.8-130.3c5.6-0.1,11.2-0.2,16.8-0.3c1.4,0,2.9,0,4,0.9c1.1,0.9,1.4,2.5,1.6,3.9
		c0.9,5.5,1.7,11.1,2.6,16.6c4.9,0.9,6.8-6.5,11.3-8.6c1.7-0.8,3.7-0.8,5.6-1.1c6.6-0.9,12.7-5.4,15.3-11.6
		c-28.3-1.8-56.6-3.6-84.9-5.4c-6.6-0.4-15.8,1.5-15.4,8.1"/>
	<path class="st29" d="M426.6,792.8c51.2-15,103.8-37.7,133.9-81.9c20.5-30.2,28.3-67.4,29.8-103.9c1.5-36.5-2.6-72.9-3.7-109.4
		c-8.2,72.2-26.5,146.7-74.3,201.4c-14.8,16.9-32.1,31.5-49.3,46c-32.8,27.6-69.1,56.7-111.9,58.1c69.7-1.1,138.7-26.8,192.2-71.5"
		/>
	<path class="st29" d="M36.5,819.7c5.1-24,26.2-43.8,50.5-47.3c7.5-1.1,15.8-1,21.8-5.6c4.5-3.4,6.8-8.8,10.1-13.4
		c8.3-11.8,22.5-18.6,36.8-20.4c14.3-1.9,28.9,0.7,42.8,4.3c18.1,4.7,35.7,11.3,52.5,19.7c24.5,12.2,47.6,28.2,74.3,34.1
		c50.8,11.3,102.6-16.3,154.5-13.2c22.9,1.4,45.1,8.7,68,10c18.3,1,36.6-1.9,54.9-1.6c18.3,0.3,37.6,4.2,51.1,16.5
		c-41.1,18.8-87.1,26.7-132.1,22.8c-15.2-1.3-30.4-4-45.6-2.9c-30.8,2.2-58.3,19.3-87.2,30.1c-20.5,7.7-42.2,12.2-64.1,13.4
		c-20.2,1.1-40.5-0.5-60.7-2.2c-29.4-2.4-58.8-4.9-88.2-7.3c-17.7-1.5-35.4-2.9-53-5.1c-30.8-3.7-61.3-9.4-92.3-10.9
		c-3.5-5,4-10.4,10-11.9c21.2-5.6,42.4-11.1,63.5-16.7c-27.4-7.9-55.4,21.8-82.7,13.5c2.2-6.5,9.2-11,16.1-10.3"/>
	<path class="st26" d="M1223.4,553.4c1.7,3.7,6.7,4.2,10.8,4c22.1-0.7,48.3,1.5,66.8,13.6c-17,2.4-36.6,2.3-53.7,4.6
		c-7.5,1-15.7,2-22.1-2c-6.4-4-8.5-15-2-18.7"/>
	<path class="st29" d="M1309.9,793.7c35-12.7,65.6-37.1,85.8-68.4c1.7-2.6,3.4-5.4,6.2-6.7c2.6-1.3,5.8-1.1,8.7-0.6
		c33.6,5.8,52.4,41.7,81.6,59.3c5.9,3.6,12.9,7.2,14.6,13.9c-9.3,7.1-22.3,1.8-33.8-0.5c-12.3-2.5-25-1.1-37.4,0.3
		c-46.5,5.2-92.9,10.3-139.4,15.5c5.3-8.3,14.1-14.3,23.8-16.2"/>
	<path class="st17" d="M116.4,484.7c-0.8,18.6-1.5,37.2-2.3,55.9c-0.3,7.9,1,18.1,8.7,19.9c5.4,1.3,10.7-2.9,13.4-7.7
		c10.4-18.3-3.9-40.9-2.1-61.9c0.4-4.8,1.5-10.2-1.5-13.9c-4.4-5.4-14.2-1.6-16.4,4.9s0.7,13.8,4.3,19.7"/>
	<path class="st17" d="M216.1,287.7c-2.9-2.1-6.5,1.7-7.8,5c-2.5,6.3-3.5,13.7-0.6,19.8c2.9,6.2,10.5,10.3,16.8,7.7
		c5.9-2.5,8.3-9.6,8.6-16c0.3-7.4-2.3-15.8-9-19c-6.7-3.1-16.6,3.6-13.8,10.5"/>
	<ellipse class="st17" cx="133.6" cy="616.7" rx="6.7" ry="16.7"/>
	<circle class="st17" cx="123.1" cy="275.9" r="8.6"/>
	<circle class="st17" cx="579.7" cy="501.8" r="7.6"/>
	<circle class="st17" cx="456.8" cy="754.4" r="14.3"/>
	<ellipse class="st17" cx="483.9" cy="278.3" rx="12.9" ry="6.2"/>
	<circle class="st17" cx="584.5" cy="261.6" r="4.8"/>
	<circle class="st17" cx="282.8" cy="747.3" r="7.1"/>
	<ellipse class="st17" cx="91.2" cy="788.7" rx="11" ry="2.9"/>
	<ellipse class="st17" cx="187.9" cy="750.6" rx="18.1" ry="3.8"/>
	<ellipse class="st17" cx="509.7" cy="809.7" rx="12.9" ry="6.7"/>
	<circle class="st17" cx="608.8" cy="802.6" r="1.4"/>
	<ellipse class="st29" cx="160.3" cy="837.4" rx="9.5" ry="0"/>
	<circle class="st29" cx="217.5" cy="442.7" r="11.4"/>
	<circle class="st29" cx="169.3" cy="694.8" r="9.1"/>
	<circle class="st29" cx="566.4" cy="302.6" r="18.1"/>
	<ellipse class="st29" cx="673.2" cy="541.4" rx="0" ry="11.9"/>
	<circle class="st29" cx="738.9" cy="660.1" r="9.5"/>
	<circle class="st26" cx="691.7" cy="760.6" r="13.8"/>
	<ellipse class="st26" cx="233.7" cy="371.7" rx="4.8" ry="15.7"/>
	<ellipse class="st26" cx="266.1" cy="732.5" rx="16.2" ry="14.3"/>
	<circle class="st26" cx="517.3" cy="704.4" r="5.2"/>
	<circle class="st26" cx="481.1" cy="321.2" r="10"/>
	<circle class="st26" cx="570.7" cy="391.7" r="4.3"/>
	<circle class="st26" cx="467.2" cy="499.9" r="3.8"/>
	<circle class="st26" cx="555.4" cy="583.3" r="7.1"/>
	<circle class="st26" cx="383.8" cy="764.4" r="4.3"/>
	<circle class="st26" cx="728" cy="519.4" r="10"/>
	<circle class="st29" cx="727" cy="354.5" r="16.7"/>
	<ellipse class="st30" cx="140.3" cy="401.2" rx="13.3" ry="13.8"/>
	<circle class="st30" cx="189.4" cy="485.1" r="11"/>
	<ellipse class="st30" cx="570.7" cy="459.9" rx="4.3" ry="24.8"/>
	<circle class="st30" cx="689.4" cy="347.4" r="16.2"/>
	<circle class="st30" cx="877.6" cy="598.6" r="15.7"/>
	<path class="st26" d="M955.9,696.5c26.4,12.6,50.3,30.2,77,42c43.2,19.2,91.5,22.8,138.6,26c60.5,4.2,121.1,8.4,181.6,12.5
		c-40.2,32.5-97.6,29.4-149.1,24.6c-59.8-5.6-119.7-11.2-179.5-16.8c-15.5-1.4-31.3-3-45.6-9.2c-30.1-13.2-47.9-44.9-75.8-62.2
		c18.4-4.8,36.9-9.6,55.3-14.4"/>
	<circle class="st30" cx="678.9" cy="704.9" r="10.5"/>
	<ellipse class="st30" cx="748.5" cy="550.4" rx="4.8" ry="21"/>
	<ellipse class="st30" cx="240.8" cy="797.8" rx="34.8" ry="5.2"/>
	<ellipse class="st30" cx="451" cy="802.6" rx="12.4" ry="3.3"/>
	<circle class="st30" cx="475.8" cy="619.1" r="4.8"/>
	<ellipse class="st30" cx="902.9" cy="408.9" rx="9.5" ry="26.2"/>
	<circle class="st30" cx="907.7" cy="714.4" r="4.8"/>
	<circle class="st30" cx="1172.2" cy="413.6" r="5.2"/>
	<circle class="st30" cx="1094.5" cy="724.9" r="7.6"/>
	<circle class="st30" cx="1035.4" cy="770.6" r="6.7"/>
	<path class="st30" d="M1101.9,431.2c-0.7,1-0.9-1.5,0.4-1.8c7.2-1.4,10.8,8.3,11.2,15.6c1.7,32.9-2.9,66.2,2.5,98.8
		c0.9,5.2,2,10.4,2.4,15.7c1.1,15.2-4.2,30.2-11.1,43.8c-3.4-22.9-6.8-46.2-4.2-69.2c0.8-7.2,2.2-14.4,2.6-21.7
		c0.5-9.4-0.6-18.7-1.8-28c-2-15.9-3.9-31.8-5.9-47.7c-0.4-3.3,2.4-8.2,4.5-5.7"/>
	<g>
		<path class="st30" d="M472.3,391.2c0.9,18.3,1.9,36.5,2.8,54.8c0.1,1.5,2.6,2.1,2.8,0.4c2.8-19.5,2.5-39.2-1.1-58.7
			c-0.3-1.7-2.7-1.1-2.8,0.4c-1.3,17.1-0.7,34.2,2,51.1c0.3,1.8,3,1,2.8-0.8c-2.6-16.7-3.2-33.5-1.9-50.3c-0.9,0.1-1.9,0.3-2.8,0.4
			c3.5,18.9,3.8,38.1,1.1,57.1c0.9,0.1,1.9,0.3,2.8,0.4c-0.9-18.3-1.9-36.5-2.8-54.8C475.1,389.4,472.2,389.4,472.3,391.2
			L472.3,391.2z"/>
	</g>
	<circle class="st17" cx="859.5" cy="457.5" r="12.9"/>
	<circle class="st17" cx="844.3" cy="381.2" r="6.2"/>
	<ellipse class="st17" cx="1179.4" cy="692.5" rx="7.6" ry="22.9"/>
	<circle class="st29" cx="1196.5" cy="450.3" r="9.5"/>
	<path class="st29" d="M767.5,814.5c45.7-24.7,59.9-43.4,91.8-84.3c11.4-14.5,23.4-31.1,41.5-34.6c20.2-4,39.6,10.3,52.5,26.4
		c7.4,9.3,14,19.7,24,26.1c10,6.4,25,7.2,32.5-2c20.5,9.2,40.9,18.4,61.4,27.6c11.5,5.2,23.5,10.5,36.1,9.7
		c13.3-0.8,25.4-8.2,38.6-10.3c14.2-2.3,28.5,1.7,42.5,4.8c42.4,9.3,86.1,10.2,129.4,11.2c19.4,0.4,38.9,0.8,58.3-1.1
		c23.5-2.3,46.6-7.9,70.1-10.2c58.6-5.7,117,9.7,173.9,24.9c-80.8,6.9-161.7,13.9-242.8,14.2c-147.1,0.6-294.6-20.5-440.8-4.9
		c-19.6,2.1-39.2,4.8-58.9,4.6c-40.5-0.5-82.6-13.3-120.6,0.7"/>
	
		<ellipse transform="matrix(0.9188 -0.3947 0.3947 0.9188 -218.1578 414.9713)" class="st26" cx="899.6" cy="737.7" rx="12.9" ry="12.9"/>
	<ellipse class="st26" cx="1451.1" cy="779.2" rx="27.6" ry="10.5"/>
	<ellipse class="st26" cx="844.8" cy="799.7" rx="14.3" ry="14.8"/>
	<circle class="st17" cx="1235.6" cy="611.4" r="12.4"/>
	<ellipse class="st17" cx="1506.3" cy="511.3" rx="0" ry="11.4"/>
	<ellipse class="st17" cx="1506.8" cy="723.9" rx="13.8" ry="14.3"/>
	<circle class="st17" cx="1351.9" cy="479.9" r="9.5"/>
	<circle class="st30" cx="1331.4" cy="720.6" r="11"/>
	<ellipse class="st30" cx="1380" cy="605.7" rx="8.1" ry="15.3"/>
	<ellipse class="st30" cx="1499.7" cy="524.7" rx="6.7" ry="22.9"/>
	<ellipse class="st30" cx="1208.9" cy="754" rx="21.9" ry="7.1"/>
	<circle class="st30" cx="1190.8" cy="547.6" r="5.7"/>
	<circle class="st29" cx="1300" cy="497.5" r="4.3"/>
	<circle class="st29" cx="1469.2" cy="651.5" r="18.1"/>
	<circle class="st29" cx="1229.4" cy="687.2" r="6.2"/>
	<ellipse class="st29" cx="1297.6" cy="635.7" rx="1.9" ry="2.4"/>
	<circle class="st29" cx="1303.3" cy="772.5" r="4.8"/>
	<g>
		<path class="st26" d="M612.1,247.4c1.7,7.9,0.5,16.6,0,24.6c-0.5,8.5-1,17.1-1.5,25.6c-1,17.1-2.1,34.2-3.2,51.2
			c-2.1,33.8-3.9,67.7-4.9,101.5c-0.2,9.1-1.2,18.6-0.1,27.6c0.9,7.7,3.6,14.9,6.8,22c0.8,1.7,3.2,0.2,2.5-1.4
			c-3.3-7.3-6.1-14.9-6.6-23c-0.6-8.3,0.1-16.8,0.3-25.2c0.5-16.8,1.1-33.5,2-50.3c1.7-33.5,3.9-67.1,6-100.6
			c0.6-9.2,1.1-18.3,1.6-27.5c0.5-8.3,1.7-17.1-0.1-25.3C614.5,244.9,611.7,245.6,612.1,247.4L612.1,247.4z"/>
	</g>
	<path class="st26" d="M609.4,240.5l-4.8-0.4c-0.8,103.7-1.5,207.5-2.3,311.2c-0.3,44.8-0.8,90.7-16,132.9
		c-15.1,42.2-47.9,80.8-91.7,90.4c31.8,18.5,74.9-0.8,94.8-31.8c19.9-30.9,22.7-69.5,24.4-106.3c6-131.5,5.6-263.4-1.2-394.9
		C611.6,241.2,610.5,240.8,609.4,240.5z"/>
	<path class="st26" d="M789.3,522.6c-0.9-23.2-1.9-47-10.7-68.4c-1.5-3.7-3.3-7.4-5.3-10.9c-3.1-1.7-6.3-3.1-9.5-4.7
		c6.5,19.8,10.6,40.4,12.1,61.2c1.4,20.7,0.3,41.5-0.5,62.3c-3,76-1.3,152.3,5,228.1C796.2,702.1,792.8,612,789.3,522.6z"/>
	<path class="st26" d="M1229.5,348.6c-1.3-2.3,2.7-4.5,4.8-2.9c2.1,1.5,2.4,4.5,2.4,7.1c0.8,25.5,1.6,51,2.4,76.6
		c0.2,7.7,0.4,15.8-3.4,22.5c-1.7,3-4.2,5.7-5.5,8.9c-2.5,6.4,0.1,13.5,2.4,19.9c9.5,27.2,12.9,56.6,9.8,85.2
		c-12.5,3.8-23.6-10.7-24.1-23.8c-0.5-13.1,5-25.7,4.9-38.8c-0.1-11.5-4.7-22.5-6.3-33.9c-1.5-10.6-0.5-21.4,0.6-32
		c2.4-24.6,4.8-49.3,7.3-73.9"/>
	<g>
		<path class="st26" d="M236.5,244.6L126,252.4c11.2,3.6,22.4,7.2,33.7,10.8c4.3,1.4,8.7,2.8,13.3,3c5.3,0.2,10.4-1.2,15.5-2.7
			c15.1-4.3,30.2-8.5,45.3-12.8c-5.8-0.2-11.6-0.2-17.5-0.3C223.1,248.5,229.8,246.5,236.5,244.6z M195.9,253.1
			c-0.7,0.3-1.5,0.7-2.2,1c-0.4,0.1-0.8,0.2-1.1,0.3c-0.2,0.1-0.4,0.3-0.6,0.4c-0.5,0.2-1.1,0.5-1.6,0.7c0.3-0.1,0.7-0.2,1-0.3
			c-0.1,0-0.1,0.1-0.2,0.1c-0.5,0.1-1,0.3-1.4,0.4c-0.9,0.4-1.8,0.8-2.7,1.2c-0.1,0-0.2,0.1-0.3,0.1c0.2-0.2,0.4-0.3,0.6-0.5
			c-0.4,0.1-0.8,0.3-1.2,0.4c0.1,0.1,0.2,0.1,0.3,0.2c-0.3,0.1-0.6,0.2-0.8,0.3c0.1-0.1,0.1-0.3,0.2-0.4c-0.3,0.1-0.5,0.2-0.8,0.3
			c0.3-0.1,0.5-0.2,0.8-0.3c0-0.1,0.1-0.2,0.1-0.2c0.1,0,0.1,0.1,0.2,0.1c0.4-0.2,0.8-0.3,1.3-0.5c0.4-0.3,0.8-0.7,1.2-1
			c-0.8,0.2-1.6,0.5-2.3,0.7c0.1-0.2,0.2-0.4,0.3-0.6c1-0.4,1.9-0.8,2.9-1.2c0.5-0.1,1-0.2,1.4-0.4c0.9-0.4,1.8-0.8,2.7-1.1
			C194.3,253.1,195.1,253.1,195.9,253.1z M183.4,257.1c0.5-0.2,1-0.5,1.5-0.7c0.1,0,0.2,0.1,0.3,0.1
			C184.6,256.8,184,256.9,183.4,257.1z M184.7,256.3c-0.5,0.2-1,0.4-1.6,0.6c0.4-0.3,0.8-0.5,1.1-0.8
			C184.4,256.2,184.6,256.3,184.7,256.3z M168.9,260.5c-0.1,0-0.2,0.1-0.3,0.1c-1.1-0.4-2.2-0.9-3.2-1.5
			C166.6,259.5,167.8,260,168.9,260.5z M191.1,261.4c2.7-0.8,5.4-1.6,8.1-2.4c-3.4,1.3-6.8,2.5-10.3,3.5
			C189.6,262.1,190.4,261.8,191.1,261.4z M193.4,258.1c1.2-0.6,2.3-1.3,3.4-2.1c1.1-0.3,2.2-0.6,3.3-1c-2.1,1-4.1,2-6.2,3.1
			C193.7,258.1,193.5,258.1,193.4,258.1z M157.9,259c2.4,0.7,4.7,1.3,7.1,2c-0.7-0.5-1.4-1-2.1-1.4c1.5,0.5,3,0.9,4.5,1.4
			c-0.1,0-0.1,0-0.2,0.1c0.3,0,0.6,0.1,0.9,0.1c0.3,0.1,0.5,0.1,0.8,0.2C165,262.1,160.9,261.4,157.9,259z M204.1,256.9
			c-1.3,0.2-2.6,0.5-3.9,0.7c3.4-1.3,6.9-2.5,10.3-3.8C208.4,254.9,206.3,256,204.1,256.9z M209.4,253.1c-0.8,0-1.6,0-2.4,0
			c0.1,0,0.1,0,0.2,0C207.9,253,208.6,253,209.4,253.1z"/>
		<path class="st26" d="M181.4,264.3c0.1,0,0.2-0.1,0.3-0.1c0,0-0.1,0-0.1,0C181.6,264.3,181.5,264.3,181.4,264.3z"/>
		<path class="st26" d="M187.4,258C187.4,258,187.4,258,187.4,258c0,0-0.1,0-0.1,0C187.3,258,187.3,258,187.4,258z"/>
		<path class="st26" d="M186.7,255.4c0,0,0-0.1,0.1-0.1c0.1,0,0.2,0,0.3-0.1C186.9,255.2,186.8,255.3,186.7,255.4z"/>
		<path class="st26" d="M183,263.9c0.2,0,0.4,0,0.5-0.1c-0.3,0.1-0.6,0.1-0.9,0.2C182.8,264,182.9,263.9,183,263.9z"/>
		<path class="st26" d="M203.8,253.2c-0.1,0-0.2,0-0.3,0c-0.1,0-0.1,0-0.2,0c0.1,0,0.1-0.1,0.2-0.1c0.1,0,0.3,0,0.4,0
			C203.9,253.2,203.8,253.2,203.8,253.2z"/>
		<path class="st26" d="M190.9,254.2c-0.8,0.4-1.6,0.9-2.3,1.4c1.3-0.4,2.6-0.8,3.9-1.2c0.4-0.3,0.9-0.6,1.3-1
			C192.8,253.7,191.8,254,190.9,254.2z"/>
		<path class="st26" d="M187.3,256.6c0.8-0.3,1.6-0.5,2.4-0.8c0.2-0.1,0.4-0.2,0.6-0.3C189.3,255.9,188.3,256.2,187.3,256.6
			C187.3,256.6,187.3,256.6,187.3,256.6z"/>
		<path class="st26" d="M185.8,257.1C185.8,257.2,185.8,257.2,185.8,257.1c0.1,0,0.2-0.1,0.3-0.1c0,0,0,0,0,0
			C186,257.1,185.9,257.1,185.8,257.1z"/>
	</g>
	<path class="st26" d="M491.2,255.6c6.9-2.9,14.5,1.6,20.4,6.2c5.9,4.6,12.6,9.9,20,8.5c2.8-0.5,5.3-2,7.8-3.3
		c11.8-6.3,24.6-10.7,37.8-12.8c-26.9-1.3-53.9-1.6-80.8-0.9"/>
	<path class="st26" d="M899.2,504.3c-6,7.6-7,18-6.6,27.7c0.6,13.1,3.5,26.2,8.4,38.4c7.6-8,9.1-20,8.3-31
		c-0.8-11-3.4-21.9-2.6-32.9c0.4-5.6,1.8-11,2.3-16.6c1.2-12.3-1.5-25-7.6-35.8c-3.7,10.6-1.2,22.1-0.4,33.3
		c0.8,12-0.5,24.2-3.7,35.8"/>
	<g>
		<path class="st26" d="M1288,607c-1.3,10.2-2.7,20.5-4,30.7c-0.2,1.2,1.3,1.6,2.2,1.2c5.3-2.5,5.6-8.8,5.5-13.9
			c-0.2-10.3-0.4-20.6-0.6-30.9c0-1.8-2.8-1.8-2.9,0c-0.5,15-1,30-1.6,45.1c-0.1,1.8,2.8,1.8,2.9,0c0.5-15,1-30,1.6-45.1
			c-1,0-1.9,0-2.9,0c0.2,7.8,0.3,15.6,0.5,23.4c0.1,5.4,2.1,16.1-3.9,18.9c0.7,0.4,1.4,0.8,2.2,1.2c1.3-10.2,2.7-20.5,4-30.7
			C1291.1,605.1,1288.2,605.2,1288,607L1288,607z"/>
	</g>
	<g>
		<path class="st26" d="M1449.9,731c12.5,11,24.9,22.1,37.4,33.1c0.7-0.7,1.3-1.3,2-2c-11.8-10.3-23.6-20.6-35.4-30.9
			c-1.4-1.2-3.4,0.8-2,2c11.8,10.3,23.6,20.6,35.4,30.9c1.4,1.2,3.4-0.8,2-2c-12.5-11-24.9-22.1-37.4-33.1
			C1450.6,727.7,1448.5,729.8,1449.9,731L1449.9,731z"/>
	</g>
	<circle class="st26" cx="1181.3" cy="587.6" r="9.5"/>
	<circle class="st26" cx="1119.8" cy="373.6" r="5.2"/>
	<circle class="st26" cx="1278" cy="758.7" r="5.2"/>
	<circle class="st26" cx="1333.3" cy="562.3" r="2.4"/>
	<circle class="st17" cx="1545.4" cy="479.9" r="9.5"/>
	<ellipse class="st17" cx="854.8" cy="692.9" rx="4.3" ry="11.9"/>
	<ellipse class="st17" cx="924.4" cy="620" rx="1.4" ry="49.6"/>
	<ellipse class="st17" cx="1127.9" cy="534.2" rx="2.9" ry="104.9"/>
	<circle class="st17" cx="1294.2" cy="523.3" r="4.3"/>
	<circle class="st17" cx="1325.7" cy="734.9" r="5.2"/>
	<circle class="st17" cx="1400.5" cy="754.4" r="3.8"/>
	<circle class="st17" cx="931.5" cy="773.5" r="5.7"/>
	<circle class="st17" cx="1081.6" cy="794.9" r="2.4"/>
	<circle class="st17" cx="1514.9" cy="799.2" r="1.9"/>
	<circle class="st17" cx="1167.4" cy="785.4" r="0.5"/>
	<circle class="st17" cx="1560.2" cy="769.2" r="5.2"/>
	<circle class="st17" cx="1462" cy="569" r="1.4"/>
	<g>
		<path class="st26" d="M1583.4,509.7c-33.4,44.3-49,101.6-42.6,156.7c-24-8.2-36.9-37.1-31.7-61.8s25.2-44.6,48.2-55.1
			c-8.5,8.6,6.4-13.1,9.6-1.4"/>
	</g>
</g>
<g>
	<g class="st31">
		<g class="st31">
			<defs>
				<path id="SVGID_1_" class="st31" d="M2797.9,1304.6l-42.1,48.2c-0.4,0.5-0.9,1-1.3,1.5c-17.6,19.3-40.9,28.7-70,28.4
					c-29.6-0.3-54.3-10.3-74-30.2c-19.7-19.8-29.9-46-30.6-78.4l42.1-48.2c0.7,32.4,10.9,58.6,30.6,78.4
					c19.7,19.8,44.3,29.9,74,30.2c29.1,0.3,52.5-9.2,70-28.4C2797,1305.6,2797.5,1305.1,2797.9,1304.6z"/>
			</defs>
			<clipPath id="SVGID_2_">
				<use xlink:href="#SVGID_1_"  style="overflow:visible;"/>
			</clipPath>
			<g class="st32">
				<path class="st33" d="M2579.9,1274.2l42.1-48.2c0.7,32.4,10.9,58.6,30.6,78.4c0.3,0.3,0.6,0.6,0.9,0.9l-42.1,48.2
					c-0.3-0.3-0.6-0.6-0.9-0.9C2590.8,1332.8,2580.6,1306.7,2579.9,1274.2"/>
				<path class="st34" d="M2611.4,1353.5l42.1-48.2c3.4,3.3,6.9,6.3,10.5,9.1l-42.1,48.2C2618.3,1359.9,2614.8,1356.9,2611.4,1353.5
					"/>
				<path class="st35" d="M2621.9,1362.6l42.1-48.2c2.8,2.1,5.8,4.1,8.8,5.9l-42.1,48.2C2627.7,1366.7,2624.8,1364.8,2621.9,1362.6"
					/>
				<path class="st36" d="M2630.7,1368.5l42.1-48.2c2.7,1.6,5.4,3.1,8.2,4.4l-42.1,48.2C2636.1,1371.6,2633.4,1370.1,2630.7,1368.5"
					/>
				<path class="st37" d="M2638.9,1372.9l42.1-48.2c2.7,1.3,5.4,2.4,8.2,3.4l-42.1,48.2C2644.3,1375.4,2641.6,1374.2,2638.9,1372.9"
					/>
				<path class="st38" d="M2647.2,1376.4l42.1-48.2c2.8,1,5.8,2,8.7,2.7l-42.1,48.2C2652.9,1378.3,2650,1377.4,2647.2,1376.4"/>
				<path class="st39" d="M2655.9,1379.1l42.1-48.2c3.2,0.8,6.4,1.5,9.8,2.1l-42.1,48.2C2662.3,1380.7,2659.1,1380,2655.9,1379.1"/>
				<path class="st40" d="M2665.7,1381.2l42.1-48.2c3.8,0.6,7.7,1.1,11.6,1.3l-42.1,48.2C2673.3,1382.3,2669.4,1381.9,2665.7,1381.2
					"/>
				<path class="st41" d="M2677.3,1382.6l42.1-48.2c2.4,0.2,4.7,0.2,7.2,0.3c2.5,0,4.9,0,7.3-0.1l-42.1,48.2
					c-2.4,0.1-4.8,0.2-7.3,0.1C2682,1382.8,2679.6,1382.7,2677.3,1382.6"/>
				<path class="st42" d="M2691.7,1382.7l42.1-48.2c5.5-0.3,10.7-0.9,15.7-1.9l-42.1,48.2
					C2702.4,1381.8,2697.2,1382.4,2691.7,1382.7"/>
				<path class="st43" d="M2707.5,1380.8l42.1-48.2c16.2-3.2,30.1-10.2,41.7-21.1l-42.1,48.2
					C2737.5,1370.5,2723.6,1377.6,2707.5,1380.8"/>
				<path class="st42" d="M2749.2,1359.7l42.1-48.2c1.8-1.7,3.6-3.5,5.3-5.3c0.5-0.5,0.9-1,1.3-1.5l-42.1,48.2
					c-0.4,0.5-0.9,1-1.3,1.5C2752.8,1356.2,2751,1358,2749.2,1359.7"/>
			</g>
		</g>
		<g class="st31">
			<defs>
				<path id="SVGID_3_" class="st31" d="M2908.3,1379.8l-42.1,48.2c8.8-10.1,16.5-21.2,23.1-33.3c18.2-33.5,26.8-72.6,25.8-117.3
					l42.1-48.2c1,44.7-7.6,83.8-25.8,117.3C2924.8,1358.6,2917.1,1369.7,2908.3,1379.8z"/>
			</defs>
			<clipPath id="SVGID_4_">
				<use xlink:href="#SVGID_3_"  style="overflow:visible;"/>
			</clipPath>
			<g class="st44">
				<path class="st33" d="M2915.2,1277.4l42.1-48.2c1,44.7-7.6,83.8-25.8,117.3c-6.6,12.1-14.3,23.3-23.1,33.3l-42.1,48.2
					c8.8-10.1,16.5-21.2,23.1-33.3C2907.6,1361.2,2916.2,1322.1,2915.2,1277.4"/>
			</g>
		</g>
		<g>
			<polygon class="st45" points="2437.5,969.2 2479.6,921 2615.1,922.3 2573,970.5 			"/>
		</g>
		<g>
			<polygon class="st46" points="2573,970.5 2615.1,922.3 2622,1226 2579.9,1274.2 			"/>
		</g>
		<g>
			<polygon class="st46" points="2908.3,973.7 2950.4,925.5 2957.3,1229.2 2915.2,1277.4 			"/>
		</g>
		<g>
			<polygon class="st45" points="2772.8,972.4 2814.9,924.2 2950.4,925.5 2908.3,973.7 			"/>
		</g>
		<g>
			<path class="st47" d="M2908.3,973.7l6.9,303.7c1,44.7-7.6,83.8-25.8,117.3c-18.2,33.5-44.8,59.2-79.7,77
				c-34.9,17.8-76,26.5-123.4,26.1c-47.4-0.4-89.2-9.9-125.3-28.5c-36.2-18.5-64.4-44.7-84.7-78.6c-20.3-33.8-30.9-73.1-31.9-117.9
				l-6.9-303.7l135.5,1.3l6.9,303.7c0.7,32.4,10.9,58.6,30.6,78.4c19.7,19.8,44.3,29.9,74,30.2c29.1,0.3,52.5-9.2,70-28.4
				c17.6-19.2,26-45.3,25.2-78.2l-6.9-303.7L2908.3,973.7z"/>
		</g>
	</g>
	<g class="st31">
		<g>
			<polygon class="st45" points="2970.5,1196.9 3012.5,1148.6 3109.2,1149.5 3067.1,1197.8 			"/>
		</g>
		<g>
			<polygon class="st46" points="3067.1,1197.8 3109.2,1149.5 3115.9,1443.7 3073.8,1491.9 			"/>
		</g>
		<g>
			<polygon class="st47" points="2977.1,1491 2970.5,1196.9 3067.1,1197.8 3073.8,1491.9 			"/>
		</g>
	</g>
	<g class="st31">
		<g class="st31">
			<defs>
				<path id="SVGID_5_" class="st31" d="M2976.3,1078.2l42.1-48.2c0.7-0.8,1.4-1.5,2.1-2.2c9.4-9.5,21.6-14.2,36.5-14.1
					c14.9,0.1,27.3,5.1,37.2,14.8c9.9,9.7,15,22.2,15.3,37.4c0.3,13.9-3.6,25.5-11.8,34.9l-42.1,48.2c8.2-9.4,12.1-21,11.8-34.9
					c-0.3-15.2-5.5-27.7-15.3-37.4c-9.9-9.7-22.3-14.6-37.2-14.8c-14.9-0.1-27.1,4.6-36.5,14.1
					C2977.6,1076.7,2976.9,1077.5,2976.3,1078.2z"/>
			</defs>
			<clipPath id="SVGID_6_">
				<use xlink:href="#SVGID_5_"  style="overflow:visible;"/>
			</clipPath>
			<g class="st48">
				<path class="st42" d="M2976.3,1078.2l42.1-48.2c0.7-0.8,1.4-1.5,2.1-2.2c0.5-0.5,1-1,1.5-1.4l-42.1,48.2c-0.5,0.5-1,0.9-1.5,1.4
					C2977.6,1076.7,2976.9,1077.5,2976.3,1078.2"/>
				<path class="st43" d="M2979.8,1074.5l42.1-48.2c6.4-5.9,14-9.8,22.8-11.5l-42.1,48.2C2993.8,1064.8,2986.2,1068.6,2979.8,1074.5
					"/>
				<path class="st42" d="M3002.6,1063l42.1-48.2c2.7-0.5,5.5-0.9,8.4-1L3011,1062C3008.1,1062.1,3005.3,1062.5,3002.6,1063"/>
				<path class="st41" d="M3011,1062l42.1-48.2c1.3-0.1,2.6-0.1,3.9-0.1c1.3,0,2.5,0.1,3.7,0.1l-42.1,48.2c-1.2-0.1-2.5-0.1-3.7-0.1
					C3013.6,1061.9,3012.3,1061.9,3011,1062"/>
				<path class="st40" d="M3018.6,1062.1l42.1-48.2c2.1,0.1,4.1,0.4,6,0.7l-42.1,48.2C3022.6,1062.4,3020.6,1062.2,3018.6,1062.1"/>
				<path class="st39" d="M3024.6,1062.8l42.1-48.2c1.7,0.3,3.4,0.6,5,1.1l-42.1,48.2C3028,1063.4,3026.3,1063,3024.6,1062.8"/>
				<path class="st38" d="M3029.6,1063.8l42.1-48.2c1.5,0.4,3,0.9,4.5,1.4l-42.1,48.2C3032.6,1064.7,3031.1,1064.2,3029.6,1063.8"/>
				<path class="st37" d="M3034.1,1065.2l42.1-48.2c1.4,0.5,2.8,1.1,4.2,1.8l-42.1,48.2C3036.9,1066.3,3035.5,1065.8,3034.1,1065.2"
					/>
				<path class="st36" d="M3038.3,1067l42.1-48.2c1.4,0.7,2.8,1.4,4.2,2.2l-42.1,48.2C3041.1,1068.4,3039.7,1067.7,3038.3,1067"/>
				<path class="st35" d="M3042.4,1069.2l42.1-48.2c1.5,0.9,3,1.9,4.4,3l-42.1,48.2C3045.4,1071.1,3044,1070.1,3042.4,1069.2"/>
				<path class="st34" d="M3046.9,1072.2l42.1-48.2c1.8,1.4,3.5,2.9,5.2,4.5c0,0,0,0,0,0l-42.1,48.2c0,0,0,0,0,0
					C3050.4,1075.1,3048.7,1073.6,3046.9,1072.2"/>
				<path class="st33" d="M3052.1,1076.7l42.1-48.2c9.8,9.7,14.9,22.1,15.3,37.3c0.3,13.9-3.6,25.5-11.8,34.9l-42.1,48.2
					c8.2-9.4,12.1-21,11.8-34.9C3067,1098.9,3061.9,1086.4,3052.1,1076.7"/>
			</g>
		</g>
		<g>
			<path class="st49" d="M3017.2,1165.2c-14.9-0.1-27.3-5.1-37.2-15c-9.9-9.9-15-22.2-15.3-37.1c-0.3-15.2,4.2-27.6,13.6-37.1
				c9.4-9.5,21.6-14.2,36.5-14.1c14.9,0.1,27.3,5.1,37.2,14.8c9.9,9.7,15,22.2,15.3,37.4c0.3,14.9-4.2,27.1-13.6,36.8
				C3044.3,1160.6,3032.1,1165.4,3017.2,1165.2z"/>
		</g>
	</g>
	<g class="st31">
		<g class="st31">
			<defs>
				<path id="SVGID_7_" class="st31" d="M3393.3,1346l-42.1,48.2c-0.3,0.4-0.7,0.7-1,1.1c-13,14.2-30.2,21.2-51.7,21
					c-21.8-0.2-40-7.6-54.5-22.3c-14.5-14.6-22.1-33.9-22.6-57.8l42.1-48.2c0.5,23.9,8.1,43.2,22.6,57.8
					c14.5,14.6,32.7,22.1,54.5,22.3c21.5,0.2,38.7-6.8,51.7-21C3392.7,1346.7,3393,1346.3,3393.3,1346z"/>
			</defs>
			<clipPath id="SVGID_8_">
				<use xlink:href="#SVGID_7_"  style="overflow:visible;"/>
			</clipPath>
			<g class="st50">
				<path class="st33" d="M3221.4,1336.2l42.1-48.2c0.5,23.9,8.1,43.2,22.6,57.8c0.2,0.2,0.4,0.4,0.7,0.7l-42.1,48.2
					c-0.2-0.2-0.4-0.4-0.7-0.7C3229.5,1379.4,3222,1360.1,3221.4,1336.2"/>
				<path class="st34" d="M3244.7,1394.7l42.1-48.2c2.5,2.4,5.1,4.7,7.8,6.7l-42.1,48.2C3249.8,1399.4,3247.2,1397.2,3244.7,1394.7"
					/>
				<path class="st35" d="M3252.4,1401.4l42.1-48.2c2.1,1.6,4.3,3,6.5,4.4l-42.1,48.2C3256.7,1404.5,3254.5,1403,3252.4,1401.4"/>
				<path class="st36" d="M3258.9,1405.8l42.1-48.2c2,1.2,4,2.3,6.1,3.2L3265,1409C3262.9,1408,3260.9,1407,3258.9,1405.8"/>
				<path class="st37" d="M3265,1409l42.1-48.2c2,0.9,4,1.8,6.1,2.5l-42.1,48.2C3269,1410.8,3267,1410,3265,1409"/>
				<path class="st38" d="M3271.1,1411.6l42.1-48.2c2.1,0.8,4.2,1.4,6.4,2l-42.1,48.2C3275.3,1413,3273.2,1412.3,3271.1,1411.6"/>
				<path class="st39" d="M3277.5,1413.6l42.1-48.2c2.3,0.6,4.7,1.1,7.2,1.5l-42.1,48.2C3282.3,1414.7,3279.9,1414.2,3277.5,1413.6"
					/>
				<path class="st40" d="M3284.7,1415.1l42.1-48.2c2.8,0.5,5.7,0.8,8.6,1l-42.1,48.2C3290.4,1415.9,3287.5,1415.6,3284.7,1415.1"/>
				<path class="st41" d="M3293.3,1416.1l42.1-48.2c1.7,0.1,3.5,0.2,5.3,0.2c1.8,0,3.6,0,5.4-0.1l-42.1,48.2
					c-1.8,0.1-3.5,0.1-5.4,0.1C3296.8,1416.3,3295,1416.2,3293.3,1416.1"/>
				<path class="st42" d="M3303.9,1416.2l42.1-48.2c4-0.2,7.9-0.7,11.6-1.4l-42.1,48.2C3311.8,1415.5,3308,1416,3303.9,1416.2"/>
				<path class="st43" d="M3315.5,1414.8l42.1-48.2c11.9-2.4,22.2-7.6,30.8-15.5l-42.1,48.2
					C3337.7,1407.3,3327.5,1412.4,3315.5,1414.8"/>
				<path class="st42" d="M3346.3,1399.3l42.1-48.2c1.3-1.2,2.6-2.6,3.9-3.9c0.3-0.4,0.7-0.7,1-1.1l-42.1,48.2
					c-0.3,0.4-0.7,0.7-1,1.1C3349,1396.7,3347.7,1398,3346.3,1399.3"/>
			</g>
		</g>
		<g class="st31">
			<defs>
				<path id="SVGID_9_" class="st31" d="M3474.7,1401.4l-42.1,48.2c6.5-7.4,12.2-15.6,17.1-24.6c13.4-24.7,19.8-53.5,19-86.5
					l42.1-48.2c0.7,33-5.6,61.8-19,86.5C3486.9,1385.8,3481.2,1394,3474.7,1401.4z"/>
			</defs>
			<clipPath id="SVGID_10_">
				<use xlink:href="#SVGID_9_"  style="overflow:visible;"/>
			</clipPath>
			<g class="st51">
				<path class="st33" d="M3468.8,1338.6l42.1-48.2c0.7,33-5.6,61.8-19,86.5c-4.9,9-10.6,17.2-17.1,24.6l-42.1,48.2
					c6.5-7.4,12.2-15.6,17.1-24.6C3463.1,1400.4,3469.5,1371.6,3468.8,1338.6"/>
			</g>
		</g>
		<g>
			<polygon class="st45" points="3116.4,1111.3 3158.5,1063 3258.4,1064 3216.3,1112.2 			"/>
		</g>
		<g>
			<polygon class="st46" points="3216.3,1112.2 3258.4,1064 3263.5,1288 3221.4,1336.2 			"/>
		</g>
		<g>
			<polygon class="st46" points="3463.7,1114.6 3505.8,1066.3 3510.8,1290.3 3468.8,1338.6 			"/>
		</g>
		<g>
			<polygon class="st45" points="3363.8,1113.6 3405.9,1065.4 3505.8,1066.3 3463.7,1114.6 			"/>
		</g>
		<g>
			<path class="st52" d="M3463.7,1114.6l5.1,224c0.7,33-5.6,61.8-19,86.5c-13.5,24.7-33,43.6-58.8,56.8
				c-25.7,13.2-56.1,19.6-91,19.2c-34.9-0.3-65.8-7.3-92.5-21c-26.7-13.7-47.5-33-62.4-57.9c-14.9-25-22.8-53.9-23.5-86.9l-5.1-224
				l99.9,0.9l5.1,224c0.5,23.9,8.1,43.2,22.6,57.8c14.5,14.6,32.7,22.1,54.5,22.3c21.5,0.2,38.7-6.8,51.7-21
				c13-14.2,19.2-33.4,18.6-57.7l-5.1-224L3463.7,1114.6z"/>
		</g>
	</g>
	<g class="st31">
		<g>
			<polygon class="st46" points="3641.2,1407.6 3683.3,1359.4 3626.9,1448.5 3584.8,1496.8 			"/>
		</g>
		<g>
			<polygon class="st29" points="3704.2,1347.3 3746.3,1299.1 3849.6,1450.6 3807.5,1498.9 			"/>
		</g>
		<g>
			<polygon class="st45" points="3477.7,1201.7 3519.8,1153.4 3631.1,1154.5 3589,1202.7 			"/>
		</g>
		<g>
			<polygon class="st46" points="3589,1202.7 3631.1,1154.5 3680.5,1237.6 3638.4,1285.8 			"/>
		</g>
		<g>
			<polygon class="st46" points="3794.3,1204.7 3836.4,1156.4 3746.3,1299.1 3704.2,1347.3 			"/>
		</g>
		<g>
			<polygon class="st45" points="3687.9,1203.7 3730,1155.4 3836.4,1156.4 3794.3,1204.7 			"/>
		</g>
		<g>
			<polygon class="st49" points="3794.3,1204.7 3704.2,1347.3 3807.5,1498.9 3695.6,1497.8 3641.2,1407.6 3584.8,1496.8 
				3477.8,1495.7 3574.8,1346.1 3477.7,1201.7 3589,1202.7 3638.4,1285.8 3687.9,1203.7 			"/>
		</g>
	</g>
</g>
</svg>
