<?xml version="1.0" encoding="utf-8"?>
<!-- Generator: Adobe Illustrator 21.0.0, SVG Export Plug-In . SVG Version: 6.00 Build 0)  -->
<svg version="1.1" id="Layer_1" xmlns="http://www.w3.org/2000/svg" xmlns:xlink="http://www.w3.org/1999/xlink" x="0px" y="0px"
	 viewBox="0 0 2057.7 1384" style="enable-background:new 0 0 2057.7 1384;" xml:space="preserve">
<style type="text/css">
	.st0{opacity:0.2;fill:#606060;}
	.st1{opacity:0.46;fill:#BCE8ED;}
	.st2{fill:#603501;}
	.st3{fill:#3D2000;}
	.st4{opacity:0.47;fill:#603501;enable-background:new    ;}
	.st5{fill:#FFD599;}
	.st6{fill:#FFEC00;}
	.st7{fill:none;}
	.st8{fill:#512A00;}
	.st9{fill:#301900;}
	.st10{opacity:0.6;fill:#603501;enable-background:new    ;}
	.st11{fill:#7A4000;}
	.st12{fill:#E5E5E5;}
	.st13{fill:#511B00;}
	.st14{fill:#BF750A;}
	.st15{fill:#006CC3;}
	.st16{fill:#E0E0E0;}
	.st17{fill:#C3C7CB;}
	.st18{opacity:0.5;fill:#006CC3;enable-background:new    ;}
	.st19{fill:#FFFFFF;}
	.st20{fill:#824400;}
	.st21{fill:#DBDBDB;}
	.st22{fill:#003B91;}
	.st23{fill:#262626;}
	.st24{fill:#7F7C79;}
	.st25{fill:#565656;}
	.st26{fill:#E86F5B;}
	.st27{fill:none;stroke:#BC4B42;stroke-width:1.0182;stroke-miterlimit:10;}
	.st28{fill:#999999;}
	.st29{fill:#E8E8E8;}
	.st30{fill:#C0DDD8;}
	.st31{fill:#C7C7C7;}
	.st32{fill:#ADC9C4;}
	.st33{enable-background:new    ;}
	.st34{clip-path:url(#SVGID_2_);enable-background:new    ;}
	.st35{fill:#C8C8C8;}
	.st36{fill:#CACACA;}
	.st37{fill:#CCCCCC;}
	.st38{fill:#CFCFCF;}
	.st39{fill:#D1D1D1;}
	.st40{fill:#D3D3D3;}
	.st41{fill:#D6D6D6;}
	.st42{fill:#D8D8D8;}
	.st43{fill:#DADADA;}
	.st44{fill:#DCDCDC;}
	.st45{fill:#DFDFDF;}
	.st46{clip-path:url(#SVGID_4_);enable-background:new    ;}
	.st47{fill:#DDDDDD;}
	.st48{fill:#C6C6C6;}
	.st49{fill:#7896EA;}
	.st50{clip-path:url(#SVGID_6_);enable-background:new    ;}
	.st51{fill:#FC466B;}
	.st52{clip-path:url(#SVGID_8_);enable-background:new    ;}
	.st53{clip-path:url(#SVGID_10_);enable-background:new    ;}
	.st54{fill:#5986EA;}
</style>
<ellipse class="st0" cx="1722" cy="1193.7" rx="166.3" ry="30.3"/>
<ellipse class="st0" cx="990.6" cy="1232" rx="823.2" ry="63.8"/>
<path class="st1" d="M120.5,1120.4h1819.2c0,0,443.4-1204-948-1016.4C-165,260,120.5,1120.4,120.5,1120.4z"/>
<g>
	<g>
		<path class="st2" d="M1766.7,1147l-3,12.1c0,0-16,21.1-20,22.1s-8,3-10,10.1s0,13.1,0,13.1s14,8,53,0c0,0,7-17.1,21-23.1l8-8
			c0,0,4-15.1-3-26.2L1766.7,1147L1766.7,1147z"/>
		<path class="st3" d="M1732.8,1202c0,0-4.1,7.3-0.1,9.4c4,2,26,7,53,0l3-2c0,0,12-25.1,19-23.1s9-13.1,9-13.1l-0.3-5
			c0,0-0.7,4-7.7,8s-20,19.1-23,26.2C1785.7,1202.3,1760.9,1212.8,1732.8,1202z"/>
		<path class="st4" d="M1769.7,1153c0,0-2,23.1-16,26.2l4,7l21-1c0,0,16-10.1,16-18.1s0-14.7,0-14.7L1769.7,1153z"/>
	</g>
	<path class="st5" d="M1873.7,795.7l-28.6-34l20.1-16.9l20,23.8c4.7,5.6,4,14-1.6,18.8L1873.7,795.7z"/>
	
		<rect x="1594.3" y="752.8" transform="matrix(0.5389 -0.8423 0.8423 0.5389 98.1715 1714.6284)" class="st5" width="42.2" height="29.6"/>
	<path class="st6" d="M1873.8,747.6l-55-55c-2.2-6.2-8-10.6-15-10.6h-140.2c-4.3,0-8.1,1.7-11,4.4l-0.1-0.1l-1,1.3
		c-0.4,0.5-0.8,1-1.1,1.5l-47.8,62.7l28.6,21.8l16.5-21.6v196h172V744l28.8,28.8L1873.8,747.6z"/>
	<g>
		<path class="st7" d="M1695.8,1190.2h1C1696.5,1190.2,1696.2,1190.2,1695.8,1190.2z"/>
		<g>
			<path class="st8" d="M1696.8,1190.2h18.8c3.1-7.9,2.5-18.7-0.2-26.8c-2.6-7.9-7-14.8-11.6-21.3c0,0.1-0.1,0.1-0.1,0.2l-3.1-3
				c0,0,0.1-0.2,0.4-0.6c-0.3-0.3-0.7-0.5-1.1-0.7c-1.2-0.5-2.4-0.4-3.7-0.4c-9.2,0.5-18.4,1.1-27.6,1.6c0.7,4.1,1.5,11.8-0.6,16.6
				c-3,6.9-18.8,13.7-18.8,13.7s-22.8,5.7-31.7,1.1c-4-2-6-5.2-7-8.1c-4.5-0.2-9.4,2.9-12.6,7.5c-2.8,4-3.7,9.2-3.4,14.3
				c0.1,2,0.4,4.1,1.4,5.7l0,0h79c0.9-0.3,1.8-0.5,2.6-0.9c2.9-1.2,6-3.2,8.9-2.1c1.8,0.7,3.2,2.4,4.9,3h4.4
				C1696.2,1190.2,1696.5,1190.2,1696.8,1190.2z"/>
		</g>
		<g>
			<path class="st2" d="M1625.1,1163.3c0.6-0.1,1.2-0.2,1.8-0.3C1626.4,1163.1,1625.7,1163.2,1625.1,1163.3z"/>
		</g>
		<g>
			<path class="st2" d="M1610.5,1162.7c0.3,0,0.7,0,1,0.1C1611.2,1162.7,1610.9,1162.7,1610.5,1162.7z"/>
		</g>
		<g>
			<path class="st2" d="M1651.6,1147.4L1651.6,1147.4c-0.8,1.1-1.6,2.1-2.5,3.1l0,0C1650,1149.5,1650.8,1148.5,1651.6,1147.4z"/>
		</g>
		<g>
			<path class="st2" d="M1644.4,1155.1c0.5-0.4,1-0.8,1.5-1.3C1645.4,1154.3,1644.9,1154.7,1644.4,1155.1z"/>
		</g>
		<polygon class="st9" points="1696.8,1190.2 1695.8,1190.2 1691.4,1190.2 1690.9,1190.2 1690.9,1200.1 1716.6,1200.1 
			1716.6,1190.2 1715.6,1190.2 		"/>
		<polygon class="st9" points="1593.7,1190.2 1593.7,1200.1 1676,1200.1 1676,1190.2 1675,1190.2 1595.9,1190.2 		"/>
		<path class="st10" d="M1641.2,1157.5c-0.3,0.2-0.7,0.5-1.1,0.7C1640.5,1158,1640.8,1157.7,1641.2,1157.5L1641.2,1157.5z"/>
		<path class="st10" d="M1627,1163c1-0.2,2-0.4,2.9-0.6C1628.9,1162.6,1627.9,1162.8,1627,1163z"/>
		<path class="st10" d="M1610.5,1162.7L1610.5,1162.7L1610.5,1162.7z"/>
		<path class="st10" d="M1638.7,1159c-0.9,0.5-1.8,0.9-2.8,1.4l0,0C1636.9,1159.9,1637.8,1159.5,1638.7,1159z"/>
		<path class="st10" d="M1668.6,1139.4L1668.6,1139.4c-3.6,0.2-7.3,0.4-10.9,0.6l0,0C1661.3,1139.8,1665,1139.6,1668.6,1139.4z"/>
		<path class="st10" d="M1616.8,1163.4c1.1,0.1,2.3,0.1,3.4,0.1C1619.1,1163.5,1617.9,1163.5,1616.8,1163.4z"/>
		<path class="st10" d="M1654.7,1142.7L1654.7,1142.7c-0.4,0.7-0.8,1.4-1.2,2l0,0C1653.9,1144,1654.3,1143.4,1654.7,1142.7z"/>
		<path class="st10" d="M1632.7,1161.6c-0.9,0.3-1.9,0.6-2.8,0.8C1630.9,1162.2,1631.8,1161.9,1632.7,1161.6L1632.7,1161.6z"/>
		<path class="st10" d="M1644.4,1155.1c-0.2,0.2-0.4,0.3-0.6,0.5l0,0C1644,1155.4,1644.2,1155.3,1644.4,1155.1z"/>
		<path class="st10" d="M1646.9,1152.9c-0.3,0.3-0.7,0.6-1,1C1646.2,1153.5,1646.6,1153.2,1646.9,1152.9L1646.9,1152.9z"/>
		<g>
			<path class="st2" d="M1617.5,1170.8c8.9,4.6,31.7-1.1,31.7-1.1s15.9-6.9,18.8-13.7c2.1-4.8,1.2-12.5,0.6-16.6
				c-3.6,0.2-7.3,0.4-10.9,0.6c0.7,0.4,1.5,0.8,2,1.1c0.1,0,0.3-0.1,0.4-0.1c1.1,0,2,1,2,2.3c0,1.3-0.9,2.3-2,2.3
				c-0.9,0-1.6-0.7-1.9-1.6c-0.5-0.7-2.6-1.2-3.6-1.3c-0.4,0.7-0.8,1.4-1.2,2c1,0.3,2.8,2.5,3.6,3.5c0.7,0.4,1.1,1.1,1.1,2.1
				c0,1.3-0.9,2.3-2,2.3s-2-1-2-2.3c0-0.2,0-0.5,0.1-0.7c-0.6-0.8-2-1.7-2.7-2.2c-0.8,1.1-1.6,2.1-2.5,3.1c0.8,0.6,1.8,2.1,2.4,3.2
				c0.9,0.2,1.6,1.1,1.6,2.2c0,1.3-0.9,2.3-2,2.3s-2-1-2-2.3c0-0.1,0-0.2,0-0.3c-0.3-0.8-1.6-2.1-2.4-2.8c-0.3,0.3-0.7,0.6-1,1
				c-0.5,0.4-1,0.9-1.5,1.3c-0.2,0.2-0.4,0.3-0.6,0.5c1.1,1.4,2.2,3.8,2.2,3.8s-0.1,0-0.1,0.1c0.8,0.3,1.4,1.1,1.4,2.2
				c0,1.3-0.9,2.3-2,2.3s-2-1-2-2.3c0-0.3,0.1-0.6,0.1-0.9c-0.1,0-0.1-0.1-0.1-0.3c0-0.8-1.3-2.2-2.1-3c-0.3,0.2-0.7,0.5-1.1,0.7
				c-0.5,0.3-0.9,0.5-1.4,0.8c-0.9,0.5-1.8,0.9-2.8,1.4c0.6,0.8,1.1,1.7,1.5,2.5c1,0.1,1.8,1.1,1.8,2.3c0,1.3-0.9,2.3-2,2.3
				s-2-1-2-2.3c0-0.9-1.9-2.8-2.6-3.5c-0.9,0.3-1.9,0.6-2.8,0.8c-1,0.2-1.9,0.4-2.9,0.6c-0.6,0.1-1.2,0.2-1.8,0.3
				c-1.6,0.2-3.3,0.3-4.9,0.3c-1.1,0-2.3,0-3.4-0.1c-1.7-0.1-3.5-0.3-5.2-0.6c-0.3-0.1-0.7-0.1-1-0.1l0,0
				C1611.5,1165.6,1613.5,1168.8,1617.5,1170.8z"/>
		</g>
		<path class="st10" d="M1617.5,1170.8c8.9,4.6,31.7-1.1,31.7-1.1s15.9-6.9,18.8-13.7c2.1-4.8,1.2-12.5,0.6-16.6
			c-3.6,0.2-7.3,0.4-10.9,0.6c0.7,0.4,1.5,0.8,2,1.1c0.1,0,0.3-0.1,0.4-0.1c1.1,0,2,1,2,2.3c0,1.3-0.9,2.3-2,2.3
			c-0.9,0-1.6-0.7-1.9-1.6c-0.5-0.7-2.6-1.2-3.6-1.3c-0.4,0.7-0.8,1.4-1.2,2c1,0.3,2.8,2.5,3.6,3.5c0.7,0.4,1.1,1.1,1.1,2.1
			c0,1.3-0.9,2.3-2,2.3s-2-1-2-2.3c0-0.2,0-0.5,0.1-0.7c-0.6-0.8-2-1.7-2.7-2.2c-0.8,1.1-1.6,2.1-2.5,3.1c0.8,0.6,1.8,2.1,2.4,3.2
			c0.9,0.2,1.6,1.1,1.6,2.2c0,1.3-0.9,2.3-2,2.3s-2-1-2-2.3c0-0.1,0-0.2,0-0.3c-0.3-0.8-1.6-2.1-2.4-2.8c-0.3,0.3-0.7,0.6-1,1
			c-0.5,0.4-1,0.9-1.5,1.3c-0.2,0.2-0.4,0.3-0.6,0.5c1.1,1.4,2.2,3.8,2.2,3.8s-0.1,0-0.1,0.1c0.8,0.3,1.4,1.1,1.4,2.2
			c0,1.3-0.9,2.3-2,2.3s-2-1-2-2.3c0-0.3,0.1-0.6,0.1-0.9c-0.1,0-0.1-0.1-0.1-0.3c0-0.8-1.3-2.2-2.1-3c-0.3,0.2-0.7,0.5-1.1,0.7
			c-0.5,0.3-0.9,0.5-1.4,0.8c-0.9,0.5-1.8,0.9-2.8,1.4c0.6,0.8,1.1,1.7,1.5,2.5c1,0.1,1.8,1.1,1.8,2.3c0,1.3-0.9,2.3-2,2.3
			s-2-1-2-2.3c0-0.9-1.9-2.8-2.6-3.5c-0.9,0.3-1.9,0.6-2.8,0.8c-1,0.2-1.9,0.4-2.9,0.6c-0.6,0.1-1.2,0.2-1.8,0.3
			c-1.6,0.2-3.3,0.3-4.9,0.3c-1.1,0-2.3,0-3.4-0.1c-1.7-0.1-3.5-0.3-5.2-0.6c-0.3-0.1-0.7-0.1-1-0.1l0,0
			C1611.5,1165.6,1613.5,1168.8,1617.5,1170.8z"/>
		<path class="st11" d="M1635.3,1165.1c0-1.3,0.9-2.3,2-2.3c0.1,0,0.1,0,0.2,0c-0.4-0.8-1-1.7-1.5-2.5l0,0c-0.6-0.8-1.2-1.4-1.6-1
			c-1,1.1-1.9,2-1.9,2s0.1,0.1,0.3,0.2l0,0C1633.4,1162.3,1635.3,1164.1,1635.3,1165.1z"/>
		<path class="st11" d="M1643.3,1160.5c0,0.2,0.1,0.2,0.1,0.3c0.3-0.8,1-1.4,1.8-1.4c0.2,0,0.4,0,0.6,0.1c0.1-0.1,0.1-0.1,0.1-0.1
			s-1.1-2.4-2.2-3.8l0,0c-0.6-0.8-1.1-1.2-1.5-0.8c-1,1.1-1.9,2-1.9,2s0.3,0.3,0.8,0.7l0,0C1642,1158.4,1643.3,1159.7,1643.3,1160.5
			z"/>
		<path class="st11" d="M1649.2,1155.6c0.1-1.1,0.9-2,2-2c0.1,0,0.2,0,0.4,0c-0.6-1.1-1.6-2.6-2.4-3.2l0,0c-0.4-0.3-0.7-0.3-0.9-0.1
			c-1.1,1.1-2,1.9-2,1.9s0.3,0.2,0.6,0.6l0,0C1647.7,1153.6,1649,1154.8,1649.2,1155.6z"/>
		<path class="st11" d="M1654.3,1149.5c0.3-0.9,1-1.6,1.9-1.6c0.3,0,0.6,0.1,0.8,0.2c-0.7-1-2.5-3.2-3.6-3.5l0,0
			c-0.2-0.1-0.5,0-0.6,0.2c-0.9,1.3-1.7,2.2-1.7,2.2s0.2,0.1,0.5,0.3l0,0C1652.3,1147.9,1653.7,1148.8,1654.3,1149.5z"/>
		<path class="st11" d="M1658.2,1144c-0.1-0.2-0.1-0.4-0.1-0.6c0-1.1,0.7-2,1.6-2.2c-0.5-0.3-1.3-0.8-2-1.1l0,0
			c-1.2-0.6-2.3-0.9-2.5-0.2c-0.5,1.6-1,2.8-1,2.8s0.2,0,0.5,0.1l0,0C1655.6,1142.9,1657.7,1143.3,1658.2,1144z"/>
		<path class="st9" d="M1703.7,1142.4c0-0.1,0.1-0.1,0.1-0.2c2.1-5.3,8.8-4.5,8.8-4.5s1-4.6-3-5.7c-3.4-1-7.5,5-8.7,6.8
			c-0.2,0.3-0.4,0.6-0.4,0.6L1703.7,1142.4z"/>
		<path class="st12" d="M1635.3,1165.1c0,1.3,0.9,2.3,2,2.3s2-1,2-2.3c0-1.2-0.8-2.2-1.8-2.3c-0.1,0-0.1,0-0.2,0
			C1636.2,1162.8,1635.3,1163.8,1635.3,1165.1z"/>
		<path class="st12" d="M1649.2,1155.6c0,0.1,0,0.2,0,0.3c0,1.3,0.9,2.3,2,2.3s2-1,2-2.3c0-1.1-0.7-2-1.6-2.2c-0.1,0-0.2,0-0.4,0
			C1650.2,1153.7,1649.4,1154.5,1649.2,1155.6z"/>
		<path class="st12" d="M1654.3,1149.5c-0.1,0.2-0.1,0.4-0.1,0.7c0,1.3,0.9,2.3,2,2.3s2-1,2-2.3c0-0.9-0.5-1.7-1.1-2.1
			c-0.3-0.1-0.5-0.2-0.8-0.2C1655.3,1147.9,1654.5,1148.6,1654.3,1149.5z"/>
		<path class="st12" d="M1658.1,1143.4c0,0.2,0,0.4,0.1,0.6c0.2,0.9,1,1.6,1.9,1.6c1.1,0,2-1,2-2.3c0-1.3-0.9-2.3-2-2.3
			c-0.1,0-0.3,0-0.4,0.1C1658.8,1141.4,1658.1,1142.3,1658.1,1143.4z"/>
		<path class="st12" d="M1643.4,1160.8c-0.1,0.3-0.1,0.6-0.1,0.9c0,1.3,0.9,2.3,2,2.3s2-1,2-2.3c0-1-0.6-1.9-1.4-2.2
			c-0.2-0.1-0.4-0.1-0.6-0.1C1644.4,1159.4,1643.7,1160,1643.4,1160.8z"/>
	</g>
	<circle class="st5" cx="1670.1" cy="576.4" r="13.9"/>
	<path class="st5" d="M1734.2,724L1734.2,724c-11.9,0-21.5-9.6-21.5-21.5V658h43v44.5C1755.7,714.4,1746.1,724,1734.2,724z"/>
	<path class="st5" d="M1734.2,724L1734.2,724c-11.9,0-21.5-9.6-21.5-21.5V658h43v44.5C1755.7,714.4,1746.1,724,1734.2,724z"/>
	<path class="st5" d="M1762.2,676.4h-55.6c-22,0-40-18-40-40V539h135.6v97.4C1802.2,658.4,1784.2,676.4,1762.2,676.4z"/>
	<rect x="1666.6" y="561.6" class="st13" width="3.5" height="35.6"/>
	<path class="st13" d="M1757.4,609.4H1694c-5.5,0-10,3.4-10,7.6v54.4c0,4.2,4.5,7.6,10,7.6h63.4c5.5,0,10-3.4,10-7.6V617
		C1767.4,612.9,1762.9,609.4,1757.4,609.4z M1757,651.9c0,2.7-2.9,4.8-6.4,4.8h-49.8c-3.5,0-6.4-2.2-6.4-4.8v-28.2
		c0-2.7,2.9-4.8,6.4-4.8h49.8c3.5,0,6.4,2.2,6.4,4.8V651.9z"/>
	<path class="st13" d="M1693.8,614.4l-27.2-24.1v46.1c0,18.8,13.1,34.6,30.7,38.9L1693.8,614.4z"/>
	<path class="st13" d="M1763.9,612.9l38.5-27.9v51.3c0,18.8-15,39.1-40.2,40L1763.9,612.9z"/>
	<rect x="1794.4" y="553.8" class="st13" width="11.3" height="22.6"/>
	<circle class="st5" cx="1802.2" cy="580.8" r="13.9"/>
	<rect x="1788.3" y="555.5" class="st13" width="9.6" height="44.3"/>
	<g>
		<path class="st5" d="M1668.8,571.7c14.7,7.1,36.9,11.7,61.8,11.7c31.7,0,59.1-7.4,72-18.1V554h-133.8V571.7z"/>
		<path class="st6" d="M1808.6,543.5c-3.4,16.5-37.8,29.4-79.8,29.4s-76.4-12.9-79.8-29.4C1649,543.5,1808.6,543.5,1808.6,543.5z"/>
		<path class="st6" d="M1811.5,543.5c-3.4-41.4-37.5-73.9-79.2-73.9s-75.8,32.5-79.2,73.9H1811.5z"/>
		<rect x="1649" y="543.5" class="st14" width="166.6" height="10.6"/>
		<rect x="1642.4" y="535.9" class="st14" width="11.4" height="18.2"/>
		<rect x="1810.8" y="535.9" class="st14" width="11.4" height="18.2"/>
		<path class="st14" d="M1691.6,481.2l36.6,35.6l38.1-38.8c-7.1-4.7-20.2-8.3-34.1-8.3C1718.5,469.7,1702.9,475,1691.6,481.2z"/>
		<path class="st6" d="M1727.6,519.7l32.7-39.2c4.6-6,0.3-14.5-7.4-14.5h-50.6c-7.7,0-12,8.6-7.4,14.5L1727.6,519.7z"/>
	</g>
	<rect x="1666.2" y="682" class="st15" width="30.5" height="124"/>
	<rect x="1773.5" y="682" class="st15" width="28.7" height="124"/>
	<path class="st15" d="M1647.7,772v168v29l6.5,174l52.7-1l10.2-160.5c0-6.9,5.2-12.5,11.6-12.5h14.8c6.4,0,11.6,5.6,11.6,12.5
		l10.2,170.5h49.9l4.6-183v-29V772H1647.7z"/>
	<g>
		<path class="st16" d="M1728.2,784.7l1.2,12.4l7.3-1.1l-1.2-12.1c-0.5-4.7,0.2-11.8,0.8-17.3h-0.2c-1.7,2.1-4.5,3.3-7.5,3.1
			c-1.7-0.1-3.2-0.9-4.5-1.8h-0.2C1725.7,773.2,1727.7,780.1,1728.2,784.7"/>
	</g>
	<g>
		<path class="st17" d="M1734.4,754l-1.3,7.5l-0.6,0.3c-2.1,1-4.6,0.5-6.2-1l-0.5-0.4l1.3-7.4c-4.2,1.3-7,5.8-5.8,10.5
			c0.9,3.4,3.9,5.9,7.4,6.3c5.6,0.5,9.9-4.1,9.5-9.4C1737.8,757.7,1736.4,755.4,1734.4,754"/>
	</g>
	<g>
		<path class="st17" d="M1732.6,780.6l2.6-0.3c0-0.8,0-1.6,0.1-2.5c0,0-0.1-0.1-0.2,0l-2.8,0.3c-0.7,0.1-1.2,0.6-1.1,1.3
			C1731.4,780.2,1732,780.7,1732.6,780.6"/>
		<path class="st17" d="M1732.3,775.7l3.3-0.3c0-0.8,0.1-1.7,0.1-2.5h-0.2l-3.5,0.3c-0.7,0.1-1.2,0.6-1.1,1.3
			S1731.6,775.8,1732.3,775.7"/>
	</g>
	<path class="st18" d="M1818.8,940v23.1c-34.2-4.1-34.2-43.1-34.2-43.1h34.2V940z"/>
	<g>
		<path class="st16" d="M1794.3,908.9l-7-2l-2.3,6.7c-1.9,5.5-4.4,10.6-7.9,15.2l0.2,0.1c2.4-1.2,5.4-1.1,7.9,0.4
			c1.5,0.8,2.6,2,3.3,3.5l0.2,0.1c0.2-5.9,1.4-11.3,3.4-16.8L1794.3,908.9z"/>
		<path class="st16" d="M1794.7,886.1l-4.1,11.7l7,2l4-11.3c1.5-4.4,5.1-10.5,7.9-15.2l-0.2-0.1c-2.4,1.2-5.4,1.1-8-0.3
			c-1.5-0.8-2.5-2.2-3.3-3.5l-0.2-0.1C1797.3,874.7,1796.2,881.7,1794.7,886.1"/>
	</g>
	<g>
		<path class="st17" d="M1773.6,941l4.3-6.2h0.7c2.3,0,4.3,1.4,5.2,3.4l0.3,0.5l-4.2,6.2c4.3,0.6,8.7-2.3,9.6-7c0.7-3.4-1-6.9-4-8.7
			c-4.8-2.8-10.6-0.4-12.4,4.5C1772,936.3,1772.2,938.8,1773.6,941"/>
		<path class="st17" d="M1813,861.2l-4.3,6.2h-0.7c-2.3,0-4.3-1.4-5.2-3.4l-0.3-0.5l4.2-6.1c-4.3-0.6-8.7,2.3-9.6,7
			c-0.7,3.4,1,6.9,4,8.7c4.8,2.8,10.6,0.4,12.4-4.5C1814.6,865.9,1814.3,863.2,1813,861.2"/>
	</g>
	<g>
		<path class="st17" d="M1800.4,884.3l2.4,0.9c0.3-0.7,0.7-1.4,1.1-2.2c0,0-0.1-0.1-0.2-0.1l-2.6-0.9c-0.6-0.2-1.3,0.1-1.5,0.7
			C1799.5,883.4,1799.8,884,1800.4,884.3"/>
		<path class="st17" d="M1802.1,879.7l3.1,1.1c0.3-0.7,0.8-1.5,1.1-2.2l-0.2-0.1l-3.2-1.1c-0.6-0.2-1.3,0.1-1.5,0.7
			C1801.2,878.8,1801.5,879.5,1802.1,879.7"/>
	</g>
	<ellipse class="st19" cx="1681.5" cy="776.5" rx="6.5" ry="7"/>
	<ellipse class="st19" cx="1787.8" cy="776.5" rx="6.5" ry="7"/>
	<path class="st18" d="M1673.6,796.9v64.5c0,9.7,7.3,17.6,16.3,17.6h89.5c9,0,16.3-7.9,16.3-17.6v-64.5H1673.6z"/>
	<rect x="1647.7" y="891" class="st2" width="172" height="21"/>
	<rect x="1655.1" y="888" class="st20" width="18.5" height="27.6"/>
	<rect x="1682.8" y="888" class="st20" width="18.5" height="27.6"/>
	<rect x="1792.9" y="888" class="st20" width="18.5" height="27.6"/>
	<rect x="1765.1" y="888" class="st20" width="18.5" height="27.6"/>
	<path class="st21" d="M1716.6,890v23h32.3v-23H1716.6z M1720,910.6v-18.2h23.1v7.6h-18.6v3h18.6v7.6H1720z"/>
	<path class="st18" d="M1647.7,940v23.1c34.2-4.1,34.2-43.1,34.2-43.1h-34.2V940z"/>
	<path class="st18" d="M1698.6,988c0,23,0,144,0,144h8.3l9.5-146.5c0,0,0.2-0.5,0.5-1.4l0.2-2.6c0-5.3,3-9.8,7.3-11.6
		c0.3-0.2,0.5-0.3,0.8-0.3C1725.2,969.6,1698.6,965,1698.6,988z"/>
	<rect x="1647.7" y="1132" class="st22" width="63" height="16"/>
	<rect x="1757.7" y="1142" class="st22" width="63" height="16"/>
	<rect x="1732.8" y="913" class="st18" width="4.6" height="56"/>
	
		<rect x="1622.4" y="757.1" transform="matrix(0.7646 -0.6445 0.6445 0.7646 -136.6096 1244.3997)" class="st5" width="25.7" height="104.2"/>
	<path class="st5" d="M1687.9,832.2l-16.2,5.2c-1.8,0.6-3.8-0.4-4.4-2.3l0,0c-0.6-1.8,0.4-3.8,2.3-4.4l16.2-5.2
		c1.8-0.6,3.8,0.4,4.4,2.3l0,0C1690.7,829.6,1689.7,831.6,1687.9,832.2z"/>
	<path class="st23" d="M1717.8,775.6l-14.5-4.5l-1.7,5.4l2.6,0.8l-23.6,76.7c-0.8,2.6,0.6,5.4,3.1,6.2s5.3-0.7,6.1-3.3l23.6-76.7
		l2.6,0.8L1717.8,775.6z"/>
	<path class="st5" d="M1696.8,845.8c1.2,0.4,2.5-0.3,2.9-1.5l0.6-1.8c0.4-1.2-0.3-2.5-1.5-2.9l-10.3-3.2c-1.8-1.6-4-2.8-6.6-3.4
		l-8.5-2c-8.1-1.9-16.8,3-19.3,10.9l0,0c-2.5,7.9,2.1,16,10.2,17.9l8.6,2.1c0.1,0.1,0.3,0.1,0.4,0.2l16.6,5.2
		c1.2,0.4,2.5-0.3,2.9-1.5l0.6-1.8c0.4-1.2-0.3-2.5-1.5-2.9l-4.6-1.4c0.3-0.3,0.7-0.5,1-0.8l3.9,1.2c1.2,0.4,2.5-0.3,2.9-1.5
		l0.6-1.8c0.4-1.2-0.3-2.5-1.5-2.9l-1.9-0.6c0.1-0.3,0.3-0.7,0.4-1l1.9,0.6c1.2,0.4,2.5-0.3,2.9-1.5l0.6-1.8
		c0.4-1.2-0.3-2.5-1.5-2.9l-3.2-1c0-0.4-0.1-0.8-0.2-1.2L1696.8,845.8z"/>
	<path class="st24" d="M1749.3,720.4l-6.2,9.2c-1.1,1.7-2.6,3-4.5,3.7c-2.8,0.9-3.6,0.3-5.3,2.9c-0.5,0.7-0.2,1.8,0.5,2.3
		s1,1.4,0.5,2.1l-3.9,6.3c-1,1.5-2.8,1.9-4.3,0.9l-13.3-8.5c-1.5-1-1.9-2.8-0.9-4.3l4.2-6.5c0.5-0.7,1.4-1,2.1-0.5s1.7,0.3,2.1-0.5
		c1.5-2.6,0.6-3,0.4-6c-0.1-1.9,0.4-4,1.5-5.6l4.3-6.7c2.4-3.7,3.6-5.6,7.1-8.1c8-6.1,17.2-6.8,30.6-4.1
		c-8.1,1.8-12.4,1.9-18.1,10.7C1743.3,712.2,1745,717.6,1749.3,720.4"/>
	<path class="st25" d="M1742.4,730.7l77.4,55c2.2,1.4,5.2,1,6.6-1.3l1.7-2.6c1.5-2.1,0.6-5.1-1.6-6.6l-77.2-54.9L1742.4,730.7z"/>
	<g>
		<path class="st24" d="M1802,759.2c0.1-0.2,0.1-0.3,0.1-0.3l-2.3-1.7c-0.2,0-0.3,0.2-0.4,0.4l-2.5,3.9c-0.5,0.7-0.3,1.7,0.5,2.1
			c0.4,0.2,0.7,0.3,1.2,0.2c0.3-0.1,0.7-0.3,1-0.7L1802,759.2"/>
		<path class="st24" d="M1807.3,762.5C1807.4,762.5,1807.4,762.5,1807.3,762.5l-2.5-1.9l-0.1,0.2l-2.5,3.9c-0.5,0.7-0.3,1.7,0.5,2.1
			c0.4,0.2,0.7,0.3,1.2,0.2c0.3-0.1,0.7-0.3,1-0.7L1807.3,762.5"/>
	</g>
	
		<rect x="1811.3" y="712" transform="matrix(0.2897 -0.9571 0.9571 0.2897 561.2946 2291.332)" class="st5" width="26.3" height="111"/>
	<path class="st5" d="M1789.8,749.2l-21.9-15.8c-1.8-1.3-2.2-3.8-0.9-5.6l0,0c1.3-1.8,3.8-2.2,5.6-0.9l21.9,15.8
		c1.8,1.3,2.2,3.8,0.9,5.6l0,0C1794.1,750.1,1791.6,750.5,1789.8,749.2z"/>
	<path class="st5" d="M1787.5,767l-26.4,5c-2.9,0.5-5.7-1.4-6.2-4.3L1751,747c-0.5-2.9,1.4-5.7,4.3-6.2l26.4-5
		c2.9-0.5,5.7,1.4,6.2,4.3l3.9,20.7C1792.3,763.6,1790.4,766.4,1787.5,767z"/>
	<polygon class="st5" points="1767.7,730 1773.5,730 1781.7,736 1772.7,737 1766.6,731.7 	"/>
	<g>
		<rect x="1744.8" y="785.1" class="st12" width="3.2" height="11.9"/>
		<path class="st26" d="M1747.3,787.5h-2c-2,0-3.6-1.6-3.6-3.6v-36.4c0-2,1.6-3.6,3.6-3.6h2c2,0,3.6,1.6,3.6,3.6v36.4
			C1750.9,785.9,1749.3,787.5,1747.3,787.5z"/>
		<line class="st27" x1="1746.4" y1="747.2" x2="1746.4" y2="785.5"/>
	</g>
	<polygon class="st5" points="1676.7,833 1688.5,828.4 1687.9,832.2 1681.5,834.3 	"/>
</g>
<g>
	<path class="st28" d="M150.7,2312.6c68.2,7.7,137,8.3,205.7,9c30.8,0.3,61.6,0.6,92.4,0.8c85.8,0.8,171.5,1.6,257.3,2.3
		c35.5,0.3,71,0.6,106.5-0.5c76.1-2.4,151.8-11.5,227.5-19.3c-102-4.5-203.9-9-305.9-13.4c-82.5-3.6-165.2-7.3-247.8-5.4
		c-110.9,2.5-221.3,14.8-331.5,27.1"/>
	<path class="st28" d="M-535.9,2323.9c31.7,1.4,63.4,2.8,95.1,4.2c24.5,1.1,49,2.1,73.4,0c27.7-2.5,54.8-9.1,82.1-14.3
		c108-20.5,218.7-18.9,328.6-17.2c1.4,3.6,2.8,7.3,4.2,10.9c-79.7,32.9-171.4,21-253.5,47.3c-20.7,6.6-40.7,15.7-61.9,20.6
		c-24,5.6-49,5.9-73.7,4.7c-73.9-3.3-146.7-18.5-219.2-33.5c-2.5-0.5-5.2-1.1-7-2.9c-5.8-5.8,2.3-14.9,9.7-18.5
		c24.1-11.6,50.7-17.9,77.4-18.3"/>
	<path class="st28" d="M416.9,2173.8c-18.3,2.4-38.1-0.7-52.2-12.5c-14.1-11.7-20.9-30.5-22.4-48.8s1.4-36.7,3.5-54.9
		c7-61.6,3.3-123.8-0.3-185.6c-0.6-9.5-2-20.3-7.1-27.6c-0.1-0.2-0.2-0.4-0.3-0.5c-1.4-1.8-2.9-3.4-4.8-4.8
		c-0.6-1.3-1.6-2.5-2.7-3.3c-3.6-2.5-8.4-2.6-12.8-2.5c-19,0.4-37.9,1.6-56.8,3.8c-15.6,1-31.2,4-44.7,11.3
		c-0.8,0.1-1.7,0.1-2.5,0.3c-4.1,0.7-8.2,2.5-10.9,5.6c-0.3,0-0.5,0-0.8-0.1v1.1c-0.6,0.8-1.1,1.7-1.4,2.6l1-1.3
		c1,11,3.2,23.9,13.1,28.9c3.8,1.9,8.1,2.3,12.3,2.5c26.4,1.2,53-3.4,77.4-13.5c3.7-1.5,7.5-3.4,10.8-5.7
		c-0.7,67.7-1.4,135.4-2.1,203.1c-0.4,36.5,0.4,76.5,23.6,104.6c17.1,20.7,45.3,31.5,71.9,27.6c26.5-4,50.4-22.6,60.7-47.3
		C452.3,2164,435.1,2171.4,416.9,2173.8z"/>
	<path class="st28" d="M491,1851.2c-2.6-0.6-5.3,1.2-6.5,3.6s-1.2,5.2-1.1,7.9c0.3,5.2,1.4,10.3,3.1,15.2c1.1,3.2,2.6,6.4,5.4,8.2
		c2.9,1.9,6.5,2,10,1.9c9.6-0.2,19.4-1.4,27.7-6.1c6.1-3.5,11.5-10.3,9.6-17.1c-1.8-6.3-8.8-9.3-15.1-11
		c-10.2-2.8-20.7-4.5-31.3-4.9c-2.2-0.1-4.5-0.1-6.3,1.2c-1.8,1.3-2.5,4.2-0.7,5.6"/>
	<path class="st28" d="M141.2,1951.6c-1.1,15.5,1.9,31.1,2.3,46.7c0.3,13.3-1.2,26.6-2.4,39.9c-8,84.6-5.8,170.2,6.8,254.2
		c4.9,1.6,10.3-1.6,12.9-6.1s3-9.8,3.3-14.9c0.6-8.6,1.1-17.2,1.7-25.8c0.8-11.7,1.5-23.4,0.7-35c-0.8-12.5-3.4-24.9-5.3-37.3
		c-11-71.5,1-144.7-6.3-216.6c-0.3-3.1-0.7-6.4-2.6-8.9c-1.9-2.5-5.7-3.9-8.3-2c-2.7,2-2.8,6.5-5.7,7.9"/>
	<path class="st28" d="M63,1804.2c13.4-4.8,27.7-7.1,41.9-6.6c5.6,0.2,11.5,0.9,16.2,4c3.6,2.4,6.2,6.1,9.7,8.6
		c5.1,3.7,12,4.8,16.5,9.2c4.6,4.5,5.7,11.3,6.5,17.7c1.5,11.5,3.1,23,4.6,34.4c0.7,5.2,1.4,10.5,0.8,15.7
		c-1.3,11.1-8.4,20.8-17,27.9c-8.6,7.1-18.8,11.9-28.7,17.2c-1.5,0.8-3,1.6-4,3c-3.5,4.7,1.3,11.8-1,17.2"/>
	<g>
		<path class="st28" d="M-109.4,1755.6c22.6-0.9,45.2-1.8,67.8-1c2.3,0.1,4.6,0.2,6.8-0.6c2.3-0.8,4.1-2.3,6-3.7
			c5.5-4,11.9-6.8,18.1-9.5c-18.9-3.8-38.4,0-57.6,0.1c-28.9,0.1-59.3-7.9-85.9,3.5c-4.4,1.9-8.7,4.4-12.1,7.8
			c-2.3,2.3-4.1,5.1-5.3,8.1l1.7-2.3C-149.7,1757.1-129.6,1756.3-109.4,1755.6z"/>
		<path class="st28" d="M-10.7,1740.9l-136.3,15.3l-7.6,506.2l-144.9,36.6c36.5,11.3,75.7,6.7,113.6,1.7c22.9-3,46.1-6.2,67.7-14.4
			c42.4-16,76.9-51.5,91.6-94.4c10.6-30.9,11.2-64.2,11.7-96.8c1.4-93.7,2.7-187.4,4.1-281.1C-10.5,1789.6-10.2,1765.3-10.7,1740.9z
			"/>
	</g>
	<path class="st28" d="M38.7,1954.9c4.1-7.5,13.2-11,21.8-11.4c8.6-0.4,17.1,1.5,25.6,1.8c21.9,0.7,45.2-9.3,65.1,0.1
		c-5,7-14.7,8.1-23.3,8.5c-16.5,0.9-33,1.7-49.4,2.6c-14.1,0.7-28.6,1.4-42-3.1"/>
	<path class="st28" d="M152.3,1945.7c8.8,23.7,7.6,49.7,6.3,74.9c-1.5,28.4-3,56.7-4.4,85.1c-0.9,16.7-1.7,33.6,1.7,49.9
		c2.4,11.4,6.7,22.2,9.4,33.5c6,25.4,3.1,51.9,0.2,77.8c-0.7,5.9-1.4,12.1-4.7,17c-3.3,4.9-10.1,8-15.4,5.2
		c-13.6-70.7-10.9-143.3-8.1-215.2c1.6-41,3.2-82.1,4.8-123.1"/>
	<path class="st28" d="M483.2,1856.1c5.8-11.5,20.9-13.7,33.7-14.5c12.1-0.7,24.3-1.5,36.4-2.2c20.8-1.3,42.1-2.5,62.3,3
		c-23.1,12.5-50.5,13.2-76.7,13.6c-17,0.2-34,0.5-50.9,0.7"/>
	<path class="st28" d="M615.7,1843c-18.2,74.1-5.6,216.8-9.6,321.7c-0.7,17.8-1.5,35.9-7.3,52.7c-9.1,26.4-30.2,47.7-54.9,60.7
		s-52.8,18.5-80.7,20c-22.4,1.2-51.5-18.4-52.6,2.4l65.8-116.3l37.2-327L615.7,1843z"/>
	<path class="st28" d="M615.9,1952.5c-1.1-2.6-1.1-5.7,0-8.3c41.7-2.7,83.5-5.4,125.2-8.2c6.1-0.4,13.3-0.4,17.2,4.3
		c-8.6,2.5-16.7,6.7-23.7,12.3c12.8,33.7,30.7,65.5,52.8,94c1,1.3,2.1,2.8,2.1,4.4c0,1.6-1.8,3.3-3.3,2.6c-1.5-0.8,0.1-3.7,1.3-2.6"
		/>
	<path class="st28" d="M755.9,1943.7c10.3,15.8,20.6,31.5,30.9,47.3c6,9.2,12.2,18.8,13.7,29.8c1.5,10.9-3.2,23.5-13.4,27.6"/>
	<g>
		<path class="st28" d="M-208.6,2150.3c-13.3,6.4-27.7,11.5-42.4,11.5c-16.3,0-31.8-6.1-46.9-12.1c-13.9-5.5-28.9-12-35.9-25.2
			c-3.6-6.9-4.5-14.7-5.4-22.4c-3.4-30-6.6-60.1-9.6-90.2c-1.7-17.2-3.3-34.5-2.5-51.8c0.6-13.3,2.7-26.5,3.5-39.8
			c2.4-38.6-5.7-77.4-1.7-115.8c1.6-15.3,5.1-30.7,2.7-45.8c-0.2-1-0.4-2.1-1-2.9c0.8-1.7-0.2-4.3-2-5.4c-0.1-0.2-0.1-0.4-0.2-0.5
			c0.7-0.1,1.4-0.3,2.1-0.4c-9.2-7-21.7-7.5-33.2-7.4c-38.7,0.2-77.4,4-115.4,11.2c-1.7,1.2-3.3,2.5-4.8,3.8
			c13.7,0.8,27.4,1.5,41.1,2.3c10,0.6,19.9,1.1,29.9,1c8.6-0.1,17.2-0.7,25.8-1.6c5,0.9,9.9,1.8,14.9,2.7c4.2,0.8,8.4,1.5,12.7,1.9
			c3.2,42.9-4.4,86-2.8,129c0.7,19,3.3,37.9,4.4,56.9c2.2,37.8-1.4,75.7-0.2,113.5c0.9,28.9,5.1,59,21.8,82.5
			c13.8,19.5,35.4,32.9,58.6,38.4s47.9,3.4,70.5-4.2c6.6-2.2,13-4.9,18.9-8.5c16.4-10.2,27.8-28.1,30-47.2
			C-183,2135.9-195.7,2144-208.6,2150.3z"/>
	</g>
	<g>
		<path class="st28" d="M59.7,1914.2c3.3,4.5,8.1,6.3,13.5,7.1c8.4,1.2,17,1.2,25.4,1.6c-0.5-0.3-0.9-0.7-1.4-1
			c2.8,8,5.1,16.2,6.9,24.5c0.3-0.6,0.7-1.2,1-1.8c-3,0.7-6,1.3-9,1.9c-1.8,0.3-9.1,2.5-10.5,1.6c-1.9-1.3,0.3-4.4,0.5-6
			c0.2-1.6,0-3.2-0.4-4.7c-2.5-8.5-11.7-15-18.9-19.2c-1.6-0.9-3,1.6-1.4,2.5c5.7,3.2,11.3,7.4,15.1,12.8c1.8,2.6,3.5,6,2.7,9.2
			c-0.5,1.8-2,3.4-1.8,5.3c0.3,3.4,3.5,3.1,6.1,2.8c6.2-0.8,12.4-2,18.4-3.4c0.8-0.2,1.2-1,1-1.8c-1.7-8.3-4-16.5-6.9-24.5
			c-0.2-0.6-0.7-1-1.4-1c-6.7-0.4-13.4-0.7-20.1-1.2c-5.9-0.4-12.6-0.9-16.4-6.1C61.1,1911.3,58.6,1912.7,59.7,1914.2L59.7,1914.2z"
			/>
	</g>
	<path class="st28" d="M64.4,1919.9c8.1,4.1,13.9,12.6,14.7,21.6c0.1,1.6,0.2,3.3,1.3,4.4c0.9,0.9,2.3,1.2,3.5,1.4
		c4.2,0.8,8.6,1.4,12.8,0.7c4.2-0.8,8.4-3.2,10.1-7.2c2.4-5.7-1.2-12.4-6.4-15.7c-5.2-3.3-11.6-3.9-17.7-4.5c-6-0.5-12-1.1-18-1.6"
		/>
	<g>
		<path class="st29" d="M-168.7,1757.4v314.2c0,34.1-9.3,61.1-27.8,81.2c-18.6,20.1-42.8,30.1-72.8,30.1
			c-30.5,0-55.7-10.2-75.5-30.5s-29.7-47.3-29.7-80.8v-314.2h-127.6c-1.5,1.3-3,2.6-4.4,4c-1.5,1.7-3.1,3.4-4.6,5.1
			c-0.7,0.9-1.4,1.8-2.1,2.7c-0.3,0.6-0.7,1.2-1,1.8v300.5c0,35.7,6,68.1,18,97c6.8,3.7,14.8,5.9,21.1,9.5
			c10.4,5.9,14.6,15.1,10,26.5c-0.2,0.6-0.6,1-1,1.3c0.1,1.7,0.2,3.4,0.2,5.2c0.3,1.2,0.6,2.4,0.8,3.6c0.2,1,0,1.7-0.5,2.3
			c0.1,1.2,0.3,2.3,0.5,3.5c0,0.1,0,0.2,0,0.3c17.8,21.8,40,39.5,66.5,53c36.9,18.8,79.7,28.2,128.5,28.2s91.4-9.4,127.7-28.2
			c36.3-18.8,64.3-45.6,83.9-80.5c19.6-34.8,29.4-75.4,29.4-121.6v-314.2H-168.7z"/>
		<path class="st29" d="M33.6,1960.9c0.2,0.4,0.4,0.8,0.4,1.3c0.8,24.5,1.5,48.9,0.5,73.3c1.2,0.1,2.4,0.9,2.4,2.5
			c0,11.5-0.9,22.7-3.3,33.8V2292h109.7v-335.2H33.6V1960.9z"/>
		<path class="st12" d="M87.5,1920.2c16.9,0,30.9-5.6,41.8-16.7c10.9-11.2,16.4-25.2,16.4-42.1c0-17.4-5.5-31.5-16.4-42.4
			s-24.9-16.4-41.8-16.4c-16.9,0-30.9,5.5-41.8,16.4c-10.9,11-16.4,25.1-16.4,42.4c0,16.9,5.5,31,16.4,42.1
			C56.6,1914.6,70.6,1920.2,87.5,1920.2z"/>
		<path class="st30" d="M339.1,2178.6c16.1,16.5,36.6,24.8,61.3,24.8c24.4,0,44.1-8.2,59.2-24.5s22.6-38.3,22.6-66v-255.3h113.4
			v255.3c0,37.6-8,70.5-23.9,98.8s-38.6,50.1-68.2,65.4c-29.5,15.3-64.1,22.9-103.8,22.9s-74.5-7.6-104.4-22.9
			c-30-15.3-53.1-37.1-69.4-65.4c-16.3-28.3-24.5-61.2-24.5-98.8v-255.3h113.4v255.3C314.9,2140.2,323,2162.1,339.1,2178.6z"/>
		<path class="st12" d="M609.3,1956.8h126.4l53.9,94.2l58.2-94.2h120.8l-106,163.6L976,2292H849l-59.5-102.2L723.2,2292H601.7
			l114-171.6L609.3,1956.8z"/>
	</g>
	<path class="st28" d="M52.3,1943.8c-8.4,1.2-16.1,6.9-19.7,14.6c16.8-0.5,33.6-1.1,50.5-1.6c19.9-0.6,39.9-1.3,59.7,1.3
		c0.8-2.6-0.9-5.3-3.2-6.7s-5-1.7-7.7-1.9c-9.6-0.8-19.3-1-29-0.5c-13.4,0.6-28,2.1-39.2-5.3c-2.8-1.8-5.5-4.2-8.8-4.1
		c-1.7,0-3.4,0.7-4.9,1.5c-5.7,2.8-10.2,10-14.7,14.5"/>
	<path class="st28" d="M612.3,1947.2c-1.7,1.6-3.4,3.2-5,4.8c-1.2,1.1-2.5,2.8-1.6,4.3c0.7,1.1,2.3,1.2,3.6,1.1
		c29.2-1.7,58.5-1.2,87.6,1.5c9.9,0.9,19.9,2.1,29.8,0.8c9.9-1.3,19.8-5.2,26.2-12.8c0.4-0.5,0.9-1.1,1-1.8c0.6-2.8-3.6-3.8-6.4-3.5
		c-43.3,4.2-86.9,5.2-130.4,3.1c-3-0.1-6.8,0.4-7.4,3.3"/>
	<path class="st28" d="M735.2,1958c4.8,5.1,8.3,11.4,11.6,17.6c12,22,23.9,44,35.9,66c1,1.8,2.5,3.8,4.5,3.5
		c1.2-0.2,2.1,6.3,2.8,5.3c5.1-6.8,13.9-24.2,19-31c-6-3-13.5-6.3-16.7-12.2c-9.1-16.7-18.2-33.5-27.3-50.2
		c-3.4-6.3-7.8-13.3-14.8-14.7c-3.8,6.1-9.3,11.2-15.6,14.5"/>
	<path class="st28" d="M962.1,2040.7c22.5-21.5,43.7-45.9,54.8-76.3c0.8-2.3,1.6-4.7,1.9-7.2c0.9-2-0.6-8.9,0.2-10.9l-0.1,7.7
		c-0.1-1.1-0.3-2.2-0.6-3.2c1-1.3,1.5-2.9,1.4-4.7c-0.5-6.4-8.7-8.5-15.1-8.8c-33.5-1.5-67.1-0.4-100.5,3.4
		c-18.2,2.1-37,5.1-52.4,15.2l110.7,0.8c0.4,0.1,0.8,0.1,1.2,0.2c-1.4,1.9-2.8,3.7-4.1,5.6c-31.8,43.7-57.7,92.1-82.6,141
		c-5.6,1.6-10.7,5.7-12.9,11.1c-6,7.9-2.9,20.3,1.1,30c16.5,40.4,39.6,77.7,67.9,109.6c11.2,12.6,23.5,24.6,38.3,31.7
		c14.8,7.1,32.5,8.7,46.9,0.9c-0.5-18.2-10-34.8-21.7-47.9s-25.6-23.5-38.1-35.8c-9.3-9.2-17.7-19.3-26.1-29.4
		c-4.3-5.2-8.8-10.7-11-17.3c-3.1-9.4-1.3-20.3-5.4-29.3c-2.1-4.7-5.7-8.5-9.4-11.9c-3.6-3.3-7.6-6.4-11.8-8.7
		c0.2-0.3,0.4-0.5,0.6-0.8C915.3,2081.5,939.6,2062.2,962.1,2040.7z"/>
	<path class="st30" d="M900.1,2184.1c-10.6-12.1-21.7-25.1-23.8-40.4c-1.5-10.8,1.6-22.3-3-32.3c-4.6-9.8-15.6-15.9-26.5-20.1
		c-24-9.2-50.9-12.2-76.7-8.4c-10.5,1.5-22.5,3.9-31-1.9c-4.3-2.9-6.9-7.6-11.4-10.3c-6.1-3.7-14.1-3.1-21.4-2.3
		c-22,2.3-44,4.6-66,6.8l2.8,7.6l-7.4-7.8c-17.5,7.6-38-5.7-57.3-3.2c-14.9,1.9-26.5,13.2-31.8,25.7s-5.4,26.3-5.5,39.6
		c-0.2,25.3-0.7,50.9-8.2,75.2c-7.5,24.4-23,47.7-47.3,60.8c-12.5,6.8-28.4,12-33,24.4c64.7-1.5,129.5,0.2,193.9,4.9
		c18,1.3,37.3,2.7,53-5.2c7.3-3.6,13.2-9,18.5-14.9c9.2,11.3,27.1,14.8,43,13.6c16.6-1.2,32.7-6.1,49.4-6.1
		c27.6,0,53.9,13.6,81.4,11.9c24.8-1.5,49.2-15.3,73-8.9c10.9,3,24.6,9.4,31.9,1.6C964.6,2257.7,932.3,2220.9,900.1,2184.1z"/>
	<path class="st31" d="M37.7,2276c-4,6.7-7.6,16.3-1.6,21.3c4.5,3.8,11.2,1.9,16.9,0.8c20-4,40.8,3.9,61,1.1
		c12.6-1.8,25.1-7.6,37.5-4.7c-5.1-2.6-8.9-7.8-9.8-13.5c-0.2-1.4-0.3-2.9-1.4-3.9c-1-0.9-2.4-1-3.7-1c-21.1-0.2-42.6,5.9-62.9,0.2
		c-3.6-1-7.1-2.4-10.8-3c-10.7-1.8-22.2,3.7-27.6,13.1"/>
	<path class="st31" d="M484.8,2121.1c-8.4,20.2-17.2,41-32.5,56.6c-19.7,20.1-49.7,29.5-77.3,24.2c9,12.7,26.2,16.6,41.8,16.6
		c24.8,0,50.8-8.2,66.8-27.2s18.4-50,1.3-68c-0.7,2-1.4,4-2.1,6"/>
	<path class="st28" d="M139.9,1935.7c-0.1,0-0.1-0.1-0.2-0.1c-1.5-0.9-2.9-1.9-4.3-3.1c-13.7-1.4-27.6-2.6-41.2-0.7
		c-8.7,1.2-17.4,3.6-26.2,3c-4.3-0.3-8.7-1.2-12.7,0.3c-3.2,1.2-5.7,4.9-5.1,8c-0.1,0.7-0.1,1.5,0,2.2c13.2,4,26.7,8.1,40.5,7.6
		c19.8-0.7,39.5-10.9,58.7-5.9c-2.1-2-2.7-5.3-3.7-8.1C143.8,1937.9,141.8,1936.9,139.9,1935.7z"/>
	<path class="st31" d="M-387.1,2010.9c-2.7,25-5.5,50-8.2,75.1c-1.3,12-2.6,24.3-0.4,36.2c4.7,25.1,24.1,44.6,42.5,62.3
		c10.4,9.9,21.3,20.2,35.1,24c18.2,5,37.3-2.1,54.8-9c14-5.6,28.1-11.2,42.1-16.8c15.2-6,32.7-15.1,34.2-31.4
		c-26.8,16.2-56.5,31.1-87.7,28.8c-29.4-2.2-56.4-20.1-73-44.5c-16.6-24.4-23.5-54.4-23.2-83.9c0.2-20.7,3.7-42.4-4.4-61.4
		c-12.6,6-19.3,22.1-14.8,35.3"/>
	<path class="st31" d="M-501.3,1756.8c-1.8,1.5-3.5,3-5.1,4.7c-1.5,1.7-3.1,3.4-4.6,5.1c-0.7,0.9-1.4,1.8-2.1,2.7
		c-0.8,1.6-1.7,3.1-2.6,4.6l2.1,139c2.2-3.6,5.3-6.5,9-8.4c6.5-3.3,14.1-3.3,21.1-5.2c11.9-3.3,21.7-12.3,28.5-22.7
		c6.8-10.4,10.9-22.2,15-33.9c0.7-1.9,1.3-3.9,0.8-5.8c-0.8-2.9-4-4.3-5.8-6.6c-4.2-5.5,0.3-13.3,4.7-18.7
		c10.6-13,21.1-26,31.7-38.9c1.7-2.1,3.4-4.2,5.8-5.4c7.4-3.7,18.5,2.5,23.5-4C-420.2,1764.1-460.9,1761.9-501.3,1756.8z"/>
	<path class="st31" d="M-88.4,1762.2c-1.2-1.8-2.4-3.7-3.7-5.5c4.1,6,4.2,15,4.1,23.2c-0.7,59.3-1.4,118.5-2.1,177.8
		c7-1.2,9-13.2,9.1-22.4c0.9-51.2,1.8-102.4,2.6-153.5c0.1-7.2,0.8-15.8,5.6-19.5c2.1-1.6,4.6-2,7-2.2c7.5-0.7,15-0.7,22.5,0.1
		c-8.8-4.3-18.5-4.4-28-4.4c-7,0-14-0.1-21.1-0.1c-1.2,0-2.5,0-3.4,0.9c-1,0.9-1.4,3.1-0.4,4c0.9,0.9,2.5-1.3,1.6-2.2"/>
	<path class="st31" d="M75.1,1923c-4.2-7-8.6-15.5-5.1-22.9c4-8.4,15.2-9.7,23.1-14.6c8.8-5.5,13.6-16.8,11.4-27
		c-1.5-6.7-5.6-13.8-2.5-19.9c3.3-6.7,12.4-7.2,19.9-6.7c2.9,0.2,6,0.4,8.5,1.8c4.2,2.4,6,7.4,7.3,12c2.7,9.4,4.7,19,6.2,28.7
		c0.6,3.9,1.1,7.9,0.2,11.7c-0.9,4.2-3.5,8-6.3,11.2c-13.4,15.5-33.9,22.4-53.5,28.1c-1.5,0.4-3.2,0.9-4.7,0.4
		c-1.4-0.5-2.4-1.7-3.2-2.9c-3.4-4.9-5.7-10.5-6.6-16.4"/>
	<path class="st31" d="M41.3,1963.1c0.8,0.2-0.4,1.5-0.9,0.8c-0.5-0.7,0.1-1.6,0.6-2.2c8.2-8.8,24.9-6.7,30.7,3.8
		c2.7,5,3.1,10.9,3.3,16.5c1.8,36.2,3.1,72.5,3.9,108.8c0.6-43.4,1.2-86.8,1.8-130.3c5.6-0.1,11.2-0.2,16.8-0.3c1.4,0,2.9,0,4,0.9
		c1.1,0.9,1.4,2.5,1.6,3.9c0.9,5.5,1.7,11.1,2.6,16.6c4.9,0.9,6.8-6.5,11.3-8.6c1.7-0.8,3.7-0.8,5.6-1.1c6.6-0.9,12.7-5.4,15.3-11.6
		c-28.3-1.8-56.6-3.6-84.9-5.4c-6.6-0.4-15.8,1.5-15.4,8.1"/>
	<path class="st31" d="M-191.4,2293.2c51.2-15,103.8-37.7,133.9-81.9c20.5-30.2,28.3-67.4,29.8-103.9s-2.6-72.9-3.7-109.4
		c-8.2,72.2-26.5,146.7-74.3,201.4c-14.8,16.9-32.1,31.5-49.3,46c-32.8,27.6-69.1,56.7-111.9,58.1c69.7-1.1,138.7-26.8,192.2-71.5"
		/>
	<path class="st31" d="M-581.5,2320.1c5.1-24,26.2-43.8,50.5-47.3c7.5-1.1,15.8-1,21.8-5.6c4.5-3.4,6.8-8.8,10.1-13.4
		c8.3-11.8,22.5-18.6,36.8-20.4c14.3-1.9,28.9,0.7,42.8,4.3c18.1,4.7,35.7,11.3,52.5,19.7c24.5,12.2,47.6,28.2,74.3,34.1
		c50.8,11.3,102.6-16.3,154.5-13.2c22.9,1.4,45.1,8.7,68,10c18.3,1,36.6-1.9,54.9-1.6c18.3,0.3,37.6,4.2,51.1,16.5
		c-41.1,18.8-87.1,26.7-132.1,22.8c-15.2-1.3-30.4-4-45.6-2.9c-30.8,2.2-58.3,19.3-87.2,30.1c-20.5,7.7-42.2,12.2-64.1,13.4
		c-20.2,1.1-40.5-0.5-60.7-2.2c-29.4-2.4-58.8-4.9-88.2-7.3c-17.7-1.5-35.4-2.9-53-5.1c-30.8-3.7-61.3-9.4-92.3-10.9
		c-3.5-5,4-10.4,10-11.9c21.2-5.6,42.4-11.1,63.5-16.7c-27.4-7.9-55.4,21.8-82.7,13.5c2.2-6.5,9.2-11,16.1-10.3"/>
	<path class="st28" d="M605.4,2053.8c1.7,3.7,6.7,4.2,10.8,4c22.1-0.7,48.3,1.5,66.8,13.6c-17,2.4-36.6,2.3-53.7,4.6
		c-7.5,1-15.7,2-22.1-2s-8.5-15-2-18.7"/>
	<path class="st31" d="M691.9,2294.1c35-12.7,65.6-37.1,85.8-68.4c1.7-2.6,3.4-5.4,6.2-6.7c2.6-1.3,5.8-1.1,8.7-0.6
		c33.6,5.8,52.4,41.7,81.6,59.3c5.9,3.6,12.9,7.2,14.6,13.9c-9.3,7.1-22.3,1.8-33.8-0.5c-12.3-2.5-25-1.1-37.4,0.3
		c-46.5,5.2-92.9,10.3-139.4,15.5c5.3-8.3,14.1-14.3,23.8-16.2"/>
	<path class="st19" d="M-501.6,1985.1c-0.8,18.6-1.5,37.2-2.3,55.9c-0.3,7.9,1,18.1,8.7,19.9c5.4,1.3,10.7-2.9,13.4-7.7
		c10.4-18.3-3.9-40.9-2.1-61.9c0.4-4.8,1.5-10.2-1.5-13.9c-4.4-5.4-14.2-1.6-16.4,4.9c-2.2,6.5,0.7,13.8,4.3,19.7"/>
	<path class="st19" d="M-401.9,1788.1c-2.9-2.1-6.5,1.7-7.8,5c-2.5,6.3-3.5,13.7-0.6,19.8c2.9,6.2,10.5,10.3,16.8,7.7
		c5.9-2.5,8.3-9.6,8.6-16c0.3-7.4-2.3-15.8-9-19c-6.7-3.1-16.6,3.6-13.8,10.5"/>
	<ellipse class="st19" cx="-484.4" cy="2117.1" rx="6.7" ry="16.7"/>
	<circle class="st19" cx="-494.9" cy="1776.3" r="8.6"/>
	<circle class="st19" cx="-38.3" cy="2002.2" r="7.6"/>
	<circle class="st19" cx="-161.2" cy="2254.8" r="14.3"/>
	<ellipse class="st19" cx="-134.1" cy="1778.7" rx="12.9" ry="6.2"/>
	<circle class="st19" cx="-33.5" cy="1762" r="4.8"/>
	<circle class="st19" cx="-335.2" cy="2247.7" r="7.1"/>
	<ellipse class="st19" cx="-526.8" cy="2289.1" rx="11" ry="2.9"/>
	<ellipse class="st19" cx="-430.1" cy="2251" rx="18.1" ry="3.8"/>
	<ellipse class="st19" cx="-108.3" cy="2310.1" rx="12.9" ry="6.7"/>
	<circle class="st19" cx="-9.2" cy="2303" r="1.4"/>
	<ellipse class="st31" cx="-457.7" cy="2337.8" rx="0" ry="9.5"/>
	<circle class="st31" cx="-400.5" cy="1943.1" r="11.4"/>
	<circle class="st31" cx="-448.7" cy="2195.2" r="9.1"/>
	<circle class="st31" cx="-51.6" cy="1803" r="18.1"/>
	<ellipse class="st31" cx="55.2" cy="2041.8" rx="0" ry="11.9"/>
	<circle class="st31" cx="120.9" cy="2160.5" r="9.5"/>
	<circle class="st28" cx="73.7" cy="2261" r="13.8"/>
	<ellipse class="st28" cx="-384.3" cy="1872.1" rx="4.8" ry="15.7"/>
	<ellipse class="st28" cx="-351.9" cy="2232.9" rx="16.2" ry="14.3"/>
	<circle class="st28" cx="-100.7" cy="2204.8" r="5.2"/>
	<circle class="st28" cx="-136.9" cy="1821.6" r="10"/>
	<circle class="st28" cx="-47.3" cy="1892.1" r="4.3"/>
	<circle class="st28" cx="-150.8" cy="2000.3" r="3.8"/>
	<circle class="st28" cx="-62.6" cy="2083.7" r="7.1"/>
	<circle class="st28" cx="-234.2" cy="2264.8" r="4.3"/>
	<circle class="st28" cx="110" cy="2019.8" r="10"/>
	<circle class="st31" cx="109" cy="1854.9" r="16.7"/>
	<ellipse class="st32" cx="-477.7" cy="1901.6" rx="13.3" ry="13.8"/>
	<circle class="st32" cx="-428.6" cy="1985.5" r="11"/>
	<ellipse class="st32" cx="-47.3" cy="1960.3" rx="4.3" ry="24.8"/>
	<circle class="st32" cx="71.4" cy="1847.8" r="16.2"/>
	<circle class="st32" cx="259.6" cy="2099" r="15.7"/>
	<path class="st28" d="M337.9,2196.9c26.4,12.6,50.3,30.2,77,42c43.2,19.2,91.5,22.8,138.6,26c60.5,4.2,121.1,8.4,181.6,12.5
		c-40.2,32.5-97.6,29.4-149.1,24.6c-59.8-5.6-119.7-11.2-179.5-16.8c-15.5-1.4-31.3-3-45.6-9.2c-30.1-13.2-47.9-44.9-75.8-62.2
		c18.4-4.8,36.9-9.6,55.3-14.4"/>
	<circle class="st32" cx="60.9" cy="2205.3" r="10.5"/>
	<ellipse class="st32" cx="130.5" cy="2050.8" rx="4.8" ry="21"/>
	<ellipse class="st32" cx="-377.2" cy="2298.2" rx="34.8" ry="5.2"/>
	<ellipse class="st32" cx="-167" cy="2303" rx="12.4" ry="3.3"/>
	<circle class="st32" cx="-142.2" cy="2119.5" r="4.8"/>
	<ellipse class="st32" cx="284.9" cy="1909.3" rx="9.5" ry="26.2"/>
	<circle class="st32" cx="289.7" cy="2214.8" r="4.8"/>
	<circle class="st32" cx="554.2" cy="1914" r="5.2"/>
	<circle class="st32" cx="476.5" cy="2225.3" r="7.6"/>
	<circle class="st32" cx="417.4" cy="2271" r="6.7"/>
	<path class="st32" d="M483.9,1931.6c-0.7,1-0.9-1.5,0.4-1.8c7.2-1.4,10.8,8.3,11.2,15.6c1.7,32.9-2.9,66.2,2.5,98.8
		c0.9,5.2,2,10.4,2.4,15.7c1.1,15.2-4.2,30.2-11.1,43.8c-3.4-22.9-6.8-46.2-4.2-69.2c0.8-7.2,2.2-14.4,2.6-21.7
		c0.5-9.4-0.6-18.7-1.8-28c-2-15.9-3.9-31.8-5.9-47.7c-0.4-3.3,2.4-8.2,4.5-5.7"/>
	<g>
		<path class="st32" d="M-145.7,1891.6c0.9,18.3,1.9,36.5,2.8,54.8c0.1,1.5,2.6,2.1,2.8,0.4c2.8-19.5,2.5-39.2-1.1-58.7
			c-0.3-1.7-2.7-1.1-2.8,0.4c-1.3,17.1-0.7,34.2,2,51.1c0.3,1.8,3,1,2.8-0.8c-2.6-16.7-3.2-33.5-1.9-50.3c-0.9,0.1-1.9,0.3-2.8,0.4
			c3.5,18.9,3.8,38.1,1.1,57.1c0.9,0.1,1.9,0.3,2.8,0.4c-0.9-18.3-1.9-36.5-2.8-54.8C-142.9,1889.8-145.8,1889.8-145.7,1891.6
			L-145.7,1891.6z"/>
	</g>
	<circle class="st19" cx="241.5" cy="1957.9" r="12.9"/>
	<circle class="st19" cx="226.3" cy="1881.6" r="6.2"/>
	<ellipse class="st19" cx="561.4" cy="2192.9" rx="7.6" ry="22.9"/>
	<circle class="st31" cx="578.5" cy="1950.7" r="9.5"/>
	<path class="st31" d="M149.5,2314.9c45.7-24.7,59.9-43.4,91.8-84.3c11.4-14.5,23.4-31.1,41.5-34.6c20.2-4,39.6,10.3,52.5,26.4
		c7.4,9.3,14,19.7,24,26.1s25,7.2,32.5-2c20.5,9.2,40.9,18.4,61.4,27.6c11.5,5.2,23.5,10.5,36.1,9.7c13.3-0.8,25.4-8.2,38.6-10.3
		c14.2-2.3,28.5,1.7,42.5,4.8c42.4,9.3,86.1,10.2,129.4,11.2c19.4,0.4,38.9,0.8,58.3-1.1c23.5-2.3,46.6-7.9,70.1-10.2
		c58.6-5.7,117,9.7,173.9,24.9c-80.8,6.9-161.7,13.9-242.8,14.2c-147.1,0.6-294.6-20.5-440.8-4.9c-19.6,2.1-39.2,4.8-58.9,4.6
		c-40.5-0.5-82.6-13.3-120.6,0.7"/>
	
		<ellipse transform="matrix(0.9188 -0.3947 0.3947 0.9188 -860.5417 292.845)" class="st28" cx="281.5" cy="2238.1" rx="12.9" ry="12.9"/>
	<ellipse class="st28" cx="833.1" cy="2279.6" rx="27.6" ry="10.5"/>
	<ellipse class="st28" cx="226.8" cy="2300.1" rx="14.3" ry="14.8"/>
	<circle class="st19" cx="617.6" cy="2111.8" r="12.4"/>
	<ellipse class="st19" cx="888.3" cy="2011.7" rx="0" ry="11.4"/>
	<ellipse class="st19" cx="888.8" cy="2224.3" rx="13.8" ry="14.3"/>
	<circle class="st19" cx="733.9" cy="1980.3" r="9.5"/>
	<circle class="st32" cx="713.4" cy="2221" r="11"/>
	<ellipse class="st32" cx="762" cy="2106.1" rx="8.1" ry="15.3"/>
	<ellipse class="st32" cx="881.7" cy="2025.1" rx="6.7" ry="22.9"/>
	<ellipse class="st32" cx="590.9" cy="2254.4" rx="21.9" ry="7.1"/>
	<circle class="st32" cx="572.8" cy="2048" r="5.7"/>
	<circle class="st31" cx="682" cy="1997.9" r="4.3"/>
	<circle class="st31" cx="851.2" cy="2151.9" r="18.1"/>
	<circle class="st31" cx="611.4" cy="2187.6" r="6.2"/>
	<ellipse class="st31" cx="679.6" cy="2136.1" rx="1.9" ry="2.4"/>
	<circle class="st31" cx="685.3" cy="2272.9" r="4.8"/>
	<g>
		<path class="st28" d="M-5.9,1747.8c1.7,7.9,0.5,16.6,0,24.6c-0.5,8.5-1,17.1-1.5,25.6c-1,17.1-2.1,34.2-3.2,51.2
			c-2.1,33.8-3.9,67.7-4.9,101.5c-0.2,9.1-1.2,18.6-0.1,27.6c0.9,7.7,3.6,14.9,6.8,22c0.8,1.7,3.2,0.2,2.5-1.4
			c-3.3-7.3-6.1-14.9-6.6-23c-0.6-8.3,0.1-16.8,0.3-25.2c0.5-16.8,1.1-33.5,2-50.3c1.7-33.5,3.9-67.1,6-100.6
			c0.6-9.2,1.1-18.3,1.6-27.5c0.5-8.3,1.7-17.1-0.1-25.3C-3.5,1745.3-6.3,1746-5.9,1747.8L-5.9,1747.8z"/>
	</g>
	<path class="st28" d="M-8.6,1740.9l-4.8-0.4c-0.8,103.7-1.5,207.5-2.3,311.2c-0.3,44.8-0.8,90.7-16,132.9
		c-15.1,42.2-47.9,80.8-91.7,90.4c31.8,18.5,74.9-0.8,94.8-31.8c19.9-30.9,22.7-69.5,24.4-106.3c6-131.5,5.6-263.4-1.2-394.9
		C-6.4,1741.6-7.5,1741.2-8.6,1740.9z"/>
	<path class="st28" d="M171.3,2023c-0.9-23.2-1.9-47-10.7-68.4c-1.5-3.7-3.3-7.4-5.3-10.9c-3.1-1.7-6.3-3.1-9.5-4.7
		c6.5,19.8,10.6,40.4,12.1,61.2c1.4,20.7,0.3,41.5-0.5,62.3c-3,76-1.3,152.3,5,228.1C178.2,2202.5,174.8,2112.4,171.3,2023z"/>
	<path class="st28" d="M611.5,1849c-1.3-2.3,2.7-4.5,4.8-2.9c2.1,1.5,2.4,4.5,2.4,7.1c0.8,25.5,1.6,51,2.4,76.6
		c0.2,7.7,0.4,15.8-3.4,22.5c-1.7,3-4.2,5.7-5.5,8.9c-2.5,6.4,0.1,13.5,2.4,19.9c9.5,27.2,12.9,56.6,9.8,85.2
		c-12.5,3.8-23.6-10.7-24.1-23.8c-0.5-13.1,5-25.7,4.9-38.8c-0.1-11.5-4.7-22.5-6.3-33.9c-1.5-10.6-0.5-21.4,0.6-32
		c2.4-24.6,4.8-49.3,7.3-73.9"/>
	<g>
		<path class="st28" d="M-381.5,1745l-110.5,7.8c11.2,3.6,22.4,7.2,33.7,10.8c4.3,1.4,8.7,2.8,13.3,3c5.3,0.2,10.4-1.2,15.5-2.7
			c15.1-4.3,30.2-8.5,45.3-12.8c-5.8-0.2-11.6-0.2-17.5-0.3C-394.9,1748.9-388.2,1746.9-381.5,1745z M-422.1,1753.5
			c-0.7,0.3-1.5,0.7-2.2,1c-0.4,0.1-0.8,0.2-1.1,0.3c-0.2,0.1-0.4,0.3-0.6,0.4c-0.5,0.2-1.1,0.5-1.6,0.7c0.3-0.1,0.7-0.2,1-0.3
			c-0.1,0-0.1,0.1-0.2,0.1c-0.5,0.1-1,0.3-1.4,0.4c-0.9,0.4-1.8,0.8-2.7,1.2c-0.1,0-0.2,0.1-0.3,0.1c0.2-0.2,0.4-0.3,0.6-0.5
			c-0.4,0.1-0.8,0.3-1.2,0.4c0.1,0.1,0.2,0.1,0.3,0.2c-0.3,0.1-0.6,0.2-0.8,0.3c0.1-0.1,0.1-0.3,0.2-0.4c-0.3,0.1-0.5,0.2-0.8,0.3
			c0.3-0.1,0.5-0.2,0.8-0.3c0-0.1,0.1-0.2,0.1-0.2c0.1,0,0.1,0.1,0.2,0.1c0.4-0.2,0.8-0.3,1.3-0.5c0.4-0.3,0.8-0.7,1.2-1
			c-0.8,0.2-1.6,0.5-2.3,0.7c0.1-0.2,0.2-0.4,0.3-0.6c1-0.4,1.9-0.8,2.9-1.2c0.5-0.1,1-0.2,1.4-0.4c0.9-0.4,1.8-0.8,2.7-1.1
			C-423.7,1753.5-422.9,1753.5-422.1,1753.5z M-434.6,1757.5c0.5-0.2,1-0.5,1.5-0.7c0.1,0,0.2,0.1,0.3,0.1
			C-433.4,1757.2-434,1757.3-434.6,1757.5z M-433.3,1756.7c-0.5,0.2-1,0.4-1.6,0.6c0.4-0.3,0.8-0.5,1.1-0.8
			C-433.6,1756.6-433.4,1756.7-433.3,1756.7z M-449.1,1760.9c-0.1,0-0.2,0.1-0.3,0.1c-1.1-0.4-2.2-0.9-3.2-1.5
			C-451.4,1759.9-450.2,1760.4-449.1,1760.9z M-426.9,1761.8c2.7-0.8,5.4-1.6,8.1-2.4c-3.4,1.3-6.8,2.5-10.3,3.5
			C-428.4,1762.5-427.6,1762.2-426.9,1761.8z M-424.6,1758.5c1.2-0.6,2.3-1.3,3.4-2.1c1.1-0.3,2.2-0.6,3.3-1c-2.1,1-4.1,2-6.2,3.1
			C-424.3,1758.5-424.5,1758.5-424.6,1758.5z M-460.1,1759.4c2.4,0.7,4.7,1.3,7.1,2c-0.7-0.5-1.4-1-2.1-1.4c1.5,0.5,3,0.9,4.5,1.4
			c-0.1,0-0.1,0-0.2,0.1c0.3,0,0.6,0.1,0.9,0.1c0.3,0.1,0.5,0.1,0.8,0.2C-453,1762.5-457.1,1761.8-460.1,1759.4z M-413.9,1757.3
			c-1.3,0.2-2.6,0.5-3.9,0.7c3.4-1.3,6.9-2.5,10.3-3.8C-409.6,1755.3-411.7,1756.4-413.9,1757.3z M-408.6,1753.5c-0.8,0-1.6,0-2.4,0
			c0.1,0,0.1,0,0.2,0C-410.1,1753.4-409.4,1753.4-408.6,1753.5z"/>
		<path class="st28" d="M-436.6,1764.7c0.1,0,0.2-0.1,0.3-0.1h-0.1C-436.4,1764.7-436.5,1764.7-436.6,1764.7z"/>
		<path class="st28" d="M-430.6,1758.4L-430.6,1758.4h-0.1C-430.7,1758.4-430.7,1758.4-430.6,1758.4z"/>
		<path class="st28" d="M-431.3,1755.8c0,0,0-0.1,0.1-0.1s0.2,0,0.3-0.1C-431.1,1755.6-431.2,1755.7-431.3,1755.8z"/>
		<path class="st28" d="M-435,1764.3c0.2,0,0.4,0,0.5-0.1c-0.3,0.1-0.6,0.1-0.9,0.2C-435.2,1764.4-435.1,1764.3-435,1764.3z"/>
		<path class="st28" d="M-414.2,1753.6c-0.1,0-0.2,0-0.3,0s-0.1,0-0.2,0c0.1,0,0.1-0.1,0.2-0.1
			C-414.4,1753.5-414.2,1753.5-414.2,1753.6C-414.1,1753.6-414.2,1753.6-414.2,1753.6z"/>
		<path class="st28" d="M-427.1,1754.6c-0.8,0.4-1.6,0.9-2.3,1.4c1.3-0.4,2.6-0.8,3.9-1.2c0.4-0.3,0.9-0.6,1.3-1
			C-425.2,1754.1-426.2,1754.4-427.1,1754.6z"/>
		<path class="st28" d="M-430.7,1757c0.8-0.3,1.6-0.5,2.4-0.8c0.2-0.1,0.4-0.2,0.6-0.3C-428.7,1756.3-429.7,1756.6-430.7,1757
			L-430.7,1757z"/>
		<path class="st28" d="M-432.2,1757.5C-432.2,1757.6-432.2,1757.6-432.2,1757.5c0.1,0,0.2-0.1,0.3-0.1l0,0
			C-432,1757.5-432.1,1757.5-432.2,1757.5z"/>
	</g>
	<path class="st28" d="M-126.8,1756c6.9-2.9,14.5,1.6,20.4,6.2s12.6,9.9,20,8.5c2.8-0.5,5.3-2,7.8-3.3c11.8-6.3,24.6-10.7,37.8-12.8
		c-26.9-1.3-53.9-1.6-80.8-0.9"/>
	<path class="st28" d="M281.2,2004.7c-6,7.6-7,18-6.6,27.7c0.6,13.1,3.5,26.2,8.4,38.4c7.6-8,9.1-20,8.3-31
		c-0.8-11-3.4-21.9-2.6-32.9c0.4-5.6,1.8-11,2.3-16.6c1.2-12.3-1.5-25-7.6-35.8c-3.7,10.6-1.2,22.1-0.4,33.3
		c0.8,12-0.5,24.2-3.7,35.8"/>
	<g>
		<path class="st28" d="M670,2107.4c-1.3,10.2-2.7,20.5-4,30.7c-0.2,1.2,1.3,1.6,2.2,1.2c5.3-2.5,5.6-8.8,5.5-13.9
			c-0.2-10.3-0.4-20.6-0.6-30.9c0-1.8-2.8-1.8-2.9,0c-0.5,15-1,30-1.6,45.1c-0.1,1.8,2.8,1.8,2.9,0c0.5-15,1-30,1.6-45.1
			c-1,0-1.9,0-2.9,0c0.2,7.8,0.3,15.6,0.5,23.4c0.1,5.4,2.1,16.1-3.9,18.9c0.7,0.4,1.4,0.8,2.2,1.2c1.3-10.2,2.7-20.5,4-30.7
			C673.1,2105.5,670.2,2105.6,670,2107.4L670,2107.4z"/>
	</g>
	<g>
		<path class="st28" d="M831.9,2231.4c12.5,11,24.9,22.1,37.4,33.1c0.7-0.7,1.3-1.3,2-2c-11.8-10.3-23.6-20.6-35.4-30.9
			c-1.4-1.2-3.4,0.8-2,2c11.8,10.3,23.6,20.6,35.4,30.9c1.4,1.2,3.4-0.8,2-2c-12.5-11-24.9-22.1-37.4-33.1
			C832.6,2228.1,830.5,2230.2,831.9,2231.4L831.9,2231.4z"/>
	</g>
	<circle class="st28" cx="563.3" cy="2088" r="9.5"/>
	<circle class="st28" cx="501.8" cy="1874" r="5.2"/>
	<circle class="st28" cx="660" cy="2259.1" r="5.2"/>
	<circle class="st28" cx="715.3" cy="2062.7" r="2.4"/>
	<circle class="st19" cx="927.4" cy="1980.3" r="9.5"/>
	<ellipse class="st19" cx="236.8" cy="2193.3" rx="4.3" ry="11.9"/>
	<ellipse class="st19" cx="306.4" cy="2120.4" rx="1.4" ry="49.6"/>
	<ellipse class="st19" cx="509.9" cy="2034.6" rx="2.9" ry="104.9"/>
	<circle class="st19" cx="676.2" cy="2023.7" r="4.3"/>
	<circle class="st19" cx="707.7" cy="2235.3" r="5.2"/>
	<circle class="st19" cx="782.5" cy="2254.8" r="3.8"/>
	<circle class="st19" cx="313.5" cy="2273.9" r="5.7"/>
	<circle class="st19" cx="463.6" cy="2295.3" r="2.4"/>
	<circle class="st19" cx="896.9" cy="2299.6" r="1.9"/>
	<circle class="st19" cx="549.4" cy="2285.8" r="0.5"/>
	<circle class="st19" cx="942.2" cy="2269.6" r="5.2"/>
	<circle class="st19" cx="844" cy="2069.4" r="1.4"/>
	<g>
		<path class="st28" d="M965.4,2010.1c-33.4,44.3-49,101.6-42.6,156.7c-24-8.2-36.9-37.1-31.7-61.8s25.2-44.6,48.2-55.1
			c-8.5,8.6,6.4-13.1,9.6-1.4"/>
	</g>
</g>
<g>
	<g class="st33">
		<g class="st33">
			<g>
				<defs>
					<path id="SVGID_1_" d="M551.1,1032.5l-46.8,54.1c-0.4,0.6-1,1.1-1.4,1.7c-19.6,21.7-45.6,32.3-78.1,32.2
						c-33.1-0.2-60.8-11.2-82.9-33.3c-22.1-22-33.7-51.3-34.7-87.5l46.8-54.1c1,36.2,12.5,65.5,34.7,87.5
						c22.1,22,49.7,33.2,82.9,33.3c32.5,0.2,58.7-10.6,78.1-32.2C550.1,1033.6,550.6,1033.1,551.1,1032.5z"/>
				</defs>
				<clipPath id="SVGID_2_">
					<use xlink:href="#SVGID_1_"  style="overflow:visible;"/>
				</clipPath>
				<g class="st34">
					<path class="st35" d="M307.1,999.8l46.8-54.1c1,36.2,12.5,65.5,34.7,87.5c0.3,0.3,0.7,0.7,1,1l-46.8,54.1c-0.3-0.3-0.7-0.7-1-1
						C319.6,1065.3,308.1,1036.1,307.1,999.8"/>
					<path class="st36" d="M342.8,1088.3l46.8-54.1c3.8,3.7,7.8,7,11.8,10.1l-46.8,54.1C350.6,1095.4,346.6,1092.1,342.8,1088.3"/>
					<path class="st37" d="M354.6,1098.4l46.8-54.1c3.1,2.3,6.5,4.6,9.9,6.5l-46.8,54.1C361.1,1103,357.8,1100.9,354.6,1098.4"/>
					<path class="st38" d="M364.5,1105l46.8-54.1c3,1.8,6.1,3.4,9.2,4.9l-46.8,54.1C370.5,1108.4,367.5,1106.7,364.5,1105"/>
					<path class="st39" d="M373.7,1109.8l46.8-54.1c3,1.4,6.1,2.7,9.2,3.8l-46.8,54.1C379.7,1112.6,376.7,1111.3,373.7,1109.8"/>
					<path class="st40" d="M383,1113.7l46.8-54.1c3.1,1.1,6.5,2.2,9.7,3l-46.8,54.1C389.4,1115.8,386.1,1114.8,383,1113.7"/>
					<path class="st41" d="M392.7,1116.7l46.8-54.1c3.6,0.9,7.2,1.6,11,2.3l-46.8,54.1C399.9,1118.4,396.3,1117.6,392.7,1116.7"/>
					<path class="st42" d="M403.7,1119l46.8-54.1c4.3,0.6,8.6,1.2,13,1.4l-46.8,54.1C412.2,1120.1,407.8,1119.7,403.7,1119"/>
					<path class="st43" d="M416.7,1120.5l46.8-54.1c2.7,0.2,5.3,0.2,8.1,0.3c2.8,0,5.5,0,8.2-0.2l-46.8,54.1
						c-2.7,0.1-5.4,0.3-8.2,0.2S419.2,1120.5,416.7,1120.5"/>
					<path class="st44" d="M432.8,1120.5l46.8-54.1c6.1-0.4,12-1.1,17.5-2.2l-46.8,54.1C444.7,1119.4,438.9,1120.1,432.8,1120.5"/>
					<path class="st45" d="M450.4,1118.3l46.8-54.1c18.1-3.7,33.6-11.6,46.5-23.8l-46.8,54.1
						C483.9,1106.6,468.4,1114.6,450.4,1118.3"/>
					<path class="st44" d="M496.9,1094.4l46.8-54.1c2-1.9,4-3.9,5.9-6c0.6-0.6,1-1.1,1.4-1.7l-46.8,54.1c-0.4,0.6-1,1.1-1.4,1.7
						C500.9,1090.5,498.9,1092.5,496.9,1094.4"/>
				</g>
			</g>
		</g>
		<g class="st33">
			<g>
				<defs>
					<path id="SVGID_3_" d="M675,1116l-46.8,54.1c9.8-11.3,18.3-23.8,25.6-37.4c20.2-37.6,29.5-81.3,28.2-131.3l46.8-54.1
						c1.4,50-8,93.8-28.2,131.3C693.3,1092.2,684.8,1104.6,675,1116z"/>
				</defs>
				<clipPath id="SVGID_4_">
					<use xlink:href="#SVGID_3_"  style="overflow:visible;"/>
				</clipPath>
				<g class="st46">
					<path class="st35" d="M682.1,1001.4l46.8-54.1c1.4,50-8,93.8-28.2,131.3c-7.3,13.6-15.9,26.1-25.6,37.4l-46.8,54.1
						c9.8-11.3,18.3-23.8,25.6-37.4C674.1,1095.2,683.5,1051.4,682.1,1001.4"/>
				</g>
			</g>
		</g>
		<g>
			<polygon class="st47" points="146.1,659.5 192.9,605.4 344.4,606.1 297.6,660.2 			"/>
		</g>
		<g>
			<polygon class="st48" points="297.6,660.2 344.4,606.1 353.9,945.6 307.1,999.8 			"/>
		</g>
		<g>
			<polygon class="st48" points="672.6,661.8 719.4,607.7 728.9,947.3 682.1,1001.4 			"/>
		</g>
		<g>
			<polygon class="st47" points="521.1,661.2 567.9,607 719.4,607.7 672.6,661.8 			"/>
		</g>
		<g>
			<path class="st49" d="M672.6,661.8l9.5,339.6c1.4,50-8,93.8-28.2,131.3c-20.2,37.6-49.8,66.5-88.7,86.6
				c-38.9,20.1-84.8,30.1-137.8,29.9c-53-0.2-99.8-10.6-140.3-31.1c-40.6-20.5-72.3-49.6-95.2-87.4c-22.9-37.7-35-81.6-36.4-131.7
				l-9.5-339.6l151.5,0.7l9.5,339.6c1,36.2,12.5,65.5,34.7,87.5c22.1,22,49.7,33.2,82.9,33.3c32.5,0.2,58.7-10.6,78.1-32.2
				c19.6-21.6,28.8-50.8,27.7-87.6l-9.5-339.6L672.6,661.8z"/>
		</g>
	</g>
	<g class="st33">
		<g>
			<polygon class="st47" points="743.5,911.1 790.2,856.8 898.3,857.3 851.5,911.5 			"/>
		</g>
		<g>
			<polygon class="st48" points="851.5,911.5 898.3,857.3 907.5,1186.2 860.7,1240.4 			"/>
		</g>
		<g>
			<polygon class="st49" points="752.6,1239.9 743.5,911.1 851.5,911.5 860.7,1240.4 			"/>
		</g>
	</g>
	<g class="st33">
		<g class="st33">
			<g>
				<defs>
					<path id="SVGID_5_" d="M749.3,778.3l46.8-54.1c0.8-0.9,1.6-1.7,2.3-2.5c10.5-10.7,24.1-16,40.7-16c16.7,0,30.6,5.5,41.7,16.3
						c11.1,10.8,16.9,24.7,17.3,41.7c0.4,15.5-3.9,28.5-13,39.1L838.4,857c9.1-10.6,13.4-23.6,13-39.1c-0.4-17-6.3-30.9-17.3-41.7
						c-11.1-10.8-25-16.2-41.7-16.3c-16.7,0-30.3,5.3-40.7,16C750.7,776.6,749.9,777.5,749.3,778.3z"/>
				</defs>
				<clipPath id="SVGID_6_">
					<use xlink:href="#SVGID_5_"  style="overflow:visible;"/>
				</clipPath>
				<g class="st50">
					<path class="st44" d="M749.3,778.3l46.8-54.1c0.8-0.9,1.6-1.7,2.3-2.5c0.6-0.6,1.1-1.1,1.7-1.6l-46.8,54.1
						c-0.6,0.6-1.1,1-1.7,1.6C750.7,776.6,749.9,777.5,749.3,778.3"/>
					<path class="st45" d="M753.2,774.1L800,720c7.1-6.6,15.6-11,25.4-13l-46.8,54.1C768.8,763.2,760.3,767.5,753.2,774.1"/>
					<path class="st44" d="M778.6,761.1l46.8-54.1c3-0.6,6.1-1,9.4-1.2L788,760C784.7,760.1,781.6,760.6,778.6,761.1"/>
					<path class="st43" d="M788,760l46.8-54.1c1.5-0.1,2.9-0.1,4.4-0.1c1.5,0,2.8,0.1,4.1,0.1l-46.8,54.1c-1.3-0.1-2.8-0.1-4.1-0.1
						C790.9,759.8,789.4,759.9,788,760"/>
					<path class="st42" d="M796.5,760l46.8-54.1c2.3,0.1,4.6,0.4,6.7,0.7l-46.8,54.1C801,760.4,798.7,760.1,796.5,760"/>
					<path class="st41" d="M803.2,760.8l46.8-54.1c1.9,0.3,3.8,0.7,5.6,1.2L808.8,762C807,761.4,805.1,761,803.2,760.8"/>
					<path class="st40" d="M808.8,761.9l46.8-54.1c1.7,0.4,3.4,1,5,1.5l-46.8,54.1C812.2,762.9,810.5,762.3,808.8,761.9"/>
					<path class="st39" d="M813.8,763.4l46.8-54.1c1.6,0.6,3.1,1.2,4.7,2l-46.8,54.1C817,764.6,815.4,764.1,813.8,763.4"/>
					<path class="st38" d="M818.5,765.4l46.8-54.1c1.6,0.8,3.1,1.5,4.7,2.4l-46.8,54.1C821.7,767,820.1,766.2,818.5,765.4"/>
					<path class="st37" d="M823.1,767.8l46.8-54.1c1.7,1,3.4,2.1,4.9,3.3l-46.8,54.1C826.5,770,824.9,768.8,823.1,767.8"/>
					<path class="st36" d="M828.2,771.2L875,717c2,1.6,3.9,3.2,5.8,5l0,0L834,776.2l0,0C832.1,774.4,830.2,772.7,828.2,771.2"/>
					<path class="st35" d="M834,776.2l46.8-54.1c11,10.8,16.8,24.6,17.3,41.6c0.4,15.5-3.9,28.5-13,39.1l-46.8,54.1
						c9.1-10.6,13.4-23.6,13-39.1C850.8,800.9,845,787,834,776.2"/>
				</g>
			</g>
		</g>
		<g>
			<path class="st51" d="M795.5,875.4c-16.7,0-30.6-5.5-41.7-16.6c-11.1-11-16.9-24.7-17.3-41.4c-0.4-17,4.5-30.9,15-41.6
				c10.5-10.7,24.1-16,40.7-16c16.7,0,30.6,5.5,41.7,16.3c11.1,10.8,16.9,24.7,17.3,41.7c0.4,16.7-4.5,30.3-15,41.2
				C825.8,870,812.2,875.5,795.5,875.4z"/>
		</g>
	</g>
	<g class="st33">
		<g class="st33">
			<g>
				<defs>
					<path id="SVGID_7_" d="M1217.2,1075.4l-46.8,54.1c-0.3,0.4-0.8,0.8-1.1,1.2c-14.5,16-33.6,23.9-57.7,23.8
						c-24.4-0.1-44.8-8.3-61.1-24.6c-16.3-16.2-24.9-37.8-25.6-64.5l46.8-54.1c0.7,26.7,9.3,48.3,25.6,64.5
						c16.3,16.2,36.7,24.5,61.1,24.6c24,0.1,43.2-7.8,57.7-23.8C1216.5,1076.1,1216.8,1075.7,1217.2,1075.4z"/>
				</defs>
				<clipPath id="SVGID_8_">
					<use xlink:href="#SVGID_7_"  style="overflow:visible;"/>
				</clipPath>
				<g class="st52">
					<path class="st35" d="M1024.9,1065.4l46.8-54.1c0.7,26.7,9.3,48.3,25.6,64.5c0.2,0.2,0.4,0.4,0.8,0.8l-46.8,54.1
						c-0.2-0.2-0.4-0.4-0.8-0.8C1034.2,1113.7,1025.7,1092.1,1024.9,1065.4"/>
					<path class="st36" d="M1051.3,1130.7l46.8-54.1c2.8,2.7,5.7,5.2,8.8,7.4l-46.8,54.1C1057,1135.9,1054.1,1133.5,1051.3,1130.7"
						/>
					<path class="st37" d="M1059.9,1138.1l46.8-54.1c2.4,1.8,4.8,3.3,7.3,4.9l-46.8,54.1C1064.7,1141.6,1062.3,1139.9,1059.9,1138.1
						"/>
					<path class="st38" d="M1067.2,1143l46.8-54.1c2.2,1.3,4.5,2.5,6.8,3.5l-46.8,54.1C1071.7,1145.4,1069.5,1144.3,1067.2,1143"/>
					<path class="st39" d="M1074.1,1146.6l46.8-54.1c2.2,1,4.5,2,6.8,2.8l-46.8,54.1C1078.5,1148.5,1076.3,1147.7,1074.1,1146.6"/>
					<path class="st40" d="M1080.9,1149.4l46.8-54.1c2.4,0.9,4.7,1.5,7.2,2.2l-46.8,54.1C1085.6,1151,1083.2,1150.2,1080.9,1149.4"
						/>
					<path class="st41" d="M1088.1,1151.6l46.8-54.1c2.6,0.7,5.3,1.2,8.1,1.6l-46.8,54.1C1093.4,1152.8,1090.7,1152.3,1088.1,1151.6
						"/>
					<path class="st42" d="M1096.1,1153.3l46.8-54.1c3.1,0.5,6.4,0.9,9.6,1.1l-46.8,54.1C1102.5,1154.1,1099.3,1153.8,1096.1,1153.3
						"/>
					<path class="st43" d="M1105.7,1154.3l46.8-54.1c1.9,0.1,3.9,0.2,5.9,0.2c2,0,4,0,6-0.1l-46.8,54.1c-2,0.1-3.9,0.1-6,0.1
						C1109.7,1154.5,1107.6,1154.4,1105.7,1154.3"/>
					<path class="st44" d="M1117.6,1154.4l46.8-54.1c4.5-0.2,8.8-0.8,13-1.6l-46.8,54.1C1126.4,1153.6,1122.2,1154.1,1117.6,1154.4"
						/>
					<path class="st45" d="M1130.6,1152.7l46.8-54.1c13.3-2.8,24.8-8.6,34.4-17.5l-46.8,54.1C1155.3,1144.2,1144,1150,1130.6,1152.7
						"/>
					<path class="st44" d="M1164.9,1135.2l46.8-54.1c1.4-1.3,2.9-2.9,4.3-4.4c0.3-0.4,0.8-0.8,1.1-1.2l-46.8,54.1
						c-0.3,0.4-0.8,0.8-1.1,1.2C1167.9,1132.3,1166.5,1133.8,1164.9,1135.2"/>
				</g>
			</g>
		</g>
		<g class="st33">
			<g>
				<defs>
					<path id="SVGID_9_" d="M1308.5,1136.8l-46.8,54.1c7.2-8.3,13.6-17.5,19-27.6c14.8-27.7,21.8-59.9,20.7-96.8l46.8-54.1
						c1,36.9-5.9,69.1-20.7,96.8C1322.1,1119.3,1315.7,1128.5,1308.5,1136.8z"/>
				</defs>
				<clipPath id="SVGID_10_">
					<use xlink:href="#SVGID_9_"  style="overflow:visible;"/>
				</clipPath>
				<g class="st53">
					<path class="st35" d="M1301.6,1066.6l46.8-54.1c1,36.9-5.9,69.1-20.7,96.8c-5.4,10.1-11.8,19.3-19,27.6l-46.8,54.1
						c7.2-8.3,13.6-17.5,19-27.6C1295.5,1135.8,1302.5,1103.5,1301.6,1066.6"/>
				</g>
			</g>
		</g>
		<g>
			<polygon class="st47" points="906.1,814.5 952.9,760.2 1064.7,760.8 1017.9,814.9 			"/>
		</g>
		<g>
			<polygon class="st48" points="1017.9,814.9 1064.7,760.8 1071.7,1011.2 1024.9,1065.4 			"/>
		</g>
		<g>
			<polygon class="st48" points="1294.5,816.2 1341.3,761.9 1348.2,1012.4 1301.6,1066.6 			"/>
		</g>
		<g>
			<polygon class="st47" points="1182.8,815.6 1229.6,761.5 1341.3,761.9 1294.5,816.2 			"/>
		</g>
		<g>
			<path class="st54" d="M1294.5,816.2l7,250.5c1,36.9-5.9,69.1-20.7,96.8c-15,27.7-36.7,49-65.4,63.9
				c-28.7,14.9-62.6,22.2-101.7,22c-39-0.1-73.6-7.8-103.6-22.9s-53.3-36.6-70.1-64.4c-16.8-27.9-25.8-60.1-26.8-97l-7-250.5
				l111.7,0.4l7,250.5c0.7,26.7,9.3,48.3,25.6,64.5c16.3,16.2,36.7,24.5,61.1,24.6c24,0.1,43.2-7.8,57.7-23.8
				c14.5-16,21.3-37.5,20.5-64.6l-7-250.5L1294.5,816.2z"/>
		</g>
	</g>
	<g class="st33">
		<g>
			<polygon class="st48" points="1494.8,1142.8 1541.6,1088.7 1479,1188.6 1432.2,1242.9 			"/>
		</g>
		<g>
			<polygon class="st31" points="1564.9,1075 1611.7,1020.8 1728.1,1189.7 1681.3,1243.9 			"/>
		</g>
		<g>
			<polygon class="st47" points="1310.7,913.5 1357.5,859.2 1482,859.8 1435.2,914 			"/>
		</g>
		<g>
			<polygon class="st48" points="1435.2,914 1482,859.8 1537.7,952.5 1490.9,1006.6 			"/>
		</g>
		<g>
			<polygon class="st48" points="1664.8,915 1711.6,860.7 1611.7,1020.8 1564.9,1075 			"/>
		</g>
		<g>
			<polygon class="st47" points="1545.8,914.5 1592.6,860.2 1711.6,860.7 1664.8,915 			"/>
		</g>
		<g>
			<polygon class="st51" points="1664.8,915 1564.9,1075 1681.3,1243.9 1556.1,1243.4 1494.8,1142.8 1432.2,1242.9 1312.5,1242.3 
				1420.1,1074.4 1310.7,913.5 1435.2,914 1490.9,1006.6 1545.8,914.5 			"/>
		</g>
	</g>
</g>
</svg>
